<?xml version="1.0" encoding="utf-8"?>
<!-- Generator: Adobe Illustrator 19.0.0, SVG Export Plug-In . SVG Version: 6.00 Build 0)  -->
<svg version="1.1" id="Layer_1" xmlns="http://www.w3.org/2000/svg" xmlns:xlink="http://www.w3.org/1999/xlink" x="0px" y="0px"
	 viewBox="68 340.4 747.2 113.6" style="enable-background:new 68 340.4 747.2 113.6;" xml:space="preserve">
<style type="text/css">
	.st0{fill:#555555;}
</style>
<g>
</g>
<g>
	<path class="st0" d="M1582,550.7h-2.6v-0.9h6.2v0.9h-2.6v7.5h-1.1L1582,550.7L1582,550.7z"/>
	<path class="st0" d="M1593.7,554.5c-0.1-1.2-0.1-2.6-0.1-3.6l0,0c-0.3,1-0.6,2-1.1,3.2l-1.5,4.1h-0.8l-1.4-4
		c-0.4-1.2-0.7-2.3-1-3.3l0,0c0,1.1-0.1,2.5-0.2,3.7l-0.2,3.6h-1l0.6-8.4h1.4l1.4,4.1c0.3,1,0.6,2,0.8,2.8l0,0
		c0.2-0.9,0.5-1.8,0.9-2.8l1.5-4.1h1.4l0.5,8.4h-1.1L1593.7,554.5z"/>
</g>
<g>
	<path class="st0" d="M686.7,340.5c12.5,0,20.6-1.9,29.7,8.7l29.9,36.9h-22.2c-5,0-10.7-1.4-15.4-9.3L686.7,340.5z"/>
	<path class="st0" d="M754.6,396.8l47.2,57.2h-33.1c-11.4,0-18-6.8-22.3-14.1l-14.2-24.1l4.1-12.7L754.6,396.8z"/>
	<g>
		<g>
			<path class="st0" d="M735.8,421.9c2.1-9.3,18.3-17,26.7-15.7l-8.5-10.4l-13.9,3l-9.1,14.7L735.8,421.9z"/>
		</g>
	</g>
	<path class="st0" d="M735.4,421.5l-10.9-18.4c-3.2-5.7-0.3-12.5,11.3-13.8s31.8-3.2,37.5,8.6C757.6,396.3,734.2,401.1,735.4,421.5z
		"/>
</g>
<g>
	<g>
		<g>
			<path class="st0" d="M173.7,431.8V409c0-7.5-2.7-11.4-7.8-11.4c-3.4,0-6.4,2.3-7.7,5.8c-0.3,0.9-0.5,2.3-0.5,3.6v24.7h-9.6v-23.8
				c0-6.5-2.8-10.3-7.6-10.3c-4.2,0-6.9,3.3-8,6.2c-0.3,1.1-0.5,2.3-0.5,3.6v24.4h-9.6v-29c0-4.7-0.2-8.7-0.3-12.1h8.3l0.5,6.2h0.8
				l0.1-0.2c1.9-3.2,5.7-7,12.6-7c5.2,0,9.5,2.9,11.3,7.5l0.1,0.2h0.6l0.1-0.2c1.4-2.2,3-3.9,5-5.1c2.5-1.7,5.1-2.4,8.4-2.4
				c3.2,0,13.6,1.3,13.6,17.8v24.3C183.5,431.8,173.7,431.8,173.7,431.8z"/>
			<path class="st0" d="M211.3,432.6c-13.1,0-21.2-8-21.2-20.8c0-10.7,6.3-22.2,20.1-22.2c13.1,0,17.7,10.8,17.7,20
				c0,2-0.2,3.4-0.3,4.1h-28.1v0.4c0.3,8.2,7,11.2,13.2,11.2c5.2,0,8.6-0.9,11.3-1.8l1.4,6.6C222.7,431.3,218,432.6,211.3,432.6
				L211.3,432.6z M209.6,396.2c-7.1,0-9.7,6.6-10,10.5v0.4h19.1v-0.3c0-1.2-0.1-5.4-2.8-8.2C214.3,397,212.2,396.2,209.6,396.2
				L209.6,396.2z"/>
			<path class="st0" d="M235.4,431.8v-28c0-5.9-0.1-9.7-0.3-13.1h8.4l0.4,7.9h0.8l0.1-0.2c1.8-5.2,6.2-8.6,11.2-8.6
				c0.9,0,1.4,0.1,3.9,0.2v9.2c-2.6-0.1-3.5-0.2-4.6-0.2c-5,0-8.8,3.2-9.8,8.3c-0.2,1-0.3,2.1-0.3,3.2v21.4h-9.8V431.8z"/>
			<path class="st0" d="M303,432.6c-12.9,0-21.2-8.3-21.2-21c0-13.1,9.2-21.9,22.9-21.9c3.4,0,7.2,0.7,9.8,1.8l-1.7,7.3
				c-2.2-1-4.7-1.5-7.8-1.5c-3.8,0-7,1.3-9.3,3.6c-2.5,2.5-3.8,6.2-3.8,10.3c0,8.3,5.3,13.8,13.1,13.8c2.9,0,5.5-0.5,8.1-1.5
				l1.3,7.1C312.3,431.6,308.1,432.6,303,432.6L303,432.6z"/>
			<path class="st0" d="M331.9,432.7c-8.4,0-12.8-6.1-12.8-12.1c0-10,8.6-15.5,24.1-15.5h0.7v-1c0-2.9-1.1-7.6-8.8-7.6
				c-3.8,0-8,1.1-11,2.9l-1.9-6.2c1.7-1,6.8-3.5,14.7-3.5c14,0,16.9,9.4,16.9,17.3v15c0,4.2,0.2,7.4,0.6,9.7h-8.8l-0.8-4.6h-0.7
				l-0.1,0.1C341.3,430.7,336.9,432.7,331.9,432.7L331.9,432.7z M343.3,411.3c-9.5,0-14.4,2.7-14.4,8.2c0,3.9,2.4,6.4,6.4,6.4
				c4.6,0,7.6-3,8.7-6c0.3-0.8,0.3-1.6,0.3-2.4v-6.1L343.3,411.3z"/>
			<path class="st0" d="M389.2,431.8v-23.3c0-7-3-10.9-8.3-10.9c-4.7,0-7.5,3.5-8.6,6.4c-0.3,0.8-0.5,2.1-0.5,3.5v24.3h-9.9v-29
				c0-4.7-0.2-8.7-0.3-12.1h8.5l0.5,6.3h0.8l0.1-0.2c2-3.4,6.4-7,13.1-7c7,0,14.5,4.6,14.5,17.6v24.5h-9.9V431.8z"/>
			<path class="st0" d="M489.5,431.8v-28c0-5.9-0.1-9.7-0.3-13.1h8.4l0.4,7.9h0.8l0.1-0.2c1.8-5.2,6.2-8.6,11.2-8.6
				c0.9,0,1.4,0.1,3.9,0.2v9.2c-2.6-0.1-3.5-0.2-4.6-0.2c-5,0-8.8,3.2-9.8,8.3c-0.2,1-0.3,2.1-0.3,3.2v21.4h-9.8V431.8z"/>
			<rect x="518.3" y="371.5" class="st0" width="9.9" height="60.3"/>
			<path class="st0" d="M586.2,431.8v-23.3c0-7-3-10.9-8.3-10.9c-4.7,0-7.5,3.5-8.6,6.4c-0.3,0.8-0.5,2.1-0.5,3.5v24.3h-9.9v-29
				c0-4.7-0.2-8.7-0.3-12.1h8.5l0.5,6.3h0.8l0.1-0.2c2-3.4,6.4-7,13.1-7c7,0,14.5,4.6,14.5,17.6v24.5h-9.9V431.8z"/>
			<path class="st0" d="M624.9,432.6c-13.1,0-21.2-8-21.2-20.8c0-10.7,6.3-22.2,20.1-22.2c13.1,0,17.7,10.8,17.7,20
				c0,2-0.2,3.4-0.3,4.1h-28.1v0.4c0.3,8.2,7,11.2,13.2,11.2c5.2,0,8.6-0.9,11.3-1.8l1.4,6.6C636.2,431.3,631.5,432.6,624.9,432.6
				L624.9,432.6z M623.1,396.2c-7.1,0-9.7,6.6-10,10.5v0.4h19.1v-0.3c0-1.2-0.1-5.4-2.8-8.2C627.8,397,625.7,396.2,623.1,396.2
				L623.1,396.2z"/>
			<path class="st0" d="M658.7,432.6c-4.6,0-9-1-12.3-2.7l2-7c2.5,1.5,6.8,2.9,10.4,2.9c4.5,0,7-1.8,7-5.1c0-3.2-2.3-4.7-7.1-6.4
				c-7.4-2.5-11.3-6.6-11.3-11.9c0-7.5,6.4-12.7,15.5-12.7c4,0,8,0.9,10.8,2.3l-1.9,6.7c-2-1.1-5.2-2.2-8.6-2.2
				c-3.8,0-6.2,1.9-6.2,4.8s2.2,4.2,7.5,6.2c7.6,2.6,10.9,6.3,10.9,12.4C675.3,427.7,669,432.6,658.7,432.6L658.7,432.6z"/>
		</g>
		<path class="st0" d="M107.2,431.8h10.7l-18.6-57.2h-13L68,431.8h10.2l3.6-12.6h21.6L107.2,431.8z M83.9,412l5.4-18.6
			c0.6-2.2,1.2-4.6,1.8-7c0.3-1.3,0.6-2.6,1-3.8l0.1-0.3h0.7l0.6,2.2c0.7,2.8,1.5,6,2.4,8.8l5.5,18.6H83.9V412z"/>
		<path class="st0" d="M453.2,431.8h10.7l-18.6-57.2h-13L414,431.8h10.2l3.6-12.6h21.6L453.2,431.8z M429.9,412l5.4-18.6
			c0.6-2.2,1.2-4.6,1.8-7c0.3-1.3,0.6-2.6,1-3.8l0.1-0.3h0.7l0.6,2.2c0.7,2.8,1.5,6,2.4,8.8l5.5,18.6h-17.5V412z"/>
	</g>
	<g>
		<path class="st0" d="M265.3,431.8v-41.2h9.9v41.1L265.3,431.8L265.3,431.8z"/>
		<rect x="265.8" y="374.9" class="st0" width="8.9" height="8.4"/>
	</g>
	<g>
		<path class="st0" d="M468.8,431.8v-41.2h9.9v41.1L468.8,431.8L468.8,431.8z"/>
		<rect x="469.3" y="374.9" class="st0" width="8.9" height="8.4"/>
	</g>
	<g>
		<path class="st0" d="M539.4,431.8v-41.2h9.9v41.1L539.4,431.8L539.4,431.8z"/>
		<rect x="539.9" y="374.9" class="st0" width="8.9" height="8.4"/>
	</g>
</g>
<g>
	<path class="st0" d="M806.3,448.8h-1.8v-0.6h4.3v0.6H807v5.2h-0.8L806.3,448.8L806.3,448.8z"/>
	<path class="st0" d="M814.3,451.4c0-0.8-0.1-1.8-0.1-2.5l0,0c-0.2,0.7-0.4,1.4-0.7,2.2l-1,2.8h-0.6l-0.9-2.8
		c-0.3-0.8-0.5-1.6-0.7-2.3l0,0c0,0.7-0.1,1.7-0.1,2.6l-0.2,2.5h-0.7l0.4-5.8h1l1,2.8c0.2,0.7,0.4,1.3,0.6,2l0,0
		c0.2-0.6,0.4-1.2,0.6-2l1-2.8h1l0.4,5.8h-0.7L814.3,451.4z"/>
</g>
</svg>
