<?xml version="1.0" encoding="utf-8"?>
<!-- Generator: Adobe Illustrator 19.0.0, SVG Export Plug-In . SVG Version: 6.00 Build 0)  -->
<svg version="1.1" id="Layer_1" xmlns="http://www.w3.org/2000/svg" xmlns:xlink="http://www.w3.org/1999/xlink" x="0px" y="0px"
	 viewBox="-531.6 723.5 316.2 86.5" style="enable-background:new -531.6 723.5 316.2 86.5;" xml:space="preserve">
<style type="text/css">
	.st0{fill:#555555;}
</style>
<g>
	<path class="st0" d="M-225,730.5v2.8h1.2c0.8,0,1.2,0,1.6-0.2c0.4-0.2,0.6-0.6,0.6-1c0-0.6-0.2-1-0.6-1.2c-0.2-0.2-0.8-0.4-1.6-0.4
		L-225,730.5L-225,730.5z M-227,729.2h3.6c1.2,0,2.2,0.2,2.8,0.8c0.8,0.4,1,1,1,1.8s-0.2,1.2-0.4,1.6c-0.4,0.4-1,0.8-1.6,0.8l2,4
		h-2.2l-1.8-3.6h-1.4v3.8h-2L-227,729.2L-227,729.2z M-223.6,727.4c0.8,0,1.6,0.2,2.4,0.6c0.8,0.2,1.6,0.8,2.2,1.4
		c0.6,0.8,1.2,1.4,1.4,2.2s0.4,1.6,0.4,2.6c0,0.8-0.2,1.6-0.4,2.4c-0.4,0.8-0.8,1.6-1.6,2.2c-0.6,0.6-1.2,1.2-2.2,1.4
		c-0.8,0.2-1.6,0.4-2.6,0.4c-0.8,0-1.6-0.2-2.6-0.4c-0.8-0.4-1.4-0.8-2.2-1.6c-0.6-0.6-1-1.2-1.4-2.2c-0.2-0.8-0.4-1.6-0.4-2.4
		c0-0.8,0.2-1.6,0.6-2.6c0.2-0.8,0.8-1.6,1.4-2.2c0.6-0.8,1.2-1.2,2.2-1.4C-225.4,727.5-224.6,727.4-223.6,727.4L-223.6,727.4z
		 M-223.8,725.5c1.2,0,2.2,0.2,3.4,0.8c1,0.4,1.8,1,2.6,1.8s1.4,1.6,1.8,2.6s0.6,2.2,0.6,3.2c0,1.2-0.2,2.2-0.6,3.2
		s-1.2,1.8-1.8,2.6c-0.8,0.8-1.8,1.4-2.8,1.8s-2.2,0.8-3.2,0.8s-2.2-0.2-3-0.8c-1.2-0.4-2-1.2-2.8-1.8c-0.8-0.8-1.4-1.8-1.8-2.8
		s-0.6-2-0.6-3c0-1.2,0.2-2.2,0.6-3.2c0.6-1.2,1.2-2,2-2.8s1.6-1.4,2.6-1.8S-224.8,725.5-223.8,725.5L-223.8,725.5z"/>
	<path class="st0" d="M-262.2,742.8c0-5-1.8-6.6-3.6-7.4c-1.6-0.8-3-0.8-3-2c0-1.6,5.4-2.6,6.4-3c7.8-1.6,15-2.8,21-5.4
		c5-2,5.4-0.4,5.4,5v71.6c0,3,4.2,1.6,4.2,4.6c0,1.6-2.2,1.6-3.8,1.6c-9.4,0-18.8,0-28.2,0c-1.6,0-3.8,0-3.8-1.6c0-3,5-1.6,5-4.6
		C-262.2,781.8-262.2,762.4-262.2,742.8L-262.2,742.8z M-483.4,725.4c1.2-2.4,2.2-2.6,3.6,0c12,22.6,27,51.4,39,74
		c2.2,4.2,6.4,5,8.6,4.8c2.6-0.2,2.6,2.6,0.2,2.6c-12.8,0-30.6,0-43.4,0c-0.8,0-2.4,0-4,0s-2.6-0.8-2.4-1.6c0-0.8,1-1.6,2.6-1.4
		c4.8,0.4,8.8-1.2,6.2-6.2l-6.6-12.8h-24c-1,2.2-2,4-3,6c-2,3.8-1,6.8,1.2,8.8c1.8,1.6,4.2,3,6.8,3.8c1.8,0.6,3.4,0.6,3.4,2
		c0,0.8-1.2,1.8-3.6,1.2c-1.4-0.2-3-0.4-4.4-0.6c-3.8-0.4-7.4-0.6-11.2-0.4c-4.4,0.2-9.4,0.4-14,1c-1,0.2-3.2,0.8-3.2-1
		c0-0.8,0.8-1.2,1.8-1.4c2.2-0.4,3.6-0.8,5.4-2c3.6-2,7.6-5.4,9.2-9.2L-483.4,725.4L-483.4,725.4z M-492,761.8l-8.2,16.6h17
		L-492,761.8L-492,761.8z M-366.4,761.8l28.6,45.8c2,3.2,3,3.2,4.6,0l23.4-43.4c2.6-5,4-5.4,8.2-6.6c1.2-0.2,1.8-1,1.8-1.6
		c0-1.6-1.4-1.6-4-1.6c-5.2,0-12.4,0-17.6,0c-2.4,0-4,0-4,1.6c0,1,1,1.2,2.4,1.6c2.2,0.4,4.2,1,5.8,2.8c1,1.4,1.2,3.6-0.4,6.4
		c-2.6,4.8-5.2,9.8-7.8,14.4l-12-19.2c-1.4-2.2-1.2-3-0.2-3.6c1.2-0.6,5-0.8,5-2.2c0-1.6-1.6-1.6-4.2-1.6c-11.6,0-23.2,0-34.8,0
		v-23.2c0-5.4-0.6-7.2-5.4-5.2c-6,2.6-14.8,4.6-22.6,6.2c-1.2,0.2-6.8,1.4-6.8,3c0,1.2,1.4,1.4,3,2.2c2.2,0.2,6.4,1.6,6.4,6.8
		c0,3.6,0,6,0,9.2c-2.2,0-3.8,0-6.8,0c-15.4,0-35.4,7.4-35.4,27.6c0,17.6,12.2,28.6,25.8,28.6c7.4,0.2,12.6-1.6,17.8-6l0.8,0.8
		c0.2,5.2,1.8,5,5.4,4.2c5.4-1,14-3.8,19.4-3.6c1.6,0,3.8,0.4,3.8-1.2c0-3-5.4-1.4-5.4-5.8V759C-368.9,759-367.9,759.8-366.4,761.8
		L-366.4,761.8z M-404.4,757c3.4,0,6.2,1.6,7.6,4c1.2,2.2,1.2,4.2,1.2,6.2c0,8.6,0,17,0,25.4c0,2.4,0.2,4.6-1.4,6.6
		c-1.2,1.2-2.6,2.2-4.4,2.2c-6.8,0-13-8.2-13-18.4c0-4.2,0-8.2,0-12.4C-414.4,761.5-410.4,757-404.4,757L-404.4,757z M-287,725.2
		c8,0,14.6,5.4,14.6,12.4c0,6.8-6.6,12.4-14.6,12.4s-14.6-5.6-14.6-12.4C-301.6,730.5-295,725.2-287,725.2L-287,725.2z
		 M-299.6,771.2c0-5-1.8-6.4-3.6-7.4c-1.4-0.8-2.8-0.8-2.8-2c0-1.6,5.4-2.6,6.4-3c7.6-1.4,12.6-2.8,19.2-5.4c5-2,5.4-0.4,5.4,5v43.2
		c0,3,4.4,1.6,4.4,4.6c0,1.6-2.2,1.6-3.8,1.6c-9.4,0-16.8,0-26.4,0c-1.8,0-4,0-4-1.6c0-3,5.2-1.6,5.2-4.6
		C-299.6,781.8-299.6,790.8-299.6,771.2L-299.6,771.2z"/>
</g>
</svg>
