<?xml version="1.0" encoding="utf-8"?>
<!-- Generator: Adobe Illustrator 19.0.0, SVG Export Plug-In . SVG Version: 6.00 Build 0)  -->
<svg version="1.1" id="Layer_1" xmlns="http://www.w3.org/2000/svg" xmlns:xlink="http://www.w3.org/1999/xlink" x="0px" y="0px"
	 viewBox="-226 375.8 158.2 43.2" style="enable-background:new -226 375.8 158.2 43.2;" xml:space="preserve">
<style type="text/css">
	.st0{fill:#555555;}
</style>
<g>
	<path class="st0" d="M-72.7,379.3v1.4h0.6c0.4,0,0.6,0,0.8-0.1c0.2-0.1,0.3-0.3,0.3-0.5c0-0.3-0.1-0.5-0.3-0.6
		c-0.1-0.1-0.4-0.2-0.8-0.2H-72.7L-72.7,379.3z M-73.7,378.6h1.8c0.6,0,1.1,0.1,1.4,0.4c0.4,0.2,0.5,0.5,0.5,0.9s-0.1,0.6-0.2,0.8
		c-0.2,0.2-0.5,0.4-0.8,0.4l1,2h-1.1l-0.9-1.8h-0.7v1.9h-1V378.6L-73.7,378.6z M-72,377.7c0.4,0,0.8,0.1,1.2,0.3
		c0.4,0.1,0.8,0.4,1.1,0.7c0.3,0.4,0.6,0.7,0.7,1.1c0.1,0.4,0.2,0.8,0.2,1.3c0,0.4-0.1,0.8-0.2,1.2c-0.2,0.4-0.4,0.8-0.8,1.1
		c-0.3,0.3-0.6,0.6-1.1,0.7c-0.4,0.1-0.8,0.2-1.3,0.2c-0.4,0-0.8-0.1-1.3-0.2c-0.4-0.2-0.7-0.4-1.1-0.8c-0.3-0.3-0.5-0.6-0.7-1.1
		c-0.1-0.4-0.2-0.8-0.2-1.2c0-0.4,0.1-0.8,0.3-1.3c0.1-0.4,0.4-0.8,0.7-1.1c0.3-0.4,0.6-0.6,1.1-0.7
		C-72.9,377.8-72.5,377.7-72,377.7L-72,377.7z M-72.1,376.8c0.6,0,1.1,0.1,1.7,0.4c0.5,0.2,0.9,0.5,1.3,0.9c0.4,0.4,0.7,0.8,0.9,1.3
		s0.3,1.1,0.3,1.6c0,0.6-0.1,1.1-0.3,1.6s-0.6,0.9-0.9,1.3c-0.4,0.4-0.9,0.7-1.4,0.9s-1.1,0.4-1.6,0.4s-1.1-0.1-1.5-0.4
		c-0.6-0.2-1-0.6-1.4-0.9c-0.4-0.4-0.7-0.9-0.9-1.4s-0.3-1-0.3-1.5c0-0.6,0.1-1.1,0.3-1.6c0.3-0.6,0.6-1,1-1.4
		c0.4-0.4,0.8-0.7,1.3-0.9C-73.1,376.9-72.6,376.8-72.1,376.8L-72.1,376.8z"/>
	<path class="st0" d="M-91.3,385.4c0-2.5-0.9-3.3-1.8-3.7c-0.8-0.4-1.5-0.4-1.5-1c0-0.8,2.7-1.3,3.2-1.5c3.9-0.8,7.5-1.4,10.5-2.7
		c2.5-1,2.7-0.2,2.7,2.5v35.8c0,1.5,2.1,0.8,2.1,2.3c0,0.8-1.1,0.8-1.9,0.8c-4.7,0-9.4,0-14.1,0c-0.8,0-1.9,0-1.9-0.8
		c0-1.5,2.5-0.8,2.5-2.3C-91.3,404.9-91.3,395.2-91.3,385.4L-91.3,385.4z M-201.9,376.7c0.6-1.2,1.1-1.3,1.8,0
		c6,11.3,13.5,25.7,19.5,37c1.1,2.1,3.2,2.5,4.3,2.4c1.3-0.1,1.3,1.3,0.1,1.3c-6.4,0-15.3,0-21.7,0c-0.4,0-1.2,0-2,0
		c-0.8,0-1.3-0.4-1.2-0.8c0-0.4,0.5-0.8,1.3-0.7c2.4,0.2,4.4-0.6,3.1-3.1l-3.3-6.4h-12c-0.5,1.1-1,2-1.5,3c-1,1.9-0.5,3.4,0.6,4.4
		c0.9,0.8,2.1,1.5,3.4,1.9c0.9,0.3,1.7,0.3,1.7,1c0,0.4-0.6,0.9-1.8,0.6c-0.7-0.1-1.5-0.2-2.2-0.3c-1.9-0.2-3.7-0.3-5.6-0.2
		c-2.2,0.1-4.7,0.2-7,0.5c-0.5,0.1-1.6,0.4-1.6-0.5c0-0.4,0.4-0.6,0.9-0.7c1.1-0.2,1.8-0.4,2.7-1c1.8-1,3.8-2.7,4.6-4.6
		L-201.9,376.7L-201.9,376.7z M-206.2,394.9l-4.1,8.3h8.5L-206.2,394.9L-206.2,394.9z M-143.4,394.9l14.3,22.9c1,1.6,1.5,1.6,2.3,0
		l11.7-21.7c1.3-2.5,2-2.7,4.1-3.3c0.6-0.1,0.9-0.5,0.9-0.8c0-0.8-0.7-0.8-2-0.8c-2.6,0-6.2,0-8.8,0c-1.2,0-2,0-2,0.8
		c0,0.5,0.5,0.6,1.2,0.8c1.1,0.2,2.1,0.5,2.9,1.4c0.5,0.7,0.6,1.8-0.2,3.2c-1.3,2.4-2.6,4.9-3.9,7.2l-6-9.6
		c-0.7-1.1-0.6-1.5-0.1-1.8c0.6-0.3,2.5-0.4,2.5-1.1c0-0.8-0.8-0.8-2.1-0.8c-5.8,0-11.6,0-17.4,0v-11.6c0-2.7-0.3-3.6-2.7-2.6
		c-3,1.3-7.4,2.3-11.3,3.1c-0.6,0.1-3.4,0.7-3.4,1.5c0,0.6,0.7,0.7,1.5,1.1c1.1,0.1,3.2,0.8,3.2,3.4c0,1.8,0,3,0,4.6
		c-1.1,0-1.9,0-3.4,0c-7.7,0-17.7,3.7-17.7,13.8c0,8.8,6.1,14.3,12.9,14.3c3.7,0.1,6.3-0.8,8.9-3l0.4,0.4c0.1,2.6,0.9,2.5,2.7,2.1
		c2.7-0.5,7-1.9,9.7-1.8c0.8,0,1.9,0.2,1.9-0.6c0-1.5-2.7-0.7-2.7-2.9v-19.6C-144.6,393.5-144.1,393.9-143.4,394.9L-143.4,394.9z
		 M-162.4,392.5c1.7,0,3.1,0.8,3.8,2c0.6,1.1,0.6,2.1,0.6,3.1c0,4.3,0,8.5,0,12.7c0,1.2,0.1,2.3-0.7,3.3c-0.6,0.6-1.3,1.1-2.2,1.1
		c-3.4,0-6.5-4.1-6.5-9.2c0-2.1,0-4.1,0-6.2C-167.4,394.8-165.4,392.5-162.4,392.5L-162.4,392.5z M-103.7,376.6c4,0,7.3,2.7,7.3,6.2
		c0,3.4-3.3,6.2-7.3,6.2s-7.3-2.8-7.3-6.2C-111,379.3-107.7,376.6-103.7,376.6L-103.7,376.6z M-110,399.6c0-2.5-0.9-3.2-1.8-3.7
		c-0.7-0.4-1.4-0.4-1.4-1c0-0.8,2.7-1.3,3.2-1.5c3.8-0.7,6.3-1.4,9.6-2.7c2.5-1,2.7-0.2,2.7,2.5v21.6c0,1.5,2.2,0.8,2.2,2.3
		c0,0.8-1.1,0.8-1.9,0.8c-4.7,0-8.4,0-13.2,0c-0.9,0-2,0-2-0.8c0-1.5,2.6-0.8,2.6-2.3C-110,404.9-110,409.4-110,399.6L-110,399.6z"
		/>
</g>
</svg>
