<?xml version="1.0" encoding="utf-8"?>
<!-- Generator: Adobe Illustrator 19.0.0, SVG Export Plug-In . SVG Version: 6.00 Build 0)  -->
<svg version="1.1" id="Layer_1" xmlns="http://www.w3.org/2000/svg" xmlns:xlink="http://www.w3.org/1999/xlink" x="0px" y="0px"
	 viewBox="-217 369.9 175.7 55.1" style="enable-background:new -217 369.9 175.7 55.1;" xml:space="preserve">
<style type="text/css">
	.st0{fill:#555555;}
</style>
<g>
	<path class="st0" d="M-123.4,414.5C-123.4,414.5-123.4,414.5-123.4,414.5h-1.1c-0.1,0-0.1,0-0.2,0.1c-1.4,5.4-5.1,8.8-9.8,8.8
		c-4.7,0-6.7-2.3-6.7-8c0,0,0-6.8,0-7c0.2,0,17.2,0,17.2,0c0.1,0,0.1-0.1,0.1-0.1c0.1,0,0.1,0,0.1-0.1l0,0
		c-0.5-7.2-5.8-12.7-12.1-12.7c-6.8,0-12,6.5-12,14.9c0,8,5.8,14.7,13.1,14.7c5.6,0,9.8-3.8,11.5-10.3
		C-123.3,414.6-123.3,414.6-123.4,414.5L-123.4,414.5z M-141.2,404.1c0-5.1,1.6-7.5,5.1-7.5c3.6,0,5.2,2,5.2,6.5c0,0,0,3.5,0,3.8
		c-0.4,0-10,0-10.3,0C-141.2,406.6-141.2,404.1-141.2,404.1L-141.2,404.1z"/>
	<path class="st0" d="M-46.3,420.8l-0.7-0.7h-0.1h-0.1c-1.2,1.6-2.2,2.6-3.3,2.6c-1.4,0-2-1.4-2-4.2v-14c0-3.2-0.2-4.8-2.8-6.8
		c-2.3-1.6-4.9-2.3-7.9-2.3c-6.5,0-10.5,3.8-10.5,7.5c0,2.1,1.4,3.5,3.3,3.5c2,0,3.2-1.4,3.2-3.5c0-1.4-0.9-2.1-1.5-2.6
		c-0.2-0.1-0.5-0.4-0.5-0.5c0-1,2.2-3.2,5.8-3.2c3.7,0,5.2,1.5,5.2,4.8c0,0,0,6.5,0,6.8c-0.1,0-0.2,0-0.2,0c-11,0-17.3,3.5-17.3,9.5
		c0,4.1,3.5,7.2,8.2,7.2c4.6,0,7.9-1.5,9.8-4.3c0.7,2.6,2.7,4.1,5.6,4.1c2.2,0,4.1-1,6.1-3.6C-46.2,420.9-46.2,420.8-46.3,420.8
		L-46.3,420.8z M-58.3,418.8c-1.4,2.6-3.8,4.2-6.5,4.2c-3,0-4.7-2.2-4.7-6.1c0-5.1,3-7.4,9.3-7.4c0.6,0,1.2,0,2,0.1
		C-58.3,409.9-58.3,418.7-58.3,418.8L-58.3,418.8z"/>
	<path class="st0" d="M-143.6,422.8c0,0-0.5,0-1.1,0c-2.3,0-2.3-0.5-2.8-1.9c-3-8-14.7-40.8-14.7-40.8c0-0.1-0.1-0.1-0.1-0.1h-0.7
		c-0.1,0-0.1,0-0.2,0.1l-12.8,38.8c-0.9,2.8-1.2,3.8-4.4,3.8h-0.9c-0.1,0-0.2,0.1-0.2,0.1v1c0,0.1,0.1,0.1,0.2,0.1h11.2
		c0.1,0,0.2,0,0.2-0.1v-1c0,0-0.1-0.1-0.2-0.1c-4.2,0-5.1-0.2-5.1-1.4c0-0.1,0-0.6,0.2-1.1c0,0,3.3-10.9,3.8-12.1
		c0.2,0,11.5,0,11.7,0c0.1,0.2,2.8,7.9,4.3,12.1c0.2,0.5,0.2,1,0.2,1.1c0,1-0.1,1.4-4.1,1.4c-0.4,0-0.6,0-0.6,0l0.1,0.2v1
		c0,0.1,0.1,0.1,0.1,0.1h0.2l0,0h15.4l0,0h0.1c0.1,0,0.2,0,0.2-0.1v-1C-143.4,422.9-143.5,422.8-143.6,422.8L-143.6,422.8z
		 M-170.7,406.9c0.1-0.5,4.9-15.1,5.2-15.9c0.4,0.9,5.6,15.4,5.7,15.9C-160.2,406.9-170.2,406.9-170.7,406.9L-170.7,406.9z"/>
	<path class="st0" d="M-106.5,419.3L-106.5,419.3l-1.2-0.1l-0.1,0.1c-0.9,2.3-2.6,3.7-4.8,3.7c-2,0-2.7-1-2.7-4c0,0,0-21.2,0-21.6
		c0.4,0,5.9,0,5.9,0l0.1-0.1v-1c0-0.1-0.1-0.2-0.1-0.2s-1.2,0-3,0l0,0c-2.5,0-3,0.1-3-2.1c0-2.6,0-6.9,0-6.9c0-0.1-0.1-0.1-0.2-0.1
		h-0.7c-0.1,0-0.2,0-0.2,0.1c-1,6.3-3.7,9-9,9c-0.1,0-0.1,0.1-0.1,0.2v1c0,0,0,0.1,0.1,0.1c0,0,4.3,0,4.6,0c0,0.4,0,20.5,0,20.5
		c0,1.9,0.1,3.5,1.6,4.8c1.5,1.4,3.5,2.1,5.8,2.1c3.6,0,6.1-1.9,7.2-5.4v-0.1H-106.5z"/>
	<path class="st0" d="M-75.1,422.8l-0.9-0.1c-1.7,0-2.3,0.1-2.5-2v-16.6c0-5.4-3.5-8.8-8.9-8.8c-4.1,0-7,1.9-9.6,5.7
		c0-0.7,0-3.3,0-4.7c0-0.5,0-0.9,0-0.9s0-0.1-0.1-0.1c0,0-0.1-0.1-0.1,0c-1.4,0.5-3.5,0.7-6.4,0.7h-3.4c0,0-0.1,0.1-0.1,0.2v1
		l0.1,0.1h3.8c0,0,0,18,0,23c0,2.3-0.7,2.2-2.7,2.2v0.1c-0.5,0-0.7,0-0.7,0c-0.1,0-0.2,0-0.2,0.1v1c0,0.1,0.1,0.1,0.2,0.1h13.2
		c0.1,0,0.2,0,0.2-0.1v-1c0-0.1-0.1-0.1-0.2-0.1c0,0-0.2,0-0.6,0v-0.1c-2.3,0-3,0.1-3-2c0-5.2,0-16.9,0-17c2.5-4.4,5.3-6.7,8.8-6.7
		c2.6,0,3.6,1.1,3.7,4.4c0,0.2,0,0.5,0,0.7v18.3l0,0c0,2.3-0.6,2.2-3.1,2.2v0.1c-0.4,0-0.6,0-0.6,0c-0.1,0-0.2,0-0.2,0.1v1
		c0,0.1,0.1,0.1,0.2,0.1h13.1c0.1,0,0.1,0,0.1-0.1v-1C-75,422.8-75,422.8-75.1,422.8L-75.1,422.8z"/>
	<path class="st0" d="M-212.2,378.4c0.5-0.2,1-0.5,1.6-0.9c0.7-0.2,1.1-0.3,1.8-0.6c0.6-0.4,1.1-0.6,1.7-1c0.6-0.2,1.1-0.6,1.7-0.9
		c0.6-0.2,1.1-0.5,1.6-0.7c0.9-0.2,1.6-0.5,2.3-0.9c0.7-0.1,1.5-0.2,2.2-0.4c0.5,0.1,1,0.2,1.5,0.4c0.1,0.2,0.4,0.4,0.5,0.6
		c-0.1,0.1-0.2,0.1-0.4,0.2c-0.1,0.5-0.1,1-0.2,1.5c0,0.5,0.1,1,0.2,1.4c0.6,0,1.1,0,1.7-0.1c0.5,0,1.1,0,1.7-0.1
		c0.5-0.1,1-0.2,1.5-0.5c0.7-0.1,1.5-0.2,2.1-0.4c0.7-0.1,1.4-0.2,2.1-0.4c0.7-0.1,1.4-0.1,2.1-0.2c0.7,0,1.4,0,2.1,0.1
		c0.7,0,1.4,0,2.1,0c0.7,0.1,1.4,0.2,2.1,0.4c0.7,0.1,1.4,0.1,2.1,0.2c0.7,0.1,1.4,0.1,2.1,0.2c0.8,0.3,1.4,0.4,2,0.6
		c0-0.7,0.1-1.4,0.1-2.1c0-0.5-0.1-1-0.1-1.5c-0.7-0.1-1.4-0.2-2.1-0.4c-0.7-0.1-1.4-0.2-2.1-0.2c-0.7-0.1-1.4-0.2-2.1-0.4
		c-0.7-0.1-1.4-0.1-2.1-0.1s-1.4,0-2.1,0c-0.6,0-1.2,0-1.9,0c-0.6,0-1.2,0-1.9,0c-0.6,0.1-1.2,0.2-1.9,0.2c-0.6,0.1-1.1,0.2-1.7,0.4
		c-0.6,0.2-1.2,0.5-1.9,0.9c-0.7,0-1.5,0.1-2.1,0.2c-0.6,0-1.2,0.1-1.9,0.2c0,0.5,0,1,0,1.5s0,1,0,1.4c0.1-0.6,0.4-1.1,0.5-1.7
		c0.1-0.6,0.2-1.2,0.4-1.9c0-0.5-0.1-1-0.2-1.8c-0.4-0.4-0.7-0.9-1.1-1.4c-0.6-0.1-1.1-0.2-1.6-0.4c-0.7,0.2-1.4,0.4-2,0.6
		c-0.6,0.2-1.2,0.5-1.9,0.7c-0.7,0.2-1.4,0.5-2,0.7c-0.5,0.6-1,1.1-1.7,1.4c-0.6,0.3-1.1,0.7-1.7,0.9c-0.5,0.4-1,0.7-1.6,1.1
		c-0.5,0.3-1.1,0.5-1.6,0.8c0,0.5,0,0.9,0,1.2c0,0.5,0,0.7,0,1.1C-212.3,378.3-212.3,378.3-212.2,378.4L-212.2,378.4z"/>
	<path class="st0" d="M-206.7,386.3c3.3,3.3,4.6,7.3,4.3,11.4c-0.2,0.1,0.5,0.5,0.7,0c0.5-1.2,2.6-3.8,3-4.3c0.2-0.6-0.5-1.2-0.7-2
		c-1.1-3.1-3.5-5.6-6.9-7.5c-3.2-1.7-6.2-3.1-9.8-4c-1-0.1-1,0.7-0.7,1c0.7,0.5,1.9,0.5,2.7,0.7
		C-211.1,382.7-208.8,384.3-206.7,386.3L-206.7,386.3z"/>
	<path class="st0" d="M-200.6,397.4c-1,1.6-2.3,3.1-2.1,4.8c0,0.2,0.5,0.5,1.1,0.5c0.2,0,0.2,0.4,0.2,0.4c-1.4,0.1-1.1,1-1.6,1.5
		c-0.9,0.9,0.7,1.4,0.5,2.2c0,0.2-0.7,0.9-1,1.1c0,0.5,0,1.2,0,1.7c-0.6,4.7-2,9.1-2.5,13.8c-0.2,0.4,0.7,0.7,1,0.5
		c3.3-3.3,3.6-7.4,4.1-11.2c0.2-0.4,0.6-0.5,0.9-0.9c0-0.7,0.5-1,0.7-1.6c0.5-1.2,1.1-2.5,0.9-3.8c0-0.1,0.7-0.5,0.7-0.4
		c0.2,0.5,0.2,1,0.2,1.6c0.2,0.6,1.4,0.6,1.4,1c-0.2,0.9,0.2,1.6,0.4,2.7c0,0.5,1.2,0.5,1.2,0.9c0.9,3.7,2,7,3.2,10.7
		c0.1,0.5,0.4,1.5,1.6,1.2c0.4-0.4,0.7-0.7,0.6-1.2c-0.6-4.9-2.5-9.6-3-14.7c0-0.6-0.5-1.4-0.5-2c-0.1-0.2-0.1-0.4-0.4-0.5
		c-0.5-1.6,0.9-3.3-1-4.6c-0.2-0.6,1.2-1.2,0.2-1.6c-0.9-0.1-1.5,0.7-2.2,1.1c-0.1,0.1,0,0.5,0,0.6c-1.4,0.4-1.9,1.7-3.2,1.7
		c1.9-1.7,4.1-3.2,5.4-5.3c0.5-0.6-0.1-1.5-1.2-1.2c-1.1,0.5-2,1.1-3.1,1.7c-0.5,0.2,0-0.1-0.2-0.2c1.4-1.1,3.1-2,4.1-3.2
		c1.1-1.5,2.2-2.8,3.5-4.6c2.7-3.7,5.9-7,11-9.4c0.5-0.2-0.2-1-0.5-0.9C-191.8,385.5-199.9,396.7-200.6,397.4L-200.6,397.4z"/>
	<path class="st0" d="M-195.1,385.8c0-0.4,0.2-0.9,0-1.2c-0.7-0.6-1.7,0-2.2,0.4c-0.6,0.9-1.6,2-1.4,3c0,0.7-0.7,1.9,0,2
		c2.3,0.7,5.1-1,5.1-2.6c0-0.2,0-0.6,0-0.7C-194.1,386.3-194.9,386.2-195.1,385.8L-195.1,385.8z M-195.6,386.9
		c-1,0.2-0.5,1.4-1.5,1.6c-0.2,0-0.6,0-0.6,0c-0.5-1,0-2.2,1.1-3c0.7-0.4,1,0.4,1.5,0.7C-194.9,386.6-195.3,386.9-195.6,386.9
		L-195.6,386.9z"/>
	<polygon class="st0" points="-51,395.3 -46.9,395.3 -46.9,396 -48.7,396 -48.7,400.3 -49.3,400.3 -49.3,396 -51,396 	"/>
	<path class="st0" d="M-42,400.3v-2.8c0-0.1,0-0.9,0-1.2l0,0l-1.4,4.1H-44l-1.5-4.1l0,0c0,0.4,0,1.1,0,1.2v2.8h-0.6v-4.9h1l1.4,4.2
		l0,0l1.5-4.2h1v4.9H-42L-42,400.3z"/>
</g>
</svg>
