<?xml version="1.0" encoding="utf-8"?>
<!-- Generator: Adobe Illustrator 19.0.0, SVG Export Plug-In . SVG Version: 6.00 Build 0)  -->
<svg version="1.1" id="Layer_1" xmlns="http://www.w3.org/2000/svg" xmlns:xlink="http://www.w3.org/1999/xlink" x="0px" y="0px"
	 viewBox="-217 378.2 175.7 36.8" style="enable-background:new -217 378.2 175.7 36.8;" xml:space="preserve">
<style type="text/css">
	.st0{fill:#555555;}
</style>
<g>
	<path class="st0" d="M-198.8,384.2l5.8,13.4h-11.7L-198.8,384.2L-198.8,384.2z M-191.4,401.1l4.4,10.2c0.5,0.8,0.6,1.8,0.7,3h8.2
		c-0.4-0.6-1.4-2.3-1.9-3.2l-14.4-32.9h-7.2c0.7,0.9,0.9,2.2,0.5,3.2l-15.9,32.9h5.3c0.1-0.8,0.2-2,0.8-3l4.6-10.2H-191.4
		L-191.4,401.1z"/>
	<path class="st0" d="M-86.4,384.2l5.8,13.4h-11.8L-86.4,384.2L-86.4,384.2z M-79,401.1l4.4,10.2c0.5,0.8,0.6,1.8,0.7,3h8.2
		c-0.4-0.6-1.4-2.3-1.9-3.2L-82,378.2h-7.2c0.7,0.9,0.9,2.2,0.5,3.2l-15.8,33h5.3c0.1-0.8,0.2-2,0.8-3l4.6-10.2H-79V401.1z"/>
	<path class="st0" d="M-177,378.2c0.4,1.2,0.5,2.2,0.5,2.9v29.4c0,1.1-0.4,2.8-0.5,3.7h23l1.4-4.3c-2,0.5-3.2,0.7-4.4,0.7h-13.1
		v-29.5c0-0.8,0.5-2.2,0.6-2.9H-177L-177,378.2z"/>
	<path class="st0" d="M-72.9,378.2c0.7,0.7,1.9,1.8,2.3,2.5l10.2,14.5v15.5c0,0.8-0.4,2.9-0.5,3.6h7.5c-0.4-1.4-0.6-2.8-0.6-3.6
		v-15.3l10.2-14.2c0.6-0.8,2.2-2.6,2.6-3h-5.3c-0.6,1.3-0.8,1.9-1.4,2.8l-7.6,10.5l-7.2-10.5c-0.6-0.9-1.1-2.3-1.3-2.8H-72.9
		L-72.9,378.2z"/>
	<path class="st0" d="M-148.1,378.2c0.1,0.9,0.4,1.8,0.4,2.6c0,0.8-2.5,29.7-2.5,29.7c-0.1,1.4-0.6,3.2-0.8,3.9h4.6
		c-0.1-1.3-0.2-2.7-0.2-3.7s2.1-26.3,2.1-26.3l14.5,30.7l14.5-31.7l2.7,27.2c0,1.1-0.1,3-0.1,3.7h7.2c-0.5-2.1-0.9-3.2-0.9-3.9
		l-2.9-29.3c0-0.8,0.1-2.2,0.1-2.9h-7.6l-11.4,25.1l-11.9-25.1H-148.1L-148.1,378.2z"/>
	<path class="st0" d="M-46.8,406.7c1.8,0,3.2,1.4,3.2,3.3c0,1.9-1.4,3.3-3.2,3.3s-3.2-1.4-3.2-3.3C-50,408.1-48.6,406.7-46.8,406.7
		v-0.6c-2.1,0-3.9,1.7-3.9,3.8c0,2.2,1.8,3.9,3.9,3.9c2.1,0,3.9-1.7,3.9-3.9c0-2.2-1.8-3.8-3.9-3.8V406.7L-46.8,406.7z"/>
	<path class="st0" d="M-47.6,408.2h0.9c0.5,0,1,0.1,1,0.7c0,0.7-0.6,0.7-1.2,0.7h-0.7v0.6h0.7l1.2,1.9h0.8l-1.3-2
		c0.7-0.1,1.2-0.4,1.2-1.2c0-0.9-0.5-1.3-1.6-1.3h-1.7v4.6h0.7L-47.6,408.2L-47.6,408.2z"/>
</g>
</svg>
