<?xml version="1.0" encoding="utf-8"?>
<!-- Generator: Adobe Illustrator 19.0.0, SVG Export Plug-In . SVG Version: 6.00 Build 0)  -->
<svg version="1.1" id="Layer_2" xmlns="http://www.w3.org/2000/svg" xmlns:xlink="http://www.w3.org/1999/xlink" x="0px" y="0px"
	 viewBox="0 0 160 72" style="enable-background:new 0 0 160 72;" xml:space="preserve">
<style type="text/css">
	.st0{fill:#555655;}
</style>
<g>
	<g>
		<g>
			<path class="st0" d="M135.6,44.5L135.6,44.5c-1.2,1.4-2.5,2.3-4.4,2.3c-2.2,0-4-1.6-4-3.6c0-1.8,0.8-2.9,3.1-4.3
				c0.2-0.1,0.3-0.1,0.5,0l4.8,5c0.1,0.1,0.1,0.2,0.1,0.3c0,0,0,0,0,0C135.7,44.3,135.7,44.4,135.6,44.5z M132.3,28.4
				c1.5,0,2.3,1.1,2.3,2.3c0,1.5-1.3,2.4-3,3.3l-0.1,0c-0.1,0.1-0.3,0-0.4-0.1c0,0,0,0,0,0c-0.7-0.8-1.5-2-1.5-2.9
				C129.7,29.6,130.7,28.4,132.3,28.4z M145.2,48.6l-4.6-4.7c-0.1-0.1-0.2-0.3-0.1-0.5c0,0,3.5-5.8,3.5-5.8c0.1-0.2,0.1-0.3,0.1-0.3
				c0-0.4-0.3-0.7-0.7-0.7l-2.5,0c-0.3,0-0.5,0.1-0.6,0.3l-2.2,3.8c-0.1,0.1-0.3,0.2-0.5,0.1c0,0-3.6-3.7-3.6-3.7
				c-0.1-0.1-0.1-0.1-0.1-0.2c0-0.1,0-0.2,0.1-0.3l0,0c2-1.2,4.3-2.9,4.3-5.9c0-3.5-2.5-5.8-6.2-5.8c-3.6,0-6.4,2.4-6.4,6.1
				c0,1.6,0.7,3.2,2,4.9c0,0,0,0,0,0c0.1,0.1,0.1,0.2,0.1,0.2c0,0.1-0.1,0.2-0.1,0.2c-3,1.7-4.6,4-4.6,6.8c0,4.7,4,7.2,7.9,7.2
				c2.7,0,4.8-1,6.8-3.3c0,0,0,0,0,0c0.1-0.1,0.3-0.1,0.5,0l2.4,2.5c0,0,0.1,0.1,0.1,0.1c0.1,0.1,0.3,0.2,0.5,0.2h3.2
				c0.4,0,0.7-0.3,0.7-0.7C145.4,48.9,145.3,48.8,145.2,48.6L145.2,48.6z"/>
			<path class="st0" d="M120.3,46.8c0,0-0.1,0-0.1,0c-3.7,0-5.5-1.9-5.5-5.8V29.8c0-0.2,0.2-0.4,0.4-0.4h5.7c0.4,0,0.7-0.3,0.7-0.7
				v-2.5c0-0.4-0.3-0.7-0.7-0.7H115c-0.2,0-0.4-0.2-0.4-0.4V20c0-0.4-0.3-0.7-0.7-0.7h-0.1l-2.9,0.2c-0.4,0-0.7,0.3-0.7,0.7v5
				c0,0.2-0.2,0.4-0.4,0.4l-3.6,0c-0.4,0-0.7,0.3-0.7,0.7l0,2.5c0,0.2,0.1,0.4,0.2,0.5c0.1,0.1,0.3,0.2,0.5,0.2h3.6
				c0.2,0,0.4,0.2,0.4,0.4l0,12c0,6.4,4.8,8.7,9.1,8.7c0,0,0.5,0,0.9,0c0.4,0,0.7-0.3,0.7-0.7l0-2.4C121,47.1,120.7,46.8,120.3,46.8
				z"/>
			<path class="st0" d="M99.5,39.5c-0.6,4.1-2.6,6.5-6.3,7.1c-2.6,0.4-5-0.6-5.1-3.5c-0.1-3.1,3.4-5.7,10.1-5.4c0,0,0.5,0,0.8,0.1
				c0.3,0,0.5,0.1,0.6,0.3C99.6,38.3,99.6,38.6,99.5,39.5z M103.9,48.8c-0.2-0.7-0.3-1.4-0.3-1.7c0-0.2,0-1.2,0-1.2l0-11.9
				c0-6.3-4.4-8.5-8.6-8.5c-3.3,0-6.3,0.9-8.2,2.2c-0.2,0.1-0.3,0.3-0.3,0.4c0,0.2,0,0.4,0.1,0.5c0,0,1.5,2.1,1.5,2.1
				c0.2,0.3,0.6,0.4,0.9,0.1c0,0,0.2-0.1,0.2-0.1c1.5-0.9,3.3-1.5,5.1-1.5c5.1,0,5,4,5,4.5c0,0.3-0.2,0.3-0.4,0.3l-0.8,0
				c-4-0.1-14.1,1.2-14.1,9.2c0,4.7,3.9,7.1,7.6,7.1c3.5,0,6.4-1.4,7.8-3.1l0,0c0,0,0,0,0.1,0c0.1,0,0.1,0,0.1,0.1
				c0,0.2,0,0.7,0,1.1c0,0.4,0.1,0.7,0.2,0.9c0.1,0.2,0.2,0.4,0.4,0.5c0.1,0,0.2,0.1,0.3,0.1c0,0,2.8,0,2.8,0c0.4,0,0.7-0.3,0.7-0.7
				C104,49.1,103.9,48.8,103.9,48.8z"/>
			<path class="st0" d="M158.9,46.8c0,0-0.1,0-0.1,0c-3.7,0-5.5-1.9-5.5-5.8V29.8c0-0.2,0.2-0.4,0.4-0.4h5.7c0.4,0,0.7-0.3,0.7-0.7
				v-2.5c0-0.4-0.3-0.7-0.7-0.7h-5.7c-0.2,0-0.4-0.2-0.4-0.4V20c0-0.4-0.3-0.7-0.7-0.7h-0.1c0,0-2.9,0.2-2.9,0.2
				c-0.4,0-0.7,0.3-0.7,0.7v5c0,0.2-0.2,0.4-0.4,0.4l-3.6,0c-0.4,0-0.7,0.3-0.7,0.7l0,2.5c0,0.2,0.1,0.4,0.2,0.5
				c0.1,0.1,0.3,0.2,0.5,0.2h3.6c0.2,0,0.4,0.2,0.4,0.4v12c0,6.4,4.8,8.7,9.1,8.7c0,0,0.5,0,0.9,0c0.4,0,0.7-0.3,0.7-0.7l0-2.4
				C159.6,47.1,159.2,46.8,158.9,46.8z"/>
		</g>
	</g>
</g>
<path class="st0" d="M14.7,8.8c0.3,3.6,9.8,6.4,21.3,6.1c11.5-0.3,20.4-3.6,20.4-7.2c0-1-0.8-2-2.1-2.8C48.9,1.8,42.6,0,36,0
	c-6.9,0-13.4,2-18.9,5.4C15.4,6.4,14.6,7.6,14.7,8.8z M25,26.6c3.8,0.5,13.8,1.9,21.6,1.2c15.7-1.3,19.2-6.8,19.2-10.3
	c0-1-0.5-2.4-1.1-3.2c-1.4-1.8-3-3.5-4.7-5.1c0.4,0.5,0.6,1.1,0.6,1.5c0.1,2.4-3.8,5.7-11.8,8.3c-5,1.7-11.6,3.3-19.8,3.3
	c-13.8,0-18.6-5.2-18.6-8.5c0-0.3-0.1-3.2,3.1-5.8C10.6,10.2,8,13,5.9,16.2c-0.2,0.4-0.4,0.8-0.4,1.3C5.6,20.8,13.8,25.2,25,26.6z
	 M13.2,50.7c7.8,3.2,20.1,5.6,27.2,5.3c25.3-0.9,30.9-13.7,31.5-17.4C72,37.8,72,36.9,72,36c0-2.9-0.4-5.8-1-8.5
	c0.3,1.2,0.3,2.3,0.3,2.9c0,1.2,0.2,12.3-25,17.9c-15.1,3.4-21.5,3.3-31.9,0C5.2,45.4,0.3,38.8,0.1,33C0,34,0,35,0,36
	c0,0.8,0,1.6,0.1,2.4C0.7,43.2,6.9,48.2,13.2,50.7z M34.5,68.3c-5.5,0-17.4-0.9-25.2-8.2C15.9,67.4,25.4,72,36,72
	c13.8,0,25.8-7.8,31.8-19.1C65.9,56.1,57.7,68.3,34.5,68.3z M35.2,61.1c-4.5,0.5-30.9,1.7-34.8-19.2C1,45.2,2,48.3,3.4,51.3
	c1.7,3,5.8,7.1,11.7,9.5c30.9,12.8,50-2.4,53.7-10c1.5-3.3,2.5-6.8,2.9-10.4C71.3,43.2,68.4,57.4,35.2,61.1z M1.3,26.2
	c0.6-2.1,1.3-4,2.2-5.9c-0.4,1-0.6,2-0.6,3.6c0,8.8,19,17.4,42.2,11.1c9.1-2.5,22.6-7.2,22.6-14.5c0-0.4,0.2-1.2-1-3.3
	c1.5,2.5,2.7,5.1,3.6,7.9c0.4,1.5,0.4,2.5,0.4,2.9c0,1.8-2.2,12.7-24,14.7c-1.9,0.2-15.7,0.4-27.8-2.7c-8-2-16.1-5.9-17.6-11.4
	C1,27.8,1.1,27,1.3,26.2z"/>
</svg>
