<?xml version="1.0" encoding="utf-8"?>
<!-- Generator: Adobe Illustrator 19.0.0, SVG Export Plug-In . SVG Version: 6.00 Build 0)  -->
<svg version="1.1" id="Layer_1" xmlns="http://www.w3.org/2000/svg" xmlns:xlink="http://www.w3.org/1999/xlink" x="0px" y="0px"
	 viewBox="0 0 175.7 41.7" style="enable-background:new 0 0 175.7 41.7;" xml:space="preserve">
<style type="text/css">
	.st0{fill:#555655;}
	.st1{fill-rule:evenodd;clip-rule:evenodd;fill:#555655;}
</style>
<path class="st0" d="M23.6,0h128.5c6.4,0,12.3,2.3,16.5,6c4.4,3.8,7.1,9,7.1,14.9c0,5.8-2.7,11.1-7.1,14.9c-4.3,3.7-10.1,6-16.5,6
	H23.6c-6.4,0-12.3-2.3-16.5-6C2.7,31.9,0,26.7,0,20.8C0,15,2.7,9.8,7.1,6C11.3,2.3,17.2,0,23.6,0L23.6,0z M152.1,5.3H23.6
	c-5.1,0-9.8,1.8-13.1,4.7c-3.2,2.8-5.2,6.6-5.2,10.9c0,4.2,2,8.1,5.2,10.9c3.3,2.9,8,4.7,13.1,4.7h128.5c5.1,0,9.8-1.8,13.1-4.7
	c3.2-2.8,5.2-6.6,5.2-10.9c0-4.2-2-8.1-5.2-10.9C161.9,7.1,157.3,5.3,152.1,5.3L152.1,5.3z"/>
<path class="st1" d="M35.5,29.8c0,0-1.1,0-1-0.6c0.1-0.7,1.1-0.5,1.7-0.5c0.6,0,0.9-0.4,1.7-0.9c0.9-0.5,0.8-1.9,0.8-1.9V15.2
	c0,0-0.1-1.5-0.6-2s-1.2-0.6-1.2-0.6s-2.4,0.1-2.4-0.7c0-0.9,1.7-0.6,1.7-0.6h11.4c0,0,1.9-0.3,1.9,0.6c0,0.8-2.4,0.7-2.4,0.7
	s-0.8,0-1.2,0.6c-0.5,0.6-0.6,2-0.6,2V26c0,0-0.1,1.4,0.8,1.9c0.8,0.5,1.1,0.9,1.7,0.9c0.6,0,1.5-0.2,1.7,0.5c0.1,0.6-1,0.6-1,0.6
	H35.5L35.5,29.8z"/>
<path class="st1" d="M91.2,29.8c0,0-1.2,0.1-1-0.6c0.1-0.7,1-0.5,1.7-0.5c0.6,0,0.8-0.4,1.7-0.9c0.8-0.5,0.8-1.8,0.8-1.8V15.3
	c0,0-0.1-1.5-0.6-2c-0.5-0.6-1.3-0.6-1.3-0.6s-2.4,0.1-2.4-0.7c0-0.9,1.9-0.6,1.9-0.6h11.8c0,0,1.8-0.3,1.8,0.6
	c0,0.8-2.4,0.7-2.4,0.7s-0.8,0-1.2,0.6c-0.5,0.6-0.6,2-0.6,2v10.8c0,0-0.4,1.7,0.4,2.2c0.9,0.5,3.3-1.4,4.4-3c1.3-2,2.1-5.3,2.7-5.4
	c1.1-0.2,0.7,1.7,0.7,1.7v8.3H91.2L91.2,29.8z"/>
<path class="st1" d="M160.4,26h0.5l1.1,2h1.2l-1.2-2.1c0.6,0,1.2-0.3,1.2-1.2c0-1.1-0.8-1.5-2-1.5h-1.9V28h1.1V26L160.4,26z
	 M160.4,25.2V24h0.7c0.4,0,1,0,1,0.5c0,0.6-0.3,0.7-0.8,0.7H160.4L160.4,25.2z M165.7,25.6c0-2.8-2.1-4.6-4.6-4.6
	c-2.4,0-4.5,1.7-4.5,4.6s2.1,4.6,4.5,4.6C163.5,30.2,165.7,28.5,165.7,25.6L165.7,25.6z M164.4,25.6c0,2.1-1.5,3.5-3.3,3.5l0,0
	c-1.8,0-3.3-1.4-3.3-3.5c0-2.1,1.5-3.5,3.3-3.5S164.4,23.5,164.4,25.6L164.4,25.6z"/>
<path class="st1" d="M68.6,12.1c0,0.6,0.3,0.3,1.9,0.7c1.7,0.3,1.9,0.6,2.3,1.2c0.3,0.8,0.3,2,0.3,2v9.9c0,0-0.7,1.5-1.5,2.1
	c-0.8,0.6-2.2,0.7-2.2,0.7s-1.2-0.1-1.2,0.6c0,0.6,2,0.6,2,0.6h18.6v-7.1c0,0,0-1-0.5-1c-0.5,0-1,2.5-3.3,4.4c-3,2.6-3,2.3-5.5,2.2
	v-7.2c0,0,0.3-0.7,0.8-0.6c0.5,0.1,1.9,0.5,2.4,1.2c0.3,0.6,1.2,2.5,1.6,2.7c0.4,0.2,0.9-0.4,0.9-1.1c0-0.6,0.1-3.3,0.1-3.3
	s-0.1-3-0.1-3.4c0-0.4-0.1-0.7-0.6-0.7c-0.4,0-1.3,1.5-1.9,2.2c-0.6,0.7-1.4,0.9-2.1,0.9c-0.8,0-1-0.3-1-0.3v-5.3c0,0,0-1,1.3-0.8
	c1.4,0.1,2.9,0.8,4.3,2.1c1.3,1.3,2.1,4.2,2.8,4.3c0.6,0.1,0.5-1.3,0.5-1.3v-6.4H68.9C68.9,11.4,68.6,11.4,68.6,12.1L68.6,12.1z"/>
<path class="st1" d="M66.7,12.1v4.5c0,0,0.2,1.5-0.4,1.4c-1.2-0.1-1.7-1.9-3.5-3.5c-1.8-1.5-2.8-2.2-4.4-2.2c-1.5,0-2.6,2.1-2.6,8.2
	c0,6.1,1,8.6,3.1,8.5c2.1-0.1,2.9-1.7,2.9-4.2c0-2.5-1-2.8-1.7-3.1c-0.6-0.3-2.1,0.3-2-0.7c0.1-1,1.5-0.7,1.5-0.7h11
	c0,0,1.3-0.1,1.4,0.6c0.1,0.8-1.1,0.6-1.9,0.8c-0.8,0.2-1.1,0-1.7,1.1C68.1,23.1,68,24,68,24v4c0,0-1.9,0.2-3.7,0.9
	c-1.7,0.7-3,1-3.8,1.2c-0.8,0.2-2.5,0.1-3.2,0.1c-0.7,0-9.3-2.1-9.3-9.3c0-7.3,5.6-9.3,7.7-9.8c1.5-0.4,3.5-0.3,4.5-0.2
	c1.1,0.1,2.3,0.6,3.3,0.6c0.7,0.1,2-0.6,2.5-0.5C66.5,11.2,66.7,12.1,66.7,12.1L66.7,12.1z"/>
<path class="st1" d="M12.3,11.4h14.7c0,0,7.1-0.3,7.1,4.3c0,3.8-4.8,4.4-4.8,4.4s6,0.7,6,4.9c0,5.1-6.5,4.9-6.5,4.9H12.8
	c0,0-1.5,0.2-1.2-0.8c0.2-1,1.7-0.1,3-1C16,27.1,16,26,16,26V15.6c0,0,0-1.6-0.7-2.2c-0.7-0.7-2.3-1-2.3-1s-1.5,0.3-1.5-0.3
	C11.6,11.1,12.3,11.4,12.3,11.4L12.3,11.4z M24.9,12.8c1.9,0,2.6,1,2.6,2.8c0.1,1.7-0.8,3.6-2.8,3.6c-2,0-2.1-1.4-2.1-1.4v-3
	C22.6,14.8,23,12.8,24.9,12.8L24.9,12.8z M24.2,20.4c1,0,3.8-0.2,3.8,4.1c0,4.3-2.7,3.9-3.5,3.9c-1.8,0-2.1-1.3-2.1-1.3v-4.8
	C22.4,22.3,22.2,20.4,24.2,20.4L24.2,20.4z"/>
<path class="st1" d="M121,12.3c-2.1,0-3.6,2.1-3.6,8c0,6,1.4,8.6,3.5,8.4c2.1,0.1,3.5-2.4,3.5-8.4C124.4,14.4,123.1,12.3,121,12.3
	L121,12.3z M120.7,30.3c-0.6,0-10.7-0.6-10.7-9.2c0-9.3,9.6-10,10.7-10c1.1,0,10.7,0.4,10.7,10C131.4,29.9,121.3,30.3,120.7,30.3
	L120.7,30.3z"/>
<path class="st1" d="M151.9,29.8L146.7,19l-3.9,10.8h-2.4c0,0-6.8-15.1-8-16.1c-0.6-0.5-1.2-0.6-1.2-0.6s-3,0.1-3-1.2
	c0-0.9,1.8-0.5,1.8-0.5h33.5c0,0,1.9-0.4,1.9,0.5c0,1.2-2.8,1.1-2.8,1.1s-0.8,0-1.2,0.6c-4.2,5-7.1,16.3-7.1,16.3H151.9L151.9,29.8z
	 M145.5,17.5l-1.7,4.1l-3.2-6.4c0,0-0.6-0.6-0.3-1c0.4-0.8,0.5-1.3,2-1.3c1.6,0,1.7,1,2.4,1.8C145.7,15.8,145.5,17.5,145.5,17.5
	L145.5,17.5z M156.9,17.2l-1.7,4l-3.1-6c0,0-0.6-0.6-0.3-1c0.4-0.8,0.5-1.3,2-1.3c1.6,0,1.9,0.6,2.6,1.4
	C157.4,15.4,156.9,17.2,156.9,17.2L156.9,17.2z"/>
</svg>
