<?xml version="1.0" encoding="utf-8"?>
<!-- Generator: Adobe Illustrator 19.0.0, SVG Export Plug-In . SVG Version: 6.00 Build 0)  -->
<svg version="1.1" id="Layer_1" xmlns="http://www.w3.org/2000/svg" xmlns:xlink="http://www.w3.org/1999/xlink" x="0px" y="0px"
	 viewBox="0 0 351.5 83.4" style="enable-background:new 0 0 351.5 83.4;" xml:space="preserve">
<style type="text/css">
	.st0{fill:#555655;}
	.st1{fill-rule:evenodd;clip-rule:evenodd;fill:#555655;}
</style>
<path class="st0" d="M47.2,0h257c12.9,0,24.6,4.6,33.1,12c8.7,7.6,14.1,18.1,14.1,29.7c0,11.6-5.4,22.1-14.1,29.7
	c-8.5,7.4-20.2,12-33.1,12h-257c-12.9,0-24.6-4.6-33.1-12C5.4,63.8,0,53.3,0,41.7C0,30.1,5.4,19.6,14.1,12C22.7,4.6,34.4,0,47.2,0
	L47.2,0z M304.3,10.6h-257c-10.3,0-19.5,3.6-26.2,9.4c-6.5,5.6-10.5,13.3-10.5,21.7c0,8.4,4,16.1,10.5,21.7
	c6.7,5.8,15.9,9.4,26.2,9.4h257c10.3,0,19.5-3.6,26.2-9.4c6.5-5.6,10.5-13.3,10.5-21.7c0-8.4-4-16.1-10.5-21.7
	C323.8,14.2,314.5,10.6,304.3,10.6L304.3,10.6z"/>
<path class="st1" d="M71,59.7c0,0-2.2,0-2.1-1.2c0.3-1.4,2.2-1,3.3-1c1.1,0,1.8-0.8,3.5-1.8c1.8-1,1.5-3.7,1.5-3.7V30.5
	c0,0-0.1-2.9-1.1-4s-2.5-1.1-2.5-1.1s-4.8,0.3-4.8-1.4c0-1.8,3.5-1.1,3.5-1.1h22.8c0,0,3.9-0.7,3.9,1.1c0,1.7-4.8,1.4-4.8,1.4
	s-1.5,0-2.5,1.1c-1,1.1-1.1,4-1.1,4v21.5c0,0-0.3,2.8,1.5,3.7c1.7,1,2.2,1.8,3.5,1.8c1.1,0,3-0.4,3.3,1c0.1,1.2-2.1,1.2-2.1,1.2H71
	L71,59.7z"/>
<path class="st1" d="M182.5,59.7c0,0-2.4,0.1-2.1-1.1c0.1-1.4,2.1-1,3.3-1c1.1,0,1.7-0.8,3.5-1.8c1.7-1,1.5-3.6,1.5-3.6V30.6
	c0,0-0.1-2.9-1.1-4c-1-1.1-2.6-1.1-2.6-1.1s-4.8,0.3-4.8-1.4c0-1.8,3.7-1.2,3.7-1.2h23.5c0,0,3.6-0.6,3.6,1.2c0,1.7-4.8,1.4-4.8,1.4
	s-1.5,0-2.5,1.1c-1,1.1-1.1,4-1.1,4v21.6c0,0-0.8,3.5,0.8,4.4c1.8,1,6.6-2.8,8.7-6.1c2.6-4,4.3-10.7,5.4-10.8
	c2.2-0.4,1.4,3.3,1.4,3.3v16.6H182.5L182.5,59.7z"/>
<path class="st1" d="M320.9,52.1h1l2.2,4h2.5l-2.5-4.3c1.2,0,2.4-0.7,2.4-2.5c0-2.2-1.5-2.9-4-2.9h-3.7v9.7h2.2V52.1L320.9,52.1z
	 M320.9,50.4v-2.4h1.4c0.8,0,1.9,0,1.9,1c0,1.1-0.6,1.4-1.5,1.4H320.9L320.9,50.4z M331.4,51.2c0-5.7-4.3-9.1-9.1-9.1
	c-4.7,0-9,3.5-9,9.1s4.3,9.1,9,9.1C327.1,60.4,331.4,56.9,331.4,51.2L331.4,51.2z M328.8,51.2c0,4.2-2.9,6.9-6.5,6.9l0,0
	c-3.6,0-6.5-2.8-6.5-6.9c0-4.2,2.9-6.9,6.5-6.9S328.8,47.1,328.8,51.2L328.8,51.2z"/>
<path class="st1" d="M137.2,24.1c0,1.1,0.7,0.7,3.9,1.4c3.3,0.6,3.9,1.2,4.6,2.5c0.7,1.5,0.7,4,0.7,4v19.8c0,0-1.4,3-2.9,4.2
	c-1.5,1.2-4.4,1.4-4.4,1.4s-2.5-0.1-2.5,1.2c0,1.2,4,1.1,4,1.1h37.2V45.6c0,0,0-2.1-1-2.1c-1,0-1.9,5-6.5,8.7
	c-6.1,5.1-6,4.6-10.9,4.4V42.3c0,0,0.6-1.4,1.5-1.1c1,0.1,3.9,1,4.7,2.4c0.7,1.2,2.5,5,3.2,5.4c0.8,0.4,1.8-0.8,1.8-2.2
	c0-1.2,0.1-6.5,0.1-6.5s-0.1-6.1-0.1-6.8c0-0.8-0.3-1.4-1.2-1.4c-0.8,0-2.6,3-3.7,4.4c-1.2,1.4-2.8,1.8-4.3,1.8
	c-1.5,0-1.9-0.6-1.9-0.6V27.2c0,0,0-1.9,2.6-1.7c2.8,0.1,5.8,1.7,8.6,4.2c2.6,2.6,4.3,8.4,5.5,8.6c1.2,0.1,1-2.6,1-2.6V22.9h-39.2
	C137.9,22.9,137.2,22.9,137.2,24.1L137.2,24.1z"/>
<path class="st1" d="M133.3,24.1v9c0,0,0.4,2.9-0.8,2.8c-2.4-0.3-3.3-3.9-7.1-7.1c-3.6-3-5.5-4.4-8.7-4.4c-3,0-5.3,4.3-5.3,16.3
	c0,12.2,1.9,17.2,6.2,17c4.3-0.3,5.8-3.3,5.8-8.4c0-5-1.9-5.7-3.3-6.2c-1.2-0.6-4.3,0.6-4-1.4c0.1-1.9,2.9-1.4,2.9-1.4h22
	c0,0,2.6-0.3,2.8,1.2c0.1,1.5-2.2,1.1-3.7,1.5c-1.5,0.4-2.2,0-3.3,2.2c-0.6,0.8-0.7,2.6-0.7,2.6v8c0,0-3.7,0.4-7.3,1.8
	c-3.5,1.4-6,2.1-7.6,2.5c-1.5,0.4-5,0.3-6.4,0.3c-1.4,0-18.5-4.2-18.5-18.5c0-14.5,11.2-18.5,15.4-19.5c2.9-0.8,6.9-0.7,9-0.4
	c2.2,0.1,4.6,1.1,6.5,1.1c1.4,0.1,4-1.1,5-1C133,22.5,133.3,24.1,133.3,24.1L133.3,24.1z"/>
<path class="st1" d="M24.7,22.7h29.5c0,0,14.3-0.6,14.3,8.6c0,7.6-9.7,8.7-9.7,8.7s12,1.4,12,9.8c0,10.2-13,9.8-13,9.8H25.6
	c0,0-2.9,0.4-2.5-1.5c0.4-1.9,3.3-0.1,6.1-2.1c2.8-1.9,2.8-4.2,2.8-4.2V31.2c0,0,0-3.2-1.4-4.4c-1.4-1.4-4.6-1.9-4.6-1.9
	s-2.9,0.6-2.9-0.7C23.2,22.2,24.7,22.7,24.7,22.7L24.7,22.7z M49.9,25.5c3.9,0,5.1,2.1,5.3,5.7c0.3,3.5-1.5,7.2-5.7,7.2
	c-4,0-4.3-2.8-4.3-2.8v-6.1C45.2,29.5,46,25.5,49.9,25.5L49.9,25.5z M48.5,40.9c1.9,0,7.6-0.4,7.6,8.2c0,8.6-5.4,7.9-7.1,7.9
	c-3.6,0-4.3-2.6-4.3-2.6v-9.7C44.7,44.6,44.3,40.9,48.5,40.9L48.5,40.9z"/>
<path class="st1" d="M242,24.7c-4.3,0-7.2,4.2-7.2,16.1c0,12,2.8,17.2,7.1,16.9c4.3,0.3,7.1-4.8,7.1-16.9
	C248.9,28.8,246.3,24.7,242,24.7L242,24.7z M241.4,60.5c-1.1,0-21.3-1.1-21.3-18.4c0-18.5,19.2-19.9,21.3-19.9
	c2.2,0,21.5,0.8,21.5,19.9C262.9,59.8,242.7,60.5,241.4,60.5L241.4,60.5z"/>
<path class="st1" d="M303.7,59.7l-10.4-21.6l-7.9,21.6h-4.7c0,0-13.6-30.2-16.1-32.2c-1.1-1-2.5-1.2-2.5-1.2s-6,0.3-6-2.4
	c0-1.8,3.6-1,3.6-1h67c0,0,3.7-0.8,3.7,1c0,2.4-5.7,2.2-5.7,2.2s-1.5,0-2.5,1.1c-8.3,10-14.1,32.5-14.1,32.5H303.7L303.7,59.7z
	 M291,35.1l-3.3,8.2l-6.4-12.9c0,0-1.1-1.1-0.6-2.1c0.8-1.5,1-2.6,4-2.6c3.2,0,3.3,1.9,4.7,3.6C291.4,31.6,291,35.1,291,35.1
	L291,35.1z M313.8,34.4l-3.3,8l-6.2-12c0,0-1.1-1.1-0.6-2.1c0.8-1.5,1-2.6,4-2.6c3.2,0,3.7,1.1,5.1,2.8
	C314.8,30.8,313.8,34.4,313.8,34.4L313.8,34.4z"/>
</svg>
