<?xml version="1.0" encoding="utf-8"?>
<!-- Generator: Adobe Illustrator 19.0.0, SVG Export Plug-In . SVG Version: 6.00 Build 0)  -->
<svg version="1.1" id="Capa_1" xmlns="http://www.w3.org/2000/svg" xmlns:xlink="http://www.w3.org/1999/xlink" x="0px" y="0px"
	 viewBox="-225 381.7 159.3 30.3" style="enable-background:new -225 381.7 159.3 30.3;" xml:space="preserve">
<style type="text/css">
	.st0{fill:#555555;}
</style>
<g>
	<g>
		<polygon class="st0" points="-168.6,382.9 -169.6,386.7 -168.4,386.7 -163,386.7 -163,411.4 -158.8,411.4 -158.8,386.7 
			-152.2,386.7 -152.2,382.9 -168.4,382.9 -168.6,382.9 		"/>
		<polygon class="st0" points="-117.9,386.9 -118.9,382.9 -132,382.9 -132,395.2 -146,395.2 -146,382.9 -150.3,382.9 -150.3,411.4 
			-146,411.4 -146,399.2 -132,399.2 -132,411.4 -119.9,411.4 -118,407.4 -127.7,407.4 -127.7,399.3 -117.9,399.3 -117.9,395.3 
			-127.7,395.3 -127.7,386.9 -117.9,386.9 		"/>
		<path class="st0" d="M-206.2,401.3l-0.2-0.6l-0.2-0.5l-0.2-0.5l-0.2-0.5l-0.3-0.5l-0.4-0.5l-0.3-0.6l-0.5-0.5l-0.5-0.5l-0.2-0.2
			l0.1-0.1l0.4-0.3l0.4-0.4l0.4-0.4l0.3-0.4l0.2-0.4l0.3-0.5l0.2-0.5l0.2-0.5l0.2-0.5l0.1-0.5l0.1-0.5v-0.5l0.1-0.5V390l-0.1-0.5
			V389l-0.1-0.5l-0.1-0.5l-0.2-0.5l-0.2-0.5l-0.1-0.5l-0.3-0.5l-0.2-0.5l-0.3-0.5l-0.3-0.3l-0.4-0.4l-0.4-0.4l-0.4-0.4l-0.5-0.3
			l-0.5-0.3l-0.5-0.3l-0.6-0.2l-0.6-0.2l-0.6-0.2l-0.6-0.1l-0.6-0.1l-0.6-0.1h-1.1h-1.2h-8.3v29.7h9.5h0.7l0.6-0.1l0.6-0.1h0.6
			l0.5-0.1l0.5-0.2l0.5-0.2l0.5-0.2l0.5-0.2l0.5-0.3l0.4-0.3l0.5-0.3l0.4-0.3l0.3-0.3l0.4-0.4l0.3-0.4l0.4-0.4l0.3-0.4l0.2-0.4
			l0.2-0.5l0.2-0.5l0.2-0.5l0.2-0.5l0.1-0.5l0.1-0.5v-0.5v-0.5v-0.5l-0.1-0.5L-206.2,401.3L-206.2,401.3L-206.2,401.3z
			 M-210.5,403.7l-0.1,0.6l-0.2,0.4l-0.3,0.6l-0.4,0.5l-0.4,0.3l-0.5,0.4l-0.6,0.3l-0.6,0.2l-0.4,0.2l-1.6,0.1h-0.8h-4.3v-9h4.1h1.1
			h1l0.5,0.1l0.5,0.1l0.4,0.2l0.6,0.3l0.5,0.4l0.5,0.5l0.4,0.6l0.3,0.7l0.2,0.7l0.1,0.6v0.5V403.7L-210.5,403.7L-210.5,403.7z
			 M-210.4,390.8l-0.1,0.6l-0.2,0.5l-0.3,0.5l-0.4,0.5l-0.3,0.3l-0.5,0.4l-0.6,0.3l-0.6,0.2l-0.5,0.1l-1.6,0.1h-0.6h-4.4v-8.8h5h1.1
			l0.4,0.1l0.5,0.1l0.5,0.2l0.6,0.3l0.5,0.5l0.5,0.5l0.4,0.5l0.3,0.7l0.2,0.7l0.2,0.6v0.5L-210.4,390.8L-210.4,390.8L-210.4,390.8z"
			/>
		<polygon class="st0" points="-69.2,382.8 -80.7,403.4 -92.2,382.8 -95.7,411.4 -91.4,411.4 -89.8,396.1 -80.7,411.4 -71.6,396.1 
			-70,411.4 -65.7,411.4 -69.2,382.8 		"/>
		<polygon class="st0" points="-203.5,411.4 -199.1,411.4 -199.1,382.9 -203.5,382.9 -203.5,411.4 		"/>
		<path class="st0" d="M-167.4,395.1l-0.1-0.7l-0.1-0.6l-0.2-0.6l-0.2-0.6l-0.2-0.6l-0.2-0.5l-0.1-0.1l-0.3-0.6l-0.2-0.6l-0.3-0.6
			l-0.3-0.5l-0.4-0.5l-0.4-0.5l-0.4-0.5l-0.4-0.5l-0.4-0.5l-0.5-0.4l-0.5-0.4l-0.5-0.4l-0.5-0.4l-0.6-0.4l-0.6-0.3l-0.6-0.3
			l-0.5-0.3l-0.6-0.2l-0.6-0.2l-0.6-0.2l-0.6-0.2l-0.6-0.2l-0.6-0.1l-0.6-0.1l-1.3-0.1h-0.5h-0.8l-1.3,0.1l-0.6,0.1l-0.7,0.1
			l-0.6,0.2l-0.6,0.2l-0.6,0.2l-0.6,0.2l-0.6,0.3l-0.6,0.3l-0.6,0.3l-0.5,0.3l-0.8,0.6l-0.6,0.4l-0.5,0.4l-0.5,0.5l-0.4,0.5
			l-0.4,0.5l-0.4,0.5l-0.4,0.4l-0.4,0.5l-0.3,0.5l-0.3,0.6l-0.2,0.6l-0.3,0.6l-0.2,0.6l-0.3,0.6l-0.2,0.6l-0.2,0.9l-0.1,0.6
			l-0.1,0.7l-0.1,1.3v1.3l0.1,1.3l0.1,0.6l0.1,0.6l0.1,0.6l0.2,0.6l0.2,0.6l0.2,0.6l0.3,0.6l0.3,0.6l0.5,0.8l0.2,0.3l0.3,0.5
			l0.4,0.5l0.4,0.5l0.4,0.5l0.4,0.5l0.5,0.5l0.5,0.4l0.5,0.4l0.5,0.4l0.5,0.4l0.5,0.3l0.6,0.3l0.6,0.3l0.6,0.3l0.6,0.2l0.6,0.2
			l0.6,0.2l0.6,0.2l0.6,0.1l0.6,0.1l1.3,0.1h0.8h0.4l1.3-0.1l0.6-0.1l0.7-0.1l0.6-0.1l0.6-0.2l0.6-0.2l0.6-0.2l0.6-0.3l0.6-0.3
			l0.6-0.3l0.6-0.3l0.5-0.4l0.5-0.4l0.5-0.4l0.5-0.4l0.5-0.4l0.5-0.4l0.4-0.5l0.4-0.5l0.4-0.5l0.4-0.5l0.3-0.6l0.3-0.5l0.3-0.6
			l0.3-0.6l0.1-0.3l0.1-0.3l0.2-0.6l0.2-0.6l0.3-1l0.1-0.6l0.1-0.6l0.1-1.3V397l-0.2-1.3V395.1L-167.4,395.1L-167.4,395.1z
			 M-171.6,398.2l-0.2,1l-0.2,1l-0.3,1l-0.2,0.5l-0.2,0.5l-0.4,0.5l-0.3,0.5l-0.3,0.4l-0.3,0.4l-0.4,0.4l-0.4,0.4l-0.4,0.4l-0.4,0.3
			l-0.4,0.3l-0.5,0.3l-0.5,0.3l-0.5,0.3l-1,0.4l-1,0.3l-1.1,0.2l-0.9,0.1h-0.4h-0.7l-1.1-0.1l-0.5-0.1l-0.8-0.3l-1-0.4l-0.5-0.2
			l-0.5-0.3l-0.5-0.3l-0.5-0.3l-0.4-0.3l-0.4-0.3l-0.3-0.4l-0.4-0.4l-0.3-0.4l-0.3-0.4l-0.3-0.4l-0.3-0.4l-0.4-0.7l-0.3-0.7l-0.3-1
			l-0.3-1.1l-0.2-1.1v-0.9v-0.8l0.1-1l0.2-1l0.3-1l0.2-0.5l0.2-0.5l0.3-0.5l0.3-0.5l0.3-0.4l0.3-0.4l0.4-0.4l0.4-0.5l0.4-0.4
			l0.4-0.4l0.4-0.2l0.4-0.3l0.5-0.3l0.5-0.3l0.5-0.2l1-0.4l1-0.3l1-0.2h1.1h0.1l1,0.1l1,0.2l1,0.3l1,0.3l0.5,0.1l0.5,0.3l0.4,0.3
			l0.5,0.3l0.4,0.3l0.4,0.3l0.4,0.4l0.4,0.4l0.3,0.4l0.6,0.8l0.3,0.5l0.3,0.5l0.3,0.5l0.2,0.5l0.4,1l0.3,1.1l0.2,1.1v1L-171.6,398.2
			L-171.6,398.2L-171.6,398.2z"/>
		<path class="st0" d="M-97.8,389.3l-0.1-0.6l-0.2-0.6l-0.2-0.5l-0.3-0.5l-0.4-0.5l-0.3-0.5l-0.4-0.5l-0.5-0.4l-0.5-0.4l-0.5-0.4
			l-0.5-0.4l-0.6-0.3l-0.6-0.3l-0.7-0.2l-0.7-0.2l-0.7-0.1l-0.7-0.1h-0.6h-0.2h-9.2v28.5h4.3v-12l5,6.5l4.3,5.6l4.4-1.4l-8.7-11
			l-0.1-0.1h0.1l0.8-0.2l0.9-0.2l0.8-0.2l0.8-0.3l0.7-0.3l0.7-0.3l0.6-0.4l0.5-0.4l0.5-0.4l0.5-0.5l0.4-0.5l0.3-0.5l0.3-0.5l0.3-0.5
			l0.2-0.5l0.2-0.6l0.1-0.5l0.1-0.6V391v-0.6l-0.1-0.6L-97.8,389.3L-97.8,389.3L-97.8,389.3z M-101.3,391.5l-0.2,0.6l-0.2,0.6
			l-0.3,0.6l-0.5,0.5l-0.6,0.5l-0.7,0.4l-0.8,0.2l-0.9,0.2l-0.8,0.1h-0.2h-4.9v-8.8h4.9h0.2h0.7l0.9,0.2l0.7,0.3l0.7,0.4l0.6,0.5
			l0.5,0.5l0.4,0.6l0.2,0.6l0.2,0.6l0.1,0.6L-101.3,391.5L-101.3,391.5L-101.3,391.5z"/>
	</g>
</g>
</svg>
