<?xml version="1.0" encoding="utf-8"?>
<!-- Generator: Adobe Illustrator 19.0.0, SVG Export Plug-In . SVG Version: 6.00 Build 0)  -->
<svg version="1.1" id="Layer_1" xmlns="http://www.w3.org/2000/svg" xmlns:xlink="http://www.w3.org/1999/xlink" x="0px" y="0px"
	 viewBox="371 -24.2 1353 840.2" style="enable-background:new 371 -24.2 1353 840.2;" xml:space="preserve">
<style type="text/css">
	.st0{fill:#555555;}
	.st1{fill:#FFFFFF;}
</style>
<path class="st0" d="M376.6,4.7l65.1,179.9c0,0-56.3,26.2-66.2,36.4c-4.9,5-6,14.8-2.6,18.7c8,9,62.1,33.3,62.1,33.3l-60.3,208.4
	c0,0,27.4,0.4,49,0c88.6-1.7,143.2-18.3,223.3-48.5c6.2-2.3,7.6-2.3,13.8-0.1c29.1,10.4,140.5,50.1,175.2,55.4
	c21.5,3.3,46.3,5.7,52.8,9.4s38.8,43,57.6,65.1c4.3,5,5.5,5.6,12.1,5.6h187.3c6.6,0,7.9-0.5,12.5-5.3c14.8-15.3,35.4-38.5,45.4-44.9
	c4.8-3.1,122.7-16.1,192.4-24.7c84.4-10.4,232.4-61.3,288.6-126c50.3-58,50.6-124,10.2-189C1583.2-1.5,1228-24.2,1044.6-24.2
	c-57.4,0-234.2,10.5-300.5,36.6c-35,13.8-89.5,35.7-94.3,34.9c-8.4-1.5-15.2-6.7-24.9-11.1c-43.2-19.5-159.8-31-193.7-31.5
	C406.4,4.4,376.6,4.7,376.6,4.7L376.6,4.7z"/>
<path class="st0" d="M917.3,115c0,22.1-19.1,40-42.8,40c-23.6,0-42.8-17.9-42.8-40c0-22,19.2-39.9,42.8-39.9
	C898.2,75,917.3,92.9,917.3,115L917.3,115L917.3,115z"/>
<path class="st0" d="M1463.5,124.1c0,22.1-19.2,40-42.8,40c-23.6,0-42.8-17.9-42.8-40s19.2-40,42.8-40
	C1444.3,84.1,1463.5,102,1463.5,124.1L1463.5,124.1L1463.5,124.1z"/>
<path class="st1" d="M575,205.2v-72.6c0,0,41.4,3.1,41.4,36.3C616.4,202,575,205.2,575,205.2L575,205.2L575,205.2z M575,336v-72.6
	c0,0,41.4,3.2,41.4,36.3C616.4,332.9,575,336,575,336L575,336L575,336z M644.7,223.1c0,0,34.3-22.1,27.2-74.7
	c-0.8-3.9,6.4-64.3-91.1-64.3h-59.1v310.6c0,0,158.4,23.1,158.4-109.5C680.2,285.2,681.4,250.4,644.7,223.1L644.7,223.1L644.7,223.1
	z"/>
<polygon class="st1" points="711.6,111.4 764.6,101.3 764.6,322 826.3,322 826.3,371.5 711.6,371.5 711.6,111.4 "/>
<polygon class="st1" points="844.7,191.8 897.8,177.6 897.8,388.8 844.7,382.8 844.7,191.8 "/>
<polygon class="st1" points="956.3,121.1 934.6,373.6 987.6,388.8 1007.2,200.5 1031,375.7 1085.1,388.8 1123,210.7 1134.9,382.8 
	1193.3,388.8 1168.5,89.2 1104.6,101.3 1064,276.5 1024.5,108.9 956.3,121.1 "/>
<path class="st1" d="M1270.3,255l-3.9-97.6c0,0,43.6,6.9,44.1,47.1C1311.1,244.8,1270.3,255,1270.3,255L1270.3,255L1270.3,255z
	 M1216.9,108.7l11.4,286.8l49.4-9.9l-3-74c0,0,92.6-13.8,88.8-108.9S1267.6,97.2,1216.9,108.7L1216.9,108.7L1216.9,108.7z"/>
<polygon class="st1" points="1396.9,195.8 1449.9,185.7 1442.4,393.9 1391.5,384.2 1396.9,195.8 "/>
<polygon class="st1" points="1494.3,115 1494.3,382.8 1591.8,388.8 1591.8,332.2 1543,330.1 1543,276.5 1582,276.5 1586.3,225.9 
	1543,225.9 1543,164.1 1586.9,161.7 1577.6,112.5 1494.3,115 "/>
<path class="st0" d="M1639.5,802.3c-85.6-44.1-184.8-24-232.8-7s-184.1,33-283.9,6.5s-212.1-33.6-360.6-8.5
	c-148.6,25-316.8,2.4-316.8,2.4l53.6-96.4l-53.6-95.9c0,0,168.2,22.6,316.8-2.5s260.8-18,360.6,8.5c99.8,26.5,235.9,10.5,283.9-6.5
	s147.1-37.2,232.8,7l42.9,17l-64.2,64.7l39.3,118.1L1639.5,802.3L1639.5,802.3L1639.5,802.3z"/>
<path class="st1" d="M669.7,693.4c-0.4,0.8-0.9,1.6-1.1,2.5c-0.7,3.3-1.3,6.6-2,9.9c-1.4,7.4-2.8,14.8-4.3,22.2
	c-1.4,7-2.9,13.9-4.4,20.9c-1.4,6.9-2.8,13.9-4.1,20.9c-0.3,1.5-0.9,2.3-2.5,2.2c-0.8,0-1.5,0-2.3,0c-1.6,0.1-2.3-0.8-2.6-2.4
	c-2.1-12.1-4.3-24.2-6.5-36.2c-0.9-5-1.6-10.1-2.4-15.1c-0.7-4.2-1.5-8.5-2.3-12.8c-0.6-3.4-1.2-6.9-1.9-10.3
	c-0.2-0.7-0.6-1.4-1-2.1c-0.2,0-0.4,0-0.7,0.1c-0.1,1-0.3,1.9-0.3,2.9c0,12.4,0.1,24.8,0.1,37.3c0,10.3,0,20.5,0,30.8
	c0,2.8-0.5,3.3-3.2,3.3c-1.8,0-3.6,0-5.5,0c-1.5,0-2.2-0.8-2.3-2.2c0-1,0-2.1,0-3.1c0-36.6,0-73.3,0-109.9c0-4.9,0-4.9,4.9-4.9
	c3.8,0,7.7,0,11.5,0c2.5,0,3.3,0.5,3.6,3c1,6.7,1.8,13.4,2.7,20.1c0.9,6.3,1.9,12.5,2.8,18.8c0.4,3,0.6,6,1,8.9
	c0.9,6.9,1.9,13.8,2.9,20.7c0.1,0.6,0.4,1.3,0.6,1.9c0.2,0,0.4,0.1,0.6,0.1c0.3-0.7,0.7-1.3,0.9-2.1c1.1-6.3,2.1-12.6,3.2-19
	c1.5-8.8,3.1-17.5,4.6-26.3c0.9-5.2,1.6-10.3,2.4-15.5c0.5-2.8,0.8-5.7,1.5-8.4c0.2-0.7,1.3-1.8,2-1.8c4.6-0.2,9.2-0.1,13.8-0.1
	c1.4,0,2,0.8,2,2.1c0,1.1,0,2.1,0,3.2c0,38.8,0,77.6,0.1,116.4c0,1.9-0.6,2.7-2.6,2.7c-2.2-0.1-4.3-0.1-6.5-0.1
	c-1.5,0-2.3-0.7-2.3-2.3c0-21.4,0.1-42.7,0.1-64.1c0-3,0.1-6,0.1-9c0-1-0.2-2-0.3-3C670.3,693.6,670,693.5,669.7,693.4L669.7,693.4
	L669.7,693.4z"/>
<path class="st1" d="M791.5,667.5L791.5,667.5c-0.1-1.5,0.1-3-0.1-4.4c-0.5-3.3-0.8-6.8-2-9.9c-0.7-1.9-2.5-3.9-4.4-4.7
	c-2.5-1.1-5.4-1.2-8.1-1.5c-2.8-0.3-3.3,0.4-3.2,3.2c0.1,7,0.2,13.9,0.3,20.9c0.1,4.3,0.3,8.6,0.4,12.9c0,1.6,0.8,2.3,2.3,2.4
	c7.8,0.4,13.3-3,14.4-11.4C791.5,672.5,791.4,670,791.5,667.5L791.5,667.5L791.5,667.5z M805.4,668.8c0.4,5.3-0.2,11.1-1.9,16.7
	c-1.1,3.5-2.7,6.8-5.5,9.2c-1.3,1.2-1.4,2.2-0.4,3.8c2.9,4.6,4.3,9.8,4.8,15.2c0.6,6.9,1,13.9,1.8,20.8c0.8,6.4,1.8,12.9,5.9,18.3
	c0.7,1,1.3,2,2,3c-1.2,0.2-2.5,0.5-3.7,0.6c-2.9,0.1-5.7,0.2-8.6,0c-1.2-0.1-2.6-0.7-3.4-1.5c-3.4-3.3-4.3-7.8-4.8-12.2
	c-0.6-5.5-0.2-11-0.8-16.5c-0.7-7.2-1-14.6-4.7-21.3c-1-1.8-2.2-2.8-4.3-2.6c-1.5,0.1-3.1,0-4.6,0c-1.4,0-2.2,0.8-2.1,2.3
	c0.3,4.5,0.5,9,0.7,13.5c0.2,6.2,0.2,12.4,0.4,18.6c0.2,4.9,0.6,9.7,1,14.6c0.2,2.5-0.1,3-2.6,3.2c-3.1,0.2-6.1,0.2-9.2,0.3
	c-1.6,0.1-2.3-0.7-2.3-2.2c-0.1-5.6-0.1-11.3-0.3-16.9c-0.4-9.7-1-19.4-1.3-29.2c-0.3-7.1-0.1-14.2-0.4-21.4
	c-0.4-10.1-1-20.3-1.4-30.4c-0.2-6.8-0.3-13.7-0.4-20.5c0-1.5,0.7-2.3,2.3-2.4c4.7-0.3,9.3-1,14-0.9c5.3,0.1,10.6-0.3,15.7,1.7
	c5.1,2.1,8.7,5.7,10.6,10.9C804.9,651.5,805.7,659.8,805.4,668.8L805.4,668.8L805.4,668.8z"/>
<path class="st1" d="M955,657.7c-0.3,0-0.5,0-0.8,0c-0.2,0.6-0.5,1.2-0.6,1.9c-1.8,11-3.5,22-5.3,33c-0.6,3.6-1.3,7.3-1.8,10.9
	c-0.3,2.5,0.2,3,2.7,3.1c2.4,0.1,4.7,0.1,7.1,0.2c2.5,0.1,3.5-1,3.3-3.6c-0.3-3.8-0.7-7.6-1.1-11.4c-1-10.5-1.9-21-3-31.6
	C955.5,659.3,955.2,658.5,955,657.7L955,657.7L955,657.7z M955.2,625c2.3,0,4.6,0,6.9,0c1.5,0,2.5,0.5,2.7,2.2
	c0.5,4.6,1.1,9.3,1.6,13.9c1.2,10.4,2.4,20.7,3.5,31.1c1.1,10,2.3,20.1,3.5,30.1c1.2,10.2,2.4,20.3,3.6,30.5
	c0.7,5.9,1.5,11.9,2.3,17.8c0.3,2.1-0.5,3-2.7,3c-3,0-6,0-9,0c-1.8,0-2.7-0.8-2.9-2.6c-1-8.3-1.9-16.6-2.8-24.9
	c-0.3-2.8-1.1-3.7-3.9-3.8c-3.6-0.2-7.2-0.4-10.9-0.7c-2.8-0.2-3.5,0.6-3.9,3.3c-1,7.5-2.1,14.9-3.3,22.3c-0.1,0.6-1.1,1.6-1.8,1.6
	c-3.3,0.2-6.6,0.1-9.8,0c-1.6,0-2-1-1.8-2.6c1-6.1,1.9-12.3,2.9-18.4c0.8-5.2,1.8-10.3,2.6-15.5c1-6.1,1.8-12.1,2.8-18.2
	c1.3-8.2,2.7-16.5,4.1-24.7c1-5.9,1.8-11.8,2.8-17.8c0.9-5.5,1.8-11,2.7-16.5c0.4-2.6,0.8-5.2,1.1-7.9c0.2-1.8,1.2-2.5,2.9-2.5
	C950.6,625,952.9,625,955.2,625L955.2,625L955.2,625z"/>
<path class="st1" d="M579.7,671.2c-0.5,1-0.9,1.5-0.9,2c-0.6,3.2-1,6.5-1.6,9.7c-1,6-2,12.1-3,18.1c-0.9,5.6-1.8,11.3-2.6,16.9
	c-0.3,1.8,0.4,2.8,2.4,2.8c2.6,0,5.3,0.1,7.9,0.2c1.7,0.1,2.6-0.9,2.7-2.5c0.1-1-0.1-1.9-0.2-2.9c-0.7-7.1-1.4-14.1-2.1-21.2
	c-0.6-6.9-1.1-13.7-1.7-20.6C580.6,673.1,580.2,672.4,579.7,671.2L579.7,671.2L579.7,671.2z M580.5,639.1c2.3,0,4.6,0,6.9,0
	c1.5,0,2.3,0.5,2.5,2.1c0.5,4.7,1.1,9.4,1.6,14.1c1.2,10.4,2.4,20.8,3.5,31.1c1.1,10,2.3,19.9,3.5,29.9c1.5,12.2,3,24.3,4.4,36.5
	c0.5,4,1,8,1.4,12c0.2,2-0.5,2.8-2.6,2.8c-3.1,0-6.1,0-9.2,0c-1.7,0-2.6-0.9-2.8-2.5c-1-8.3-2-16.6-2.9-24.9c-0.3-3-1.1-3.7-4-3.9
	c-3.5-0.2-7.1-0.4-10.6-0.6c-2.9-0.2-3.6,0.5-3.9,3.3c-0.9,6.3-1.9,12.7-2.8,19c0,0.3-0.2,0.7-0.2,1c-0.7,4-0.7,4-4.7,4
	c-2.4,0-4.8,0-7.1,0c-1.6,0-2.1-0.8-1.9-2.5c1-5.8,1.9-11.7,2.8-17.5c0.9-5.3,1.8-10.6,2.6-15.9c0.9-5.8,1.7-11.7,2.7-17.6
	c1.4-8.9,2.9-17.7,4.3-26.6c1-6,1.8-12,2.7-18c0.8-5.2,1.8-10.4,2.6-15.7c0.4-2.5,0.8-5.1,1.1-7.7c0.2-2,1.3-2.6,3.1-2.6
	C575.9,639.2,578.2,639.1,580.5,639.1L580.5,639.1L580.5,639.1z"/>
<path class="st1" d="M897.3,713.3c0-3.2,0-6.4,0-9.6c0-1.2,0.3-1.9,1.6-1.9c3.2-0.1,6.4-0.1,9.6-0.2c1.8-0.1,2.7,0.6,2.7,2.5
	c0,9.1,0.3,18.2-1.8,27.1c-1.2,5-2.7,9.8-6,13.9c-4.5,5.6-10.7,6.9-17.4,6.5c-7.1-0.5-12.5-3.9-15.9-10c-2.6-4.7-4-9.9-4.4-15.4
	c-0.2-3.7-0.2-7.4-0.3-11.1c-0.4-13.8-0.8-27.6-1.1-41.3c-0.2-9.4-0.5-18.7-0.3-28c0.1-6.2,2.1-12.2,6.2-17
	c5.4-6.3,12.6-7.3,20.4-6.6c5.5,0.6,10,3.1,12.7,7.8c2,3.4,3.8,7.2,4.2,11c0.8,8,0.7,16,0.9,24c0,0.7-1.2,1.9-1.9,1.9
	c-3.3,0.3-6.5,0.4-9.8,0.4c-2,0-2.3-0.8-2.3-2.8c0.2-6.8,1-13.5-0.8-20.2c-0.5-1.8-1.5-3.7-2.8-5.1c-4.7-4.9-10.6-1-12.4,4.2
	c-0.5,1.5-0.7,3.3-0.7,4.9c0.2,13.7,0.4,27.3,0.6,41c0.1,5.1,0.2,10.3,0.4,15.5c0.3,6.8,0.7,13.6,1.1,20.4c0.2,4.2,1.8,7.7,5.3,10.1
	c2.1,1.5,4.7,1.5,6.8-0.1c4.5-3.3,5.3-8.1,5.5-13.2c0.2-2.9,0-5.9,0-8.8C897.4,713.3,897.4,713.3,897.3,713.3L897.3,713.3
	L897.3,713.3z"/>
<path class="st1" d="M1045.3,652.9c0,1.5,0,3.1,0,4.6s-0.7,2.4-2.3,2.3c-2.9-0.1-5.9-0.2-8.8-0.2c-1.6,0-2.2-0.8-2.3-2.3
	c-0.2-2.5-0.6-5-1-7.4c-0.9-5.1-5.7-7.1-10.3-3.6c-4.2,3.2-4.1,8-3.8,12.6c0.5,7.7,4.6,13.7,9.4,19.4c6.3,7.4,13,14.6,18.9,22.4
	c5.6,7.4,8.8,15.8,8.6,25.5c-0.1,5.3-0.3,10.5-1.8,15.7c-1.9,6.5-5.3,11.9-11.7,14.7c-3.9,1.7-8.2,2.2-12.5,1.4
	c-8.9-1.5-14.1-7.2-18-14.9c-2.7-5.4-3.4-11.3-4.3-17.1c-0.2-1.3,0.4-1.9,1.6-2c3.3-0.2,6.7-0.4,10-0.5c1.6,0,1.6,1.3,1.9,2.5
	c1,3.5,1.7,7.1,3.3,10.2c1.7,3.3,4.5,5.5,8.8,5.2c4-0.3,7.2-2.8,8.6-6.9c2.3-6.6,0.5-12.6-2.7-18.4c-4.6-8.2-11-14.8-17.2-21.8
	c-3.9-4.4-7.5-9.2-10.4-14.3c-3.5-5.8-5.2-12.3-5.6-19.3c-0.3-4.8,0-9.6,0.9-14.3c1.1-6,4-11.1,9.2-14.4c2-1.3,4.6-2.2,7-2.5
	c4.8-0.6,9.7-0.6,14.1,1.8c3.7,2,6.6,4.8,8.4,8.7C1045,644.1,1045.5,648.4,1045.3,652.9L1045.3,652.9L1045.3,652.9z"/>
<path class="st1" d="M721.2,768.4c-4.2,0-8.5,0-12.8,0c-1.9,0-2.6-0.6-2.6-2.6c-0.1-8.6-0.3-17.1-0.6-25.7
	c-0.4-11.6-1-23.2-1.4-34.8c-0.3-8.2-0.6-16.4-0.9-24.6c-0.3-7.9-0.6-15.7-0.9-23.6c-0.1-3.3-0.2-6.7-0.3-10c-0.1-2.5,0.3-2.9,2.8-3
	c8.6-0.3,17.2-0.6,25.7-0.9c1.5-0.1,3.1-0.2,4.6-0.4c1.4-0.2,2.2,0.3,2.2,1.8c0,4.3,0,8.7,0,13c0,1.2-0.7,1.9-2,1.9
	c-5.3,0.1-10.6,0.3-15.9,0.4c-2.7,0.1-3.1,0.3-3,3c0.2,9.9,0.4,19.8,0.6,29.7c0,1.8,1.1,2.4,2.7,2.4c4.5-0.1,8.9-0.1,13.4-0.3
	c1.9-0.1,2.6,0.7,2.6,2.6c0,3.6,0.1,7.1,0.2,10.7c0.1,2-0.6,2.8-2.6,2.8c-4,0-8.1,0.2-12.1,0.3c-2.5,0.1-3.1,0.6-3,3.2
	c0.2,9.4,0.4,18.8,0.7,28.2c0.1,2.3,0.4,4.7,0.7,7c0.2,1.7,1.4,2.2,3,2c5.7-0.4,11.4-0.7,17.1-0.9c2.7-0.1,3.2,0.4,3.2,3.1
	c0,3.8-0.1,7.7,0,11.5c0.1,1.8-0.6,2.5-2.4,2.5c-6.3,0-12.7,0-19,0C721.2,768,721.2,768.2,721.2,768.4L721.2,768.4L721.2,768.4z"/>
<polygon class="st1" points="842.6,749.8 828,749.8 828,655.9 842.6,655.9 842.6,749.8 "/>
<path class="st1" d="M847.5,635.6c0,6.5-5.5,11.7-12.2,11.7s-12.2-5.3-12.2-11.7c0-6.5,5.5-11.7,12.2-11.7
	C842.1,623.8,847.5,629.1,847.5,635.6L847.5,635.6L847.5,635.6z"/>
<path class="st1" d="M1242.5,693.6c-0.2,0-0.3,0-0.5,0c0.1,2.9,0.1,5.7,0.3,8.6c0.1,0.9,0.8,2.4,1.5,2.5c3.7,0.8,7.2,0.1,10.2-2.2
	c3.1-2.4,4.5-6.1,4.8-9.7c0.4-5.4,0-10.8-0.5-16.2c-0.3-3.7-4-7.4-7-7.8c-2.2-0.3-4.4-0.6-6.6-0.8c-2.1-0.2-3,0.6-3,2.7
	C1242,678.3,1242.3,685.9,1242.5,693.6L1242.5,693.6L1242.5,693.6z M1261.2,740.1c-0.3,0-0.5-0.1-0.8-0.1c-0.1-2.7,0.2-5.5-0.3-8.1
	c-0.8-3.9-2.4-7.2-6.2-9.4c-3.1-1.8-6.4-1.1-9.5-1.9c-1.3-0.3-2,0.8-2.1,2.1c-0.1,4.5-0.2,9-0.2,13.5c0,6.8,0.2,13.6,0.2,20.5
	c0,2.8,1,3.8,3.8,3.6c1.9-0.2,3.7-0.6,5.6-0.8c3.9-0.4,7.2-3,7.8-6.9C1260.2,748.5,1260.6,744.3,1261.2,740.1L1261.2,740.1
	L1261.2,740.1z M1242.6,775.8c-3.8,0.1-7.5,0.2-11.3,0.4c-1.7,0.1-2.6-0.6-2.6-2.4c0-6.6,0-13.1,0-19.7c0-10.5-0.1-21-0.1-31.6
	c0-11-0.1-22-0.1-33c0-10.6-0.1-21.2-0.1-31.8c0-0.7,0-1.4,0-2.1c0.3-3.7,0.3-3.9,4.2-3.8c7.3,0.2,14.7,0.3,21.9,1.2
	c6.5,0.8,11.6,4.2,14.8,10.3c2.6,5,3.5,10.3,3.8,15.9c0.1,2.1,0.1,4.2,0.1,6.3c0,9.6-3.1,18.1-9.2,25.6c-0.9,1.1-0.9,2.2,0.1,3.2
	c3.2,3,5.7,6.5,7.4,10.6c1.3,3.1,2.5,6.4,2.9,9.7c0.6,5.1,0.9,10.3,0.5,15.4c-0.7,8.1-2.2,16.1-9,21.8c-3.6,3.1-8.1,3.9-12.6,4.3
	c-3.5,0.3-7.1,0.3-10.7,0.4C1242.6,776.2,1242.6,776,1242.6,775.8L1242.6,775.8L1242.6,775.8z"/>
<path class="st1" d="M1470.8,721.6c-0.1,0-0.2,0-0.3,0c0,0.9,0,1.8,0.1,2.7c0.3,4.4,1.5,8.5,5,11.6c2.4,2,5.7,2,7.9-0.1
	c3.4-3.2,4.7-7.3,4.8-11.9c0.1-3.5,0-7,0-10.5c0-10.3,0.2-20.6,0.1-30.9c-0.1-11.6-0.4-23.3-0.8-34.9c-0.1-3.8-2-7-4.9-9.4
	c-1.3-1.1-2.8-2.6-4.9-1.7c-4.6,2.1-7.1,5.9-7.5,10.8c-0.5,6.6-0.5,13.2-0.5,19.8c-0.1,5.6,0,11.2,0.1,16.7
	C1470.3,696.5,1470.5,709.1,1470.8,721.6L1470.8,721.6L1470.8,721.6z M1457.2,720.1c-0.4-12.1-0.8-24.3-1.1-36.4
	c-0.1-5.3-0.1-10.6,0-15.8c0.1-7.1-0.2-14.2,0.4-21.3c0.7-8.8,3.5-17,11.7-21.8c4.5-2.6,9.6-3.6,14.9-2.6c5.8,1.1,10.7,4,13.9,9.1
	c2.7,4.3,4.5,9,4.8,14.1c0.4,8.5,0.6,17,0.8,25.5c0.2,6.6,0.2,13.2,0.2,19.9c0,10.4,0,20.9,0,31.3c-0.1,7-1.2,13.8-4.6,20
	c-2.8,5.1-7.1,8.5-12.9,9.2c-4.1,0.5-8.3,0.7-12.3,0.1c-5.3-0.8-9.4-4.1-11.8-9c-3.5-7-4.4-14.5-4.4-22.2
	C1456.8,720.1,1457,720.1,1457.2,720.1L1457.2,720.1L1457.2,720.1z"/>
<path class="st1" d="M1178,675.6c0.3,8.3,0.6,16.6,0.8,24.9c0.4,14.6,0.6,29.3,0.9,43.9c0.1,3.8,1.3,7.2,4,10.1
	c4.3,4.6,10.3,2.4,12.4-2.4c0.9-2.1,1.4-4.6,1.4-6.8c-0.5-21.9-1.1-43.8-1.6-65.7c-0.2-9.4-0.2-18.8-0.4-28.2c-0.1-5-0.1-5,4.9-5
	c2.1,0,4.2,0,6.3-0.1c1.8-0.1,2.8,0.6,2.6,2.6c-0.1,1.3,0.1,2.7,0.1,4c0.6,25.2,1.3,50.4,1.9,75.5c0.2,7,0.3,14.1-0.2,21.1
	c-0.3,4.4-1.4,8.9-3.1,12.9c-2.5,5.9-6.9,9.9-13.6,10.8c-5.4,0.8-10.7,0.8-15.8-1.5c-5.4-2.4-8.3-6.7-10.3-12
	c-2.1-5.6-2.5-11.4-2.7-17.3c-0.5-15.1-1-30.1-1.4-45.2c-0.4-15.8-0.8-31.5-1.2-47.3c0-1.7,0.6-2.4,2.3-2.4c3.1,0,6.1-0.1,9.2-0.3
	c1.9-0.1,2.6,0.6,2.7,2.5C1177.5,658.3,1177.8,666.9,1178,675.6L1178,675.6L1178,675.6L1178,675.6z"/>
<path class="st1" d="M1430.4,753.2c-0.3-7.8-0.6-15.6-0.7-23.4c-0.1-7.1,0.2-14.2,0.2-21.3c0-3.2-0.4-3.5-3.5-3.4
	c-3.7,0.1-7.4,0.1-11.1,0.2c-2.3,0.1-3,0.6-3.1,3c-0.1,1.5,0.1,2.9,0.1,4.4c-0.1,8.9-0.2,17.8-0.2,26.7c0,5.3,0.2,10.6,0.2,15.9
	c0,2.6-0.3,2.9-2.9,2.9c-2.9,0-5.7,0-8.6,0.1c-1.7,0-2.2-0.6-2.1-2.4c0.2-3.8,0-7.7,0-11.5c0-12.8,0-25.6,0-38.4c0-0.2,0-0.3,0-0.4
	c-0.1-9.3-0.3-18.7-0.4-28c-0.1-12.4,0-24.8,0-37.2c0-1.9,0.7-2.6,2.6-2.7c2.9,0,5.9-0.1,8.8-0.3c1.6-0.1,2.5,0.6,2.5,2.3
	c-0.1,6.5-0.3,13.1-0.4,19.6c0,0.3,0,0.6,0,0.8c0.1,9,0.3,18,0.4,27c0,1.7,0.7,2.4,2.4,2.3c4.2-0.1,8.5-0.2,12.8-0.2
	c1.7,0,2.4-0.8,2.3-2.5c-0.1-7-0.2-13.9-0.2-20.9c0-7.3,0.1-14.6,0.2-21.9c0-2.6,0.4-2.8,3-2.7c2.7,0.1,5.5,0,8.2,0
	c1.8,0,2.6,0.8,2.6,2.7c0,12.5,0,25.1,0,37.6c0,5,0.1,10,0.2,15.1c0.1,6.4,0.2,12.8,0.2,19.2c0,11.8,0,23.5,0,35.3
	c0,2.9,0,5.8,0.1,8.8c0,1.5-0.6,2.2-2.1,2.3c-3.2,0.1-6.4,0.2-9.6,0.3c-1.6,0.1-2.2-0.7-2.2-2.3c0-2.3-0.1-4.6-0.2-6.9
	C1430,753.2,1430.2,753.2,1430.4,753.2L1430.4,753.2L1430.4,753.2z"/>
<path class="st1" d="M1536.1,670.8c-0.1,0-0.2,0-0.2,0c0.4,2.9,0.7,5.8,1.2,8.6c0.1,0.7,0.9,1.8,1.3,1.7c2.4-0.1,5,0.1,7.2-0.7
	c4.7-1.8,7.1-5.6,7.5-10.6c0.2-2.1-0.1-4.3,0.2-6.4c0.5-5.1-0.3-10-1.5-14.9c-0.9-3.5-2.5-6.4-6.3-8c-2.5-1-4.9-0.9-7.4-0.7
	c-3.2,0.2-3.7,0.7-3.5,4C1535,652.9,1535.6,661.8,1536.1,670.8L1536.1,670.8L1536.1,670.8z M1567.2,659.8c0,3.1,0.1,6.3-0.2,9.4
	c-0.4,4.2-0.6,8.5-1.7,12.6c-2.2,8.3-7,14.2-16.8,15c-2.8,0.3-5.6,0.3-8.4,0.4c-1.6,0-2.2,0.7-2.1,2.3c0.4,7.9,0.7,15.9,1.2,23.8
	c0.5,7.2,1.2,14.4,1.7,21.6c0.2,3-0.1,3.3-3.1,3.6c-2.6,0.3-5.1,0.6-7.7,0.9c-2.4,0.3-3-0.2-3.2-2.6c-0.4-6.6-0.5-13.2-1-19.9
	c-0.4-5.6-1-11.2-1.5-16.8c-0.4-4.6-0.6-9.2-0.8-13.8c-0.4-6.5-0.5-13.1-1-19.6c-0.7-9.6-1.6-19.3-2.2-28.9c-0.5-6.7-0.7-13.4-1-20
	c-0.1-1.3,0.5-2.2,1.9-2.3c7.3-0.6,14.6-1.8,21.9-1.8c8.6,0.1,15.1,3.3,19.3,12.4C1566.1,643.7,1567.2,651.6,1567.2,659.8
	L1567.2,659.8L1567.2,659.8z"/>
<path class="st1" d="M1374.5,668.6c0.1,1.5,0.1,3.1,0.1,4.6c0.1,1.5-0.6,2.4-2.2,2.3c-2.9,0-5.9,0-8.8,0c-1.6,0-2.2-0.8-2.4-2.3
	c-0.3-2.2-0.6-4.4-1-6.6c-0.7-3.7-2.4-5.6-5.4-6.1c-2.1-0.3-6.3,2-7.2,4.6c-0.8,2.2-1.4,4.7-1.5,7c-0.3,8,3.4,14.5,8.5,20.3
	c7.1,8.1,14.7,15.7,21.5,24c5.7,7,9,15.3,9.1,24.7c0,5.5,0,10.8-1.4,16.2c-1.7,6.5-5,11.9-11.2,14.8c-3.8,1.7-8,2.4-12.3,1.8
	c-9.1-1.2-14.6-6.8-18.7-14.4c-2.9-5.4-3.8-11.2-4.8-17c-0.2-1.3,0.4-1.9,1.5-2c3.3-0.3,6.7-0.7,10-0.9c1.6-0.1,1.6,1.3,2,2.5
	c1.1,3.4,1.9,7,3.6,10.1s4.5,5.3,8.6,4.9c4.4-0.4,7.4-2.9,8.7-7.2c2-6.6,0.2-12.5-3.2-18.1c-4.9-8.2-11.6-14.7-18.1-21.5
	c-4-4.2-7.6-8.9-10.7-13.8c-3.6-5.7-5.6-12.2-6.2-19.1c-0.4-4.5-0.2-8.9,0.3-13.3c0.8-6.2,3.1-11.7,8.4-15.3
	c2.2-1.5,4.8-2.6,7.4-3.1c4.8-0.9,9.6-0.9,14.1,1.3c3.7,1.8,6.6,4.5,8.6,8.2C1373.9,659.6,1374.6,664,1374.5,668.6L1374.5,668.6
	L1374.5,668.6z"/>
<path class="st1" d="M1149.5,729.1c1,6.4-0.5,12.4-3,18.2c-4,9.1-11.8,14.5-21.6,13.8c-7-0.5-12.5-4.4-16.5-10.2
	c-2.9-4.1-4.7-8.7-5.7-13.6c-0.6-2.7-1-5.5-1.3-8.2c-0.2-2.3,0.4-2.8,2.7-2.9c2.6-0.2,5.2-0.2,7.7-0.5c1.8-0.2,2.5,0.5,2.8,2.2
	c0.5,2.8,1.1,5.6,1.9,8.3c1.6,5.3,6.6,8.4,12,7.5c3.1-0.5,6.3-3.9,7.2-7.4c1.6-6.6,0.1-12.4-3.2-18.2c-4.5-7.8-10.4-14.5-16.1-21.3
	c-3.4-4-6.6-8.2-9.2-12.6c-3.8-6.5-6.3-13.5-6-21.3c0.1-3.5,0-6.9,0.3-10.4c0.5-5.7,2.5-10.9,6.5-15.1c3.1-3.2,6.7-5.2,11.4-5.4
	c4.1-0.2,8.3-0.3,12.1,1.6c3.6,1.7,6.4,4.4,8.3,8c3.1,5.8,3.7,12.2,3.7,18.7c0,2-1,2.9-3,2.9c-2.9,0-5.7-0.1-8.6-0.1
	c-1.4,0-2.2-0.6-2.3-2.1c-0.1-1.9-0.3-3.9-0.3-5.9c0-3.7-2.1-6.9-5.3-7.6c-2.8-0.7-6.7,1.6-8.2,4.6c-2.3,4.6-1.7,9.5-0.6,14.1
	c1.3,5.6,4.5,10.5,8.2,14.9c5.9,7.3,12,14.5,17.8,21.9c1.7,2.1,2.9,4.6,4,7.1c1.2,2.7,2.1,5.5,2.8,8.3c0.9,3.5,1.4,7.2,2,10.8
	C1149.9,729,1149.7,729.1,1149.5,729.1L1149.5,729.1L1149.5,729.1z"/>
<path class="st1" d="M995.7,626c0,0.7-0.1,1.4,0,2.1c0.7,5.4-1.1,10.3-3.1,15.1c-1,2.5-1.7,5.1-2.5,7.7c-1,3.3-2.1,4.3-4.6,4.2
	c-1.8-0.1-2.3-1-2.1-2.6c0.8-4.9,1.5-9.9,2.4-14.8c0.3-1.8-0.3-2.4-1.9-2.6c-3-0.2-3-0.3-2.9-3.4c0-4.4,0-8.8,0-13.2
	c0-2.9,0.4-3.4,3.4-3.3c2.9,0,5.7,0.1,8.6,0c2-0.1,2.8,0.8,2.8,2.7C995.7,620.6,995.7,623.3,995.7,626L995.7,626L995.7,626
	L995.7,626z"/>
<path class="st1" d="M1598.7,644.8h0.8c3.5,0,5.3-1.2,5.3-3.7c0-2.3-1.7-3.4-5.1-3.4h-1L1598.7,644.8L1598.7,644.8L1598.7,644.8z
	 M1604.1,648.4l8.4,10.8h-6l-7.7-10.3v10.3h-5v-25.9h5.2c3.6,0,6.2,0.6,7.9,1.9c1.8,1.5,2.8,3.4,2.8,5.8c0,1.6-0.5,3.1-1.5,4.5
	c-1,1.3-2.2,2.2-3.8,2.7L1604.1,648.4L1604.1,648.4L1604.1,648.4z M1601.7,627.1c-5.1,0-9.5,1.9-13.1,5.6c-3.7,3.8-5.5,8.3-5.5,13.5
	c0,5.3,1.8,9.9,5.5,13.6c3.6,3.8,8.1,5.6,13.3,5.6c5.2,0,9.6-1.9,13.3-5.6c3.6-3.8,5.5-8.3,5.5-13.6c0-2.9-0.7-5.8-2.2-8.8
	c-1.4-2.9-3.3-5.1-5.6-6.8C1609.5,628.2,1605.8,627.1,1601.7,627.1L1601.7,627.1L1601.7,627.1z M1624.3,646.2
	c0,6.2-2.2,11.6-6.5,15.9c-4.4,4.4-9.6,6.6-15.8,6.6c-6.2,0-11.5-2.2-15.9-6.6c-4.4-4.4-6.5-9.7-6.5-16c0-3.5,0.7-6.6,2.1-9.5
	c1.4-3,3.4-5.6,6-7.7c4.2-3.4,8.9-5.2,14.1-5.2c3.4,0,6.6,0.6,9.4,2c4,1.7,7.2,4.5,9.6,8.2C1623,637.8,1624.3,641.9,1624.3,646.2
	L1624.3,646.2L1624.3,646.2z"/>
<polygon class="st0" points="1209.5,559.8 1209.5,540.1 1202.5,540.1 1202.5,536 1221.3,536 1221.3,540.1 1214.3,540.1 
	1214.3,559.8 "/>
<polygon class="st0" points="1224.4,559.8 1224.4,536 1231.6,536 1235.9,552.2 1240.1,536 1247.3,536 1247.3,559.8 1242.9,559.8 
	1242.9,541.1 1238.1,559.8 1233.5,559.8 1228.8,541.1 1228.8,559.8 "/>
</svg>
