<?xml version="1.0" encoding="utf-8"?>
<!-- Generator: Adobe Illustrator 19.0.0, SVG Export Plug-In . SVG Version: 6.00 Build 0)  -->
<svg version="1.1" id="Layer_1" xmlns="http://www.w3.org/2000/svg" xmlns:xlink="http://www.w3.org/1999/xlink" x="0px" y="0px"
	 viewBox="0 0 351.5 88.2" style="enable-background:new 0 0 351.5 88.2;" xml:space="preserve">
<style type="text/css">
	.st0{fill-rule:evenodd;clip-rule:evenodd;fill:#555655;}
</style>
<g>
	<path class="st0" d="M23.6,38.5c0,10.5-4.7,14.3-12.5,14.3H0V2.9h11.1c8.7,0,10.9,5.1,10.9,13.6c0,6.2-2.2,9.6-6,9.8
		C20.3,26.3,23.6,30.5,23.6,38.5L23.6,38.5z M8.7,29.2v17.6h2.2c2.7,0,3.3-1.6,3.3-9.1c0-5.6-0.7-8.5-3.6-8.5H8.7L8.7,29.2z
		 M8.7,8.7v14.5h2.2c2.2,0,2.7-2.2,2.7-6.5c0-5.8-0.4-8-3.3-8H8.7L8.7,8.7z"/>
	<path class="st0" d="M72.8,27.2c5.6,1.6,6.2,8.2,6.2,14.3c0,4.7,0.2,8.9,0.9,11.4h-9.1c-0.2-2-0.7-2.9-0.7-7.6c0-1.8,0-3.8,0-6.2
		c0-4-1.3-6.9-4.2-7.8h-0.4v21.6h-9.1V2.9h13.4c6.2,0,10.5,3.6,10.5,12.7C80.2,23.4,76.8,26.7,72.8,27.2L72.8,27.2z M65.5,9.1v14.5
		h2.7c2.2,0,2.9-1.6,2.9-6c0-7.4-1.3-8.5-4-8.5H65.5L65.5,9.1z"/>
	<path class="st0" d="M95.3,25.6c0.4,6.7,0.4,8.5,0.4,14.5c0,3.8,0,12.7,0,12.7h-8.2V2.9h8.2c0,0,3.8,14.7,4.7,17.8
		c0.9,3.1,1.6,5.6,2,7.8c-0.2-4.9-0.4-10.9-0.4-15.8c0-3.8,0-9.8,0-9.8h8v49.9h-7.4c0,0-4.5-15.4-5.3-18.5
		C96.7,31.9,96,29.2,95.3,25.6L95.3,25.6z"/>
	<polygon class="st0" points="126.7,45.2 137.7,45.2 137.7,52.8 118.1,52.8 118.1,2.9 136.3,2.9 136.3,10.5 126.7,10.5 126.7,23.8 
		135.2,23.8 135.2,30.7 126.7,30.7 126.7,45.2 	"/>
	<path class="st0" d="M150.6,41.2c0,5.6,1.3,6.5,3.3,6.5c1.6,0,2.7-0.9,2.7-6.5c0-4.9-3.3-8.5-6.9-12.9c-3.6-4-7.4-9.6-7.4-14.3
		c0-7.6,3.6-11.8,10.5-11.8c6.9,0,10.7,3.8,10.7,11.1c0,1.6-0.4,2.9-0.7,4h-7.4c0-0.9,0.2-2,0.2-3.6c0-4.7-0.7-6.2-2.7-6.2
		c-2,0-2.2,2-2.2,5.6c0,4.5,3.6,8,6.5,11.8c4.2,5.3,7.6,9.6,7.6,14.7c0,8-3.3,14-11.1,14c-6.7,0-11.1-3.6-11.1-12.3
		c0-2,0-3.8,0.4-5.3l8-0.2C150.8,37.9,150.6,39,150.6,41.2L150.6,41.2z"/>
	<path class="st0" d="M226.1,25.6c0.4,6.7,0.4,8.5,0.4,14.5c0,3.8,0,12.7,0,12.7h-8.2V2.9h8.2c0,0,3.8,14.7,4.7,17.8
		c0.9,3.1,1.6,5.6,1.8,7.8c-0.2-4.9-0.2-10.9-0.2-15.8c0-3.8,0-9.8,0-9.8h8v49.9h-7.4c0,0-4.5-15.4-5.3-18.5
		C227.4,31.9,226.8,29.2,226.1,25.6L226.1,25.6z"/>
	<path class="st0" d="M270.9,27.8c0,21.4-3.6,25.8-11.8,25.8c-7.6,0-11.6-3.3-11.6-25.8c0-21.8,3.1-25.6,11.6-25.6
		C267.7,2.2,270.9,6,270.9,27.8L270.9,27.8z M261.5,27.8c0-7.8,0-12.7-0.2-16.3c-0.2-3.6-0.9-4.2-2.2-4.2c-1.3,0-2,0.7-2.2,4.2
		c-0.2,3.6-0.2,8.5-0.2,16.3c0,9.1,0,12.7,0.2,16c0.2,3.8,0.9,4.2,2.2,4.2c1.6,0,2-0.2,2.2-4.2C261.5,40.3,261.5,37,261.5,27.8
		L261.5,27.8z"/>
	<path class="st0" d="M301.2,38.5c0,10.5-4.7,14.3-12.5,14.3h-11.1V2.9h11.1c8.7,0,10.9,5.1,10.9,13.6c0,6.2-2.2,9.6-6,9.8
		C297.8,26.3,301.2,30.5,301.2,38.5L301.2,38.5z M286.2,29.2v17.6h2.2c2.7,0,3.3-1.6,3.3-9.1c0-5.6-0.7-8.5-3.6-8.5H286.2
		L286.2,29.2z M286.2,8.7v14.5h2.2c2.2,0,2.7-2.2,2.7-6.5c0-5.8-0.7-8-3.3-8H286.2L286.2,8.7z"/>
	<polygon class="st0" points="316.5,45.2 327,45.2 327,52.8 307.4,52.8 307.4,2.9 316.5,2.9 316.5,45.2 	"/>
	<polygon class="st0" points="340.6,45.2 351.5,45.2 351.5,52.8 331.9,52.8 331.9,2.9 350.2,2.9 350.2,10.5 340.6,10.5 340.6,23.8 
		349,23.8 349,30.7 340.6,30.7 340.6,45.2 	"/>
	<path class="st0" d="M27,52.8l7.1-50.1h8.7l8.5,50.1h-9.4l-0.9-8h-5.6l-0.9,8H27L27,52.8z M36.1,39.2h4.5c0,0-0.7-5.8-1.1-9.6
		c-0.2-2.2-1.1-9.6-1.3-14.3c-0.2,4.9-0.9,12-1.1,14.3C36.8,33.4,36.1,39.2,36.1,39.2L36.1,39.2z"/>
	<path class="st0" d="M57.5,82.6c0,2.9-2.5,5.1-6.2,5.1H39.9v-0.9c2.7,0,2.9-0.4,2.9-3.6v-9.6c0-3.1-0.2-3.6-2.9-3.6v-0.9h10.5
		c3.6,0,5.6,2,5.6,4.5c0,1.8-0.7,3.1-2.2,4C56.1,78.4,57.5,80.4,57.5,82.6L57.5,82.6z M53.5,82.4c0-2-1.3-3.8-4-3.8h-2.7v4.2
		c0,3.1,0.2,3.6,2.9,3.6h-0.2C52.1,86.4,53.5,84.6,53.5,82.4L53.5,82.4z M46.8,77.3h1.6c2.5,0,3.6-1.6,3.6-3.3
		c0-1.8-1.1-3.3-3.6-3.3h-1.6V77.3L46.8,77.3z"/>
	<path class="st0" d="M74.2,88.2c-5.8,0-10.5-4.2-10.5-9.8c0-5.3,4.7-9.8,10.5-9.8c5.6,0,10.2,4.5,10.2,9.8
		C84.4,84,79.7,88.2,74.2,88.2L74.2,88.2z M74.2,70.2c-4.5,0-6.2,4.7-6.2,8.2c0,3.8,1.8,8.5,6.2,8.5c4.2,0,6-4.7,6-8.5
		C80.2,74.8,78.4,70.2,74.2,70.2L74.2,70.2z"/>
	<path class="st0" d="M101.8,88.2c-5.6,0-10.2-4.2-10.2-9.8c0-5.3,4.7-9.8,10.2-9.8c5.8,0,10.2,4.5,10.2,9.8
		C112,84,107.6,88.2,101.8,88.2L101.8,88.2z M101.8,70.2c-4.5,0-6.2,4.7-6.2,8.2c0,3.8,1.8,8.5,6.2,8.5s6.2-4.7,6.2-8.5
		C108,74.8,106.3,70.2,101.8,70.2L101.8,70.2z"/>
	<path class="st0" d="M138.1,85.1c1.1,1.1,3.1,1.8,4,1.8v0.9h-10.2v-0.9c1.6,0,2.2-0.4,1.1-1.8l-6.2-6.7l-1.3,1.1v3.8
		c0,3.1,0.4,3.6,3.1,3.6v0.9h-9.8v-0.9c2.5,0,2.9-0.4,2.9-3.6v-9.6c0-3.1-0.4-3.6-2.9-3.6v-0.9h9.8v0.9c-2.7,0-3.1,0.4-3.1,3.6V78
		l6.7-5.3c0.7-0.7,2.7-2.5,0-2.5v-0.9h7.6v0.9c-2.7,0-3.8,0.9-5.8,2.5l-4.5,3.6L138.1,85.1L138.1,85.1z"/>
	<path class="st0" d="M149.9,88.2H149v-6.7h0.9c0.7,3.3,3.1,5.3,5.8,5.3c1.8,0,3.1-0.9,3.1-3.1c0-1.1-0.9-2.2-2.5-3.1l-2.9-1.6
		c-2.7-1.3-4.2-2.7-4.2-5.8c0-2.5,2.5-4.7,5.3-4.7c2,0,2.9,0.7,3.8,1.3c0.4-0.2,0.9-0.7,0.9-1.3h0.9v6.7h-0.9
		c-0.2-2.5-1.1-5.3-4.5-5.3c-1.1,0-2.5,1.1-2.5,2.7c0,0.9,0.9,2.2,2.5,3.1l2.9,1.6c2.2,1.1,4,2.9,4,5.3c0,3.3-2.9,5.6-6,5.6
		c-2.5,0-4-1.1-4.9-1.3C150.4,87.1,150.1,87.5,149.9,88.2L149.9,88.2z"/>
	<path class="st0" d="M170.2,86.9c2.7,0,3.1-0.4,3.1-3.6v-9.6c0-3.1-0.4-3.6-3.1-3.6v-0.9h16l0.2,4.2h-0.9l-0.2-0.7
		c-0.4-1.6-0.7-2.2-3.6-2.2h-4.7v6.7h1.8c3.1,0,3.6-0.4,3.6-3.1h0.9v7.4h-0.9c0-2.5-0.4-2.9-3.6-2.9h-1.8v4.2c0,2.9,0.4,3.6,2.9,3.6
		h2.9c2.9,0,3.1-0.7,3.6-2.5l0.2-0.7h0.9l-0.2,4.5h-17.2V86.9L170.2,86.9z"/>
	<path class="st0" d="M196.2,70.2v-0.9h9.8v0.9c-2.5,0-2.9,0.4-2.9,3.6v9.1c0,2.9,0.4,3.6,2.9,3.6h3.6c2.9,0,3.1-0.7,3.6-2.5
		l0.2-0.7h0.9l-0.2,4.5h-17.8v-0.9c2.7,0,2.9-0.4,2.9-3.6v-9.6C199.1,70.6,198.9,70.2,196.2,70.2L196.2,70.2z"/>
	<path class="st0" d="M222.1,70.2v-0.9h9.8v0.9c-2.7,0-2.9,0.4-2.9,3.6v9.1c0,2.9,0.2,3.6,2.9,3.6h3.6c2.9,0,3.1-0.7,3.6-2.5
		l0.2-0.7h0.9l-0.2,4.5h-17.8v-0.9c2.7,0,2.9-0.4,2.9-3.6v-9.6C225,70.6,224.8,70.2,222.1,70.2L222.1,70.2z"/>
	<path class="st0" d="M247.9,86.9c2.5,0,2.9-0.4,2.9-3.6v-9.6c0-3.1-0.4-3.6-2.9-3.6v-0.9h15.8l0.4,4.2h-0.9l-0.2-0.7
		c-0.4-1.6-0.9-2.2-3.6-2.2h-4.9v6.7h1.8c3.1,0,3.6-0.4,3.6-3.1h0.9v7.4h-0.9c0-2.5-0.4-2.9-3.6-2.9h-1.8v4.2c0,2.9,0.4,3.6,3.1,3.6
		h2.7c2.9,0,3.3-0.7,3.6-2.5l0.2-0.7h0.9l-0.2,4.5h-16.9V86.9L247.9,86.9z"/>
	<path class="st0" d="M288,82.9c2.7,3.1,4,3.8,5.8,4v0.9h-6.7l-5.6-8.2h-0.9v3.8c0,3.1,0.4,3.6,3.1,3.6v0.9H274v-0.9
		c2.5,0,2.9-0.4,2.9-3.6v-9.6c0-3.1-0.4-3.6-2.9-3.6v-0.9h10.2c3.8,0,6.2,2.2,6.2,5.1c0,2.7-2,4.9-5.3,5.1L288,82.9L288,82.9z
		 M286.5,74.4c0-2-1.3-3.8-4-3.8h-1.8v7.6h1.8C285.1,78.2,286.5,76.6,286.5,74.4L286.5,74.4z"/>
	<path class="st0" d="M302.3,88.2h-0.9v-6.7h0.9c0.7,3.3,3.3,5.3,5.8,5.3c1.8,0,3.1-0.9,3.1-3.1c0-1.1-0.9-2.2-2.2-3.1l-3.1-1.6
		c-2.5-1.3-4.2-2.7-4.2-5.8c0-2.5,2.5-4.7,5.6-4.7c1.8,0,2.7,0.7,3.8,1.3c0.2-0.2,0.7-0.7,0.9-1.3h0.9v6.7h-0.9
		c-0.2-2.5-1.3-5.3-4.5-5.3c-1.3,0-2.7,1.1-2.7,2.7c0,0.9,0.9,2.2,2.5,3.1l3.1,1.6c2.2,1.1,4,2.9,4,5.3c0,3.3-3.1,5.6-6.2,5.6
		c-2.5,0-3.8-1.1-4.9-1.3C302.9,87.1,302.5,87.5,302.3,88.2L302.3,88.2z"/>
	<path class="st0" d="M207.8,26.7c-3.6,0-6,2.2-7.6,5.6c-1.6,3.3-3.3,7.6-4.5,9.8c-3.8-6.7-6.7-11.8-8.5-16.5
		c2.9-1.8,8-4.2,11.1-6.9c2.9-2.7,4.2-5.3,4.9-8.2C204.3,4.9,201.1,0,194,0c-6,0-13.1,4.7-14.5,12.5c-0.7,3.8,0.2,8.9,1.8,13.1
		c-5.3,3.6-10,7.6-11.4,13.8c-1.6,10.5,4.9,15.1,12.3,15.1c4.9,0,8.7-2.2,11.8-5.6c2.2,2.5,5.1,5.6,8.7,5.6c2.9,0,6-1.8,8.5-4.9
		l-1.1-1.6c-2.2,2.2-3.8,3.1-5.1,3.1c-2.5,0-4.7-2.2-6.9-5.3c-0.2-0.7-0.4-1.1-0.7-1.6c1.3-2.7,2.2-5.6,3.6-8.2
		c2.2-4.9,3.6-6.7,5.6-6.7c3.6,0,0.7,5.8,4.5,5.8c1.8,0,2.7-1.3,2.9-2.9C214.1,30.3,212.7,26.7,207.8,26.7L207.8,26.7z M185.5,11.1
		c0.4-3.6,3.6-7.4,8.2-7.4c3.6,0,6,2.7,5.1,6.9c-0.2,1.6-0.7,3.1-2.2,5.1c-1.8,2-7.6,5.6-10.2,7.1C185.1,18.9,184.7,15.1,185.5,11.1
		L185.5,11.1z M184.2,51.2c-6.9,0-9.4-5.8-8.7-10.2c0.9-5.6,3.6-8.9,6.9-12c2.5,6,5.6,12,10,18.3C190,50.1,187.8,51.2,184.2,51.2
		L184.2,51.2z"/>
	<path class="st0" d="M183.8,9.1c0,0-4.7,7.4,2,21.8c5.3,12,11.8,18.7,11.8,18.7s-6.5-8.9-10.9-19.6C181.3,16.9,183.8,9.1,183.8,9.1
		L183.8,9.1z"/>
</g>
</svg>
