<?xml version="1.0" encoding="utf-8"?>
<!-- Generator: Adobe Illustrator 19.0.0, SVG Export Plug-In . SVG Version: 6.00 Build 0)  -->
<svg version="1.1" id="Layer_2" xmlns="http://www.w3.org/2000/svg" xmlns:xlink="http://www.w3.org/1999/xlink" x="0px" y="0px"
	 viewBox="0 0 310.1 56.4" style="enable-background:new 0 0 310.1 56.4;" xml:space="preserve">
<style type="text/css">
	.st0{fill:#555555;}
</style>
<path class="st0" d="M47.8,25.2l-1.2-0.5c-1.2-9-5.6-17.2-15.8-17.2c-12.2,0-15.9,14-15.9,23.2c0,9.3,3.7,23.2,15.9,23.2
	c10.3,0,16-6.3,17.5-16.3l1.1-0.4L53,50.4c-7.7,3.9-14.4,6-24.3,6C14,56.4,0,47.6,0,30.8S14,5.1,28.6,5.1c9.4,0,17.6,1.8,23.8,5
	L47.8,25.2 M81.6,39.9v-6.7h-1.4c-7.6,0-14,3.6-14,12.1c0,4.1,2.4,8.3,6.9,8.3C79.9,53.5,81.6,45,81.6,39.9 M82.1,48.7
	c-2.9,4.5-6.4,7.4-12,7.4c-7.7,0-16-2.9-16-11.7c0-10.7,14.8-13.7,25.6-13.7h1.7v-3.4c0-6.1-3.3-10.3-8.9-10.3
	c-6.3,0.1-10.4,5.2-12.4,12.8L59,30.3l-3.2-11.9c6.6-2,12.9-3.9,19.7-3.7c10.2,0,17,4.1,17,17.1v15.1c0,3.4,0.9,6.3,4.1,7.1v1.1
	H83.8L82.1,48.7z M123.4,27.9l4.5-13.2h-3.4c-6.2,0-10.2,6.7-11.8,12.1h-0.2v-4.6c0-2.2,0.2-4.4,0.2-6.4c-5.5,1.1-10.4,1.8-15.4,2.2
	V19c2.3,0.5,4.7,2,4.7,7.3v16.1c0,6.3-1.1,10.7-5.1,11.8v1.1c3.6,0,7.2-0.3,10.7-0.3c3.5,0,7.1,0.3,10.7,0.3v-1.1
	c-4.1-1.1-5.1-5.5-5.1-11.8v-5.8c0-5.5,1.5-11.4,5.9-11.4C120.9,25.2,122.1,26.5,123.4,27.9 M144,23.1v-7.3
	c-5.2,1.1-10.2,1.8-15.2,2.2V19c2.3,0.5,4.7,2,4.7,7.3v16.1c0,6.3-1,10.7-5.1,11.8v1.1c3.6,0,7.2-0.3,10.7-0.3
	c3.5,0,7.1,0.3,10.7,0.3v-1.1c-4.1-1.1-5.1-5.5-5.1-11.8v-9c0-4.8,1.8-14.6,8.2-14.6c6.1,0,7.3,6.4,7.3,11.3v17.9
	c0,3.8-2,5.9-4.6,6.2v1.1c3.5,0,7-0.3,10.1-0.3c3.2,0,7,0.3,10.5,0.3v-1.1c-3.5-0.7-5-2.7-5-6.2V28c0-8-5.7-13.4-13.7-13.4
	c-6.5,0-10.6,2.9-13.4,8.6H144V23.1 M192.4,45.8V15.5c-5.2,1.1-10.2,1.8-15.2,2.2v1.1c2.3,0.5,4.1,2.1,4.1,4.4v22.7
	c0,4.5-1,7.6-5.1,8.2v1.1c3.6,0,7.2-0.3,10.7-0.3c3.5,0,7.1,0.3,10.7,0.3v-1.1C193.5,53.4,192.4,50.3,192.4,45.8 M186.7,0
	c-3.3,0-5.7,3-5.7,6.1c0,3.2,2.4,6.1,5.7,6.1c3.3,0,5.8-3,5.8-6.1C192.5,3,190,0,186.7,0z M217.8,53.9l11.9-24
	c2.8-5.6,4.2-8.1,9.5-11.8V17c-2.5,0-5.4,0.3-7.7,0.3c-2.3,0-4.9-0.3-7.4-0.3v1.1c2.9,0.7,4.7,2,4.7,4.4c0,2.9-1.1,6.6-2.4,9
	l-5.5,10l-9.5-17.2c-0.4-0.7-0.8-1.8-0.8-2.7c0-2.1,2.6-3.1,4.5-3.5V17c-3.5,0-7.7,0.3-11,0.3c-3.3,0-7-0.3-10.6-0.3v1.4
	c3.9,2.4,3,1.1,7.1,8.3l14,27.1c0.9,1.7,1.3,2.3,1.6,2.3h0.1C216.6,56.2,217.4,54.8,217.8,53.9 M266.2,39.9v-6.7h-1.4
	c-7.6,0-14,3.6-14,12.1c0,4.1,2.4,8.3,6.9,8.3C264.5,53.5,266.2,45,266.2,39.9 M266.7,48.7c-2.9,4.5-6.4,7.4-12,7.4
	c-7.7,0-16-2.9-16-11.7c0-10.7,14.7-13.7,25.5-13.7h1.7v-3.4c0-6.1-3.3-10.3-8.8-10.3c-6.3,0.1-10.4,5.2-12.4,12.8l-1.1,0.3
	l-3.2-11.9c6.6-2,12.9-3.9,19.7-3.7c10.2,0,17,4.1,17,17.1v15.1c0,3.4,0.9,6.3,4.1,7.1v1.1h-12.8L266.7,48.7z M286.2,9.4v32.9
	c0,6.3-1.1,10.7-5.1,11.8v1.1c3.5,0,7.2-0.3,10.7-0.3c3.5,0,7.1,0.3,10.7,0.3v-1.1c-4.1-1.1-5.1-5.5-5.1-11.8V8.1
	c0-2.8,0.2-5.8,0.2-8.1c-5.4,1.2-10.5,2.1-15.7,2.6v1.1C285.1,4.5,286.2,6,286.2,9.4 M309.4,4.6c0-2-1.6-3.6-3.6-3.6
	c-2,0-3.6,1.6-3.6,3.6c0,2,1.6,3.6,3.6,3.6C307.7,8.2,309.4,6.6,309.4,4.6 M303.9,7V2.3h2c1.2,0,1.5,0.7,1.5,1.2
	c0,0.7-0.5,1.3-1.3,1.3v0c0.4,0.1,0.7,0.5,1.1,1.1l0.6,0.9h-0.9l-0.4-0.7c-0.6-1-0.8-1.2-1.4-1.2h-0.5v2H303.9 M304.6,4.4h1.1
	c0.6,0,1-0.2,1-0.7c0-0.4-0.4-0.7-0.9-0.7h-1.2V4.4 M305.8,8.9c-2.4,0-4.3-1.9-4.3-4.3c0-2.4,1.9-4.3,4.3-4.3c2.4,0,4.3,1.9,4.3,4.3
	C310.1,7,308.1,8.9,305.8,8.9z"/>
</svg>
