<?xml version="1.0" encoding="utf-8"?>
<!-- Generator: Adobe Illustrator 19.0.0, SVG Export Plug-In . SVG Version: 6.00 Build 0)  -->
<svg version="1.1" id="Layer_1" xmlns="http://www.w3.org/2000/svg" xmlns:xlink="http://www.w3.org/1999/xlink" x="0px" y="0px"
	 viewBox="-206 383.4 197.8 27.6" style="enable-background:new -206 383.4 197.8 27.6;" xml:space="preserve">
<style type="text/css">
	.st0{fill:#555555;}
</style>
<g>
	<path class="st0" d="M-68.4,395c-1,2.6-3.4,4.2-5.3,3.4c-1.9-0.8-2.6-3.5-1.6-6.2c1-2.6,3.4-4.2,5.3-3.4
		C-68.1,389.6-67.4,392.3-68.4,395 M-69.5,383.5c-5.6-0.7-11.2,3.3-12.5,8.9s2.2,10.7,7.8,11.4c5.6,0.7,11.2-3.3,12.5-8.9
		S-63.9,384.2-69.5,383.5"/>
	<path class="st0" d="M-92.7,388.8h2.4c0,0,1.4,0.2,1,2.2c-0.4,2.1-1.8,2-1.8,2h-2.5L-92.7,388.8z M-101.4,388.8h2.6l-2.9,14.5h6.1
		l1.1-6.2h5.3c0,0,5.5,0,6.2-6.2s-6.4-6.9-6.4-6.9h-11.1L-101.4,388.8z"/>
	<path class="st0" d="M-52.9,388.8h2.8c0,0,1.2,0.4,1.1,1.4c-0.1,1.6-1.4,2-1.4,2h-3.2L-52.9,388.8z M-61.6,388.8h2.7l-2.9,14.5h6.1
		l1.3-6.4h2.4l1.5,6.4h6.2l-2.1-7.6c0,0,4.1-1.5,4-6.1c-0.2-5.1-6.3-5.7-6.3-5.7h-11.9L-61.6,388.8z"/>
	<path class="st0" d="M-8.2,383.7h-10.6c0,0-6.1,0-6.4,5.3c-0.3,4.5,2.9,4.9,5.9,6.2c2.9,1.4,3.4,1.6,3.2,2.5c0,0.3-0.5,0.8-1.5,0.8
		c-1.4,0-3.4,0-3.4,0l0.4-2h-5.2l-1.5,6.8h10.9c0,0,6.9-0.5,7.1-5.5c0.1-4.3-2.8-5.5-5.3-6.4c-0.7-0.3-2.6-1.1-2.9-1.3
		c-0.6-0.3-1.1-0.5-0.9-1.2c0.1-0.3,0.2-0.5,1.4-0.5c0.5,0,2.6,0,2.6,0l-0.4,1.7h5.4L-8.2,383.7z"/>
	<polygon class="st0" points="-41,384 -25.1,384 -26.1,388.8 -30.7,388.8 -33.6,403.3 -39.6,403.3 -36.7,388.8 -41.9,388.8 	"/>
	<path class="st0" d="M-128.3,406.2h-75.4c-0.6,1.6-0.8,4.6-1.2,4.8h75.6L-128.3,406.2z"/>
	<path class="st0" d="M-11.8,406.2h-89.5c-1,2.8-2,3.9-3.5,4.8h92L-11.8,406.2z"/>
	<path class="st0" d="M-102.1,384.1c0,0-12.9,0-13.2,0c-0.2,0-8.1,0.5-8.8,7.2c-0.6,5.4,2.9,6.4,7,8.2c4,1.9,6.8,3.3,6.3,5.2
		c-0.3,1.1-1.5,1.5-2.8,1.5c-1.9,0-5.9,0-5.9,0l0.5-2.6h-6.3l-1.5,7.4c0,0,11.5,0,15.3,0c0.4,0,1.7-0.1,2.1-0.2
		c0.7-0.2,1.8-0.4,3.1-1.4c1.7-1.2,3.2-3.3,3.2-6.2c0-6.5-9.1-8.5-11.2-9.7c-0.8-0.4-3.4-1.5-2.4-3.6c0.3-0.6,1-0.9,3.1-0.9
		c1.2,0,4.4,0,4.4,0l-0.5,2.6h6.3L-102.1,384.1z"/>
	<path class="st0" d="M-183.7,394.2c0,5.5-5,9.9-11.1,9.9c-6.2,0-11.2-4.4-11.2-9.9s5-9.9,11.1-9.9
		C-188.7,384.3-183.7,388.7-183.7,394.2 M-205.4,394.5c2.3,4.2,8,6.6,13.2,5.4c3.5-0.8,6.4-2.9,7.9-5.8c-1.9-3.1-5.4-5.3-9.4-5.6
		C-198.6,388-203.3,390.6-205.4,394.5 M-194.9,389c-3.2,0-5.9,2.3-5.9,5.2c0,2.9,2.6,5.2,5.9,5.2c3.2,0,5.9-2.3,5.9-5.2
		C-189,391.3-191.6,389-194.9,389"/>
	<path class="st0" d="M-153.6,391.6h3c0,0,1,0,1.3-1.5c0.2-1.1-1-1.3-1-1.3h-2.7L-153.6,391.6z M-154.9,398.5h3.4c0,0,1.1,0,1.4-1.6
		c0.2-1.2-1.1-1.5-1.1-1.5h-3.1L-154.9,398.5z M-160.9,384.1h12.1c0,0,6,0.7,5.2,5.7c-0.5,3.2-3.1,3.8-3.1,3.8s3.1,1.1,2,5.3
		c-1.1,4.2-5.6,4-5.6,4H-162l2.9-14.2h-2.6L-160.9,384.1z"/>
	<path class="st0" d="M-126.4,384.1h-10.2c0,0-5.8,0-6.2,5.1c-0.3,4.3,2.8,4.7,5.7,6c2.8,1.3,3.2,1.5,3.1,2.4c0,0.3-0.5,0.8-1.4,0.8
		c-1.3,0-3.3,0-3.3,0l0.4-1.9h-5l-1.5,6.6h10.4c0,0,6.6-0.4,6.8-5.3c0.1-4.2-2.7-5.3-5.1-6.2c-0.7-0.3-2.5-1-2.8-1.2
		c-0.6-0.3-1-0.5-0.8-1.1c0.1-0.2,0.1-0.5,1.3-0.5c0.5,0,2.5,0,2.5,0l-0.3,1.6h5.2L-126.4,384.1z"/>
	<path class="st0" d="M-162,384.1h-9.4c0,0-8.5-0.1-10.1,9.2c-0.9,5.3,2.1,7.8,4.3,8.9c1.1,0.6,2.7,0.7,2.7,0.7h8.7l1.5-7.3h-5.1
		l-0.5,2.6h-2.9c0,0-3-0.5-1.9-5.1c1.1-4.9,4.3-4.4,4.3-4.4h2.4l-0.4,2.4h5L-162,384.1z"/>
</g>
</svg>
