<?xml version="1.0" encoding="utf-8"?>
<!-- Generator: Adobe Illustrator 19.0.0, SVG Export Plug-In . SVG Version: 6.00 Build 0)  -->
<svg version="1.1" id="Layer_1" xmlns="http://www.w3.org/2000/svg" xmlns:xlink="http://www.w3.org/1999/xlink" x="0px" y="0px"
	 viewBox="-124 380.1 362.8 32.9" style="enable-background:new -124 380.1 362.8 32.9;" xml:space="preserve">
<style type="text/css">
	.st0{fill:#555555;}
</style>
<g id="Chevrolet">
	<g>
		<path class="st0" d="M-111.1,385.6h21.7v-5.5h-26.1c-5.5,0.1-8.4,2-8.4,8.8c0,0-0.1,3.9-0.1,7.7c0,3.7,0.1,7.7,0.1,7.7
			c0,6.7,3,8.7,8.4,8.7c1.1,0,27,0,27,0v-5.6H-111c-1.6,0-1.9-0.4-1.9-2c0,0,0-17.5,0-17.9C-113,386-112.6,385.6-111.1,385.6z"/>
		<polygon class="st0" points="-56.2,380.2 -56.2,393 -73.7,393 -73.7,380.2 -84.8,380.2 -84.8,413 -73.7,413 -73.7,398.3 
			-56.2,398.3 -56.2,413 -45.1,413 -45.1,380.2 		"/>
		<path class="st0" d="M32,380.2L21.3,407c-0.2,0.5-0.4,0.5-1.2,0.5c-0.7,0-1-0.1-1.1-0.5L8.4,380.2h-39.7c-5.4,0-8.4,1.9-8.4,8.7
			c0,0-0.1,3.9-0.1,7.7c0,3.7,0.1,7.7,0.1,7.7c0,6.7,3,8.6,8.4,8.6c1.1,0,27.9,0,27.9,0v-5.6h-23.4c-1.6,0-1.9-0.4-1.9-2
			c0,0,0-3.3,0-7.1h23.2v-5.4h-23.2c0-2.9,0-5.2,0-5.4c0-1.5,0.4-1.9,1.9-1.9c0,0,19.1,0,24.9,0c3.4,8.2,9.5,22.4,10.1,23.6
			c0.8,1.7,2.1,3.7,5,3.7h10.3c2.9,0,3.9-1.9,4.6-3.6c0.8-1.7,12.3-29.2,12.3-29.2L32,380.2z"/>
		<path class="st0" d="M125.1,388.8c0-6.8-3-8.7-8.4-8.7c0,0-6.5,0-11.5,0s-11.5,0-11.5,0c-5.4,0-8.4,1.9-8.4,8.7
			c0,0-0.1,3.9-0.1,7.7c0,3.7,0.1,7.8,0.1,7.8c0,6.7,3,8.7,8.4,8.7c0,0,6.6,0,11.5,0c4.8,0,11.5,0,11.5,0c5.4,0,8.4-1.9,8.4-8.7
			c0,0,0.1-4.1,0.1-7.8C125.2,392.8,125.1,388.8,125.1,388.8z M98.1,385.6c1.7,0,4.3,0,7,0s5.4,0,7.1,0c1.5,0,1.9,0.4,1.9,1.9
			c0,0.4,0,18,0,18c0,1.5-0.4,1.9-1.9,1.9h-7.1h-7c-1.5,0-1.9-0.4-1.9-1.9c0,0,0-17.6,0-18C96.2,386,96.6,385.6,98.1,385.6z"/>
		<polygon class="st0" points="141.7,407.4 141.7,380.2 130.7,380.2 130.7,413 164.7,412.9 164.7,407.4 		"/>
		<path class="st0" d="M174.2,380.2c-5.4,0-8.4,1.9-8.4,8.7c0,0-0.1,3.9-0.1,7.7c0,3.7,0.1,7.7,0.1,7.7c0,6.7,3,8.6,8.4,8.6
			c1.1,0,27.9,0,27.9,0v-5.5h-23.4c-1.6,0-1.9-0.4-1.9-1.9c0,0,0-3.3,0-7.1h23.1V393h-23.1c0-2.9,0-5.2,0-5.4c0-1.5,0.4-1.9,1.9-1.9
			h36.4V413h11v-27.4h12.6v-5.4H174.2z"/>
		<path class="st0" d="M68.3,398.9c-0.3-0.2-0.1-0.4,0.2-0.4c0.1,0,4.9,0,4.9,0c3.7,0,7.1-1.1,7.4-6.2c0.2-1.3,0.1-4.6,0.1-4.6
			c0-5.4-2.8-7.4-7-7.4H41.6V413h10.9v-27.4h16.1c1,0,1.3,0.3,1.3,0.9c0,0.7,0.1,2.1,0.1,3.3c0,1.4,0,2.4-0.1,3
			c-0.1,0.5-0.6,0.9-1.3,0.9h-13v5L71.7,413h15.1C86.7,413,68.5,399,68.3,398.9z"/>
	</g>
</g>
<g id="Shadow">
</g>
<g id="Bowtie">
</g>
<g id="Guides">
</g>
</svg>
