<?xml version="1.0" encoding="utf-8"?>
<!-- Generator: Adobe Illustrator 19.0.0, SVG Export Plug-In . SVG Version: 6.00 Build 0)  -->
<svg version="1.1" id="Layer_1" xmlns="http://www.w3.org/2000/svg" xmlns:xlink="http://www.w3.org/1999/xlink" x="0px" y="0px"
	 viewBox="-480.2 686.2 435.4 141.2" style="enable-background:new -480.2 686.2 435.4 141.2;" xml:space="preserve">
<style type="text/css">
	.st0{fill:#555555;}
</style>
<g>
	<g>
		<g>
			<g>
				<g>
					<g>
						<path class="st0" d="M-467.2,744.8c12.4-23,34-48.2,59.6-56.6c5.2-1.4,12.2-2.8,16.8,0.8c4.2,3,4.6,8.2,3.8,13
							c-1.2,5.6-5,12.6-11.4,13.6c-1.2,0-2.2-0.4-2.8-1.2c-1.6-1.6-1.6-4-1.2-6c1-4.4,5.2-9.2,9.8-9.8c0.8-0.8,0.4-1.8,0.2-2.4
							c-0.6-1-1.4-1.8-2.6-2c-5.2-0.6-9,2.6-12.8,5.2c-14.8,12-25.6,27.2-34.8,42.6c-7.4,13.8-13.8,28-15.6,44
							c-1,11.6,2.8,23,13.2,28.6c11.2,6,25.8,2,37-1.2l10.4-3.2l19.8-6c18.8-5.6,42.4-6.8,60.8,0.6c11.2,4.6,22.6,11,29.8,22
							c0,0.2,0,0.6-0.4,0.6c-15.8-4.4-36.4-8.6-52-1l-0.8-0.2c-4.8-7.6-12.8-11.8-21-13.4c-26.6-2.6-48.4,10-73.2,13.2
							c-12.6,1.2-26.2,0.8-35-9c-14-13.8-12.2-38.4-5.6-55.2C-472.8,756.2-470,750.4-467.2,744.8z"/>
						<path class="st0" d="M-430.6,753c6.6-12,16.8-26.8,30.8-31.2c3.8-0.8,7.8-0.4,10.6,2c6,6,3.6,16.2,1.6,23.4
							c0,0.4,0.4,0.8,0.8,1c5.4-0.2,9.6-2.6,13.6-6.4c8.2-9.2,17.2-21.4,30.6-20c2.6,0.4,5,1.8,6.4,4.2c3.4,6.8,0,14.2-4.6,19.6
							c-1.8,1.8-4,3-6.6,2.2c-1-0.4-1.8-1.4-2.2-2.4c-1-4.8,1.8-9.2,5.6-11.6c1-1,4.4-0.4,3.6-2.8c-0.6-1-1.8-1-2.8-1.2
							c-6.6,2.8-10.8,9.4-14.6,15c-4.8,7.6-8.6,15.4-11.2,24c-0.6,3-1.6,7,0.2,9.8c1.4,1.8,3.4,2.6,5.8,2
							c6.4-2.6,12.2-7.8,17.2-13.2c11.4-13.6,17.4-30.4,32.6-41.6c4.8-3.2,11.4-5.8,17-2.8c1,0.4,1.6,1.6,2.8,1.2
							c1-1,1.6-2.8,3.4-2.4c4.2,0,9-0.2,13.4,0.2l0.2,0.4l-1.2,3l-23.6,48c-0.6,0.2-0.8,0.8-0.6,1.4c0.4,0.6,1.2,0.6,1.8,0.4
							c3.4-2,6-5.6,8.4-8.6c2-2.8,4-5.8,5.4-9c0.6-1,1.4-2,2.6-1.8c1.4,0.2,3-0.4,4,0.6c-1.6,4-3.8,7.6-6,11.4
							c-6.4,9.8-14.8,21.4-26.6,24.2c-2,0.2-4.4,0.4-5.8-1c-2.2-1.8-2.4-4.4-3-7c-0.2-0.2-0.6-0.4-1-0.2c-5,4.6-10.2,9-17.2,8.2
							c-2.2-0.4-4.2-2.2-5.2-4.2c-1.8-3.6-1-8-1-12c-0.2-0.4-0.8-0.2-1-0.2c-7.6,7.6-16,14.4-26.2,16.2c-4.8,0.6-8.8-0.8-12-4.2
							c-7.6-10-1.6-23,2.4-32.8c0.2-0.4,0.2-1-0.4-1.2c-2.8,0.2-5.4,0.6-8,1l-1,1c-6.2,11.4-12.8,23.6-24,32.2
							c-4.6,3.4-11.4,5.6-16.8,2.6c-5.6-3.8-6.2-10.8-5.4-17.2C-436.2,766.2-433.6,759.6-430.6,753z M-413,752.4
							c-3.2,6.6-6.6,13.2-6.6,20.8c0.4,1.4,1.2,3.2,2.8,3.6c1.8,0.4,3.2-0.4,4.4-1.4c6.4-5.4,10.8-12.6,14.4-19.6
							c0.2-0.6,0.8-1.6,0.4-2.2c-3.8-1.6-7.4-4.2-10.4-7.4h-0.6c-0.6,0.2-0.8,0.6-1.2,1L-413,752.4z M-403,739.2
							c0.2,3.4,3.4,6.4,6.4,7.6c0.8,0.2,2,0.8,2.6-0.2c1.2-2.2,1.8-4.6,2.4-7c0.6-3.2,1-7.4-2-9.4c-1-0.6-2.6-0.6-3.6-0.2
							C-400.6,731.8-403.2,735.2-403,739.2z M-325.4,766c-0.8,2.8-2.2,6-1.2,9.2c0.2,0.6,1,1,1.6,1.2c2.6,0,4.4-2.2,6-4.2
							c7.6-10.4,13.4-21.8,18.6-33.2c0.8-2.4,2.2-4.6,2.2-7.4c0-0.6-0.6-1-1-1.2c-1.2-0.6-2.2,0.2-3.2,0.8
							c-10.2,7.8-15.6,19-20.8,29.8L-325.4,766z"/>
						<path class="st0" d="M-276.2,736.4c2.2-4.4,4.2-9.2,7-13.4c1.2-1.2,3-1.2,4.4-1.4l11.4,0.2l0.4,0.4c-2,4.6-4,9-6.4,13.4
							c-0.6,1.2-1.8,2.2-3.2,2.4c-4.6,0-9.4,0.4-13.8,0C-276.8,737.6-276.4,737-276.2,736.4z"/>
						<path class="st0" d="M-264.8,759.4c7.8-16.2,17.4-32,30.8-45.8c13-13,27.2-23.6,44.2-26.8c4.6-0.6,9.8-0.2,13.4,3
							c0.6,0.6,1.4,1.2,2.4,0.8c12.2-4.8,29.2-6.6,41.6-0.4c7.2,3.4,13.8,8,20.6,12.2c0.8,0.4,0.4,1.4,0,1.8
							c-4,4.4-7.2,8.8-10.8,13.4c-0.4,0.4-1,0.2-1.4,0l-18-12.4c-8.4-5.8-18.2-9.8-29-8c-1.2,0.6-0.6,2.2-0.8,3.2
							c0.2,11.2-3.8,21-9.2,30c-4.4,6.2-9.4,12.8-16.8,14.8c-3.2,0.6-6.4-0.4-8.2-2.8c-5.4-8.2-0.6-18.2,3.4-25.4
							c4.6-8,11.4-15.4,19-21c0.2-0.2,0.6-0.6,0.2-1c-0.8-0.8-2-0.2-3-0.2c-12.2,4-22,15-31,25.2c-16.2,19.8-28.4,41.4-35.4,65.2
							c-2.2,8.8-5,22.6,4,28.8c8,4.2,15.6-1.2,21.6-6.4c9.2-9.2,15.2-20,17.8-32c0.4-3.6,1.4-8.6-2-11c-3-1.4-5.4,1.2-7.4,3.2
							c-4.6,5.6-6.6,12.4-7.4,19.6c-2,1.8-4.6,2.8-6.8,4.4c-4.2,2.8-8.2,6.6-11.6,10.6c-0.4,0.2-0.4-0.4-0.6-0.6
							c-0.4-13.4,4.2-24.8,11.6-35c5.8-6.8,13.4-12.6,22.4-10.4c4,1,6.6,5.2,7.4,9c1.4,12.6-3.8,23.4-9.4,33.6
							c-9.2,14.4-23.6,28.8-41.8,27c-7-0.4-13.6-5.2-16.4-11.8c-6.8-13.8-2.2-31.4,2.6-44.8L-264.8,759.4z M-202.8,735.8
							c0.2,1.6,0.8,3.2,2.4,3.8c3,0.8,5.6-1.4,7.8-3.2c8.2-8.8,13.4-19,14.6-30.6c0-1.8,0.6-4-0.4-5.4c-0.6-0.2-1.4,0.2-2,0.6
							c-5.6,3.8-10.8,9.2-14.6,14.6C-199,721.8-202.6,728-202.8,735.8z"/>
						<path class="st0" d="M-191.2,774.6c6.6-8.8,15.4-18.4,26.6-19c2.8,0,5.2,1.2,7,3.6c4.8,7,0.8,16-1,23.2
							c-0.2,0.6,0.2,1,0.8,1.2c2.2,0.4,5,0,7-1l0.8-1c8-22.8,20-44,34-64.2c8.8-11.6,20.2-23.8,33.2-29.4c3.2-1,7.6-2.4,10.6,0
							c3.4,2.8,2.4,7.4,1.6,11c-0.4,3.2-4,3.6-6.2,4.2c-0.2,0-0.2,0-0.4-0.2c0-2,1.2-3.8,1.6-6c0.2-1,0.2-2-0.2-3
							c-0.6-1-1.8-0.6-2.6-0.4c-4.4,2.2-8,6.2-11.4,10c-12.6,14.8-21.8,31-30.4,47.6c-2.8,5.8-5.6,11.4-8,17.4c0,0.4,0,0.6,0.4,0.8
							c2,0,3.2-2,4.6-3c11.2-10.2,20.2-21.8,28.6-33.6c1.8-0.8,3.8-0.8,6-1l0.4,0.2c-0.2,1.6-1.6,2.8-2.2,4.2
							c-9.4,13.4-20,26.4-32.8,38l-9.4,7.6c-2,1.8-2,4.4-3,6.6c-1.8,6-3.6,12-3.8,18.4c0,1,0.4,2.2,1.4,2.8c2.4,1,4.4-1.2,6.2-2.8
							c12.6-14.6,18.2-32.4,33.6-45.6c5-4,11.8-7.4,18.2-4.4c1.2,0.4,2,2,3.4,1.2c1-0.6,1-2.2,2.4-2.2c4.6,0,9.4-0.2,13.8,0.2
							c0.4,0.4,0.2,1,0,1.4l-3.2,6.4l-19.4,39c-0.8,1.8-2,3.6-2,5.6c0.2,0.8,1.2,1,2,0.8c3.6-2,6.2-5.4,8.6-8.6
							c2.4-3.4,4.2-6.8,6.6-10.2c1.2-0.6,2.8-0.4,4.2-0.2c0.8,0.8-0.2,1.8-0.4,2.6c-5.6,11.8-13.6,24.6-26,31c-2.8,1.4-6.8,2.8-10,1
							c-2.6-1.8-2.2-4.8-3.4-7.4c-0.2-0.4-0.8-0.2-1-0.2c-5.2,4.6-10.6,9.8-17.8,7.8c-4.4-2-5-7.2-5.4-11.6
							c-0.2-0.2-0.2-0.6-0.4-0.6l-0.6,0.2c-5,6-11.4,13.6-19.8,12.8c-3.2-0.2-6-3.4-7-6.2c-3-9.4,0.2-19.6,2.2-28.6c0-0.6-0.6-1-1-1
							h-7l-1.2,1.4c-5.2,10.2-11,20-20,28.6c-4.8,4.2-10.6,7.6-17,5.8c-5.4-2.4-6.8-8.2-6.8-13.6
							C-205,797.6-198.8,785.8-191.2,774.6z M-189.4,805.8c0.2,2,1,4,3,4.6c1.4,0.4,2.8-0.2,4-0.6c6.6-5,10.6-12.4,14.2-19.4
							c0.4-0.6,0.6-1.8-0.2-2.2c-3.4-1.8-6.8-4.4-9.6-7.4c-0.4-0.4-1-0.4-1.4-0.2c-2.4,3.4-4.2,7-5.8,10.6
							C-187.2,795.8-189.4,800.4-189.4,805.8z M-172.6,773.6c0.2,3.6,3,6.8,6.2,8c0.6,0.2,1.8,0.6,2.2-0.2c2-4.4,3.8-9.6,2.8-14.8
							c-0.4-1.2-1.4-2.4-2.6-2.8c-1.2-0.4-2.6,0-3.6,0.6C-171,766.4-172.6,770-172.6,773.6z M-109.4,804.2c-0.2,1.6-0.6,3.8,0.8,5
							c0.6,0.6,1.8,0.8,2.6,0.4c3.4-1.8,5.6-5.4,7.6-8.4c7-10.8,12-22.2,16.8-34c0.2-1,0.4-2.4-0.6-3.2c-2.8-1.4-5,1.8-7,3.2
							c-9.2,9-14,20.2-18.6,31.2L-109.4,804.2z"/>
						<path class="st0" d="M-96,718.6l6.2-8l1-0.8c17.6-0.4,31.6-10.8,44-23.2c0,1.6-0.8,3.2-1.4,4.8c-8.2,19.2-28,36-49.4,36.4h-5
							c-1-0.2-0.2-1.2,0-1.6L-96,718.6z"/>
					</g>
				</g>
			</g>
		</g>
	</g>
	<path class="st0" d="M-73.8,820c0-2.4,1.8-4.2,4.2-4.2c2.2,0,4.2,1.8,4.2,4.2s-1.8,4.2-4.2,4.2C-71.8,824.2-73.8,822.4-73.8,820z
		 M-69.6,825.2c2.8,0,5.2-2.2,5.2-5c0-3-2.4-5-5.2-5c-2.8,0-5.2,2.2-5.2,5S-72.4,825.2-69.6,825.2z M-70.6,820.4h1l1.6,2.6h1
		l-1.6-2.6c0.8-0.2,1.6-0.6,1.6-1.6c0-1.2-0.6-1.6-2-1.6h-2.2v5.8h0.8L-70.6,820.4L-70.6,820.4z M-70.6,819.6v-1.8h1.2
		c0.6,0,1.2,0.2,1.2,0.8c0,0.8-0.6,1-1.4,1H-70.6z"/>
</g>
</svg>
