<?xml version="1.0" encoding="utf-8"?>
<!-- Generator: Adobe Illustrator 19.0.0, SVG Export Plug-In . SVG Version: 6.00 Build 0)  -->
<svg version="1.1" id="Layer_1" xmlns="http://www.w3.org/2000/svg" xmlns:xlink="http://www.w3.org/1999/xlink" x="0px" y="0px"
	 viewBox="60 590.2 672.8 203.4" style="enable-background:new 60 590.2 672.8 203.4;" xml:space="preserve">
<style type="text/css">
	.st0{fill:#FFFFFF;}
	.st1{fill:none;stroke:#FFFFFF;stroke-width:1.876;stroke-miterlimit:1;}
	.st2{fill:#1B89B3;}
	.st3{fill:#1B2B88;}
	.st4{fill:#0A1C60;}
	.st5{fill:#555555;}
	.st6{fill:none;stroke:#1B2B88;stroke-width:0.219;stroke-linecap:round;stroke-linejoin:round;}
</style>
<path class="st0" d="M720.5,619.1c-6.3,0-11.4,5.1-11.4,11.4s5.1,11.4,11.4,11.4c6.3,0,11.4-5.1,11.4-11.4
	C731.8,624.1,726.7,619.1,720.5,619.1z"/>
<path class="st1" d="M720.5,619.1c-6.3,0-11.4,5.1-11.4,11.4s5.1,11.4,11.4,11.4c6.3,0,11.4-5.1,11.4-11.4
	C731.8,624.1,726.7,619.1,720.5,619.1z"/>
<path class="st2" d="M686.6,643L686.6,643l2.8-0.7l0.1,0.3l-0.1-0.3L686.6,643L686.6,643 M90.2,702.5V643v-0.4l0.1-0.3L93,643
	l-2.7-0.7l-0.1,0.3v0.4V702.5 M692.3,705.3l-0.1-2.9l-2.8-59.5l2.8,59.5L692.3,705.3"/>
<path class="st3" d="M93.1,705.3h-2.8v-2.8h2.8h-2.8V643v-0.4l0.1-0.3l2.7,0.7c0.8,3.5,1.8,6.9,2.8,10.3v46.3h22.9
	c1.3,1.9,2.7,3.8,4.1,5.6L93.1,705.3 M689.3,705.3v-2.8V705.3h-32.6c1.4-1.9,2.8-3.7,4.1-5.6h25.5l-2.2-47.6c0.9-3,1.7-6,2.4-9l0,0
	l0,0l2.7-0.7l0.1,0.3v0.3l2.8,59.5l0.1,2.9L689.3,705.3"/>
<path class="st3" d="M95.9,699.7v-46.4c5.1,16.7,12.9,32.1,22.9,46.4H95.9 M660.8,699.7c10.2-14.6,18.2-30.5,23.3-47.6l2.2,47.6
	H660.8"/>
<path class="st4" d="M684.1,652.1c0.9-3,1.7-6,2.4-9C685.8,646.1,685,649.1,684.1,652.1L684.1,652.1 M93.1,643
	c0.8,3.5,1.8,6.9,2.8,10.3C94.9,649.9,93.9,646.5,93.1,643 M656.7,705.3c1.4-1.9,2.8-3.7,4.1-5.6
	C659.5,701.6,658.1,703.4,656.7,705.3L656.7,705.3"/>
<path class="st5" d="M719,677.2c0-26.2-17.9-45.3-42.5-45.3c-14,0-26.4,6.1-34.1,16.6c-7.7-10.5-20-16.6-34-16.6
	c-14.2,0-26.6,6.2-34.3,16.9c-7.5-10.6-19.9-16.8-34.1-16.8c-9.9,0-18.9,3.1-26,8.5c-1.9-4-5.9-6.7-10.6-6.7h-0.9
	c0-5.1,0-10.2,0-10.2c0-6.5-5.3-11.8-11.8-11.8H470c-6.5,0-11.8,5.3-11.8,11.8v8.8l-3.7-0.3c-14.2,0-26.6,6.2-34.3,16.9
	c-7.6-10.5-19.5-16.9-33.8-16.9c-14.4,0-27,6.4-34.6,17.4c-7.6-11-20.2-17.4-34.6-17.4s-26.9,6.4-34.6,17.4
	c-7.6-11-20.2-17.4-34.6-17.4c-14.9,0-27.8,6.9-35.4,18.6c-7.3-11.8-20.2-18.7-35.1-18.7c-10.4,0-19.9,3.4-27.3,9.4V638
	c0-27.2-19.3-47.8-44.9-47.8c-25.8,0-45.3,20-45.3,46.5v83c0,35,24.6,47.4,45.7,47.4c15.1,0,28.4-7.9,36.5-20
	c7.6,11.6,20.4,18.5,35.3,18.5c10.9,0,20.7-3.7,28.2-10.3v26.5c0,6.5,5.3,11.8,11.8,11.8h20.6c6.5,0,11.8-5.3,11.8-11.8
	c0,0,0-8.3,0-16.4c9.5-0.4,18-3.5,24.9-8.8v25.2c0,6.5,5.3,11.8,11.8,11.8h20.6c6.5,0,11.8-5.3,11.8-11.8c0,0,0-8.3,0-16.4
	c13.6-0.5,25.5-6.7,32.9-17.2c7.6,11,20.2,17.3,34.6,17.3c10.1,0,19.1-3.1,26.4-9c1.7,4.4,6,7.5,11,7.5h21.7
	c6.5,0,11.8-5.3,11.8-11.8v-24.4c0,17.8,11,37,36.1,37l12.1-1.1c4.2-0.4,7.1-2.9,8.4-6.4c7.1,5.4,16.1,8.3,25.9,8.3
	c10.3,0,19.6-3.3,26.9-9.1c1.7,4.4,6,7.5,11,7.5h20.6c4.4,0,8-2.5,10.1-6c2.1,3.6,5.7,6,10.1,6h20.6c4.9,0,9.1-3,10.9-7.2
	c7.2,5.6,16.4,8.8,26.5,8.8c12.3,0,23.1-4.6,31.1-13.3c7.2-7.9,11.4-19.2,11.4-30.9c0-2.7-1.1-5.2-2.7-7.2c1.6-2,2.7-4.4,2.7-7.2
	L719,677.2L719,677.2z"/>
<path class="st5" d="M709.3,630.3c0,6.3,5.1,11.4,11.3,11.4c6.3,0,11.4-5.1,11.4-11.4s-5.1-11.4-11.4-11.4
	C714.4,619,709.3,624,709.3,630.3L709.3,630.3z M720.6,639.3c-4.7,0-8.5-4-8.5-8.9c0-4.9,3.8-8.9,8.5-8.9c4.8,0,8.6,4,8.6,8.9
	C729.2,635.3,725.4,639.3,720.6,639.3L720.6,639.3 M723.3,636.8h2.6l-3.5-5.6c1.8-0.3,3.3-1.3,3.3-3.7c0-2.6-1.6-3.7-4.9-3.7h-5v13
	h2.3v-5.5h1.9L723.3,636.8 M718,629.5v-3.7h2.5c1.3,0,2.9,0.2,2.9,1.7c0,1.8-1.4,2-3.1,2H718"/>
<path class="st0" d="M138.4,720.4c0,18.6-14.3,34.9-32.7,34.9c-15.7,0-33.9-8-33.9-35.6v-83c0-19.7,13.5-34.7,33.5-34.7
	c19,0,33.1,15,33.1,36v19.4h-21.6v-18.1c0-8.5-3.8-15.7-11.7-15.7c-10.3,0-12.3,7.4-12.3,17.6v77.1c0,8.7,2.8,15.5,12.1,15.5
	c5.7,0,11.9-3.4,11.9-15.2V698h21.6C138.4,698,138.4,720.4,138.4,720.4z"/>
<path class="st0" d="M167.4,719.8c0,8.1,3.8,12.3,10.1,12.3s10.1-4.2,10.1-12.3v-42.1c0-8-3.8-12.3-10.1-12.3s-10.1,4.2-10.1,12.3
	V719.8z M146.8,681.1c0-8.7,1-16.3,3.8-21.8c4.9-9.3,14.3-15.5,26.8-15.5s22,6.1,26.8,15.5c2.8,5.5,3.8,13.1,3.8,21.8v35.4
	c0,8.7-1,16.3-3.8,21.8c-4.8,9.3-14.3,15.5-26.8,15.5s-22-6.2-26.8-15.5c-2.8-5.5-3.8-13.1-3.8-21.8V681.1"/>
<path class="st0" d="M529.9,719.8c0,8.1,3.9,12.3,10.1,12.3s10.1-4.2,10.1-12.3v-42.1c0-8-3.9-12.3-10.1-12.3
	c-6.3,0-10.1,4.2-10.1,12.3L529.9,719.8L529.9,719.8z M509.3,681.1c0-8.7,1-16.3,3.8-21.8c4.9-9.3,14.4-15.5,26.9-15.5
	s22,6.1,26.8,15.5c2.8,5.5,3.8,13.1,3.8,21.8v35.4c0,8.7-1,16.3-3.8,21.8c-4.8,9.3-14.3,15.5-26.8,15.5s-22-6.2-26.9-15.5
	c-2.8-5.5-3.8-13.1-3.8-21.8L509.3,681.1"/>
<path class="st0" d="M376.4,689.9h20.2v-12.2c0-8-3.8-12.3-10.1-12.3c-6.3,0-10.1,4.2-10.1,12.3V689.9z M376.4,706.9v14.6
	c0,6.8,3.8,10.6,10.1,10.6c7.9,0,9.7-6.2,10.1-10.8h20.6c0,8.9-3,17.2-8.3,22.9c-5.5,5.9-12.9,9.5-22.4,9.5
	c-12.5,0-22-6.1-26.8-15.5c-2.8-5.5-3.8-13.1-3.8-21.8V681c0-8.7,1-16.3,3.8-21.8c4.8-9.3,14.3-15.5,26.8-15.5
	c19,0,30.7,14.6,30.7,33.5v29.7H376.4"/>
<path class="st0" d="M666.5,689.9h20.1v-12.2c0-8-3.8-12.3-10.1-12.3s-10.1,4.2-10.1,12.3L666.5,689.9L666.5,689.9z M666.5,706.9
	v14.6c0,6.8,3.8,10.6,10.1,10.6c7.9,0,9.7-6.2,10.1-10.8h20.6c0,8.9-3,17.2-8.3,22.9c-5.4,5.9-12.9,9.5-22.4,9.5
	c-12.5,0-22-6.1-26.8-15.5c-2.8-5.5-3.8-13.1-3.8-21.8V681c0-8.7,1-16.3,3.8-21.8c4.8-9.3,14.3-15.5,26.8-15.5
	c19,0,30.7,14.6,30.7,33.5v29.7H666.5"/>
<path class="st0" d="M470,623.6h20.6v22h12.7v21.7h-12.7V722c0,9.9,3.7,10.6,12.7,10.6V752c0,0-4.1,0.9-8.5,0.9
	c-18.4,0-24.8-13.8-24.8-25.2v-65.2v-17L470,623.6L470,623.6z"/>
<path class="st0" d="M258.3,719.8c0,8.1-3.9,12.3-10.1,12.3c-6.1,0-9.9-4.1-10.1-11.8v-31.7l0,0v-10.9c0-8,3.8-12.3,10.1-12.3
	c6.2,0,10.1,4.2,10.1,12.3V719.8z M275,659.3c-4.8-9.3-14.3-15.5-26.8-15.5c-12.5,0-22,6.1-26.9,15.5c-2.8,5.5-3.8,13.1-3.8,21.8
	v7.4l0,0v93.2h20.6v-29.5c3.1,0.9,6.4,1.5,10.1,1.5c12.5,0,22-6.2,26.8-15.5c2.8-5.5,3.9-13.1,3.9-21.8v-35.3
	C278.9,672.4,277.8,664.8,275,659.3L275,659.3"/>
<path class="st0" d="M327.4,719.8c0,8.1-3.8,12.3-10.1,12.3c-6.1,0-9.9-4.1-10-11.8v-31.7l0,0v-10.9c0-8,3.8-12.3,10.1-12.3
	c6.3,0,10.1,4.2,10.1,12.3v42.1H327.4z M344.1,659.3c-4.8-9.3-14.3-15.5-26.8-15.5s-22,6.1-26.8,15.5c-2.8,5.5-3.8,13.1-3.8,21.8
	v7.4l0,0v93.2h20.6v-29.5c3.1,0.9,6.4,1.5,10,1.5c12.5,0,22-6.2,26.8-15.5c2.8-5.5,3.9-13.1,3.9-21.8v-35.3
	C348,672.4,347,664.8,344.1,659.3L344.1,659.3"/>
<path class="st0" d="M598.4,677.7c0-8,3.8-12.3,10.1-12.3s10.1,4.2,10.1,12.3v74.4h20.6v-71c0-8.7-1-16.3-3.8-21.8
	c-4.8-9.3-14.3-15.5-26.8-15.5s-22,6.1-26.8,15.5c-2.8,5.5-3.8,13.1-3.8,21.8v71h20.6v-74.4H598.4z"/>
<path class="st0" d="M454.6,643.8c-12.5,0-22,6.1-26.8,15.5c-2.8,5.5-3.8,13.1-3.8,21.8v71h20.6v-74.4c0-8,3.8-12.3,10.1-12.3h6.5
	v-21C461,644.4,458,643.8,454.6,643.8L454.6,643.8z"/>
<path class="st3" d="M407.4,637.6l0.1-0.1l0,0L407.4,637.6z"/>
<path class="st6" d="M407.4,637.6l0.1-0.1l0,0L407.4,637.6z"/>
<path class="st3" d="M453.5,631.8"/>
<path class="st0" d="M404.2,628.5L404.2,628.5L404.2,628.5z"/>
</svg>
