<?xml version="1.0" encoding="utf-8"?>
<!-- Generator: Adobe Illustrator 19.0.0, SVG Export Plug-In . SVG Version: 6.00 Build 0)  -->
<svg version="1.1" id="Layer_1" xmlns="http://www.w3.org/2000/svg" xmlns:xlink="http://www.w3.org/1999/xlink" x="0px" y="0px"
	 viewBox="30 292.5 672.8 208.5" style="enable-background:new 30 292.5 672.8 208.5;" xml:space="preserve">
<style type="text/css">
	.st0{fill:#FFFFFF;}
	.st1{fill:none;stroke:#FFFFFF;stroke-width:1.876;stroke-miterlimit:1;}
	.st2{fill:#1B89B3;}
	.st3{fill:#1B2B88;}
	.st4{fill:#0A1C60;}
	.st5{fill:#555555;}
	.st6{fill:none;stroke:#1B2B88;stroke-width:0.219;stroke-linecap:round;stroke-linejoin:round;}
	.st7{fill:#65240A;}
</style>
<path class="st0" d="M690.5,326.6c-6.3,0-11.4,5.1-11.4,11.4s5.1,11.4,11.4,11.4c6.3,0,11.4-5.1,11.4-11.4
	C701.8,331.6,696.7,326.6,690.5,326.6z"/>
<path class="st1" d="M690.5,326.6c-6.3,0-11.4,5.1-11.4,11.4s5.1,11.4,11.4,11.4c6.3,0,11.4-5.1,11.4-11.4
	C701.8,331.6,696.7,326.6,690.5,326.6z"/>
<path class="st2" d="M656.6,350.5L656.6,350.5l2.8-0.7l0.1,0.3l-0.1-0.3L656.6,350.5L656.6,350.5 M60.2,410v-59.5v-0.4l0.1-0.3
	l2.7,0.7l-2.7-0.7l-0.1,0.3v0.4L60.2,410 M662.3,412.8l-0.1-2.9l-2.8-59.5l2.8,59.5L662.3,412.8"/>
<path class="st3" d="M63.1,412.8h-2.8V410h2.8h-2.8v-59.5v-0.4l0.1-0.3l2.7,0.7c0.8,3.5,1.8,6.9,2.8,10.3v46.3h22.9
	c1.3,1.9,2.7,3.8,4.1,5.6L63.1,412.8 M659.3,412.8V410V412.8h-32.6c1.4-1.9,2.8-3.7,4.1-5.6h25.5l-2.2-47.6c0.9-3,1.7-6,2.4-9l0,0
	l0,0l2.7-0.7l0.1,0.3v0.3l2.8,59.5l0.1,2.9h-2.9"/>
<path class="st3" d="M65.9,407.2v-46.4c5.1,16.7,12.9,32.1,22.9,46.4H65.9 M630.8,407.2c10.2-14.6,18.2-30.5,23.3-47.6l2.2,47.6
	H630.8"/>
<path class="st4" d="M654.1,359.6c0.9-3,1.7-6,2.4-9C655.8,353.6,655,356.6,654.1,359.6L654.1,359.6 M63.1,350.5
	c0.8,3.5,1.8,6.9,2.8,10.3C64.9,357.4,63.9,354,63.1,350.5 M626.7,412.8c1.4-1.9,2.8-3.7,4.1-5.6
	C629.5,409.1,628.1,410.9,626.7,412.8L626.7,412.8"/>
<path class="st5" d="M689,384.7c0-26.2-17.9-45.3-42.5-45.3c-14,0-26.4,6.1-34.1,16.6c-7.7-10.5-20-16.6-34-16.6
	c-14.2,0-26.6,6.2-34.3,16.9c-7.5-10.6-19.9-16.8-34.1-16.8c-9.9,0-18.9,3.1-26,8.5c-1.9-4-5.9-6.7-10.6-6.7h-0.9
	c0-5.1,0-10.2,0-10.2c0-6.5-5.3-11.8-11.8-11.8H440c-6.5,0-11.8,5.3-11.8,11.8v8.8l-3.7-0.3c-14.2,0-26.6,6.2-34.3,16.9
	c-7.6-10.5-19.5-16.9-33.8-16.9c-14.4,0-27,6.4-34.6,17.4c-7.6-11-20.2-17.4-34.6-17.4s-26.9,6.4-34.6,17.4
	c-7.6-11-20.2-17.4-34.6-17.4c-14.9,0-27.8,6.9-35.4,18.6c-7.3-11.8-20.2-18.7-35.1-18.7c-10.4,0-19.9,3.4-27.3,9.4v-3.4
	c0-27.2-19.3-47.8-44.9-47.8c-25.8,0-45.3,20-45.3,46.5v83c0,35,24.6,47.4,45.7,47.4c15.1,0,28.4-7.9,36.5-20
	c7.6,11.6,20.4,18.5,35.3,18.5c10.9,0,20.7-3.7,28.2-10.3v26.5c0,6.5,5.3,11.8,11.8,11.8h20.6c6.5,0,11.8-5.3,11.8-11.8
	c0,0,0-8.3,0-16.4c9.5-0.4,18-3.5,24.9-8.8v25.2c0,6.5,5.3,11.8,11.8,11.8h20.6c6.5,0,11.8-5.3,11.8-11.8c0,0,0-8.3,0-16.4
	c13.6-0.5,25.5-6.7,32.9-17.2c7.6,11,20.2,17.3,34.6,17.3c10.1,0,19.1-3.1,26.4-9c1.7,4.4,6,7.5,11,7.5h21.7
	c6.5,0,11.8-5.3,11.8-11.8v-24.4c0,17.8,11,37,36.1,37l12.1-1.1c4.2-0.4,7.1-2.9,8.4-6.4c7.1,5.4,16.1,8.3,25.9,8.3
	c10.3,0,19.6-3.3,26.9-9.1c1.7,4.4,6,7.5,11,7.5h20.6c4.4,0,8-2.5,10.1-6c2.1,3.6,5.7,6,10.1,6h20.6c4.9,0,9.1-3,10.9-7.2
	c7.2,5.6,16.4,8.8,26.5,8.8c12.3,0,23.1-4.6,31.1-13.3c7.2-7.9,11.4-19.2,11.4-30.9c0-2.7-1.1-5.2-2.7-7.2c1.6-2,2.7-4.4,2.7-7.2
	L689,384.7L689,384.7z"/>
<path class="st5" d="M679.3,337.8c0,6.3,5.1,11.4,11.3,11.4c6.3,0,11.4-5.1,11.4-11.4c0-6.3-5.1-11.4-11.4-11.4
	C684.4,326.5,679.3,331.5,679.3,337.8L679.3,337.8z M690.6,346.8c-4.7,0-8.5-4-8.5-8.9s3.8-8.9,8.5-8.9c4.8,0,8.6,4,8.6,8.9
	C699.2,342.8,695.4,346.8,690.6,346.8L690.6,346.8 M693.3,344.3h2.6l-3.5-5.6c1.8-0.3,3.3-1.3,3.3-3.7c0-2.6-1.6-3.7-4.9-3.7h-5v13
	h2.3v-5.5h1.9L693.3,344.3 M688,337v-3.7h2.5c1.3,0,2.9,0.2,2.9,1.7c0,1.8-1.4,2-3.1,2H688"/>
<path class="st0" d="M108.4,427.9c0,18.6-14.3,34.9-32.7,34.9c-15.7,0-33.9-8-33.9-35.6v-83c0-19.7,13.5-34.7,33.5-34.7
	c19,0,33.1,15,33.1,36v19.4H86.8v-18.1c0-8.5-3.8-15.7-11.7-15.7c-10.3,0-12.3,7.4-12.3,17.6v77.1c0,8.7,2.8,15.5,12.1,15.5
	c5.7,0,11.9-3.4,11.9-15.2v-20.6h21.6V427.9z"/>
<path class="st0" d="M137.4,427.3c0,8.1,3.8,12.3,10.1,12.3c6.3,0,10.1-4.2,10.1-12.3v-42.1c0-8-3.8-12.3-10.1-12.3
	c-6.3,0-10.1,4.2-10.1,12.3V427.3z M116.8,388.6c0-8.7,1-16.3,3.8-21.8c4.9-9.3,14.3-15.5,26.8-15.5s22,6.1,26.8,15.5
	c2.8,5.5,3.8,13.1,3.8,21.8V424c0,8.7-1,16.3-3.8,21.8c-4.8,9.3-14.3,15.5-26.8,15.5s-22-6.2-26.8-15.5c-2.8-5.5-3.8-13.1-3.8-21.8
	V388.6"/>
<path class="st0" d="M499.9,427.3c0,8.1,3.9,12.3,10.1,12.3s10.1-4.2,10.1-12.3v-42.1c0-8-3.9-12.3-10.1-12.3
	c-6.3,0-10.1,4.2-10.1,12.3V427.3z M479.3,388.6c0-8.7,1-16.3,3.8-21.8c4.9-9.3,14.4-15.5,26.9-15.5s22,6.1,26.8,15.5
	c2.8,5.5,3.8,13.1,3.8,21.8V424c0,8.7-1,16.3-3.8,21.8c-4.8,9.3-14.3,15.5-26.8,15.5s-22-6.2-26.9-15.5c-2.8-5.5-3.8-13.1-3.8-21.8
	L479.3,388.6"/>
<path class="st0" d="M346.4,397.4h20.2v-12.2c0-8-3.8-12.3-10.1-12.3c-6.3,0-10.1,4.2-10.1,12.3V397.4z M346.4,414.4V429
	c0,6.8,3.8,10.6,10.1,10.6c7.9,0,9.7-6.2,10.1-10.8h20.6c0,8.9-3,17.2-8.3,22.9c-5.5,5.9-12.9,9.5-22.4,9.5
	c-12.5,0-22-6.1-26.8-15.5c-2.8-5.5-3.8-13.1-3.8-21.8v-35.4c0-8.7,1-16.3,3.8-21.8c4.8-9.3,14.3-15.5,26.8-15.5
	c19,0,30.7,14.6,30.7,33.5v29.7H346.4"/>
<path class="st0" d="M636.5,397.4h20.1v-12.2c0-8-3.8-12.3-10.1-12.3s-10.1,4.2-10.1,12.3L636.5,397.4L636.5,397.4z M636.5,414.4
	V429c0,6.8,3.8,10.6,10.1,10.6c7.9,0,9.7-6.2,10.1-10.8h20.6c0,8.9-3,17.2-8.3,22.9c-5.4,5.9-12.9,9.5-22.4,9.5
	c-12.5,0-22-6.1-26.8-15.5c-2.8-5.5-3.8-13.1-3.8-21.8v-35.4c0-8.7,1-16.3,3.8-21.8c4.8-9.3,14.3-15.5,26.8-15.5
	c19,0,30.7,14.6,30.7,33.5v29.7H636.5"/>
<path class="st0" d="M440,331.1h20.6v22h12.7v21.7h-12.7v54.7c0,9.9,3.7,10.6,12.7,10.6v19.4c0,0-4.1,0.9-8.5,0.9
	c-18.4,0-24.8-13.8-24.8-25.2V370v-17L440,331.1L440,331.1z"/>
<path class="st0" d="M228.3,427.3c0,8.1-3.9,12.3-10.1,12.3c-6.1,0-9.9-4.1-10.1-11.8v-31.7l0,0v-10.9c0-8,3.8-12.3,10.1-12.3
	c6.2,0,10.1,4.2,10.1,12.3V427.3z M245,366.8c-4.8-9.3-14.3-15.5-26.8-15.5s-22,6.1-26.9,15.5c-2.8,5.5-3.8,13.1-3.8,21.8v7.4l0,0
	v93.2h20.6v-29.5c3.1,0.9,6.4,1.5,10.1,1.5c12.5,0,22-6.2,26.8-15.5c2.8-5.5,3.9-13.1,3.9-21.8v-35.3
	C248.9,379.9,247.8,372.3,245,366.8L245,366.8"/>
<path class="st0" d="M297.4,427.3c0,8.1-3.8,12.3-10.1,12.3c-6.1,0-9.9-4.1-10-11.8v-31.7l0,0v-10.9c0-8,3.8-12.3,10.1-12.3
	c6.3,0,10.1,4.2,10.1,12.3v42.1H297.4z M314.1,366.8c-4.8-9.3-14.3-15.5-26.8-15.5s-22,6.1-26.8,15.5c-2.8,5.5-3.8,13.1-3.8,21.8
	v7.4l0,0v93.2h20.6v-29.5c3.1,0.9,6.4,1.5,10,1.5c12.5,0,22-6.2,26.8-15.5c2.8-5.5,3.9-13.1,3.9-21.8v-35.3
	C318,379.9,317,372.3,314.1,366.8L314.1,366.8"/>
<path class="st0" d="M568.4,385.2c0-8,3.8-12.3,10.1-12.3s10.1,4.2,10.1,12.3v74.4h20.6v-71c0-8.7-1-16.3-3.8-21.8
	c-4.8-9.3-14.3-15.5-26.8-15.5s-22,6.1-26.8,15.5c-2.8,5.5-3.8,13.1-3.8,21.8v71h20.6v-74.4H568.4z"/>
<path class="st0" d="M424.6,351.3c-12.5,0-22,6.1-26.8,15.5c-2.8,5.5-3.8,13.1-3.8,21.8v71h20.6v-74.4c0-8,3.8-12.3,10.1-12.3h6.5
	v-21C431,351.9,428,351.3,424.6,351.3L424.6,351.3z"/>
<path class="st3" d="M377.4,345.1l0.1-0.1l0,0L377.4,345.1z"/>
<path class="st6" d="M377.4,345.1l0.1-0.1l0,0L377.4,345.1z"/>
<path class="st3" d="M423.5,339.3"/>
<path class="st0" d="M368.9,315.6c-0.2,0.6-0.8,0.9-0.7,1.5c-0.1,0.4-0.7,0.8-0.3,1.3c0.6,0.3,0.1,1.3,0.8,1.6h0.1
	c0.4-0.7,0.5-1.6,1-2.1c-0.1,0.3,0.2,0.4,0.1,0.8c-0.4,0.8-0.7,1.7-0.9,2.6l0.4,0.6l0.6-0.6c0.3,0.6-0.5,0.6-0.4,1.1
	c-0.3,0.4,0.1,1.5-0.6,1.6l-0.1-0.4c-0.6,0-0.4,1-1.1,0.9v0.2l-0.1-0.1l-0.1,0.1v0.1h-0.1v-0.3l0.2-0.7l0.1-0.3l-0.6,0.2
	c0.2-0.7,0.2-1.6-0.2-2.1c-0.6,0-0.9,0.6-1.2,0.9c-0.4,0.5-0.1,1.3-0.6,1.7c-0.3,0.3-0.1,0.8-0.2,1.2c-0.1-0.4-0.3-0.9-0.2-1.3
	c0.3-0.5,0.5-1.1,0.5-1.7c0.2-0.4,0.4-0.9,0.4-1.4l0.3-0.6c0-0.7,0.5-1.3,0.4-2.1c0.2-0.6,0.7-0.9,1-1.5c0.4-0.3,0.8-0.5,1-0.9
	L368.9,315.6z"/>
<polygon class="st7" points="365.1,316.9 364.9,316.9 364.9,316.9 "/>
<path class="st0" d="M365.4,318.1L365.4,318.1c-0.2,0.5-0.5,1.1-0.5,1.7l-0.1,0.1c0,0.4,0.2,0.8,0,1.2c-0.3,0.3-0.8,0.2-1,0.7
	c-0.2-0.2,0.2-1-0.5-0.9c-0.5-0.6,0.2-1.2,0.4-1.6l0.4-0.4c-0.1-0.5,0.7-0.4,0.8-0.8l0.3-0.2L365.4,318.1z"/>
<path class="st0" d="M371.8,319.8c0.2,0.6-0.4,1.1-0.1,1.8c0.3,0.2,0.3,0.7,0.5,1c0.2,0.7,0.2,1.4,0.1,2.1c-0.4,0-0.5-0.4-0.7-0.6
	l-0.4-0.2c-0.2-0.1-0.7,1.9-0.4,2.5l-0.2-0.1c-0.2-0.6,0-1.4-0.1-2.1h0.1c0.8-0.8-0.4-1.3,0-2.1c0.2-0.4,0.3-0.9,0.4-1.3l0.2,0.2
	l0.3-0.6v-0.2L371.8,319.8z"/>
<path class="st0" d="M356.2,329.2h0.1v0.3c-0.5,0.2-1,0.5-1.2,1l0.3,0.1c-0.1,0.4,0.2,0.6-0.1,0.9h0.1c0,0.2-0.3,0.4,0,0.6
	c0,0-0.5,0.8-0.9-0.2l0.2-0.8c-0.3-0.3-0.7-0.2-1-0.5c-0.9,0.3-2,0-3,0.4c-0.7,0.1-0.5,1.1-1.2,1.1l-0.5-0.2
	c-0.5,0.1-0.1,1.1-0.7,0.7c0-0.2,0.2-0.5-0.2-0.5c-0.3-0.8,0.5-1,1.1-1.1c0.2-0.4,0.9-0.1,1.3-0.5l0.9-0.1l-0.5-0.2
	c0.7-0.2,1.5,0.1,2.2,0.1c0.2-0.3,0.3-0.5,0.8-0.5c0.4-0.5,1.1-0.9,1.8-0.8l0.5-0.2L356.2,329.2z"/>
<path class="st0" d="M374.2,336L374.2,336L374.2,336z"/>
</svg>
