<?xml version="1.0" encoding="utf-8"?>
<!-- Generator: Adobe Illustrator 19.0.0, SVG Export Plug-In . SVG Version: 6.00 Build 0)  -->
<svg version="1.1" id="Layer_1" xmlns="http://www.w3.org/2000/svg" xmlns:xlink="http://www.w3.org/1999/xlink" x="0px" y="0px"
	 viewBox="-87 317.9 435.8 158.1" style="enable-background:new -87 317.9 435.8 158.1;" xml:space="preserve">
<style type="text/css">
	.st0{display:none;}
	.st1{display:inline;fill:#FFFFFF;}
	.st2{fill:#555555;}
</style>
<g id="Layer_2" class="st0">
	<path class="st1" d="M80.9,352.3c0.1-0.1,0.1-0.1,0.2-0.2c0.1-0.2,0.2-0.3,0.4-0.5L80.9,352.3z M336.3,475.3
		c-0.1,0.1-0.1,0.1-0.2,0.2c-0.1,0.1-0.1,0.1-0.2,0.2L336.3,475.3z M340.7,404c-0.7,0-1.4,0.1-2.1,0.1c0.2-1.7,0.2-3.4,0.2-5v-6.8
		c0.4,0,0.9,0.1,1.3,0.1c14.1,0,20.7-16.1,20.7-27c0-12.2-8.8-21.8-20.1-21.8c-4.3,0-8,1.5-11.1,3.8c-3.3-2.3-7.4-3.5-11.8-3.5
		c-5.6,0-11.3,2.5-15.2,6.4c-4.2-4.3-9.1-6.4-14.8-6.4c-5.3,0-10,1.7-13.6,4.6c-3.6-2.9-8.2-4.6-13.4-4.6c-4.8,0-9.4,1.6-12.9,4.4
		c-3.5-2.7-8-4.4-12.8-4.4c-5,0-9.5,1.6-13.2,4.6c-3.6-2.9-8.5-4.6-13.5-4.6c-5.1,0-9.6,1.7-13.2,4.6c-3.7-3-8.2-4.6-13.2-4.6
		c-5.9,0-11.4,2.4-15.4,6.5c-3.9-4.3-8.9-6.5-14.7-6.5c-5.2,0-9.9,1.6-13.5,4.4c-3.7-2.8-8.3-4.4-13.2-4.4c-5,0-10,1.9-13.7,5.2
		c-4.2-3.8-9.8-5.2-13.9-5.2c-6.7,0-12.9,3-16.7,8.1c-0.3,0.4-0.6,0.7-0.8,1.1c-7.2-5.9-16.2-8.9-26.8-8.9H42.1
		c-8.1,0-13.2,2.9-16.5,6.3c-4.5-4.7-10.8-7.7-17.8-7.7H6.3c-0.2,0-0.4-0.1-0.6-0.1h-32c2.3-3.4,3.5-7.3,3.5-11.5
		c0-1.4-0.1-2.7-0.4-4.1c-0.9-4.8-3.5-19.4-22.1-21.1c-14.7-1.4-26.1,10.1-28.5,22.1c-0.6,0-1.2,0.1-1.8,0.1
		c-14.2,1.4-24,13.1-22.8,27.2c0.1,1.5,0.4,2.9,0.7,4.3c-0.2,0.6-0.4,1.1-0.6,1.7c-0.5,1.9-0.7,3.9-0.7,5.9v94.6
		c0,13.5,11,24.6,24.6,24.6H-38c0.3,0,0.5,0,0.8,0h37.1c0.2,0,0.4,0,0.6,0H8c7.7,0,14.5-3.5,19-9c1.1,1,2.1,1.7,2.8,2.2l0.4,0.3
		l0.4,0.2c4.5,2.7,8.8,2.9,13.6,2.9h7.4c3.9,0,7.5-0.2,11-0.7h0.3l0.3-0.1c6.3-1.3,12.8-4.4,18.3-8.9l0.4-0.3l0.4-0.4
		c0.3-0.3,0.5-0.6,0.8-0.8c7.5,7.9,18.1,12.9,29.8,12.9c9.4,0,18-3.2,24.9-8.6c4.3,4.9,10,7.6,16,7.6c5.7,0,11.4-2.5,15.2-6.7
		c4,4.3,9.3,6.7,15.2,6.7c6.2,0,11.7-2.6,15.6-7.1c6.2,5.1,14,8,21.9,8c9.8,0,19.7-4.5,26.3-12l0.1-0.1c0.8-0.9,1.5-1.8,2.1-2.7
		c0.5,1.6,1.3,3.2,2.4,4.9l0.4,0.6l0.5,0.6c4.4,5,10.2,7.8,16.5,7.8c6.8,0,12.8-3.1,16.6-8.6c5.9,5.9,15.1,9.6,25.5,9.6
		c10.1,0,18.1-3.1,23.8-9.2c5.5-5.5,8.6-13.1,8.6-20.9c0-4.2-0.9-8.3-2.5-12c10-0.8,17.8-9.1,17.8-19.3
		C360.1,412.7,351.4,404,340.7,404z"/>
</g>
<g id="Layer_1_1_">
	<g>
		<path class="st2" d="M-87,379.3v-11.9c0-1,0.1-2.1,0.4-3c1.6,1.4,4.2,4.7,10.6,4.7C-79.2,370.9-86.8,377.5-87,379.3z"/>
		<path class="st2" d="M-87,386.7v75.2c0,6.9,5.6,12.6,12.6,12.6H-38l-28.3-52.9c0,0-6.9-1-8.3-4.7C-76.1,413.3-87,386-87,386V386.7
			z"/>
		<path class="st2" d="M0.4,474.5H8c6.9,0,12.6-5.6,12.6-12.6v-94.5c0-6.9-5.6-12.6-12.6-12.6h-20.9l12.3,31
			c1.4,3.6,0.7,6.1-2.3,10.1c1.4,5.2,15.1,51.7,15.1,51.7C13.6,451.2,16,466.7,0.4,474.5z"/>
		<path class="st2" d="M7.9,448.7L-8,394.9h-0.1c2.2-2.7,3.2-5.3,2.9-8v-0.2l-0.1-0.2c-4.6-10.9-9.4-24.3-10.1-26
			c-0.1-1.4-0.8-2.5-2.1-3.4c-4.7-3.2-17.5-1.8-32.6,3.5c-16.2,5.7-33.3,15.7-33.1,23c0,1,0.3,1.8,0.9,2.6l0,0l10.6,26.6v0.1
			c0.1,0.2,2.3,4.2,8.4,4.7l25.3,50c0.1,0.1,6.1,10.9,21.5,8c8-1.5,18.4-5,23-12.6C9.1,458.8,9.5,454,7.9,448.7z M-79.8,383.6
			c-0.1-3.7,11.6-13,30.8-19.8c15.3-5.4,26.5-6.1,29.6-3.9c0.1,0.1,0.2,0.2,0.3,0.2c-0.7,0.7-1.9,1.9-4.5,4.5
			c-33.3,5.9-49,19.9-49,19.9h-6.7C-79.7,384.1-79.8,383.8-79.8,383.6z M-68.7,411.3c-0.1-0.2-6.2-15.5-9.1-22.7
			c6.1,1.3,16.9-0.5,29.3-4.8c13-4.6,26.5-11.9,31.3-18.4c1.9,5.1,5.3,14.2,8.6,22.2c0,0.1,0,0.2,0,0.3c0,1.6-0.7,3.3-2.2,5
			c-9.3,11.2-44.2,20.9-50.1,21.3C-66.5,414.6-68.5,411.7-68.7,411.3z M3.7,461.2c-4.2,6.9-14.8,9.9-20.8,11
			c-12.9,2.5-17.7-5.9-17.9-6.2l-24.5-48.6c7.6-1.2,36.6-9,48.8-19.8l15.4,52C6,454.1,5.7,458,3.7,461.2z M-53.9,347.4
			c3.3,4,1.9,7.7,1.8,7.9c-0.3,0.9,0.1,1.8,0.9,2.2c0.9,0.3,1.8-0.1,2.2-0.9c0.1-0.2,2.2-5.7-2.3-11.2l-2.5-2.8
			c-3.2-3.6-6-6.6-5.1-11.2c0.9-4.6,5.7-10.6,12.3-9.9c6.1,0.6,7.5,3,8.5,8.6c0.3,1.9,0,3.4-0.9,4.5c-1.1,1.3-3.1,2.1-5.3,2.1
			c-0.8,0-2.9-1.8-3-3.5c0-0.4-0.1-1.4,2.5-1.9c0.9-0.2,1.5-1,1.3-1.9s-1-1.5-1.9-1.3c-5.2,1-5.3,4.5-5.2,5.5
			c0.3,3.2,3.5,6.5,6.3,6.5c3.3,0,6.1-1.2,7.9-3.3c1.1-1.3,2.3-3.7,1.6-7.3c-1-5.5-2.6-10.5-11.5-11.3c-8-0.8-14.5,5.9-15.9,12.6
			c-1.3,6.3,2.4,10.3,5.9,14.2L-53.9,347.4z M-73.7,365.3C-73.6,365.3-73.6,365.3-73.7,365.3c2.6-0.3,4.5-1.3,5.7-3
			c1.4-1.8,1.8-4.4,1.2-7.7c-0.4-2.5-2.1-4.4-4.5-4.9c-2.2-0.5-4.3,0.1-5.4,1.6c-0.5,0.7-0.4,1.8,0.4,2.3c0.7,0.5,1.8,0.4,2.3-0.4
			c0.2-0.3,1-0.6,1.9-0.3c0.6,0.1,1.7,0.6,2,2.2c0.1,0.7,0.2,1.4,0.2,2.1c0,1.3-0.3,2.3-0.8,3.1c-0.6,0.9-1.7,1.4-3.3,1.6
			c-5.8,0.4-8.8-3.7-9.2-7.9c-0.4-4.8,2.6-10.1,9-10.7c3.2-0.3,5.7,0.4,7.4,2.2c4.1,4.2,3.1,12.8,3.1,12.9c-0.1,0.9,0.5,1.7,1.5,1.9
			c0.9,0.1,1.7-0.5,1.9-1.5c0.1-0.4,1.2-10.3-4-15.6c-2.5-2.5-5.9-3.6-10.1-3.2c-8.7,1-12.6,8-12.1,14.4
			C-86,360.1-81.8,365.9-73.7,365.3z"/>
		<path class="st2" d="M-34.3,439.1c-1.2,0.6-1.8,0.8-2.4,0.7c-0.7-0.1-1.3-0.3-1.8-0.9c-0.3-0.3-0.4-0.6-0.9-1.6l-4.4-8.5
			c-0.6-1.2-0.7-1.4-0.8-1.8c-0.2-1.4,0.4-2.3,1.9-3.1l3.1-1.6c2.2-1.2,4.4-1.5,6.5-0.9c2.3,0.7,4.4,2.3,5.5,4.5
			c1.1,2.1,1.2,4.7,0.4,6.9c-0.4,1.5-1.4,2.8-2.5,3.8c-0.6,0.4-1.5,1-2.5,1.5L-34.3,439.1L-34.3,439.1L-34.3,439.1z M-35,433.5
			c1.7-1,2.1-1.2,2.5-1.9c0.4-0.9,0.4-2.1-0.1-3.1c-0.6-1.1-1.7-1.9-3-1.8c-0.6,0-1.1,0.1-2.1,0.6c-0.1,0-0.3,0.1-0.4,0.2L-35,433.5
			L-35,433.5z"/>
		<path class="st2" d="M-18.9,433.6c-1.2,0.5-1.8,0.6-2.3,0.4c-0.7-0.2-1.2-0.5-1.6-1c-0.2-0.3-0.4-0.6-0.8-1.7l-3.7-8.9
			c-0.5-1.3-0.6-1.5-0.7-1.9c-0.1-1.4,0.6-2.3,2-2.9l3.1-1.3c2.2-0.9,4.3-1,6.3-0.3c2.2,0.9,4,2.7,5,5c0.9,2.2,0.9,4.8-0.1,6.9
			c-0.5,1.4-1.5,2.7-2.7,3.5c-0.6,0.3-1.5,0.8-2.5,1.2L-18.9,433.6L-18.9,433.6L-18.9,433.6z M-19.3,428c1.7-0.8,2.1-1,2.5-1.7
			c0.5-0.8,0.6-2.1,0.1-3.1c-0.5-1.2-1.5-2-2.8-2.1c-0.5-0.1-1.1,0-2,0.4c-0.1,0-0.3,0.1-0.4,0.2L-19.3,428L-19.3,428z"/>
	</g>
	<g>
		<path class="st2" d="M339.2,380.1c-6.5-1.2-6.5-9.2-6.5-14.1c0-4.6,3.4-10.4,8.1-10.4c5,0,8.1,4.9,8.1,9.8c0,4.3-2.8,15-8.7,15
			C339.8,380.4,339.5,380.4,339.2,380.1L339.2,380.1z"/>
		<path class="st2" d="M43.9,410.1c-4.3,0-6.2-0.3-7.7-1.5c-1.9-1.2-3.1-2.8-3.7-4.9c-0.3-1.2-0.3-2.1-0.3-5.8v-29.7
			c0-4.3,0-4.9,0.3-6.1c1.5-4,4.6-5.8,9.9-5.8h11.2c8.1,0,14.6,2.1,19.8,6.7c5.6,5.2,9,12.6,9,20.2c0,7.4-3.4,14.7-9,19.6
			c-3.4,3.4-8.1,5.8-12.7,6.7c-2.2,0.3-5.6,0.6-9.3,0.6H43.9L43.9,410.1L43.9,410.1z M50.1,393.6c6.2-0.3,7.7-0.3,9.9-1.8
			c2.5-1.8,4.3-5.2,4.3-8.6c0-4-2.2-7.7-5.9-9.2c-1.5-0.9-3.4-1.2-6.8-1.2c-0.3,0-0.9,0-1.5,0V393.6L50.1,393.6z"/>
		<path class="st2" d="M93.1,402.2c-3.4-4.6-4.6-8.3-4.6-15.6v-19c0-4.9,0.6-6.4,2.2-8.3c1.6-2.1,4.3-3.4,7.1-3.4
			c2.2,0,5,0.9,6.5,2.8c1.9,1.8,2.5,3.7,2.5,7.7v21.1c0,4,1.9,6.4,5,6.4s4.6-2.4,4.6-6.1v-21.5c0-4,0.6-5.2,2.2-7
			c1.5-2.1,4.3-3.4,6.8-3.4c2.8,0,5.6,1.2,7.1,3.1c1.5,2.1,2.2,3.7,2.2,8.6v19c0,7.3-1.9,12.6-5.9,16.8c-4.3,5.2-10.8,8-17,8
			C104.3,411.4,97.5,408,93.1,402.2L93.1,402.2z"/>
		<path class="st2" d="M175,406.8l-14.3-18.1V400c0,3.7-0.6,5.2-2.2,7.4c-1.6,1.8-4.3,3.1-6.8,3.1c-2.8,0-5.6-1.2-7.4-3.4
			c-1.2-2.1-1.9-3.7-1.9-7.7v-34c0-5.8,3.7-9.5,9.6-9.5c2.5,0,4.6,0.9,6.5,3.4l14.3,17.5v-10.2c0-3.4,0.6-5.2,1.9-7
			c1.5-2.1,4.3-3.7,7.4-3.7c2.5,0,5,0.9,6.8,3.1c1.6,1.8,2.2,3.7,2.2,7v33.1c0,4.3-0.6,6.1-2.2,8c-1.5,2.1-4.3,3.4-6.8,3.4
			C179,410.4,176.8,409.2,175,406.8L175,406.8z"/>
		<path class="st2" d="M231.1,407.7l-13.3-16.8v9.5c0,6.1-3.7,10.1-9.3,10.1c-5.6,0-9-4-9-10.1v-34.7c0-5.8,3.7-9.8,9-9.8
			c2.5,0,5.3,0.9,6.8,2.8c1.5,1.8,2.5,4,2.5,7v8.6l9.9-14.4c1.9-2.8,4.3-4,7.4-4c5,0,9,4,9,8.9c0,1.5-0.6,3.4-1.2,4.6l-9.3,13.2
			l11.2,14.1c1.2,1.2,1.5,3.1,1.5,4.9c0,4.9-4,8.9-9,8.9C234.8,410.4,232.3,409.5,231.1,407.7L231.1,407.7z"/>
		<path class="st2" d="M254.3,407.7c-1.9-1.8-2.2-3.7-2.2-7.4V367c0-4.6,0.3-6.1,2.2-8.3c1.5-1.8,4-2.8,6.5-2.8
			c2.8,0,5.3,0.9,6.8,2.8c1.9,1.8,2.5,3.7,2.5,8.3v33.4c0,3.4-0.9,5.5-2.5,7c-1.6,1.8-4.3,3.1-6.5,3.1
			C258.6,410.4,255.9,409.2,254.3,407.7L254.3,407.7z"/>
		<path class="st2" d="M310.7,406.8l-14.3-18.1V400c0,3.7-0.3,5.2-1.9,7.4c-1.9,1.8-4.3,3.1-7.1,3.1c-2.8,0-5.6-1.2-7.1-3.4
			c-1.6-2.1-1.9-3.7-1.9-7.7v-34c0-5.8,3.7-9.5,9.3-9.5c2.8,0,4.7,0.9,6.8,3.4l14.3,17.5v-10.2c0-3.4,0.3-5.2,1.5-7
			c1.5-2.1,4.6-3.7,7.4-3.7s5.3,0.9,6.8,3.1c1.5,1.8,2.2,3.7,2.2,7v33.1c0,4.3-0.3,6.1-1.9,8c-1.9,2.1-4.3,3.4-7.1,3.4
			C315.1,410.4,312.6,409.2,310.7,406.8L310.7,406.8z"/>
		<path class="st2" d="M44.2,471.1c-4.3,0-5.9-0.3-7.4-1.2c-2.2-1.5-3.4-2.8-3.7-4.9c-0.3-1.2-0.3-2.1-0.3-5.8v-29.7
			c0-4.6,0-4.9,0.3-6.1c1.2-4,4.6-5.8,9.6-5.8h11.2c8.1,0,14.6,2.1,19.8,6.7c5.6,4.9,9,12.3,9,19.9c0,7.7-3.4,14.7-8.7,19.9
			c-3.7,3.1-8.4,5.5-13,6.4c-2.2,0.3-5.3,0.6-9.3,0.6H44.2L44.2,471.1L44.2,471.1z M50.4,454.9L50.4,454.9c6.2,0,7.7-0.3,9.9-1.8
			c2.8-1.8,4.6-5.2,4.6-8.6c0-4-2.5-8-5.9-9.5c-1.9-0.9-3.7-1.2-7.1-1.2h-1.5V454.9L50.4,454.9z"/>
		<path class="st2" d="M84.2,444.1c0-15.6,12.7-27.9,28.8-27.9c15.8,0,28.5,12.6,28.5,27.9c0,15.6-12.7,28.5-28.5,28.5
			C96.9,472.6,84.2,459.8,84.2,444.1L84.2,444.1L84.2,444.1z M102.1,444.1c0,6.1,5,11,10.8,11c5.9,0,10.8-4.9,10.8-10.7
			s-5-10.7-10.8-10.7S102.1,438.3,102.1,444.1L102.1,444.1z"/>
		<path class="st2" d="M177.1,468l-14.3-18.4v11.6c0,3.7-0.6,5.2-2.2,7c-1.6,2.1-4.3,3.4-6.8,3.4c-2.8,0-5.3-1.5-7.1-3.7
			c-1.5-1.8-1.9-3.4-1.9-7.4v-34.3c0-5.5,3.7-9.2,9.3-9.2c2.5,0,4.6,0.9,6.5,3.4l14.6,17.8v-10.3c0-3.7,0.6-5.2,1.9-7
			c1.6-2.5,4.3-3.7,7.1-3.7c2.8,0,5,0.9,6.8,3.1c1.5,1.8,2.2,3.7,2.2,7v33.1c0,4.3-0.6,5.8-2.2,8c-1.5,2.1-4,3.4-6.8,3.4
			C181.5,471.7,179,470.5,177.1,468L177.1,468z"/>
		<path class="st2" d="M203.5,463.1c-3.4-4.3-4.3-8.3-4.3-15.3v-19c0-5.2,0.3-6.4,1.5-8.3c1.9-2.1,4.6-3.4,7.1-3.4s5,0.9,6.5,2.8
			c1.9,1.8,2.5,3.7,2.5,7.4v21.4c0,4,1.9,6.4,5,6.4c3.4,0,5.3-2.5,5.3-6.1v-21.8c0-4,0.3-4.9,1.9-7c1.5-1.8,4-3.1,6.8-3.1
			c2.5,0,5.3,1.2,6.8,3.1c1.9,1.8,2.2,3.7,2.2,8.3v19.3c0,7.4-1.9,12.6-5.6,16.8c-4.3,4.9-10.8,8-17.4,8
			C214.6,472.6,207.8,469,203.5,463.1L203.5,463.1z"/>
		<path class="st2" d="M262.7,468c-1.2-1.8-1.5-3.4-1.5-7v-27.3h-5c-3.1,0-5-0.6-6.5-2.1c-1.9-1.8-2.8-3.7-2.8-5.8
			c0-3.1,2.2-6.4,4.6-7.4c1.9-0.9,2.5-0.9,9.9-0.9h18c2.5,0,4,0,4.6,0s0.9,0,1.6,0c4.3,0.6,7.1,4,7.1,8c0,2.5-0.9,4.9-2.8,6.4
			c-1.2,1.2-3.7,1.8-6.8,1.8h-4.3v27c0,3.4-0.3,5.2-1.5,7c-1.5,2.5-4,4-7.1,4C267,471.7,264.5,470.2,262.7,468L262.7,468z"/>
		<path class="st2" d="M291.8,459.1c0-4.6,3.7-8,8.1-8c2.2,0,4,0.6,6.5,2.4c3.7,3.1,4.3,3.4,5.9,3.4c1.2,0,2.2-0.9,2.2-2.5
			c0-1.2-0.3-1.8-1.2-2.4c-0.6-0.3-0.9-0.6-3.7-1.5c-1.5-0.6-3.1-0.9-4.3-1.5c-8.1-2.8-11.8-8-11.8-15.3c0-10.4,8.1-17.5,19.8-17.5
			c9.9,0,17.4,4.9,17.4,11.6c0,4-2.8,7-6.8,7c-2.5,0-4.3-0.6-7.4-3.1c-1.9-1.5-2.8-1.8-3.7-1.8c-1.2,0-2.5,0.9-2.5,2.1
			c0,1.8,1.2,2.4,5.6,4c4.6,1.2,9,3.7,11.5,5.5c3.4,2.8,5.6,7.7,5.6,12.9c0,4.6-1.9,9.2-5.3,12.6c-3.4,3.7-8.4,5.5-15.2,5.5
			C300.8,472.6,291.8,466.5,291.8,459.1L291.8,459.1z"/>
		<g>
			<path class="st2" d="M344,421.5c0-1.3-0.9-2.3-3.1-2.3h-3v7.9h1.4v-3.2h1.5l1.6,3.2h1.6l-1.7-3.5
				C343.3,423.3,344,422.5,344,421.5z M341,422.4h-1.7v-1.8h1.7c1.1,0,1.6,0.2,1.6,0.9C342.6,422.1,341.9,422.4,341,422.4z"/>
			<path class="st2" d="M340.7,416c-4,0-7.3,3.3-7.3,7.3s3.3,7.3,7.3,7.3s7.3-3.4,7.3-7.3C348.1,419.3,344.8,416,340.7,416z
				 M340.7,429.3c-3.3,0-6-2.7-6-6c0-3.3,2.7-6,6-6s6,2.7,6,6S344,429.3,340.7,429.3z"/>
		</g>
	</g>
</g>
</svg>
