<?xml version="1.0" encoding="utf-8"?>
<!-- Generator: Adobe Illustrator 19.0.0, SVG Export Plug-In . SVG Version: 6.00 Build 0)  -->
<svg version="1.1" id="Layer_1" xmlns="http://www.w3.org/2000/svg" xmlns:xlink="http://www.w3.org/1999/xlink" x="0px" y="0px"
	 viewBox="-184 681.2 425.4 113.5" style="enable-background:new -184 681.2 425.4 113.5;" xml:space="preserve">
<style type="text/css">
	.st0{fill:#555555;}
</style>
<polygon class="st0" points="98.6,792.2 111.9,792.2 111.9,704.8 98.6,704.8 "/>
<path class="st0" d="M-170.4,742.1c0.4-19.6,37.8-39.9,62.3-19.2c4.1,3.5,12.4,12.2,12.4,19.2H-170.4L-170.4,742.1z M-184,750.8
	c0,39.1,61.9,62.8,93.6,22.9c1.1-1.4,5.1-7.8,5.2-9.9c-22.9,0-5-2.7-26.5,13.2c-19,14-59,1.8-59-24.2h88.3
	C-82.4,685.4-184,688.1-184,750.8L-184,750.8z"/>
<path class="st0" d="M-48.8,723c0.6-3.7,4.3-8.7,13-8.7c16.4,0,14.2,12.5,15.9,12.5h12.7c0-30.3-55.3-33.5-55.3,2
	c0,28,44.3,17.2,44.3,39.1c0,20.8-34.7,20-34.7-1.4h-13.3c0,7.4,2.2,14.2,6.3,19c12.3,14.6,45.2,11.3,52.8-6.2
	c4.2-9.6,2.9-21.3-4.3-28.5C-25.3,736.8-52.2,745.1-48.8,723L-48.8,723z"/>
<path class="st0" d="M235.2,777.8c1.1,0,2.1,0.3,3.1,0.8s1.8,1.3,2.3,2.3c0.6,1,0.8,2.1,0.8,3.1c0,1.1-0.3,2.1-0.8,3.1
	c-0.6,1-1.3,1.8-2.3,2.3c-1,0.6-2,0.8-3.1,0.8s-2.1-0.3-3.1-0.8s-1.8-1.3-2.3-2.3c-0.6-1-0.8-2-0.8-3.1s0.3-2.1,0.8-3.1
	c0.6-1,1.3-1.8,2.3-2.3S234.1,777.8,235.2,777.8L235.2,777.8z M235.2,778.8c-0.9,0-1.7,0.2-2.6,0.7c-0.8,0.5-1.5,1.1-2,1.9
	s-0.7,1.7-0.7,2.6c0,0.9,0.2,1.8,0.7,2.6s1.1,1.5,1.9,1.9c0.8,0.5,1.7,0.7,2.6,0.7s1.8-0.2,2.6-0.7c0.8-0.5,1.5-1.1,1.9-1.9
	c0.5-0.8,0.7-1.7,0.7-2.6c0-0.9-0.2-1.8-0.7-2.6c-0.5-0.8-1.1-1.5-2-1.9C236.9,779.1,236.1,778.8,235.2,778.8L235.2,778.8z
	 M232.4,787.5v-6.7h2.3c0.8,0,1.4,0.1,1.7,0.2c0.4,0.1,0.6,0.3,0.8,0.7c0.2,0.3,0.3,0.6,0.3,1c0,0.5-0.2,0.9-0.5,1.3
	c-0.4,0.4-0.8,0.6-1.4,0.6c0.2,0.1,0.4,0.2,0.6,0.4c0.3,0.3,0.6,0.7,1,1.3l0.8,1.3h-1.3l-0.6-1.1c-0.5-0.8-0.8-1.4-1.1-1.6
	c-0.2-0.2-0.5-0.2-0.9-0.2h-0.6v2.9L232.4,787.5L232.4,787.5L232.4,787.5z M233.5,783.7h1.3c0.6,0,1.1-0.1,1.3-0.3
	c0.2-0.2,0.3-0.4,0.3-0.7c0-0.2-0.1-0.4-0.2-0.5c-0.1-0.2-0.3-0.3-0.5-0.4c-0.2-0.1-0.6-0.1-1.1-0.1h-1.2v2H233.5z"/>
<path class="st0" d="M31.2,723c0.6-3.7,4.3-8.7,13-8.7c16.4,0,14.2,12.5,15.9,12.5h12.7c0-30.3-55.3-33.5-55.3,2
	c0,28,44.3,17.2,44.3,39.1c0,20.8-34.7,20-34.7-1.4H13.8c0,7.4,2.2,14.2,6.3,19c12.3,14.6,45.2,11.3,52.8-6.2
	c4.2-9.6,2.9-21.3-4.3-28.5C54.7,736.8,27.7,745.1,31.2,723L31.2,723z"/>
<path class="st0" d="M105.3,681.2c4.9,0,8.8,3.5,8.8,7.8s-3.9,7.8-8.8,7.8s-8.8-3.5-8.8-7.8S100.4,681.2,105.3,681.2L105.3,681.2z"
	/>
<path class="st0" d="M146.9,742.1c0.4-19.6,37.8-39.9,62.3-19.2c4.1,3.5,12.4,12.2,12.4,19.2H146.9L146.9,742.1z M133.3,750.8
	c0,39.1,61.9,62.8,93.6,22.9c1.1-1.4,5.1-7.8,5.2-9.9c-22.9,0-5-2.7-26.5,13.2c-19,14-59,1.8-59-24.2h88.3
	C234.9,685.4,133.3,688.1,133.3,750.8L133.3,750.8z"/>
</svg>
