<?xml version="1.0" encoding="utf-8"?>
<!-- Generator: Adobe Illustrator 19.0.0, SVG Export Plug-In . SVG Version: 6.00 Build 0)  -->
<svg version="1.1" id="Layer_1" xmlns="http://www.w3.org/2000/svg" xmlns:xlink="http://www.w3.org/1999/xlink" x="0px" y="0px"
	 viewBox="-92 340.6 425.4 113.4" style="enable-background:new -92 340.6 425.4 113.4;" xml:space="preserve">
<style type="text/css">
	.st0{fill:#FFFFFF;}
	.st1{fill:#555555;}
</style>
<path class="st0" d="M-78.4,401.5h74.7c0-7-8.2-15.7-12.4-19.2c-4.9-4.1-14.4-8.6-23.2-8.6h-3.2c-8.6,0-18.5,4.5-23.6,8.2
	C-70.5,385.1-78.2,394.4-78.4,401.5L-78.4,401.5z"/>
<path class="st0" d="M238.4,401.5h75c-0.5-6.6-8.1-16.3-12.6-19.3c-3.7-2.5-5.6-3.9-10.1-5.8c-3.1-1.2-9.1-2.7-13.2-2.7
	c-11.4,0-18.7,3-25.6,7.7C247,384.6,238.4,394.1,238.4,401.5L238.4,401.5z"/>
<polygon class="st1" points="190.6,451.6 203.9,451.6 203.9,364.2 190.6,364.2 "/>
<path class="st1" d="M-78.4,401.5c0.4-19.6,37.8-39.9,62.3-19.2c4.1,3.5,12.4,12.2,12.4,19.2H-78.4L-78.4,401.5z M-92,410.2
	c0,39.1,61.9,62.8,93.6,22.9c1.1-1.4,5.1-7.8,5.2-9.9c-22.9,0-5-2.7-26.5,13.2c-19,14-59,1.8-59-24.2H9.6
	C9.6,344.8-92,347.5-92,410.2L-92,410.2z"/>
<path class="st1" d="M43.2,382.4c0.6-3.7,4.3-8.7,13-8.7c16.4,0,14.2,12.5,15.9,12.5h12.7c0-30.3-55.3-33.5-55.3,2
	c0,28,44.3,17.2,44.3,39.1c0,20.8-34.7,20-34.7-1.4H25.8c0,7.4,2.2,14.2,6.3,19c12.3,14.6,45.2,11.3,52.8-6.2
	c4.2-9.6,2.9-21.3-4.3-28.5C66.7,396.2,39.8,404.5,43.2,382.4L43.2,382.4z"/>
<path class="st1" d="M327.2,437.2c1.1,0,2.1,0.3,3.1,0.8s1.8,1.3,2.3,2.3c0.6,1,0.8,2.1,0.8,3.1c0,1.1-0.3,2.1-0.8,3.1
	c-0.6,1-1.3,1.8-2.3,2.3c-1,0.6-2,0.8-3.1,0.8s-2.1-0.3-3.1-0.8s-1.8-1.3-2.3-2.3c-0.6-1-0.8-2-0.8-3.1c0-1.1,0.3-2.1,0.8-3.1
	c0.6-1,1.3-1.8,2.3-2.3S326.1,437.2,327.2,437.2L327.2,437.2z M327.2,438.2c-0.9,0-1.7,0.2-2.6,0.7c-0.8,0.5-1.5,1.1-2,1.9
	c-0.5,0.8-0.7,1.7-0.7,2.6s0.2,1.8,0.7,2.6s1.1,1.5,1.9,1.9c0.8,0.5,1.7,0.7,2.6,0.7s1.8-0.2,2.6-0.7c0.8-0.5,1.5-1.1,1.9-1.9
	c0.5-0.8,0.7-1.7,0.7-2.6s-0.2-1.8-0.7-2.6c-0.5-0.8-1.1-1.5-2-1.9C328.9,438.5,328.1,438.2,327.2,438.2L327.2,438.2z M324.4,446.9
	v-6.7h2.3c0.8,0,1.4,0.1,1.7,0.2c0.4,0.1,0.6,0.3,0.8,0.7c0.2,0.3,0.3,0.6,0.3,1c0,0.5-0.2,0.9-0.5,1.3c-0.4,0.4-0.8,0.6-1.4,0.6
	c0.2,0.1,0.4,0.2,0.6,0.4c0.3,0.3,0.6,0.7,1,1.3l0.8,1.3h-1.3l-0.6-1.1c-0.5-0.8-0.8-1.4-1.1-1.6c-0.2-0.2-0.5-0.2-0.9-0.2h-0.6v2.9
	h-1.1V446.9z M325.5,443.1h1.3c0.6,0,1.1-0.1,1.3-0.3c0.2-0.2,0.3-0.4,0.3-0.7c0-0.2-0.1-0.4-0.2-0.5c-0.1-0.2-0.3-0.3-0.5-0.4
	c-0.2-0.1-0.6-0.1-1.1-0.1h-1.2v2H325.5z"/>
<path class="st1" d="M123.2,382.4c0.6-3.7,4.3-8.7,13-8.7c16.4,0,14.2,12.5,15.9,12.5h12.7c0-30.3-55.3-33.5-55.3,2
	c0,28,44.3,17.2,44.3,39.1c0,20.8-34.7,20-34.7-1.4h-13.3c0,7.4,2.2,14.2,6.3,19c12.3,14.6,45.2,11.3,52.8-6.2
	c4.2-9.6,2.9-21.3-4.3-28.5C146.7,396.2,119.7,404.5,123.2,382.4L123.2,382.4z"/>
<path class="st1" d="M197.3,340.6c4.9,0,8.8,3.5,8.8,7.8c0,4.3-3.9,7.8-8.8,7.8s-8.8-3.5-8.8-7.8
	C188.5,344.1,192.4,340.6,197.3,340.6L197.3,340.6z"/>
<path class="st1" d="M238.9,401.5c0.4-19.6,37.8-39.9,62.3-19.2c4.1,3.5,12.4,12.2,12.4,19.2H238.9L238.9,401.5z M225.3,410.2
	c0,39.1,61.9,62.8,93.6,22.9c1.1-1.4,5.1-7.8,5.2-9.9c-22.9,0-5-2.7-26.5,13.2c-19,14-59,1.8-59-24.2h88.3
	C326.9,344.8,225.3,347.5,225.3,410.2L225.3,410.2z"/>
</svg>
