<?xml version="1.0" encoding="utf-8"?>
<!-- Generator: Adobe Illustrator 19.0.0, SVG Export Plug-In . SVG Version: 6.00 Build 0)  -->
<svg version="1.1" id="Layer_1" xmlns="http://www.w3.org/2000/svg" xmlns:xlink="http://www.w3.org/1999/xlink" x="0px" y="0px"
	 viewBox="0 0 763.6 55.9" style="enable-background:new 0 0 763.6 55.9;" xml:space="preserve">
<style type="text/css">
	.st0{fill:#F4F4F4;}
	.st1{display:none;clip-path:url(#SVGID_2_);fill:none;stroke:#000000;}
	.st2{display:none;clip-path:url(#SVGID_2_);}
</style>
<polygon class="st0" points="0,55.9 0,0 41.1,0 41.1,10.4 11.2,10.4 11.2,22.4 33.6,22.4 33.6,32.8 11.2,32.8 11.2,45.5 41,45.5 
	41,55.9 "/>
<polygon class="st0" points="76.1,0 92,41 108.1,0 120.1,0 97.7,55.9 86.6,55.9 64.2,0 "/>
<polygon class="st0" points="144.5,55.9 144.5,0 185.5,0 185.5,10.4 155.6,10.4 155.6,22.4 178,22.4 178,32.8 155.6,32.8 
	155.6,45.5 185.5,45.5 185.5,55.9 "/>
<polygon class="st0" points="212.1,55.9 212.1,0 215.8,0 250.8,35 250.8,0 262,0 262,55.9 257.9,55.9 223.2,21.2 223.2,55.9 "/>
<polygon class="st0" points="334.5,0 334.5,10.4 315.8,10.4 315.8,55.9 304.7,55.9 304.7,10.4 286,10.4 286,0 "/>
<polygon class="st0" points="358.1,55.9 358.1,0 361.8,0 396.8,35 396.8,0 408,0 408,55.9 403.9,55.9 369.2,21.2 369.2,55.9 "/>
<polygon class="st0" points="434.7,55.9 434.7,0 475.8,0 475.8,10.4 445.9,10.4 445.9,22.4 468.3,22.4 468.3,32.8 445.9,32.8 
	445.9,45.5 475.7,45.5 475.7,55.9 "/>
<polygon class="st0" points="547.9,0 547.9,10.4 529.3,10.4 529.3,55.9 518.1,55.9 518.1,10.4 499.5,10.4 499.5,0 "/>
<g>
	<defs>
		<rect id="SVGID_1_" x="-1805.4" y="-1241.3" width="4320" height="2592"/>
	</defs>
	<clipPath id="SVGID_2_">
		<use xlink:href="#SVGID_1_"  style="display:none;overflow:visible;"/>
	</clipPath>
	<path class="st1" d="M152.4-133.9c2.2,8.2,1,15.9-3.7,22.7c1.3-10.6-5.6-17.3-15.8-19.9c0.3,19.6-1.5,60.5-19.4,73.2
		c0.4,12.3-9.6,31.1-4.9,41.9c0,0,3.7,41.4,16.6,70.4c-4.4,18,32,20.5,30,42.8c26.5,3.3,37.3,10,59.9,24.9
		c16.8,11.2,44.7,9.5,64.5,12.3c9.1,1.3,12.1,15.4,15.4,21.9c12.3,24.4,15.9,0.3,26.5-0.5c30.8-2.5,25.4,53.8,59.5,53.8
		c0,0-10.4-20.4,7-34.2c11.2-2.5,16.2-23.6,67.5-9.9c6.9,2.6,14.3,2.2,21-1.2c-4.9-10.8,2.8-17.7,13.5-19.5c26.7-4.6,49-1,59.9,22.7
		c6.6,14.2,48.4,60.1,37.7,15.9c-7.9-32.5-44.8-58.6-5.7-88.1c7.8-12.4,4.5-13,13-14.2c0,0,4.5-13.2,13.2-13.8
		c12-14.7-1.5-28.9,2.5-46.3c7.3-31.6,4.1-46,37-60.7c-30.2-29.5,38.5-42.8,8.6-62.1c-0.5-8-10.2-23.7-19.7-17.2
		c-8.1,5.5-3.5,25.9-11.2,34.2c-7.2,7.8-26.2,4.7-33.2,13.8C578-53,582.6-51,558.8-43.9c8.6-2.6-8.5,17.8-8.1,17.4
		c-9.2,8.5-18.7,19.8-32.1,12.4c8.4-9.1,10.9-42.4-5.6-24.9c-1.5-6.8,2-15.7-0.1-21.7c-2.5-7.3-23.6-4.9-8-11.6
		c-9.5-13.3-13.9-0.8-25.7-1.7c-6.3-0.5-13.1-8.7-19.3-8.4c-5.8,0.3-11.6,14.1-19.8,8.1c-2.1-7.5-4.7,3.7-11.6,0.2
		c0,0,17.6-18.2,22.3-18.2C351.5-109.2,250.7-104.9,152.4-133.9"/>
	<polygon class="st2" points="634.5,105.6 634.5,109.3 623.6,109.3 623.6,116.5 634.5,116.5 634.5,120.1 623.6,120.1 623.6,127.4 
		620,127.4 620,105.6 	"/>
	<path class="st2" d="M651.6,105.6c3,0,5.6,1.1,7.7,3.2c2.2,2.1,3.2,4.7,3.2,7.7c0,3-1.1,5.6-3.2,7.7c-2.1,2.1-4.7,3.2-7.7,3.2
		s-5.6-1.1-7.7-3.2c-2.1-2.1-3.2-4.7-3.2-7.7c0-3,1.1-5.5,3.2-7.7C646,106.7,648.6,105.6,651.6,105.6 M651.6,109.3
		c-2,0-3.7,0.7-5.1,2.1c-1.4,1.4-2.1,3.1-2.1,5.1c0,2,0.7,3.7,2.1,5.1c1.4,1.4,3.2,2.1,5.1,2.1c2,0,3.7-0.7,5.1-2.1
		c1.4-1.4,2.1-3.2,2.1-5.1c0-2-0.7-3.7-2.1-5.1S653.6,109.3,651.6,109.3"/>
	<path class="st2" d="M686.9,118.3c0,2.5-0.9,4.6-2.7,6.4c-1.8,1.8-3.9,2.6-6.4,2.6c-2.5,0-4.6-0.9-6.4-2.6
		c-1.8-1.8-2.6-3.9-2.6-6.4v-12.7h3.6v12.7c0,1.5,0.5,2.8,1.6,3.8c1.1,1.1,2.4,1.6,3.9,1.6c1.5,0,2.8-0.5,3.8-1.6
		c1.1-1.1,1.6-2.3,1.6-3.8v-12.7h3.6V118.3z"/>
	<polygon class="st2" points="693.2,105.6 707.7,118.6 707.7,105.6 711.3,105.6 711.3,127.4 711.3,127.3 711.3,127.4 696.8,114.3 
		696.8,127.4 693.2,127.4 	"/>
	<path class="st2" d="M717.6,105.6h7.2c1.5,0,2.9,0.3,4.2,0.9c1.3,0.6,2.5,1.4,3.5,2.3c1,1,1.8,2.1,2.4,3.5c0.6,1.3,0.9,2.7,0.9,4.2
		c0,1.5-0.3,2.9-0.9,4.2c-0.6,1.3-1.4,2.5-2.3,3.5c-1,1-2.1,1.8-3.5,2.3c-1.3,0.6-2.7,0.9-4.2,0.9h-7.2V105.6z M724.8,123.8
		c1,0,1.9-0.2,2.8-0.6c0.9-0.4,1.6-0.9,2.3-1.6c0.7-0.7,1.2-1.4,1.6-2.3c0.4-0.9,0.6-1.8,0.6-2.8c0-1-0.2-1.9-0.6-2.8
		c-0.4-0.9-0.9-1.7-1.6-2.3c-0.7-0.7-1.4-1.2-2.3-1.6c-0.9-0.4-1.8-0.6-2.8-0.6h-3.6v14.5H724.8z"/>
	<polygon class="st2" points="756.4,105.6 756.4,109.3 745.6,109.3 745.6,114.7 756.4,114.7 756.4,118.3 745.6,118.3 745.6,123.8 
		756.4,123.8 756.4,127.4 742,127.4 742,105.6 	"/>
	<path class="st2" d="M762.7,105.6h7.2c1.5,0,2.9,0.3,4.2,0.9c1.3,0.6,2.5,1.4,3.5,2.3c1,1,1.8,2.1,2.4,3.5c0.6,1.3,0.9,2.7,0.9,4.2
		c0,1.5-0.3,2.9-0.9,4.2c-0.6,1.3-1.4,2.5-2.3,3.5c-1,1-2.1,1.8-3.5,2.3c-1.3,0.6-2.7,0.9-4.2,0.9h-7.2V105.6z M769.9,123.8
		c1,0,1.9-0.2,2.8-0.6c0.9-0.4,1.6-0.9,2.3-1.6c0.7-0.7,1.2-1.4,1.6-2.3c0.4-0.9,0.6-1.8,0.6-2.8c0-1-0.2-1.9-0.6-2.8
		c-0.4-0.9-0.9-1.7-1.6-2.3c-0.7-0.7-1.4-1.2-2.3-1.6c-0.9-0.4-1.8-0.6-2.8-0.6h-3.6v14.5H769.9z"/>
	<polygon class="st2" points="802.4,97.5 802.4,97.5 808.3,97.5 808.3,127.4 802.4,127.4 802.4,105.5 798.4,109.5 794.4,105.5 	"/>
	<path class="st2" d="M835,110.8c-0.1,6.4-1.3,10.8-3.6,13.2c-2.3,2.5-5.2,3.6-8.6,3.3c-3.4-0.4-6.1-1.7-8-3.8l3.4-3.7
		c1.4,0.9,3,1.5,5,1.7c1.7,0.2,3.1-0.3,4.3-1.3c1.1-1,1.9-2.6,2.2-4.9c-2.2,1.5-4.2,2.2-6.2,2c-3.4-0.3-5.9-1.5-7.4-3.4
		c-1.5-1.9-2.1-4.4-1.8-7.5c0.3-2.8,1.4-5,3.5-6.8c2-1.7,4.8-2.4,8.2-2.1c3,0.5,5.2,1.8,6.7,4C834.2,103.7,834.9,106.8,835,110.8
		 M829.1,107.5c-0.1-2.8-1.7-4.2-4.8-4.3c-3,0.1-4.6,1.4-4.8,4c0.1,3.3,1.8,5,5,5C827.3,112,828.8,110.4,829.1,107.5"/>
	<polygon class="st2" points="843.7,127.4 843.7,125.4 853,103.1 840.3,103.1 840.2,97.5 860.6,97.5 860.6,99.7 849.5,127.4 	"/>
	<path class="st2" d="M865.8,112.9c0-4.8,1-8.5,3.1-11.2c2.1-2.7,4.8-4.1,8.3-4.1c3.4,0.1,6.2,1.1,8.4,3l-3,4
		c-1.5-0.8-3.2-1.2-5.1-1.2c-1.7,0-3.1,0.6-4.1,1.7c-1,1.1-1.6,2.8-1.7,5.1c2-1.7,4-2.6,6-2.6c3.4,0,6,0.9,7.7,2.7
		c1.7,1.8,2.5,4.2,2.5,7.3c0,2.8-0.9,5.1-2.8,7.1c-1.9,1.9-4.5,2.9-8,2.9c-4-0.1-6.8-1.5-8.6-4C866.7,120.8,865.8,117.3,865.8,112.9
		 M872.4,117.5c0.1,2.8,1.7,4.2,4.8,4.3c3-0.1,4.6-1.4,4.8-4c-0.1-3.3-1.8-5-5-5C874.1,113,872.6,114.5,872.4,117.5"/>
</g>
<path class="st0" d="M581.8,0v32.4c0,4.2,1.2,7.3,3.7,9.3c2.5,2,5.6,3,9.3,3s6.8-1,9.3-3c2.5-2,3.7-5.1,3.7-9.3V0h11.2v35.4
	c0,5.7-2.3,10.6-6.9,14.5c-4.6,4-10.4,6-17.3,6c-7,0-12.7-2-17.3-6c-4.6-4-6.9-8.8-6.9-14.5V0H581.8z"/>
<path class="st0" d="M676.7,1.9c2.9,1.2,5.5,3.1,8,5.6l-7.5,7.5c-2.5-3-6-4.5-10.4-4.5c-4.5,0-7.3,1.1-8.6,3.2
	c-1.2,2.1-1.2,3.9,0,5.4c1.2,1.5,4.1,2.6,8.6,3.4c4.7,0.5,9,2,12.9,4.7c3.9,2.6,5.8,6.8,5.8,12.5c0,4.5-2.1,8.3-6.2,11.6
	c-4.1,3.2-8.9,4.8-14.4,4.8c-5.2,0-9.5-0.7-13-2.2c-3.5-1.5-6.5-3.5-8.9-6l7.5-7.5c2.5,3,6.7,4.7,12.7,5.2c5,0,8.1-1.1,9.3-3.2
	c1.2-2.1,1.2-4.2,0-6.3c-1.2-2.1-4.3-3.4-9.3-3.9c-4.5-0.5-8.6-1.9-12.3-4.1c-3.7-2.2-5.6-6.1-5.6-11.6c0-4.9,2.1-8.9,6.4-11.9
	c4.2-3,8.6-4.5,13.1-4.5C669.8,0,673.8,0.6,676.7,1.9"/>
<path class="st0" d="M707.8,55.9L730.1,0h11.2l22.3,55.9l-11.9,0l-3.4-8.6H723l-3.4,8.6H707.8z M736,14.9l-8.5,21.2h16.8L736,14.9z"
	/>
</svg>
