<?xml version="1.0" encoding="utf-8"?>
<!-- Generator: Adobe Illustrator 19.0.0, SVG Export Plug-In . SVG Version: 6.00 Build 0)  -->
<svg version="1.1" id="Layer_1" xmlns="http://www.w3.org/2000/svg" xmlns:xlink="http://www.w3.org/1999/xlink" x="0px" y="0px"
	 viewBox="-217 357.8 175.7 78.2" style="enable-background:new -217 357.8 175.7 78.2;" xml:space="preserve">
<style type="text/css">
	.st0{fill:#555555;}
</style>
<g>
	<path class="st0" d="M-217,357.8h175.7V436H-217V357.8L-217,357.8z M-213.4,432.4h168.6v-71h-168.6V432.4L-213.4,432.4z"/>
	<path class="st0" d="M-52,426.8h-19.9c-4.1,0-7.2-1.5-9.2-4.6c-1-2.6-1-4.6-1-8.7c0-5.1,0-7.2,1.5-9.2c1.5-3.1,4.6-4.6,8.7-4.6H-53
		v5.6h-18.9c-3.6,0-4.1,3.6-4.1,7.7c0,5.1,0.5,8.2,4.6,8.2h13.3v-5.1h-12.8V411H-52V426.8L-52,426.8z"/>
	<polygon class="st0" points="-131.2,399.7 -125,399.7 -125,426.8 -131.2,426.8 	"/>
	<polygon class="st0" points="-134.2,399.7 -145,426.8 -154.7,426.8 -165.9,399.7 -159.3,399.7 -152.6,415.5 -150.1,421.7 
		-149.6,421.7 -147,415.5 -140.9,399.7 	"/>
	<polygon class="st0" points="-174.6,399.7 -168.5,399.7 -168.5,426.8 -174.6,426.8 	"/>
	<polygon class="st0" points="-178.2,421.2 -178.2,426.8 -205.8,426.8 -205.8,399.7 -199.6,399.7 -199.6,421.2 	"/>
	<polygon class="st0" points="-81.6,394.1 -81.6,367 -52,367 -52,372.6 -75.5,372.6 -75.5,377.7 -54,377.7 -54,382.8 -75.5,382.8 
		-75.5,388.5 -52,388.5 -52,394.1 	"/>
	<polygon class="st0" points="-96.4,394.1 -113.8,372.6 -114.3,372.6 -114.3,394.1 -120.4,394.1 -120.4,367 -110.2,367 -92.9,388.5 
		-92.3,388.5 -92.3,367 -86.2,367 -86.2,394.1 	"/>
	<polygon class="st0" points="-131.2,367 -125,367 -125,394.1 -131.2,394.1 	"/>
	<polygon class="st0" points="-158.8,372.6 -158.8,377.7 -137.3,377.7 -137.3,382.8 -158.8,382.8 -158.8,394.1 -164.9,394.1 
		-164.9,367 -135.3,367 -135.3,372.6 	"/>
	<polygon class="st0" points="-96.4,426.8 -113.3,405.3 -114.3,405.3 -114.3,426.8 -120.4,426.8 -120.4,399.7 -110.2,399.7 
		-93.4,421.2 -92.3,421.2 -92.3,399.7 -86.2,399.7 -86.2,426.8 	"/>
</g>
</svg>
