<?xml version="1.0" encoding="utf-8"?>
<!-- Generator: Adobe Illustrator 19.0.0, SVG Export Plug-In . SVG Version: 6.00 Build 0)  -->
<svg version="1.1" id="Calque_1" xmlns="http://www.w3.org/2000/svg" xmlns:xlink="http://www.w3.org/1999/xlink" x="0px" y="0px"
	 viewBox="-161 377.2 288 39.8" style="enable-background:new -161 377.2 288 39.8;" xml:space="preserve">
<style type="text/css">
	.st0{fill:#555555;}
</style>
<path class="st0" d="M124.1,406.8c-2.2-7.1-6.8-9.3-6.8-9.3c4.5-1.3,7.4-5.4,7.4-9.2c0-5.5-3.7-10.1-12-10.1H87.6V416h6.2v-16.5
	h15.4c5.1,0,7.1,3.2,9.1,9.6c2.2,6.9,2.2,6.9,2.2,6.9h6.5C124.1,406.8,127,416,124.1,406.8 M111,394.6H93.8V383h17.4
	c5,0,7.4,2.3,7.4,5.8C118.6,391.4,117,394.6,111,394.6z"/>
<rect x="23.9" y="378.2" class="st0" width="6.2" height="37.8"/>
<polygon class="st0" points="10,410.2 -14.1,378.2 -17.9,378.2 -23.2,378.2 -23.2,416 -17.9,416 -17,416 -17,383.9 7.2,416 
	16.2,416 16.2,378.2 10,378.2 "/>
<path class="st0" d="M58.8,377.2c-16.7,0-23.1,10.2-23.1,19.9c0,9.7,6.4,19.9,23.1,19.9c11.1,0,17.6-4.5,20.8-10.3h-7
	c-3.1,3.6-8,5.4-13.8,5.4c-9.5,0-17-5-17-15s7.5-15,17-15c8.7,0,15.7,4.2,16.8,12.6H48.8l0.7,4.9h32.3c0.1-0.8,0.1-1.6,0.1-2.4
	C82,387.4,75.6,377.2,58.8,377.2z"/>
<path class="st0" d="M-114.9,394.6h-33l0.7,4.9h26.1c-1.1,8.4-8.1,12.6-16.8,12.6c-9.5,0-17-5-17-15s7.5-15,17-15
	c5.7,0,10.7,1.8,13.8,5.4h7c-3.1-5.8-9.7-10.3-20.8-10.3c-16.7,0-23.1,10.2-23.1,19.9c0,9.7,6.4,19.9,23.1,19.9s23.1-10.2,23.1-19.9
	C-114.7,396.3-114.8,395.4-114.9,394.6z"/>
<path class="st0" d="M-97.6,378.2l-18.8,37.8h6.6l7.8-16.5h16.5l7.9,16.5h6.6l-18.6-37.8H-97.6 M-99.6,394.6l5.9-12.4l6,12.5h-11.9
	V394.6z"/>
<path class="st0" d="M-37.8,397.5c4.5-1.3,7.4-5.4,7.4-9.2c0-5.5-3.7-10.2-12.1-10.2h-25v37.8h6.2v-16.4h15.4c5.1,0,7.1,3.2,9.1,9.6
	c2.2,6.9,2.2,6.9,2.2,6.9h6.5c-2.9-9.2,0,0-2.9-9.2C-33.2,399.7-37.8,397.5-37.8,397.5 M-44.1,394.6h-17.2V383H-44
	c5,0,7.4,2.3,7.4,5.8C-36.5,391.4-38.1,394.6-44.1,394.6z"/>
</svg>
