<?xml version="1.0" encoding="utf-8"?>
<!-- Generator: Adobe Illustrator 19.0.0, SVG Export Plug-In . SVG Version: 6.00 Build 0)  -->
<svg version="1.1" id="Layer_1" xmlns="http://www.w3.org/2000/svg" xmlns:xlink="http://www.w3.org/1999/xlink" x="0px" y="0px"
	 viewBox="-140 364.7 330.9 64.3" style="enable-background:new -140 364.7 330.9 64.3;" xml:space="preserve">
<style type="text/css">
	.st0{fill:#555555;}
</style>
<g>
	<path class="st0" d="M190.9,423.1c0,3.2-2.5,5.8-5.7,5.8s-5.7-2.6-5.7-5.8c0-3.2,2.5-5.8,5.8-5.8
		C188.4,417.2,190.9,419.8,190.9,423.1 M180.6,423.1c0,2.7,2,4.9,4.5,4.9c2.6,0,4.5-2.1,4.5-4.9c0-2.7-2-4.9-4.5-4.9
		C182.7,418.2,180.6,420.3,180.6,423.1 M185.1,419.9c1.5,0,2.5,0.5,2.5,1.8c0,0.9-0.4,1.6-1.3,2l0.4,0.7c0.3,0.5,0.7,1.1,1.1,1.7
		c0.1,0.1-0.1,0.2-0.4,0.2H187c-0.4,0-0.5-0.1-0.5-0.2c-0.3-0.4-0.6-0.9-0.8-1.3l-0.6-1h-0.8v2.3c0,0.1-0.1,0.1-0.4,0.1h-0.5
		c-0.2,0-0.4-0.1-0.4-0.1v-6.2H185.1z M184.2,422.8h0.9c0.9,0,1.2-0.4,1.2-1c0-0.8-0.7-0.9-1.4-0.9h-0.8L184.2,422.8L184.2,422.8z
		 M-52.7,379.9c-0.9,0-1.8,0.8-1.8,1.8v36.6c-2.8,0.6-5.6,0.9-8.4,0.9c-6.3,0-8.6-2.4-8.6-9.2v-28.3c0-1.2-0.9-1.8-1.7-1.8h-9.7
		v30.2c0,14.2,7.5,18.8,19.6,18.8c9.7,0,19.3-2.8,20.1-3v-46C-43.2,379.9-52.7,379.9-52.7,379.9z M94.6,428.4c0.9,0,1.8-0.8,1.8-1.8
		v-37c2.8-0.6,5.6-0.9,8.4-0.9c6.3,0,8.6,2.4,8.6,9.2v28.7c0,1.2,0.9,1.8,1.7,1.8h9.7v-30.5c0-14.2-7.5-18.8-19.6-18.8
		c-9.7,0-19.3,2.8-20.1,3v46.3H94.6z M56.2,379.1c-12.5,0-20.4,6.8-20.4,21.3v7.3c0,16.1,8.5,21.3,17.8,21.3c4.5,0,9.2-3.2,10.8-5.2
		v3c0,0.8,0.7,1.7,1.7,1.7h9.6v-46.6C75.6,381.9,66.2,379.1,56.2,379.1 M64.3,416.6c-2.1,1.8-3.7,2.9-8.1,3c-6.3,0-9.1-3.9-9.1-12.1
		v-6.7c0-9.5,3.5-12.1,9.1-12.1c4.7,0,7.2,0.4,8.1,0.6V416.6z M153.1,379.1c-12.5,0-20.4,6.8-20.4,21.3v7.3
		c0,16.1,8.5,21.3,17.8,21.3c4.6,0,9.2-3.2,10.8-5.2v3c0,0.8,0.7,1.7,1.7,1.7h9.6v-46.6C172.6,381.9,163.1,379.1,153.1,379.1
		 M161.3,416.6c-2.1,1.8-3.7,2.9-8.2,3c-6.3,0-9.1-3.9-9.1-12.1v-6.7c0-9.5,3.5-12.1,9.1-12.1c4.7,0,7.2,0.4,8.2,0.6V416.6z
		 M-140,428.4h10.2c0.8,0,1.7-0.7,1.7-1.7v-26.8h18.8c3.1,0,5.4,2.5,5.4,5.1v21.7c0,0.9,0.8,1.7,1.7,1.7H-92v-63.7h-10.2
		c-0.9,0-1.7,0.8-1.7,1.6v23.9h-19.6c-2.6,0-4.7-2.1-4.7-4.5v-19.4c0.1-0.6-0.5-1.6-1.6-1.6H-140V428.4z M10.6,379.1
		c-5.4,0-10.5,2.1-12.8,3.7c-3.5-2.6-8.2-3.7-14.1-3.7c-8.9,0-16.3,2.8-17.4,3.2v46.1h9.6c0.9,0,1.7-0.8,1.7-1.8v-37.1
		c2-0.6,3.9-0.8,5.6-0.8c6.6,0,8.3,2.7,8.3,9.3v28.7c0,0.8,0.7,1.8,1.7,1.8h7.9c1.1,0,1.7-0.8,1.7-1.8V391c1.8-1.5,4.3-2.3,6.6-2.3
		c5.1,0,7.2,2.3,7.2,8.6v29.3c0,0.8,0.6,1.8,1.7,1.8h9.6v-32.7C27.9,383.3,20.2,379.1,10.6,379.1"/>
</g>
</svg>
