<?xml version="1.0" encoding="utf-8"?>
<!-- Generator: Adobe Illustrator 19.0.0, SVG Export Plug-In . SVG Version: 6.00 Build 0)  -->
<svg version="1.1" id="Layer_1" xmlns="http://www.w3.org/2000/svg" xmlns:xlink="http://www.w3.org/1999/xlink" x="0px" y="0px"
	 viewBox="240 218.6 1091.2 357.4" style="enable-background:new 240 218.6 1091.2 357.4;" xml:space="preserve">
<style type="text/css">
	.st0{fill:#555555;}
</style>
<g>
	<g>
		<path class="st0" d="M274.4,300.6h40.8v218.6c0,34-24.8,56.8-59.2,56.8h-16v-38.4h11.6c14,0,22.8-6.4,22.8-21.6V300.6
			 M274.4,218.6h40.8v40.8h-40.8V218.6z"/>
		<path class="st0" d="M382.3,383.8c0.8-30.8,18.8-47.2,42.8-47.2s41.6,16.4,42.8,47.2H382.3 M508.7,417.4v-33.6
			c0-52.4-38.8-85.6-83.6-85.6c-39.2,0-83.6,25.6-83.6,104.4c0,83.2,48.4,103.2,90,103.2c27.2,0,53.2-9.6,73.2-32.8l-29.6-25.2
			c-12,12.4-28.8,19.6-44.4,19.6c-28,0-48.4-16.8-48.4-50H508.7L508.7,417.4z"/>
		<path class="st0" d="M541,239h40.8v61.6h29.6v31.2h-29.6v118c0,11.2,4.4,15.2,14.4,15.2h15.2v38.4h-21.2c-28.4,0-49.2-18-49.2-50
			V331.8h-20.4v-31.2H541V239z"/>
		<path class="st0" d="M747,377c32,0,46.4,20.4,46.4,42.8c0,22.4-14.4,42.8-46.4,42.8h-66.4V377H747 M637.4,503.3h120
			c42.8,0,79.2-31.6,79.2-80.8c0-28.8-15.2-58.4-46.4-65.6v-0.8c33.2-14.8,42-37.6,42-61.2c0-44.8-28.8-76.4-84.4-76.4H637.4V503.3
			 M743,257c31.2,0,46,18.8,46,40.8c0,22.4-14.8,40.8-46,40.8h-62.4V257H743z"/>
		<path class="st0" d="M860,218.6h40.8V451c0,9.2,5.2,14,15.2,14h14v38.4h-18c-29.6,0-52-12.8-52-49.2V218.6z"/>
		<path class="st0" d="M947.2,300.6H988v120.8c0,27.6,17.2,43.6,40.4,43.6c22.8,0,40-16,40-43.6V300.6h40.8v202.8h-40.8v-21.6h-0.8
			c-12.8,16-31.2,24-52.4,24c-32,0-68-24.4-68-70.4V300.6z"/>
		<path class="st0" d="M1171.9,383.8c0.8-30.8,18.8-47.2,42.8-47.2s41.6,16.4,42.8,47.2H1171.9 M1298.3,417.4v-33.6
			c0-52.4-38.8-85.6-83.6-85.6c-39.2,0-83.6,25.6-83.6,104.4c0,83.2,48.4,103.2,90,103.2c27.2,0,53.2-9.6,73.2-32.8l-29.6-25.2
			c-12,12.4-28.8,19.6-44.4,19.6c-28,0-48.4-16.8-48.4-50H1298.3L1298.3,417.4z"/>
	</g>
	<path class="st0" d="M1313.2,297.1c10,0,18,8.1,18,18c0,10-8.1,18-18,18c-10,0-18.1-8.1-18.1-18S1303.2,297.1,1313.2,297.1z
		 M1313.2,329.6c8.1,0,14.1-6,14.1-14.5s-6-14.4-14.1-14.4s-14.2,6-14.2,14.4S1305,329.6,1313.2,329.6z M1306.3,304.1h8
		c4.8,0,7.2,1.9,7.2,6.3c0,4.2-2.4,5.8-5.4,6.1l6,8.6h-4.2l-6-8.5h-2v8.5h-3.6V304.1z M1309.9,313.3h2.5c2.9,0,5.5-0.2,5.5-2.9
		c0-2.4-2.4-3-4.7-3h-3.3V313.3z"/>
</g>
</svg>
