<?xml version="1.0" encoding="utf-8"?>
<!-- Generator: Adobe Illustrator 19.0.0, SVG Export Plug-In . SVG Version: 6.00 Build 0)  -->
<svg version="1.1"
	 id="Layer_1" xmlns:rdf="http://www.w3.org/1999/02/22-rdf-syntax-ns#" xmlns:cc="http://creativecommons.org/ns#" xmlns:dc="http://purl.org/dc/elements/1.1/"
	 xmlns="http://www.w3.org/2000/svg" xmlns:xlink="http://www.w3.org/1999/xlink" x="0px" y="0px" viewBox="-253 370 100.7 48.7"
	 style="enable-background:new -253 370 100.7 48.7;" xml:space="preserve">
<style type="text/css">
	.st0{fill:#555555;}
</style>
<path class="st0" d="M-166,416c-0.5-0.2-0.5,0.2-0.3,0.4C-166.3,416.2-165.8,416.2-166,416"/>
<path class="st0" d="M-166.7,414.8c-0.2-0.8-0.8-0.2-0.8,0.2C-167.3,414.9-166.8,415.2-166.7,414.8"/>
<path class="st0" d="M-155.2,405.7c0.1-0.1,0.4-0.2,0.3-0.3c-0.8-0.3-0.6,0.5-0.3,0.8C-155.2,406-155.3,405.8-155.2,405.7"/>
<path class="st0" d="M-166.3,409.7c-0.8-0.2-0.7,0.4-0.4,0.7C-166.6,410.1-166,410-166.3,409.7"/>
<path class="st0" d="M-201.7,413.2c0.2,0.1,0.4,0.1,0.3,0.2C-201.2,413.3-201.2,413.2-201.7,413.2"/>
<path class="st0" d="M-201.4,413.4c0,0-0.1,0.1-0.1,0.1C-201.4,413.5-201.4,413.5-201.4,413.4C-201.4,413.4-201.4,413.4-201.4,413.4
	"/>
<path class="st0" d="M-207.9,412.5c0.2,0,0.2-0.1,0.2-0.2c0-0.1,0.1-0.1,0.1-0.2c0-0.1,0.1-0.2-0.1-0.2c-0.1,0.1-0.1,0-0.2,0.1
	c0,0-0.2,0-0.2,0c-0.1,0,0,0.1-0.1,0.1h-0.1c0.1,0.1-0.1,0,0,0.2c0,0,0.2-0.1,0.2,0C-208,412.4-208,412.5-207.9,412.5"/>
<path class="st0" d="M-210.1,413.3c-0.2,0-0.3,0.1-0.3,0.2c0,0,0,0.1,0.1,0.1c-0.1-0.1,0.1,0.2,0.1,0.1c0,0,0.1,0,0.1,0
	c0.1-0.1,0,0,0.1-0.1c0,0,0.2,0,0.3,0c0.1,0,0-0.1,0.1-0.1c0.1,0,0.1,0,0.1,0c-0.1-0.1,0.1,0-0.1-0.2c-0.1,0-0.3,0.1-0.3,0
	C-210,413.3-210.1,413.3-210.1,413.3"/>
<path class="st0" d="M-208.8,412.7c0,0.1,0.1,0.1,0.2,0.1c0,0,0.1,0,0.1,0c0.1,0,0,0,0.1-0.1c-0.1,0,0,0,0-0.1c0,0,0-0.1,0-0.1
	c0,0-0.1,0-0.1,0c0,0,0,0,0-0.1c0,0.1,0,0-0.1,0C-208.8,412.5-208.7,412.6-208.8,412.7C-208.7,412.6-208.8,412.7-208.8,412.7"/>
<path class="st0" d="M-207.2,412.6C-207.2,412.6-207.1,412.6-207.2,412.6C-207.1,412.7-207.1,412.7-207.2,412.6
	c0.1,0.1,0.1,0.1,0.1,0.1c0,0,0,0,0,0c0,0,0,0,0,0s0,0,0,0c0,0,0,0,0,0l0,0c0,0,0.1,0,0.1-0.1c0,0,0,0,0-0.1c0,0,0-0.1,0-0.1
	c0,0-0.1,0-0.1,0c0,0,0,0,0-0.1c-0.1,0.1,0,0-0.1,0C-207.2,412.4-207.1,412.5-207.2,412.6C-207.1,412.5-207.2,412.6-207.2,412.6"/>
<path class="st0" d="M-176.4,414.9c0.2,0,0.2-0.1,0.2-0.2c0-0.1,0.1-0.1,0.1-0.2c0-0.1,0.1-0.2-0.1-0.2c-0.1,0.1-0.1,0-0.2,0.1
	c0,0-0.2,0-0.2,0c-0.1,0,0,0.1-0.1,0.1c0,0-0.1,0-0.1,0c0.1,0.1-0.1,0,0,0.2c0,0,0.2-0.1,0.2,0
	C-176.5,414.8-176.5,414.9-176.4,414.9"/>
<path class="st0" d="M-177.2,415.1c0,0.1,0.1,0.1,0.2,0.1c0,0,0.1,0,0.1,0c0.1,0,0,0,0.1-0.1c-0.1,0,0,0,0-0.1c0,0,0-0.1,0-0.1
	c0,0-0.1,0-0.1,0c0,0,0,0,0-0.1c0,0.1,0,0-0.1,0.1C-177.2,414.9-177.2,415-177.2,415.1C-177.2,415-177.2,415.1-177.2,415.1"/>
<path class="st0" d="M-178.2,415.3c0.1,0.1,0.2,0.1,0.3,0.1c0.1,0,0.1,0,0.2,0c0.1,0,0,0,0.1-0.1c-0.2,0,0,0-0.1-0.1
	c0,0,0-0.1-0.1-0.1c-0.1,0-0.1,0-0.1,0c0,0,0,0,0-0.1c-0.1,0.1,0-0.1-0.2,0.1C-178.2,415.1-178.1,415.2-178.2,415.3
	C-178.1,415.3-178.2,415.3-178.2,415.3"/>
<path class="st0" d="M-175.7,415C-175.7,415-175.6,415-175.7,415C-175.6,415.1-175.6,415.1-175.7,415c0.1,0.1,0.1,0.1,0.1,0.1
	c0,0,0,0,0,0c0,0,0,0,0,0c0,0,0,0,0,0c0,0,0,0,0,0c0,0,0,0,0,0c0,0,0.1,0,0.1-0.1c0,0,0,0,0-0.1c0,0,0-0.1,0-0.1c0,0-0.1,0-0.1,0
	c0,0,0,0,0-0.1c0,0.1,0,0-0.1,0C-175.7,414.8-175.6,414.9-175.7,415C-175.6,414.9-175.7,415-175.7,415"/>
<path class="st0" d="M-154.7,401.4l0-0.2l0-0.1l-0.1,0.1l-0.1,0.1c0-0.1-0.2-0.3-0.2-0.2c0,0-0.1,0-0.1,0c-0.1,0,0.2,0.1,0,0.3
	c-0.1,0.1-0.1,0.1,0,0.2c0,0,0.2-0.1,0.2-0.1l0.1,0.1l0.1,0l0.1,0l0.2,0.1L-154.7,401.4L-154.7,401.4z"/>
<path class="st0" d="M-154.2,401.8C-154.3,401.8-154.3,401.8-154.2,401.8c-0.2,0-0.2-0.1-0.3,0c0,0-0.1,0.2-0.1,0.2
	c0,0-0.2-0.1-0.2,0c0,0,0,0.2,0,0.2c-0.1,0.1,0,0.2-0.1,0.2c0.3,0,0.3,0,0.6,0l-0.1-0.2c0.3-0.2,0.3-0.3,0.5-0.2
	C-154,401.9-154.1,401.8-154.2,401.8"/>
<path class="st0" d="M-160.8,413.9l0.3,0.1c0,0.1,0.1,0,0.2,0c0.1,0,0.1-0.1,0.2-0.1c0.1,0,0.1-0.1,0.2-0.1c0.1-0.1,0.1-0.2-0.1-0.2
	c-0.1,0-0.2,0.2-0.3,0.2l-0.2,0l-0.1,0L-160.8,413.9l-0.2,0L-160.8,413.9L-160.8,413.9z"/>
<path class="st0" d="M-161.4,409l0.1-0.3c0-0.1,0.1-0.1,0.2-0.2c0.1,0,0.1,0,0.2-0.1c0.1,0,0.2,0,0.2,0c0.2,0,0.2,0,0,0.2
	c0,0-0.2,0-0.3,0.1l-0.1,0.1l-0.1,0L-161.4,409l-0.1,0.1L-161.4,409L-161.4,409z"/>
<path class="st0" d="M-164.9,415.6c0.1,0,0.3-0.1,0.4-0.1c0.1,0,0.2,0,0.3,0c0,0,0.1-0.2,0.1-0.2c0,0,0.3,0,0.3,0
	c0.1,0-0.1-0.1-0.1-0.2c0.1-0.1-0.1-0.2,0.1-0.3c-0.4,0.1-0.5,0.2-1,0.2l0.2,0.1c-0.3,0.3-0.6,0.5-0.9,0.5
	C-165.3,415.6-165.1,415.6-164.9,415.6"/>
<path class="st0" d="M-154.1,402.5c-0.3,0.1,0,0.5,0.2,0.5C-154,402.8-154,402.6-154.1,402.5"/>
<path class="st0" d="M-156.1,411.8c0.1-0.3,0.4-0.5,0.6-0.7c-0.2,0.3,0.2,0.3,0.2,0.3c0.6-0.3-0.1-0.2,0-0.5c0.4,0.1,0.9-0.4,1-0.4
	c0.2,0.1,0-0.2,0.3-0.5l0.1,0.1c0.3-1.2,1.1-2.1,1.1-3.3c0,0.1-0.1,0-0.2,0c0.2-1,0.2-2.7-0.9-3.3c0.2,0.5-0.5,1.3,0.1,1.9
	c-0.3,0.1,0,0.5-0.4,0.5c-0.4,0.6,0.2,1.2-0.2,1.8c-0.1,0-0.3-0.1-0.4-0.2c0-0.2,0.1-0.4,0.1-0.6c-0.1,0.1-0.2,0.1-0.3,0.2
	c-0.1-0.2,0.2-0.4-0.1-0.6c0.2,0.6-0.3,0.5-0.2,1.1c0.2-0.1,0.1,0.2,0.3,0c0.2,0,0.3-0.1,0.5,0c0,0.5-0.2,0.3-0.4,0.6
	c0,0-0.1,0.3-0.2,0.3c-0.1,0.1-0.2-0.1-0.2,0c0,0,0,0.3-0.1,0.3c-0.1,0.1-0.2,0.2-0.4,0.4c0,0.1-0.1,0.1-0.1,0.2
	c0,0.1-0.1,0.3-0.2,0.3c-0.1,0.1-0.2,0.1-0.3,0.2c0,0-1-0.6-0.4,0c0,0-0.3,0-0.4,0c0,0-0.1,0-0.1,0c0,0-0.1,0-0.2-0.1
	c-0.1,0-0.2-0.1-0.3,0c-0.1,0-0.2,0.1-0.3,0.1c0.1,0.1,0.2,0.1,0.1,0.2c-0.3-0.1-0.2-0.3-0.2-0.4c-0.1,0.2-0.2,0.1-0.2,0.3
	c-0.1,0-0.1,0.2-0.1,0.1c0,0-0.1-0.1-0.1-0.1c0-0.1-0.2,0.1-0.2,0c0-0.1-0.1-0.2-0.2-0.3c-0.1-0.4,0.4-0.7,0.2-0.7l-0.2,0.2
	c0-0.1-0.1-0.2-0.1-0.3c0,0,0.1-0.2,0.1-0.2c0,0,0,0,0-0.1c0,0,0-0.1,0-0.1c-0.1,0,0,0-0.1,0c0,0,0,0.1,0,0.1c0,0-0.1,0-0.1,0
	c0,0,0,0,0,0c0,0,0,0.1,0,0.1c0,0.1-0.1,0-0.2,0c0,0-0.4,0.1-0.4,0.1c0,0,0,0-0.1,0c-0.1,0,0.1,0.2,0.1,0.2c0,0,0,0.1-0.1,0.1
	c0,0,0,0,0,0c0,0,0-0.1,0-0.1c-0.1,0.1,0-0.1-0.1-0.1c0.1,0-0.1,0,0,0.1c-0.1,0.2-0.2,0.3-0.3,0.2c-0.4,0.4,0.3,0.2,0,0.4
	c-0.4-0.2-0.3,0.1-0.7-0.2l0.2,0.4c-0.3-0.2-0.1,0.3-0.4,0.2c0-0.1,0.2,0.5-0.9,0l0-0.5c-0.1,0.1,0-0.2,0.5-0.3
	c-0.5-0.1-0.7,0.2-0.9,0.6c0,0-0.1,0.4,0,0.6l-0.2,0.3l-0.7,0c-0.1,0-0.3-0.5-0.2-0.4c-0.3,0.2,0-0.1-0.5,0.6
	c0.1,0.5-0.4,0.3-0.7,0.4c-1.3,0.1-3.4,0.9-4.6,1.4c-0.2,0-0.4,0.5-0.8,0.7c0.3,0.2,0.4-0.1,0.7,0c0.2,0.1,0.2,0.2,0.4,0.5
	c0.3-0.3,0.2,0.2,0.4-0.2c0,0,1.4-0.1,1.5,0.1c0.2,0.2,0.4,0.4,0.4,0.4c0.1,0.2,0.4-0.1,0.6,0.1c0.1,0,0.2-0.2,0.5-0.3
	c0.2-0.1,0.1-0.1,0.3-0.2l0.4,0.2l0.1-0.3l0.4,0c0-0.9,0.7,0.1,0.9-0.5c0.1-0.1,0.5,0.3,0.7,0.2l-0.2-0.4c0.3,0.3,0.8,0.1,1.2,0.6
	c0.1-0.4,0.5,0.4,0.4,0.1c0.2-0.5,0.5,0.1,0.6-0.2c0.5,0.1,0.1-0.6,0.7-0.5c0.1,0.2,0.4-0.1,0.4-0.1c0.2-0.5,0.3-0.1,0.8-0.4
	c0.7,0,1.5-0.2,2.3-0.3l-0.1-0.1c0.4,0.2,0.6-0.3,1-0.3L-156.1,411.8L-156.1,411.8z"/>
<path class="st0" d="M-163.7,410.3c-0.3-0.1,0-0.2-0.1-0.3c0,0-0.2,0-0.3,0c0-0.2,0.1-0.1,0-0.2c0,0,0.2-0.2,0.2-0.2
	c0.2,0.3,0,0.2,0.1,0.3c0.1,0.1,0.2,0,0.3,0c0,0.2-0.1,0.1,0,0.2C-163.6,410.2-163.6,410.4-163.7,410.3"/>
<path class="st0" d="M-190.7,415.2c0-0.1,0-0.1,0-0.1c0,0,0.1,0.1,0.1,0.1H-190.7L-190.7,415.2z"/>
<path class="st0" d="M-181.5,415.6C-181.5,415.6-181.5,415.6-181.5,415.6C-181.5,415.6-181.5,415.6-181.5,415.6"/>
<path class="st0" d="M-181.5,415.6C-181.5,415.6-181.5,415.6-181.5,415.6C-181.4,415.6-181.4,415.6-181.5,415.6"/>
<path class="st0" d="M-168.8,416.1l-2.3,0.6c-1.1-0.3-1.4-0.5-2.4,0c-0.5-0.4-1.4,0-1.6-0.6c-2.1-0.5-3,0.4-5,0.4
	c-0.3-0.1-0.1,0.1-0.2-0.2c0.3,0,0.3-0.1,0.4-0.1c0,0,0.2,0.1,0.3,0.1c0.1,0,0-0.2,0.2-0.2l-0.1-0.1l-0.1,0l-0.1-0.1
	c0.4-0.2,1.3,0,1.4-0.4c-0.3,0.1-0.4,0.1-0.7,0.1c-0.1,0-0.1,0-0.2,0c-0.1,0-0.1,0-0.2,0c-0.1,0-0.2,0-0.3,0c-0.1,0-0.2,0.1-0.3,0.1
	c-0.1,0-0.1-0.1-0.3-0.1c-0.1,0-0.3,0.2-0.4,0.2c-0.1,0,0-0.2-0.1-0.2c-0.1,0-0.1,0-0.2,0c0,0-0.1,0-0.1,0c0.1,0,0.1,0.1-0.1,0
	c0,0-0.1,0.1-0.1,0.1c0,0-0.2,0-0.2-0.1l0,0c-0.1,0-0.2,0.1-0.4,0.1c-0.1,0,0,0.2-0.1,0.2c0.3,0,0.3-0.1,0.3-0.1c0,0,0,0.2,0.1,0.2
	c0,0,0.1,0,0.1,0c0,0,0.1,0,0.1,0c0,0,0.1,0,0.2,0c0,0,0.1,0,0.1,0c0.3,0.2,0.8-0.1,0.7,0.1c-1.9,0.7-3.2,0-5.2,0.4l-0.4,0.1
	c-0.2,0-0.4,0-0.5,0c-0.4,0-0.7,0-0.9-0.3c0-0.1-0.1-0.2,0.2-0.3c-0.2-0.2-0.3,0.4-0.5,0.6c-0.1,0,0-0.2-0.3-0.2
	c0,0-0.1-0.2,0.2-0.4c0.3-0.3-0.3,0-0.3,0c-0.1,0.2-0.1,0-0.2,0.1c-0.1,0-0.2,0.2-0.3,0.2c-0.1,0-0.3-0.1-0.4-0.1c0,0-0.1,0-0.1,0
	c-0.1,0-0.3-0.1-0.4-0.1c-0.1,0-0.2,0-0.3,0.1c-0.2-0.3,0.3-0.3,0.4-0.3c-0.4-0.2,0.5-0.4-0.5-0.1l0.4-0.3c-0.1,0-0.4-0.1-0.5-0.2
	c0.3,0.2-0.1,0.3-0.3,0.1c0,0-0.1-0.1-0.1-0.1c-0.1-0.1-0.1-0.1-0.2-0.2h-0.1v0.1c0,0.1-0.2,0-0.1,0.2c-0.1,0.1-0.2,0.1-0.4,0.1
	c0.1-0.1-0.1-0.4-0.3-0.2c-0.3,0.1-0.1,0.4-0.5,0.3c0-0.2,0.3-0.1,0.2-0.4c-0.3,0.2-0.2,0-0.4-0.1l-0.4,0.1c0,0.1,0,0.1-0.3,0.2
	c-0.3-0.1-0.3-0.2-0.2-0.3c0.1-0.1,0.2-0.1,0.2-0.2c0,0,0-0.1-0.1-0.2c0.5-0.2,0.8-0.2,0.6-0.4l-0.4-0.2c0.1-0.2-0.7-0.5-0.1-0.7
	c-0.5-0.2-1.1-0.2-1.7-0.2c-0.2,0-0.3,0.3-0.5,0.3c-0.2,0-0.5-0.2-0.7-0.2c-0.8-0.2-0.5,0-0.7,0.1c0.1,0.1,0.3,0.2,0.3,0.3
	c-0.6,0.1-0.5-0.2-0.6-0.4c-0.1,0-0.1,0-0.2,0.1c0,0-0.1,0-0.1,0.1c0,0-0.1,0-0.2,0.1c0,0-0.1,0.1-0.1,0.2c0,0.1,0,0.1,0,0.1
	c0,0,0,0.1,0,0.1c0,0-0.2,0-0.2,0c0,0,0.1,0.2,0,0.2c-0.3-0.1-0.4-0.3-0.5-0.4c-0.1,0-0.3,0-0.3-0.1c-0.1-0.3-0.3-0.1-0.5,0
	c-0.4,0.1-0.3,0.2-0.3,0.2c-0.5-0.4-0.6,0.3-1.2,0c0-0.1,0.5-0.1,0.4-0.3c-0.2,0-0.2,0-0.3-0.1c0,0-0.1,0-0.1,0c0,0,0,0,0,0
	c0,0,0-0.1-0.1-0.1c-0.1-0.1-0.2,0-0.4,0l0.1-0.1l0,0h0.2l0-0.1l0.1-0.1l0-0.1c-0.1,0-0.1,0-0.3,0c-0.1,0-0.2-0.1-0.3,0
	c0,0-0.1,0-0.1,0c-0.1,0-0.1-0.1-0.1-0.2c0,0,0-0.1,0-0.1c-0.1,0-0.3,0-0.2,0.1c0,0-0.1,0-0.1,0c-0.2,0.1-0.4,0.1-0.7,0.2
	c0,0,0,0-0.1,0c-0.1,0-0.2,0-0.3,0c0,0,0,0,0,0c-0.2,0-0.3,0-0.5,0c-0.1,0-0.1,0-0.2,0c-0.3,0-0.5,0.1-0.7,0.1l0-0.2
	c-0.3-0.2-0.5,0.1-0.8,0.1c0,0,0,0-0.1,0c0,0-0.1,0-0.1,0c0,0-0.1,0-0.2,0c0,0-0.1,0-0.1,0c0,0-0.1,0-0.1,0c-0.1,0-0.1,0-0.2,0
	c-0.1,0-0.1,0-0.2,0.1c-0.1,0-0.1,0.1-0.2,0.2l-0.1-0.1l-0.2,0.1l-0.1,0.1l-0.1,0.1c0,0,0-0.1-0.3,0c-0.3,0.1-0.2,0.3-0.2,0.3
	c-0.1,0-0.2-0.1-0.3-0.1c-0.1-0.2,0.3-0.2,0.1-0.4c-0.3,0.2-0.1-0.1-0.5,0c-0.1,0,0,0.2-0.1,0.2c-0.1,0-0.2,0-0.3,0
	c-0.1,0-0.1-0.4-0.3-0.1c-0.2,0-0.3,0-0.5,0c-0.1,0-0.2,0.1-0.3,0.1c-0.1,0-0.2,0-0.3,0c0,0-0.2,0.1-0.2,0.1c0,0,0.1,0.1,0.1,0.1
	c0,0-0.1,0.1-0.1,0.1c0,0-0.1,0-0.1,0.1c-0.1,0-0.2,0.1-0.3,0.1c-0.1,0-0.2,0.1-0.2,0.1c-0.1,0-0.2,0.1-0.3,0.1
	c-0.2,0-0.4,0.1-0.5,0.1c-0.1,0-0.1-0.1-0.2-0.1c-0.1,0-1.8-0.1-1.9-0.2c-1.5-0.4-1.6-0.1-2.7-0.3c-0.1,0-1.1,0-1.2,0
	c-0.2,0-0.3,0.2-0.6,0.1c-0.1,0-0.3-0.1-0.6,0c-0.2,0.1-0.6,0-0.8,0c-0.2,0-0.3,0.1-0.4,0.1c-0.3-0.1-0.3,0.1-0.6,0.1
	c-0.1,0-0.3-0.2-0.4-0.2c-0.2-0.1-0.3,0.1-0.5,0.1c-0.1,0-0.3-0.2-0.4-0.2c-0.1,0-0.1,0-0.2,0c-0.2,0-0.3-0.6-0.5-0.7
	c0,0-0.1,0-0.1-0.1c-0.1-0.1-0.4,0-0.5,0c0,0-0.3-0.2-0.4-0.2c-0.1,0-0.3,0-0.3,0c-0.8-0.1-0.9-0.4-1.8-0.4
	c-0.7-0.1-1.8-1.4-2.7-1.3c1.5,0.1,1.1,1.7,2,1.9c0.6,0.3,0.6,0.7,1,1.1l-0.1-0.5c1.2-0.2,0.5,0.3,1.5,0.1l-0.5,0.7
	c0.2-0.1,0.3-0.1,0.7-0.1c-0.1,0.7,0.3,0.3,0.4,0.4l0.5-0.4c0.1,0.1,0.4,0.6,0.4,0.7l0.5-0.1c0,0.1,0.2,0.2,0.4,0.3
	c0.7,0.3,2,0.6,1.1,1c0.2-0.1,0.5-0.2,0.9-0.1l-0.3,0.4c0.6,0,1.2,0.1,1.2,0.4c-0.4,0-0.6,0.2-0.8,0.3c1.8,0.3,0.8-1,2.7-0.4
	l-0.2,0.3l0.7-0.1l0.2,0.5c1.4-0.7,3.1-0.8,4.6-0.8c0.2,0,0.3,0.2,0.4,0.3l0.8,0.4c0.3,0.1,0.7,0.3,1.1,0.2l-0.1-0.4
	c0.5,0.3,2.3-0.8,3-0.1l0.2,0c0,0,0-0.1,0-0.1c0.5-0.2,0.7-0.2,1-0.1c0.2,0.1,0.4,0.4,0.7,0.5c0.6-0.2-0.5-0.2-0.1-0.5
	c0.9,0.3,0.8,0.5,2,0.8c0.1,0.2,1.9,0.5,3.2,0.6c1.4,0.4,3.8-0.1,5.5,0.4l0-0.1c0.7,0.5,2-0.5,2.9-0.2l-0.9,0.4
	c0.6-0.2,1.4-0.7,2-0.7l0.4,0.2c0.6-0.1,0.1-0.1,0.6-0.3c0.2,0.1,0.4,0.2,0.7,0.2l0.7,0.1c0,0,0-0.3,0.2,0c0.2,0.3,0.4,0,0.4,0
	s0.3-0.1,0.6,0c0.4,0.1,0.5,0.3,0.5,0.3c0.3-0.7,1.8,0.1,1.8,0.1l1.1-0.4c0.2,0.1,0.4,0.2,0.6,0.1l-0.1-0.2c0.1,0,0.2,0,0.3-0.1
	l0.3-0.1c0.5,0.6,0.2,0,0.6,0.5c0.1-0.4,0.5,0.3,0.4,0.1c0.2-0.5,0.6,0.1,0.6-0.2c0.5,0.1,0.1-0.4,0.6-0.4c0.1,0.2,0.5-0.1,0.5-0.1
	c0-0.1,0.1-0.2,0.1-0.2c0.6,0.1,1.3,0.4,2.2,0.4c-0.2,0-0.1-0.2-0.2-0.3c2.7,0.1,4.4,0,6.7-0.7C-170,416.9-168,416.3-168.8,416.1
	 M-181.8,418.1C-181.8,418.1-181.7,418.1-181.8,418.1l-0.1,0.1L-181.8,418.1L-181.8,418.1z"/>
<path class="st0" d="M-174.5,409.9c-0.7,0-0.5,0.5-0.1,0.6C-174.6,410.3-174.2,410-174.5,409.9"/>
<path class="st0" d="M-224.6,406C-224.6,406-224.6,406-224.6,406l0.3,0c0,0,0,0,0,0H-224.6L-224.6,406z"/>
<path class="st0" d="M-177.4,410.7c0.2-0.1,0.4,0,0.6-0.1c0.1-0.3-2.5,0-1.5,0.1c-0.1,0-0.1,0-0.2,0c-0.1,0-0.2,0-0.3,0
	c-0.1,0-0.2,0-0.3,0c-0.2,0-0.4,0-0.6,0c-0.3,0-0.6,0-0.9,0c-1.1,0-2.2,0-3,0.5c-0.7-0.5-1.7,0.2-2-0.5c-2.6-0.4-3.8,0.7-6.4,0.4
	c-0.3-0.2-0.3,0.1-0.4-0.2l-0.2-0.2c-2.6,0.5-4.2-0.2-6.8-0.5c-0.6-0.1-1.1-0.2-1.3-0.6c0.1-0.2,0-0.4,0.3-0.4
	c-0.3-0.3-0.6,0.5-0.9,0.7c-0.1,0,0-0.2-0.3-0.4c0,0,0-0.3,0.4-0.6c0.5-0.3-0.4-0.1-0.4-0.1c-0.2,0.2-0.2,0-0.3,0
	c-0.1,0-0.4,0.3-0.5,0.2c-0.2-0.1-0.4-0.2-0.6-0.3c0,0-0.1,0-0.1-0.1c-0.2-0.1-0.4-0.2-0.6-0.2c-0.1,0-0.3,0-0.4,0.1
	c-0.2-0.5,0.6-0.4,0.7-0.3c-0.5-0.3,0.8-0.5-0.7-0.2l0.6-0.4c-0.2,0-0.5-0.3-0.7-0.4c0.3,0.3-0.2,0.4-0.5,0.1c0-0.1-0.1-0.1-0.1-0.2
	c-0.1-0.2-0.2-0.4-0.3-0.5c0,0.1,0,0.2-0.1,0.3c0,0.1-0.4,0-0.2,0.3c-0.1,0.1-0.3,0.1-0.5,0c0.2-0.2,0-0.6-0.4-0.4
	c-0.4,0.1,0,0.2-0.6,0.1c0-0.3,0.4-0.1,0.4-0.5c-0.5,0.1-0.3,0-0.5-0.2l-0.6,0.1c0,0.1-0.1,0.1-0.4,0.3c-0.4-0.2-0.4-0.3-0.2-0.5
	c0,0,0,0,0,0h0c0.3-0.2,0.8-0.4,0.6-0.8c0.8-0.1,1.2-0.1,1-0.4l-0.6-0.4c0.2-0.3-0.9-0.9,0-1c-0.7-0.4-1.6-0.6-2.4-0.8
	c-0.2,0-0.6,0.3-0.8,0.3c-0.4-0.1-0.6-0.5-1-0.5c-1.1-0.5-0.7-0.1-1-0.1c0.2,0.2,0.5,0.3,0.3,0.5c-0.9,0-0.7-0.4-0.8-0.7
	c-0.1,0-0.2,0-0.2,0.1c-0.1,0-0.1,0-0.2,0.1c-0.1,0.1-0.2,0-0.2,0c-0.1,0.1-0.1,0.1-0.2,0.3c-0.1,0.2,0,0.2,0,0.2
	c0,0-0.1,0.1-0.1,0.1c0,0-0.2-0.1-0.3,0c0,0.1,0.1,0.2,0,0.3c-0.4-0.3-0.4-0.6-0.6-0.8c-0.1-0.1-0.4-0.1-0.4-0.2
	c-0.1-0.5-0.4-0.2-0.7-0.2c-0.6,0.1-0.5,0.2-0.5,0.2c-0.6-0.6-1,0.2-1.7-0.3c0-0.1,0.7,0,0.6-0.3c-0.3,0-0.3-0.1-0.4-0.2
	c0,0-0.2,0-0.2,0c0,0,0,0-0.1-0.1c0,0,0-0.2-0.1-0.2c-0.1-0.1-0.3-0.1-0.6-0.1l0.2-0.2l0.1,0l0.2,0l0-0.2l0.2-0.1l0.1-0.1
	c-0.2,0-0.2,0-0.4-0.1c-0.1,0-0.2-0.2-0.4,0c-0.1,0-0.1,0-0.2-0.1c-0.1-0.1-0.2-0.1-0.1-0.3c0,0,0-0.1,0.1-0.1
	c-0.1,0-0.4-0.1-0.3,0.1c-0.1,0-0.1,0-0.2,0c-0.3,0.1-0.7,0.1-1,0c0,0-0.1,0-0.1,0c-0.1,0-0.3,0-0.4,0l-0.1,0c-0.2,0-0.5,0-0.7-0.1
	c-0.1,0-0.2,0-0.2,0c-0.4,0-0.7,0-1.1,0l0-0.3c-0.4-0.3-0.7,0-1.2-0.1c0,0-0.1,0-0.1,0c-0.1,0-0.1,0-0.2,0c-0.1,0-0.1,0-0.2,0
	c0,0-0.1,0-0.1,0c-0.1,0-0.1,0-0.2,0c-0.1,0-0.2,0-0.2,0c-0.1,0-0.2,0-0.3,0.1c-0.1,0-0.2,0.1-0.3,0.2l-0.1-0.2l-0.2,0.1l-0.2,0.1
	l-0.2,0.1c0,0,0-0.2-0.4-0.1c-0.4,0.1-0.3,0.4-0.3,0.4c-0.2,0-0.3-0.2-0.3-0.3c-0.1-0.2,0.5-0.1,0.2-0.5c-0.4,0.3-0.2-0.1-0.7-0.2
	c-0.1,0-0.1,0.3-0.2,0.3c-0.1,0-0.3,0-0.4,0c-0.1,0-0.1-0.6-0.3-0.2c-0.2,0-0.5-0.1-0.7-0.1c-0.1,0-0.3,0.2-0.4,0.1
	c-0.2,0-0.3-0.1-0.5-0.2c0,0.1-0.3,0.1-0.4,0.1c0,0.1,0.2,0.2,0.1,0.2c-0.1,0.1-0.2,0.1-0.2,0.1c-0.1,0-0.1,0-0.2,0.1
	c-0.1,0-0.3,0.1-0.4,0.1c-0.1,0-0.2,0-0.4,0.1c-0.1,0-0.3,0-0.4,0c-0.3,0-0.5,0-0.8,0c-0.3,0-0.5-0.1-0.8-0.1
	c-4.9-0.5-10.1,0.3-14.4,1.7c-0.7,0.1-1.5,1.1-2.3,1.5c1.1,0,1.1-0.4,2.1-0.5c0.8,0.1,1.2,0.8,1.9,1.1l-0.4-0.5
	c1-0.6,0.8,0.2,1.5-0.5l0.1,1c0.1-0.2,0.2-0.2,0.6-0.3c0.4,0.9,0.5,0.2,0.7,0.3l0.2-0.7c0.1,0.1,0.8,0.5,0.9,0.7l0.4-0.3
	c0.3,0.4,3-0.7,2.3,0.3c0.2-0.1,0.3-0.5,0.8-0.4l0.1,0.6c0.6-0.2,1.2-0.3,1.4,0c-0.3,0.1-0.4,0.4-0.5,0.7c1.9-0.3,0-1.4,2.3-1.5
	l0,0.4l0.6-0.4l0.6,0.5c0.9-1.3,3.1,0.3,4.5-0.3c0.5-0.1,1.2,0.8,2.2,0.8l0-0.6c0.7,0.6,3.1,1.3,4,2.5h0.3c0,0,0-0.1,0-0.1
	c0.7-0.2,1.1-0.1,1.4,0.1h0c0,0,0,0,0,0c0.3,0.2,0.5,0.6,0.8,0.9c0.9-0.1-0.6-0.4-0.1-0.7c1.3,0.7,1.3-0.5,2.9,0.2
	c0.1,0.4,2.7,0.8,4.5,1.2c1.9,0.9,4.9,2,7.2,3.2l0.1-0.2c0.9,0.8,2.1,0.6,3.3,1.2l-0.5-0.5c0.9-0.1,1.3,0.2,2.1,0.3l0.5,0.4
	c0.9,0,0.2-0.1,0.9-0.3c0.6,0.6,2.3,0.6,2.7,0.7c0.2,0.3,0.3,0.3,0.1,0.4c1,0,0.4-0.5,1.6-0.3l0,0.2c3.1-0.3,10.3,0.3,10.2,0
	c0.5,0-0.6-0.3-0.6-0.5c0.9,0,2.2,0.1,3.1,0.1c0.4,0,0.9,0,1.3-0.1c0.5,0,1.1-0.9,1.6-0.2c0.4-0.1,0.9-0.1,1.3-0.2
	c0.4-0.1,0.4,0.1,0.8,0c0.1,0,0.3-0.1,0.5-0.2c0.1-0.1,0.2-0.1,0.3-0.2c0.1,0,0.1-0.1,0.2-0.1c0.1,0,0.2,0,0.3,0
	c0.1,0,0-0.1,0.1-0.1c0.1,0,0.3,0.1,0.4,0c0,0,0-0.2,0-0.2C-177.5,410.9-177.5,410.7-177.4,410.7"/>
<path class="st0" d="M-190.1,409.2c0.3,0.1,0.1-0.3-0.1-0.3c0.4,0.1,0-0.3-0.2-0.2c0-0.1-0.5-0.1-0.5,0c-0.2-0.2-0.1,0.1,0.2,0.1
	C-192.3,409.3-190.1,409.1-190.1,409.2"/>
<path class="st0" d="M-204.9,404c0,0-0.2,0.1-0.3,0c-0.2,0-0.1-0.1-0.3-0.2c0.1,0.1-0.1,0.1,0,0.2c0.1,0-0.1,0.1,0,0.2
	c0,0,0.3,0,0.3,0c0,0-0.3,0.1-0.3,0.1c0.1,0,0.4,0,0.4,0C-204.7,404.3-204.5,404.2-204.9,404"/>
<path class="st0" d="M-208.9,402.7l-0.1,0.2l0.1,0.2l0.3-0.2l0,0.2l0.3,0c0.4-0.3,0.7-0.2,0.7-0.5l-0.2,0l-0.5-0.2l-0.2,0.2l-0.3,0
	h-0.1L-208.9,402.7L-208.9,402.7z"/>
<path class="st0" d="M-226.7,398.7c0.2,0,0.2-0.1,0.2-0.2c0-0.1,0.1-0.1,0.1-0.2c0-0.1,0.1-0.2-0.1-0.2c-0.1,0.1-0.1,0-0.2,0.1
	c0,0-0.2,0-0.2,0c-0.1,0,0,0.1-0.1,0.1c0,0-0.1,0-0.1,0c0.1,0.1-0.1,0,0,0.2c0,0.1,0.2-0.1,0.2,0
	C-226.8,398.7-226.7,398.8-226.7,398.7"/>
<path class="st0" d="M-226.9,399c-0.2,0-0.3,0.1-0.3,0.2c0,0,0,0.1,0.1,0.1c-0.1-0.1,0.1,0.2,0.1,0.1c0,0,0.1,0,0.1,0
	c0.1-0.1,0,0,0.1-0.1c0,0,0.2,0,0.3,0c0.1,0,0-0.1,0.1-0.1c0.1,0,0.1,0,0.1,0c-0.1-0.1,0.1,0-0.1-0.2c-0.1,0-0.3,0.1-0.3,0
	C-226.8,399.1-226.8,399-226.9,399"/>
<path class="st0" d="M-227.5,399c0,0.1,0.1,0.1,0.1,0.1c0,0,0.1,0,0.1,0c0.1,0,0,0,0.1,0c-0.1,0,0,0,0-0.1c0,0,0-0.1,0-0.1
	c0,0-0.1,0-0.1,0c0,0,0,0,0-0.1c0,0.1,0,0-0.1,0.1C-227.5,398.8-227.4,398.9-227.5,399C-227.5,398.9-227.5,398.9-227.5,399"/>
<path class="st0" d="M-226,398.9C-225.9,398.9-225.9,398.9-226,398.9C-225.9,398.9-225.9,398.9-226,398.9c0.1,0.1,0.1,0.1,0.1,0.1
	c0,0,0,0,0,0h0c0,0,0,0,0,0c0,0,0,0,0,0c0,0,0,0,0,0c0,0,0.1,0,0.1-0.1c0,0,0,0,0-0.1c0,0,0-0.1,0-0.1c0,0-0.1,0-0.1,0
	c0,0,0,0,0-0.1c0,0.1,0,0-0.1,0C-226,398.7-225.9,398.8-226,398.9C-225.9,398.8-226,398.8-226,398.9"/>
<path class="st0" d="M-203.4,405.2c0.7,0.1,0.2-0.3,0.4-0.5c0.1-0.1,1,0.1,1.1,0c0.1-0.3,0.5-0.3-0.1-0.5c-0.5,0.2-0.5,0-0.8,0
	c-0.2,0-0.7-0.2-0.8-0.2c-0.3,0-0.2,0.2-0.5,0.1c-0.2,0-0.3-0.1-0.4-0.1c0.1,0.3-0.4-0.1-0.2,0.5c0,0.1,0.8,0.1,0.9,0.3
	C-203.6,404.9-203.5,405.1-203.4,405.2"/>
<path class="st0" d="M-220.1,400.5c0.3,0.1,0.4,0,0.5-0.1c0-0.1,0.2-0.1,0.2-0.2c0-0.2,0.2-0.2,0-0.3c-0.2,0.1-0.2,0-0.4,0
	c-0.1,0-0.3-0.1-0.4-0.1c-0.1,0-0.1,0.1-0.2,0.1c-0.1,0-0.1-0.1-0.2-0.1c0.1,0.2-0.2,0-0.1,0.4c0,0.1,0.4,0.1,0.4,0.2
	C-220.2,400.3-220.1,400.5-220.1,400.5"/>
<path class="st0" d="M-204.7,404.7c-0.3,0-0.4,0-0.4,0.1c0,0.1,0,0.1,0,0.2c0-0.2-0.1,0.3,0.1,0.1c0,0,0.1,0,0.1,0
	c0.2-0.1,0,0,0.1,0c0.1,0,0.3,0.1,0.3,0.1c0.1,0,0.1-0.1,0.2-0.1c0.1,0,0.1,0,0.2,0c-0.1-0.1,0.2,0,0-0.2c0-0.1-0.3,0-0.4-0.1
	C-204.6,404.8-204.6,404.7-204.7,404.7"/>
<path class="st0" d="M-173.7,408.9c0.2-0.3,0.6-0.3,1.3-0.4c0.4,0,0.9-0.2,1.4-0.2c0.9,0,1.3-0.2,1.4,0c-0.9,0.2-0.3,0.2-0.7,0.3
	c-0.2,0.1,0.1,0.3,0,0.3c-0.2,0.1-0.7,0.1-0.7,0.2c0,0.1,0,0.1,0,0.2c-0.8-0.1-0.1,0.2-1.7,0.1c-0.4,0,0.4-0.3-0.2-0.4
	C-173,409-173.8,409-173.7,408.9"/>
<path class="st0" d="M-190.5,409.9c-0.2,0-0.8,0-1,0.1c-0.1,0,0.4,0.1,0.3,0.2c-0.1,0-0.1,0-0.2,0.1c-0.1,0-0.2,0.1-0.3,0.1
	c-0.2,0.1-0.1,0.3-0.8,0.2c1-0.5,0.7-0.8-1.7-0.5c0.7-0.6-0.7-0.1-0.7-0.3c-0.8-0.2-0.5-0.3,0.2-0.3c0.4,0,0-0.2,0.2-0.2
	c0.4,0,0.3,0.1,0.3,0.1c0-0.1,0-0.1,0-0.1c1.1,0.2,0.3-0.1,2.6,0.3c0.5,0.1-0.7,0.2,0.2,0.3C-191.5,409.7-190.4,409.8-190.5,409.9"
	/>
<path class="st0" d="M-173.5,409.6c-0.3,0-0.4,0.1-0.4,0.2c0,0.1,0,0.1,0,0.2c0-0.2-0.1,0.4,0.1,0.2c0,0,0.1,0,0.1,0.1
	c0.2-0.1,0,0,0.1,0c0.1,0,0.3,0.1,0.3,0.1c0.1,0,0.1-0.1,0.1-0.1c0.1,0,0.1,0,0.2,0c-0.1-0.2,0.2,0,0-0.3c0-0.1-0.3,0-0.4-0.1
	C-173.5,409.8-173.5,409.6-173.5,409.6"/>
<path class="st0" d="M-169.6,408.2c0,0,0.1,0.1,0.1,0.1c0,0,0,0,0.1,0c0,0,0.1,0,0.1,0c0,0,0,0,0.1,0c0,0,0.1,0,0.1,0
	c0,0,0.1,0,0.1,0c0,0,0.1,0,0.1,0h0.1c0.1,0,0.3,0,0.3,0c-0.2,0,0.1,0-0.1-0.1c-0.1,0,0-0.1,0-0.1c-0.1,0-0.2,0-0.2-0.1
	c0,0,0,0,0-0.1c-0.2,0,0-0.1-0.5,0c-0.1,0,0.1,0.1-0.1,0.1C-169.3,408.2-169.6,408.1-169.6,408.2"/>
<path class="st0" d="M-205.8,405.2c-0.1,0.1-0.2,0.1-0.2,0c0,0-0.1-0.1-0.1-0.1c-0.1-0.1,0-0.1-0.1-0.1c0.1,0,0.1,0,0.1,0
	c0,0,0.1-0.1,0.1-0.1c0.1,0,0.1,0,0.1,0c0,0,0,0,0-0.1c0,0.1,0.1,0,0.2,0.1c0,0-0.1,0.1-0.1,0.1
	C-205.9,405.1-205.8,405.2-205.8,405.2"/>
<path class="st0" d="M-228.8,398.3c-0.1-0.1-0.2-0.1-0.3-0.1c0,0-0.1,0-0.1,0.1c0,0-0.1,0.1-0.1,0.1c-0.1,0.1,0.1,0.1,0,0.2
	c0.2,0,0,0.2,0.1,0.2c0.1,0,0.2-0.2,0.3-0.2c0,0,0,0,0-0.1C-228.9,398.4-228.8,398.4-228.8,398.3"/>
<path class="st0" d="M-155.6,394.4c0.9,0.2,0.5,0.9,0.9,1.5c0.1,0.1,0.3,0.3,0.4,0.7l-0.7,0.1c0.7-0.1,0,0.4,0.4,0.6
	c-0.2,0.2-0.3,0.3-0.9,0.4c0.1,0,0.5,0,0.5,0.2c-0.1,0.1,0.1,0.2,0.1,0.3c-0.2,0-0.3-0.1-0.5-0.1c0,0.1,0.1,0.2-0.1,0.3
	c0.2,0.2,0.3,0,0.5,0.1c-0.2,0.3-0.7,0-1.1,0.1c-0.3-0.2-0.4-0.4-0.5-0.5l0.2,0.3c-0.2,0-0.4,0.2-0.6,0c-0.2,0.2,0,0.5,0.1,0.8
	c0.1,0,0.1,0,0.3,0c0.1,0.2-0.2,0.1-0.3,0c0.1,0.1,0.5,0.3,0.7,0.5c-0.4,0.1-0.8-0.2-0.8,0.2l0.3,0.2c-0.3,0,0.1,0.3-0.1,0.3
	c-0.1,0-0.5-0.3-0.5-0.1l-0.3-0.3c-0.3,0-0.1,0.5-0.3,0.2c0.3,0.4-0.1,0.4,0,0.7l-0.2-0.2c0.2,0.4-0.4,0.3-0.2,0.8l0-0.1
	c0,0.2,0.1,0.3,0.1,0.5c-0.1,0.1-0.4-0.4-0.3-0.3c-0.1,0.2-0.3,0.4-0.6,0.3c-0.3,0.1,0,0.7-0.2,0.8c-0.6,0.2-1,0.5-1.5,0.9
	c0,0-0.3,0-0.3,0.1c-0.1,0-0.1,0.4-0.1,0.4c-0.1,0.1-0.3-0.1-0.4,0c-0.2,0.2-0.5,0.4-0.7,0.6c-0.2,0.1-0.2,0.2-0.3,0.5
	c0.3,0,0.3,0.4,0.4,0c0.2,0.1-0.2,0.3-0.9,0.8l0.8-0.1c-0.3-0.3,0.7,0.5,0.8,0c0.2-0.4-0.1-0.4-0.1-0.4c-0.1-0.3,0.3,0,0.3,0
	c0.1,0.2,0.9,0,0.9,0c0-0.1,1-0.2,1.5-0.5l0.1,0.2l0-0.3l0.3,0.2c-0.2-0.9,0.8-0.4,0.9-1c0.1-0.1,0.5,0.2,0.8-0.1l-0.2-0.3
	c0.4,0.2,1.1-0.2,2,0.1c-0.2-0.3,0.1,0-0.1-0.2c0.1-0.6,0.5-0.2,0.9-0.3c0.1-0.4-0.3,0.1-0.4-0.2c0.5-0.2-0.1-0.6,0.4-0.9
	c0.2,0.1,0.1-0.2,0.2-0.1c-0.1-0.6,0.5-0.7,0.7-1.3c0.6-0.6,1.1-2.4,1.3-2.9c-0.1,0.3-0.4,0.1-0.4,0.1c0.3-0.4,0.2-1,0.3-1.5
	l-0.2,0.3c-0.3-0.2-0.2-0.4-0.4-0.7l0.4-0.3c-0.2-0.3-0.4,0-0.6-0.2c0.2-0.3-0.1-0.6-0.1-0.7c0.1-0.2,0.1-0.2,0.2-0.2
	c0-0.5-0.6-0.1-0.8-0.4l0.1-0.1c-0.7-0.9-1.6-1.6-2.6-1.9c0,0.1,0,0.1-0.1,0.2c-0.6-0.4-1.3-0.7-2-0.7c-0.1,0-0.3,0-0.4,0.1
	c-0.2,0.1-0.5,0.2-0.7,0.4c0.2,0,0.3,0.1,0.4,0.1c0.1,0,0.3-0.2,0.4-0.2c0.8,0.1,0.3,0.8,0.9,0.5c0,0.3,0.5,0.2,0.3,0.5
	c0.4,0.5,1.1,0.2,1.6,0.8c0,0.1,0.2,0.2,0,0.3L-155.6,394.4L-155.6,394.4z"/>
<path class="st0" d="M-157.3,395.1c0-0.2-0.6,0.2-0.7,0.1c0,0,0,0-0.1-0.1c0,0,0.2-0.2,0-0.1c-0.2,0.1-0.1,0.3-0.1,0.3s0-0.1,0.2,0
	c0.2,0.1-0.1,0,0.1,0.2c0.2,0.2-0.2,0-0.2,0s0,0.2,0.1,0.3c0.1,0.1,0.1-0.3,0.1-0.3C-157.8,395.3-157.3,395.1-157.3,395.1"/>
<path class="st0" d="M-157.2,395.1l-0.2,0.3l0.4,0C-156.9,395.1-157.1,395.2-157.2,395.1"/>
<line class="st0" x1="-157.1" y1="400.6" x2="-157.1" y2="400.6"/>
<path class="st0" d="M-176.9,410.8c0,0,0.1,0,0.2,0c0,0,0,0,0.1,0c0,0,0.1,0,0.1-0.1c0,0,0.1,0,0.1,0c0,0,0.1,0,0.1,0
	c0,0,0,0,0.1-0.1c0,0,0.1,0,0.1,0c0,0,0,0,0.1,0c0.1-0.1,0.2-0.1,0.3-0.2c-0.2,0.1,0.1-0.1-0.1,0c-0.1,0,0-0.1-0.1-0.1
	c-0.1,0-0.2,0.1-0.2,0.1c0,0,0,0,0-0.1c-0.2,0.1-0.1,0-0.5,0.2c-0.1,0.1,0.1,0.1,0,0.1C-176.7,410.7-177,410.8-176.9,410.8"/>
<path class="st0" d="M-217.8,400.1c0,0.1,0.1,0.2,0.2,0.2c0.1,0,0.1,0,0.2,0c0.1,0,0,0,0.2,0c-0.1-0.1,0,0,0-0.1c0,0,0-0.1,0-0.2
	c0-0.1-0.1,0-0.1-0.1c0,0,0-0.1,0-0.1c-0.1,0,0-0.1-0.3,0c-0.1,0,0,0.2,0,0.2C-217.7,400.1-217.8,400-217.8,400.1"/>
<path class="st0" d="M-173.7,408.8c0,0-0.2,0.1-0.3,0c-0.2-0.1-0.1-0.2-0.3-0.2c0.1,0.1-0.1,0.2,0,0.2c0.1,0-0.1,0.2,0,0.2
	c0,0,0.3,0,0.3,0c0,0-0.3,0.2-0.3,0.2c0.1,0.1,0.4,0,0.4,0.1C-173.5,409.2-173.3,409-173.7,408.8"/>
<path class="st0" d="M-213.2,401.3c0,0.1,0.3,0.2,0.4,0.3c0,0,0.1,0.3,0.1,0.4c0.1,0.1,0.2-0.1,0.3,0c0.1,0.1,0.3-0.1,0.4,0
	c-0.1-0.1-0.4-0.1-0.4-0.2c0,0,0.3-0.1,0.3-0.1c0,0-0.4-0.1-0.4-0.2c0-0.1-0.1,0,0-0.1C-213.5,400.8-213.2,401.1-213.2,401.3"/>
<path class="st0" d="M-178.9,388.1c-0.8,0.1-1.5-0.8-1.2-1.3c0.5-0.8,2.2-1.9,3.4-1.9l1.6-0.3c0.3,0.3,1.4-0.2,0.6,0.4
	C-175.2,385.6-177.9,388-178.9,388.1"/>
<path class="st0" d="M-199.7,400.3c0.2,0.2,0.4,0.3,0.2,0.5c-0.7,0.6-1.6,1.4-2.5,1.1c-1.1-0.3-0.9-1.7-0.5-2.5
	c0.4-0.8,0.3-1.6,1-2.3c0.2-0.2,0-0.6,0.2-0.9c0.3-0.2,0.3-0.3,0.5-0.7c0.3-1,0.7-1.7,0.1-2.7c-0.1-0.2-0.3-0.3-0.5-0.4
	c-0.6-0.1-0.6,0.2-0.8,0.5c-0.6,0.6-0.8,1.2-1.3,1.8c-1.4,1.4-2.8,2.9-4.8,3.9c-0.2,0.1-0.2-0.7-0.1-0.8c2.4-1.7,3.5-3.2,4.5-5.2
	c0.3-0.6,0.4-0.9,0.3-1.4c-0.1-0.4-0.6-0.6-0.5-1c0.1-0.4,1-0.7,1.6-0.9c0.6-0.3,1.2-0.9,1.9-0.8c1,0.2-0.7,1.4,0.9,1.9
	c1.6,0.6,2.5,1.9,1.7,3.2l-0.1,0.1l0.1,0C-198.5,395.9-201.1,398.1-199.7,400.3"/>
<path class="st0" d="M-191.3,399.5c-0.5,0.4-0.5,1.4-1.3,1.2c-1.9-0.5-0.3-2.1-0.4-3.5c-0.1-1.3-0.2-2.4,1.5-2.2
	C-188.7,395.3-189.8,398.1-191.3,399.5 M-187.6,393.4c0-0.8-1.1-2.5-2-2c-3,1.5-3.4,1.4-5.2,3.8c-0.7,0.9-1.1,0-1.4,2.3
	c-0.2,1.9-1.1,3.6,0.7,5.1c0.4,0.3,1.1,0.5,1.9,0.4c0.8-0.1,1.7-0.6,2.2-1.1c0.6-0.6,1.2-0.9,1.6-1.8
	C-188.5,397.4-187.5,396.4-187.6,393.4"/>
<path class="st0" d="M-177.6,399.9c-0.2,0.3-0.5,0.7-0.7,0.9c-1.4,0.9-3.2,1.8-4.8,1.2c-2.2-0.9,1.4-5.1-4.8-0.9
	c-1.7,1.2,2-2.5,3.1-4c0.2-0.3,0.7-0.5,0.8-0.9c0.4-0.9,0.7-1.2,1.2-2c0.6-0.9,2.1-1.6,3.4-1.9l0.3,0.4c-0.5,1.6-1.6,3.2-1.6,5v1.8
	c-0.1,0.6,0.3,1,0.8,1c1,0,1.2-0.9,2.2-1.2C-177.4,399.2-177.4,399.7-177.6,399.9"/>
<path class="st0" d="M-156.4,396.8c-0.9,1.2-1.8,2.4-3.5,3.1c-1.7,0.7-3.8,1.1-5.5,0.6c-0.3-0.1-0.4-0.1-0.7-0.2
	c-1.5-0.3-2.4-1-3.6-1.5l-1.2-0.7c-0.6,0.4-1,0.9-1.4,1.4c-1,1.1-1.6,2.2-2.5,3.2c-1.9,2-3.7,4-4.7,6.5c-0.2,0.4-0.6,0.7-1.3,1
	c-0.6,0.1-1.1,0-1.4,0.1c-0.4,0-0.4-0.4-1-0.3l-0.1-0.3l-0.2,0.1c-0.6-0.6-0.2-1.4,0.4-2c0.8-0.9,1.9-1.5,2.9-2.3
	c1-0.8,1.8-1.6,2.6-2.5c1.5-1.5,2.9-2.8,3.7-4.6l0.3-0.1c0.6-1.1,2.1-1.9,1.3-3.3c-0.5-0.8-0.4-1.8-0.3-2.7l-0.3-0.7l0-3.9
	c0.1-0.9,0.8-1.3,1-1.8c0.1-0.2,0-0.3,0.2-0.3c0.4-0.1,0.6-0.9,1-0.5c0.6,0.6,0.1,1.4-0.2,2.2c0,0.1,0.2,0.2,0.2,0.3
	c0,0.1,0,0.3,0,0.4c0,0.3-0.3,0.5,0,0.7c1,0.7,0.8,1,0.7,1.6c-0.3,1.4-0.3,2.5,0.2,3.5l0.1,0.1c0.7-0.2,1-0.7,1.5-1.2
	c0.8-0.7,1.3-1.3,2.1-2c2.1-2.1,4.6-5.7,7.6-5.4c1.7,0.2,0.2,2.7-0.7,3.6c-1.4,1.3-3,2.4-4.9,3c-0.6,0.2-1.2,0.2-1.6,0.5
	c-0.7,0.7-1.4,1.4-2,2.2c-0.5,0.6-1.7,1.2-0.6,1.9c0.5,0.3,1.1,0.8,1.4,1.3c0.5,0.9,1.6,1.1,2.4,1.6c0.2,0.1,0.5-0.1,0.7,0
	c0.3,0.1,0.6-0.1,0.9,0c0.3,0,0.7,0.1,1.1,0c1.9-0.2,3.9-1.1,4.7-2.5c0.2-0.3,0.5-0.8,0.7-1.1c0.3-0.3-0.2-1.1,0.3-1
	C-155,394.8-156.1,396.3-156.4,396.8"/>
<path class="st0" d="M-165.3,402.4c0.1-0.2,0.2-0.4,0.4-0.5c0.1-0.1,0.3-0.3,0.5-0.3c0.2-0.1,0.4-0.1,0.6-0.1s0.4,0,0.6,0.1
	c0.2,0.1,0.4,0.2,0.5,0.3c0.1,0.1,0.3,0.3,0.3,0.5c0.1,0.2,0.1,0.4,0.1,0.6c0,0.2,0,0.4-0.1,0.6c-0.1,0.2-0.2,0.4-0.3,0.5
	c-0.1,0.1-0.3,0.3-0.5,0.3c-0.2,0.1-0.4,0.1-0.6,0.1c-0.2,0-0.4,0-0.6-0.1c-0.2-0.1-0.4-0.2-0.5-0.3c-0.1-0.1-0.3-0.3-0.4-0.5
	c-0.1-0.2-0.1-0.4-0.1-0.6C-165.5,402.8-165.4,402.6-165.3,402.4 M-165.1,403.6c0.1,0.2,0.2,0.3,0.3,0.4c0.1,0.1,0.3,0.2,0.4,0.3
	c0.2,0.1,0.3,0.1,0.5,0.1c0.2,0,0.4,0,0.5-0.1c0.2-0.1,0.3-0.2,0.4-0.3s0.2-0.3,0.3-0.4c0.1-0.2,0.1-0.4,0.1-0.5
	c0-0.2,0-0.4-0.1-0.5c-0.1-0.2-0.2-0.3-0.3-0.4s-0.3-0.2-0.4-0.3c-0.2-0.1-0.3-0.1-0.5-0.1c-0.2,0-0.4,0-0.5,0.1
	c-0.2,0.1-0.3,0.2-0.4,0.3s-0.2,0.3-0.3,0.4c-0.1,0.2-0.1,0.3-0.1,0.5C-165.2,403.3-165.1,403.5-165.1,403.6 M-163.7,402.1
	c0.2,0,0.4,0,0.5,0.1s0.2,0.2,0.2,0.4c0,0.2,0,0.3-0.1,0.4c-0.1,0.1-0.2,0.1-0.4,0.1l0.5,0.8h-0.3l-0.5-0.8h-0.3v0.8h-0.3v-1.9
	L-163.7,402.1L-163.7,402.1z M-163.9,403c0.1,0,0.1,0,0.2,0c0.1,0,0.1,0,0.2,0c0,0,0.1-0.1,0.1-0.1c0,0,0-0.1,0-0.2
	c0-0.1,0-0.1,0-0.2c0,0-0.1-0.1-0.1-0.1c0,0-0.1,0-0.1,0c0,0-0.1,0-0.1,0h-0.4v0.6L-163.9,403L-163.9,403z"/>
<path class="st0" d="M-229.4,397.2c-1-0.3-1.5-1.5-1.7-2.5c-0.1-0.3-0.5,0-0.8,0.2c-1.7,1.4-3,3.2-5.3,3.9c-0.7,0.2-1.7,0.1-1.8-0.5
	c-0.1-0.8,0.2-1.8,0.6-2.6c0.5-0.9,0.9-1.7,1.2-2.6c0.7-1.3,1.2-2.7,2.1-3.9c1.2-1.6,2.7-2.9,4.7-3.7c0.9-0.3,1,0.6,0.9,1.1
	c-0.3,1.4-1.1,3.3-2.7,3.7c-0.9,0.2-1.7,0.2-2.1,0.9c-0.5,0.9-0.9,1.8-1.2,2.9c-0.2,0.8-0.8,2.2,0,2.2c1.6,0.1,2.9-2.4,4-3.8
	c0.8-1,1.3-2.1,2-3V389c1.1-0.8,1.8-2.1,3.2-2c0.9,0.1-0.3,1.1-0.4,1.8c-0.1,1.9-1.3,3.6-0.5,5.3c0.3,0.7,1.6,0.6,2.4,0.5
	c0.5-0.2,0.9-0.5,1.4-0.5c0.5,0,0.3,0.9,0,1.1C-225.2,396.4-227.3,397.9-229.4,397.2"/>
<path class="st0" d="M-229.2,407.1c-0.1-0.3-0.3-0.8-0.5-1.1c-0.2-0.3-0.5-0.7-0.7-0.8c-0.4-0.3-1.9-0.1-2.2-0.1c-0.2,0-0.4,0-0.7,0
	c-0.1,0-0.3-0.1-0.5-0.1c-0.3-0.1-0.5-0.1-0.7-0.2c-0.4-0.3-0.8-0.6-1.2-0.8c-0.2-0.1-0.6-0.3-0.8-0.5c-0.1-0.1-0.2-0.2-0.2-0.3
	c-0.1-0.1-0.3-0.1-0.3-0.1c-0.1-0.1-0.1-0.3-0.2-0.4c0,0-0.1,0-0.1,0c-0.5-0.5-1.2-1-2.2-1.2c0-0.1-0.1-0.1-0.1-0.2
	c-0.2-0.1-0.5-0.2-0.7-0.2c0.1,0,0.2,0,0.4,0l-0.4,0c-0.2-0.1-0.3-0.1-0.4-0.1c-0.1,0-0.3,0-0.3-0.1c-0.2-0.1-0.3-0.2-0.4-0.2
	c-0.4-0.1-1.1-0.2-1.2-0.3c-0.1,0-0.9-0.1-1.4-0.1c-0.2-0.8,0.3-1.2,0.3-2.1c0-0.1,0.1-0.3,0.1-0.4c0-0.3,0.1-0.6,0.1-0.8
	c0.1-0.3,0.2-0.7,0.3-1c0-0.1,0-0.2,0-0.2c0.2-0.4,0.4-0.9,0.6-1.3c-0.2,0-0.3,0-0.4-0.1c0.2-0.8,0.3-1.8,0.4-2.5
	c0.1-0.4,0.2-0.9,0.3-1.2c-0.1,0,0.1-0.6,0.1-0.6c0.1-0.5,0.2-1,0.3-1.5c-0.1,0-0.4,0-0.3-0.2c0-0.1,0-0.1,0-0.1
	c0,0.1,0.1,0.2,0.2,0.2c0.1-0.1,0.1-0.1,0.2-0.2c0.1-0.1,0.1-0.5-0.1-0.6c0.2-0.1,0.4-0.6,0.2-0.8l-0.2,0c0,0.2,0.2,0.4,0.1,0.5
	c0,0.1-0.1,0.1-0.1,0.1l-0.2,0l0,0.1c0,0.1,0.2,0.1,0.2,0.1c-0.2,0.2-0.2,0.4-0.3,0.5c0-0.1,0.1-0.2,0.1-0.2c0,0-0.1-0.1-0.1-0.1
	c0.1-0.1,0-0.4,0.1-0.5c0-0.1,0.1-0.1,0.1-0.3c-0.2,0.1-0.1,0.1-0.3,0.2c0-0.1,0.1-0.2,0-0.3l0.2-0.1l0.1,0.1c0-0.1,0-0.2-0.1-0.2
	c0,0.1-0.1,0.1-0.1,0.1c0-0.1,0-0.1,0-0.1c0.1-0.1,0.1-0.1,0.1-0.1c-0.2-0.1-0.2-0.2-0.2-0.3c0-0.1,0.1-0.3,0.3-0.3
	c0.1,0.2,0.5,0.1,0.4,0.4c0,0.1-0.2,0.1-0.3,0.1c0.1,0,0.3,0,0.4,0l0.1-0.2c0-0.1,0.2-0.6,0.1-0.8c-0.1-0.2-0.2-0.3-0.4-0.4l0.3-0.3
	c0,0.1,0.1,0.2,0.2,0.3l0.2-0.5c0-0.1,0-0.2,0-0.4l0.1-0.1c0-0.3,0.1-0.6,0.1-0.9l0.3-0.6c0-0.1,0-0.2,0.1-0.3c0,0-0.1-0.1-0.1-0.1
	c0,0,0-0.1,0-0.1c0,0,0,0,0.1,0c0,0.1,0.1,0.2,0.2,0.3l-0.1-0.6l-0.2,0c0.4-1.1,0.8-2.2,1.3-3.3c0.5-1.1,0.9-2.1,1.5-3.2
	c0.6-1.2,1.4-2.1,1.9-3.2c0.3-0.8,0.4-1.6-0.4-2l-0.1,0.1l-0.2-0.3c-0.5,0.2-0.7-0.2-1,0c-0.3,0.2-0.5,0.2-1,0.5
	c-0.7,0.5-1.6,0.9-1.6,1.4c-0.1,2.7-1,5.3-2,7.9c-0.3,0.8-0.5,1.6-0.7,2.4c0,0.1-0.1,0.1-0.1,0.2c0,0,0,0,0,0.1
	c0,0.1-0.1,0.2-0.1,0.3c0,0,0,0,0,0v0c-0.1,0.3-0.2,0.6-0.3,0.9c-0.1,0.3-0.2,1.1-0.3,1.8c-0.1,0.2-0.2,0.5-0.2,0.7
	c0,0.1,0,0.2,0,0.2c-0.1,0-0.2,0.1-0.2,0.2c0,0.1,0,0.4,0,0.4c-0.2,0.6-0.5,1.3-0.6,1.8c-0.1,0.3,0,0.6-0.1,0.9
	c0,0.1-0.2,0.4-0.2,0.5c-0.1,0.3-0.2,0.8-0.3,1.1c-0.2,0.7-0.5,2.3-0.6,2.4c0,0.1-0.3,0.2-0.4,0.3c0,0.1,0,0.1,0,0.1
	c0.2,0,0,0.3,0,0.4c0.2,0.1-0.2,0.7-0.2,0.9c0.1,0,0.2,0.1,0.2,0.1c-0.1,0.5-0.2,1-0.3,1.4c-0.2,1-0.6,2.1-1,3.1
	c0,0.1-0.1,0.2-0.3,0.3c-0.2,0-0.4,0-0.6,0c-0.5,0.1-1.8,0.1-2.2,0.2c-1.5,0.5-2,1-2.3,1.8c-0.1,0.3-0.2,0.6-0.2,0.8
	c0,0.2,0,0.4,0,0.6c0.1,0.2,0.3,0.5,0.3,0.6c0.1,0.2,0.4,0.4,0.4,0.5c0.1,0.2,0,0.4,0.1,0.6c0.4,0.5,0.9,1.1,1.3,1.5
	c0.2,0.2,1.6,0.6,1.7,0.8c0.1,0.2,0.1,0.5,0.1,0.7c0,0,0.1,0.1,0.1,0.1c0,0,0,0.1,0,0.1c0.1,0.1,0.3,0.4,0.4,0.5
	c0.1,0.1,0.4,0.2,0.6,0.3c0.1,0,0.2,0,0.4,0.1c0.1,0,0.3,0,0.4,0c0.2,0,0.7-0.1,0.9-0.2c0.1,0,0.2-0.1,0.2-0.1c0.1,0,0.3,0,0.3,0
	c0.3-0.1,0.7-0.3,0.8-0.4c0.1-0.1,0.2-0.2,0.2-0.3c0-0.1,0-0.3,0-0.4c0-0.1-0.2-0.1-0.2-0.1c-0.1-0.1-0.2-0.4-0.3-0.4
	c-0.1-0.1-0.4-0.2-0.4-0.3c-0.2-0.2-0.5-0.4-0.5-0.5c-0.1-0.4,0.1-0.8,0.1-1.2c0-0.1,0.1-0.2,0.1-0.3c0-0.1-0.1-0.1-0.1-0.1
	c0.2-0.1,0.3-0.3,0.3-0.5c0-0.3,0.2-0.7,0.3-1c0-0.3,0-0.6,0.1-0.8c0-0.2,0.1-0.4,0.2-0.6c0.3-0.1,0.5-0.1,0.8,0
	c0.1,0,0.6,0.1,0.8,0.1c0.1,0,0.2,0.1,0.3,0.1c0.8,0.1,1.8,0.6,2.6,1.1c0.2,0.1,0.4,0.2,0.5,0.2c0.2,0.2,0.4,0.4,0.5,0.5
	c0.2,0.2,1.2,0.8,1.8,1.1c0.8,0.6,2.3,1.3,3.4,1.8l0.1,0.1c0.9,0.5,1.8,0.7,2.4,0.7c0.1,0,0.1,0,0.1,0.1c0.1,0,0.2-0.1,0.4-0.1
	c0.1,0,0.2,0.1,0.3,0.1c0.2,0,0.5-0.1,0.8,0c0.5,0.1,1,0.2,1.1-0.2C-229.2,407.7-229.1,407.3-229.2,407.1 M-248.5,403.8
	c-0.2,0.4-0.9,1.2-1.7,1.2c-0.4-0.5-0.5-1.1-0.8-1.4c-0.2-0.4-0.2-1.4-0.1-1.6c0.2-0.4,1.7-0.3,2.3-0.4c0,0,0.1-0.2,0.3-0.1l0.6,0.1
	C-248.1,402.2-248.4,403.6-248.5,403.8"/>
<path class="st0" d="M-208.6,406.9c-0.1,0.1-0.4,0.5-0.6,0.7c-0.9,0.8-2.4,2.1-4.2,3.1c-0.3,0.1-0.6,0.5-1,0.7
	c-1,0.5-2.6,1.3-3.6,1.4c-0.2,0-0.6,0.2-0.9,0.4c-0.3,0.1-0.7,0.1-0.9,0.1c-0.2,0-1.6-0.3-2.1-0.5c-0.4-0.1-1.2-0.7-1.7-1.1
	c-0.1-0.1-0.3-0.5-0.4-0.7c-0.1-0.2-0.4-0.6-0.5-0.8c-0.5-1.2-0.6-2.3-0.4-3.4c0.2-1.7,0.5-3.4,0.9-5l0.7-2.5c0-0.1,0.4-0.7,0.4-1.1
	c0.3-1.7,1.5-3.8,2-5c0.1-0.2,0.2-0.6,0.3-0.8c0.1-0.1,0.3-0.5,0.4-0.7c0.2-0.3,0.2-0.7,0.4-1c0.3-0.4,0.6-0.8,0.8-1.2
	c0.1-0.2,0.2-0.6,0.4-0.9c0.6-0.6,0.9-1.8,1.6-2.4c0-0.1,0-0.4,0.1-0.5c0.7-1,1-2,1.6-3c0.1-0.1,0.1-0.6,0.3-0.8
	c1.1-1.8,1.7-3.1,2.5-4.1c0.2-0.3,0.4-0.9,0.7-1.4c0.2-0.3,0.6-0.6,0.8-1c1-1.4,1.9-2.5,3.5-3.3c0.2-0.1,0.4-0.3,0.7-0.4
	c0.2-0.1,1-0.2,1.2-0.2c0.6,0,1.4,0.4,1.9,0.7c0.2,0.1,0.6,0.3,0.8,0.5c0.1,0.1,0.1,0.3,0.2,0.4c0.5,0.2,0.9,0.8,1.2,1.3
	c0,0.1,0.2,0.3,0.4,0.3c0.2,0,0.2-0.1,0.4-0.1c0.4,0,0.7,0.4,0.7,1c0,0.4-0.4,0.9-0.4,1.3c0,0.1,0.2,0.2,0.1,0.4
	c0,0.5-0.2,1.4-0.3,1.6c0,0.1-0.2,0.6-0.4,0.8c0,0.1,0,0.4-0.1,0.5c-0.2,0.2-0.5,0.5-0.6,0.8c-0.2,0.5-0.4,1-0.5,1.5
	c-0.1,0.3-0.1,0.6-0.1,1c0,0.1-0.2,0.4-0.3,0.6c-0.3,0.7-0.2,1.7-1.1,2.7c-0.1,0.1-0.4,0.2-0.6,0.4c-0.6,0.4-0.8,0.6-1.5,0.6
	c-0.2,0-1.1-0.5-1.1-0.8l1.2-4.3c0-0.1,0.1-0.1,0.2-0.2c0.3-0.8,1.1-3.1,1.1-3.3c0-0.1,0.2-0.8,0.1-1.2c0-0.1-0.2-0.3-0.3-0.5
	c-0.1-0.2,0-0.4-0.2-0.6c0-0.1,0-0.2,0.1-0.3c-0.8-0.4-1.2-1.3-1.9-1.3c-0.9,0-1.7,1.5-1.9,1.8c-0.1,0.1-0.4,0.3-0.5,0.5
	c-0.8,1.1-0.9,2-1.7,3.3c-0.1,0.1-0.4,0.3-0.5,0.5c-0.1,0.2-0.2,0.5-0.3,0.7c-1.1,1.7-2.6,4.8-3.7,6.4c0,0.1-0.3,0.2-0.4,0.4
	c-0.3,0.4-0.3,0.8-0.6,1.2c-0.1,0.1-0.3,0.2-0.4,0.3c-0.1,0.2,0,0.5-0.2,0.7c-0.2,0.2-0.6,0.5-0.8,0.7c-0.3,0.6-0.4,1.3-0.7,1.7
	c-0.1,0.2-0.4,0.8-0.5,1.1c-0.2,0.3-0.2,0.4-0.4,0.7c0,0,0,0.1,0,0.3c0,0.4-0.2,0.8-0.4,1.2c-0.1,0.1-0.1,0.4-0.2,0.6
	c-0.1,0.2-0.3,0.4-0.4,0.6c0,0.2,0,0.4-0.1,0.6c-0.1,0.1-0.3,0.3-0.3,0.5c0,0.1,0.1,0.6,0,0.9c-0.2,1-0.9,2.7-1,2.9
	c0,0.1,0,0.4,0,0.6c-0.1,0.5-0.4,1.2-0.4,1.6c0,0.2,0,0.5,0,0.7c0,0.1-0.2,0.5-0.1,0.7c0,1.6-1,2-0.2,3.3c0,0,0,0.2,0.1,0.3
	c0.3,0.5,1.1,1.1,1.8,1.2c0.3,0.1,0.8,0.2,1,0.2h0.6c0.5,0,1.6,0.1,2.5-0.4c1.1-0.6,2.1-1.1,3.4-2c0.8-0.6,1.3-1,2-1.6
	c0.5-0.4,1-0.5,1.5-1.1c0.1-0.1,0.2-0.4,0.4-0.8c0.1-0.1,0.4-0.1,0.6-0.2c0-0.1,0-0.5,0-0.5c0,0,0.5-0.2,0.7-0.2
	c0.3,0,0.6,0.4,0.6,0.6C-207.2,405.6-208.5,406.7-208.6,406.9"/>
<path class="st0" d="M-240.5,382.1c-0.1,0-0.1,0-0.2,0.1c-0.1-0.2,0.2-0.4-0.1-0.4c0,0.1-0.1,0.1-0.1,0.2c0,0.1,0,0.4,0.1,0.6
	c-0.1,0.2-0.1,0.5-0.1,0.7l-0.3-0.1c0-0.2-0.1-0.3-0.2-0.4"/>
<path class="st0" d="M-241.8,385.6c0,0.1,0.2,0.1,0.1,0.2c0,0.1-0.1,0-0.1,0.1C-241.7,385.8-241.8,385.7-241.8,385.6"/>
<path class="st0" d="M-242.1,385.6c0.1,0.1,0.2,0.4,0.1,0.5c0,0.1-0.1,0.1-0.1,0.1C-242.2,386-242.2,385.8-242.1,385.6"/>
</svg>
