<?xml version="1.0" encoding="utf-8"?>
<!-- Generator: Adobe Illustrator 19.0.0, SVG Export Plug-In . SVG Version: 6.00 Build 0)  -->
<svg version="1.1" id="Layer_1" xmlns="http://www.w3.org/2000/svg" xmlns:xlink="http://www.w3.org/1999/xlink" x="0px" y="0px"
	 viewBox="-211 381.5 187.1 30.5" style="enable-background:new -211 381.5 187.1 30.5;" xml:space="preserve">
<style type="text/css">
	.st0{fill:none;stroke:#555555;stroke-width:0.3291;stroke-miterlimit:2.6131;}
	.st1{fill:#555555;}
	.st2{fill:#777777;}
</style>
<line class="st0" x1="-23.9" y1="388.1" x2="-211" y2="388.1"/>
<polygon class="st1" points="-207.4,381.6 -206.7,381.6 -206,384.5 -206,384.5 -205.2,381.6 -204.5,381.6 -204.5,385.2 -205,385.2 
	-205,382.1 -205,382.1 -205.8,385.2 -206.2,385.2 -207,382.1 -207,382.1 -207,385.2 -207.4,385.2 "/>
<path class="st1" d="M-201.2,382.1L-201.2,382.1l0.5,1.8h-1L-201.2,382.1L-201.2,382.1z M-202.4,385.2h0.4l0.2-0.9h1.2l0.2,0.9h0.4
	l-1-3.6h-0.4L-202.4,385.2L-202.4,385.2z"/>
<polygon class="st1" points="-198.4,381.6 -198,381.6 -197.3,383.3 -196.5,381.6 -196.1,381.6 -197.1,383.8 -197.1,385.2 
	-197.5,385.2 -197.5,383.8 "/>
<path class="st1" d="M-193.6,383.5h0.6c0.4,0,0.7,0.2,0.7,0.7c0,0.3-0.1,0.7-0.6,0.7h-0.7V383.5L-193.6,383.5z M-194.1,385.2h1
	c0.8,0,1.2-0.2,1.2-1c0-0.4-0.2-0.8-0.7-0.9l0,0c0.4-0.1,0.6-0.5,0.6-0.8c0-0.7-0.6-0.9-1-0.9h-1.1V385.2L-194.1,385.2z
	 M-193.6,381.9h0.6c0.4,0,0.6,0.2,0.6,0.6c0,0.7-0.3,0.7-0.6,0.7h-0.6V381.9L-193.6,381.9z"/>
<polygon class="st1" points="-189.6,381.6 -187.9,381.6 -187.9,381.9 -189.2,381.9 -189.2,383.2 -187.9,383.2 -187.9,383.5 
	-189.2,383.5 -189.2,384.8 -187.7,384.8 -187.7,385.2 -189.6,385.2 "/>
<path class="st1" d="M-181.1,382.5c0-0.3-0.1-0.6-0.6-0.6c-0.4,0-0.7,0.1-0.7,0.6c0,1,1.8,0.4,1.8,1.7c0,0.9-0.7,1.1-1.1,1.1
	c-0.9,0-1.1-0.4-1.1-1.2h0.4c0,0.4,0,0.9,0.7,0.9c0.3,0,0.6-0.2,0.6-0.7c0-1-1.7-0.4-1.7-1.8c0-0.3,0.1-1,1.1-1c0.7,0,1,0.3,1,1
	H-181.1L-181.1,382.5z"/>
<polygon class="st1" points="-176.2,385.2 -176.6,385.2 -176.6,383.5 -177.9,383.5 -177.9,385.2 -178.4,385.2 -178.4,381.6 
	-177.9,381.6 -177.9,383.1 -176.6,383.1 -176.6,381.6 -176.2,381.6 "/>
<polygon class="st1" points="-173.8,381.6 -172,381.6 -172,381.9 -173.4,381.9 -173.4,383.2 -172,383.2 -172,383.5 -173.4,383.5 
	-173.4,384.8 -171.9,384.8 -171.9,385.2 -173.8,385.2 "/>
<path class="st1" d="M-169.7,381.6h0.4v0.4c0,0.3,0,0.7-0.4,0.8v-0.2c0.2,0,0.2-0.1,0.2-0.3v-0.1h-0.2V381.6L-169.7,381.6z"/>
<path class="st1" d="M-165.5,382.5c0-0.3-0.1-0.6-0.6-0.6c-0.4,0-0.7,0.1-0.7,0.6c0,1,1.8,0.4,1.8,1.7c0,0.9-0.7,1.1-1.1,1.1
	c-0.9,0-1.1-0.4-1.1-1.2h0.4c0,0.4,0,0.9,0.7,0.9c0.3,0,0.7-0.2,0.7-0.7c0-1-1.8-0.4-1.8-1.8c0-0.3,0.2-1,1.1-1c0.7,0,1,0.3,1,1
	H-165.5L-165.5,382.5z"/>
<path class="st1" d="M-159.4,383.5h0.6c0.3,0,0.7,0.2,0.7,0.7c0,0.3-0.1,0.7-0.6,0.7h-0.7V383.5L-159.4,383.5z M-159.8,385.2h1
	c0.8,0,1.2-0.2,1.2-1c0-0.4-0.2-0.8-0.7-0.9l0,0c0.3-0.1,0.4-0.4,0.4-0.8c0-0.7-0.4-0.9-0.9-0.9h-1.1L-159.8,385.2L-159.8,385.2z
	 M-159.4,381.9h0.6c0.4,0,0.6,0.2,0.6,0.6c0,0.7-0.4,0.7-0.6,0.7h-0.6V381.9L-159.4,381.9z"/>
<path class="st1" d="M-154.2,381.9c0.6,0,0.7,0.7,0.7,1.4c0,0.9-0.1,1.6-0.7,1.6c-0.7,0-0.8-0.7-0.8-1.6
	C-155,382.6-154.9,381.9-154.2,381.9L-154.2,381.9z M-154.2,381.5c-1,0-1.2,1-1.2,1.9s0.2,1.9,1.2,1.9s1.1-1,1.1-1.9
	S-153.2,381.5-154.2,381.5L-154.2,381.5z"/>
<path class="st1" d="M-150.3,381.9h0.4c0.4,0,0.7,0.2,0.7,0.6c0,0.8-0.4,0.8-0.8,0.8h-0.3L-150.3,381.9L-150.3,381.9z M-150.8,385.2
	h0.4v-1.6h0.6c0.2,0,0.4,0,0.6,0.6v0.6c0,0.1,0,0.4,0.1,0.4h0.6c-0.1,0-0.2-0.1-0.2-0.6v-0.5c0-0.3-0.2-0.6-0.6-0.7l0,0
	c0.4-0.1,0.6-0.4,0.6-0.9c0-0.6-0.3-0.9-0.9-0.9h-1.1L-150.8,385.2L-150.8,385.2z"/>
<polygon class="st1" points="-146.4,381.6 -145.9,381.6 -144.7,384.6 -144.7,384.6 -144.7,381.6 -144.2,381.6 -144.2,385.2 
	-144.9,385.2 -146,382.3 -146,382.3 -146,385.2 -146.4,385.2 "/>
<polygon class="st1" points="-139.4,381.6 -138.9,381.6 -138.4,384.6 -138.3,384.6 -137.9,381.6 -137.3,381.6 -136.8,384.6 
	-136.8,384.6 -136.2,381.6 -135.8,381.6 -136.5,385.2 -137.1,385.2 -137.5,382.3 -137.5,382.3 -138.1,385.2 -138.7,385.2 "/>
<polygon class="st1" points="-133.8,381.6 -133.3,381.6 -133.3,385.2 -133.8,385.2 "/>
<polygon class="st1" points="-129.9,385.2 -130.3,385.2 -130.3,381.9 -131.2,381.9 -131.2,381.6 -129,381.6 -129,381.9 
	-129.9,381.9 "/>
<polygon class="st1" points="-124.7,385.2 -125.2,385.2 -125.2,383.5 -126.4,383.5 -126.4,385.2 -126.9,385.2 -126.9,381.6 
	-126.4,381.6 -126.4,383.1 -125.2,383.1 -125.2,381.6 -124.7,381.6 "/>
<polygon class="st1" points="-119.4,381.6 -119,381.6 -119,385.2 -119.4,385.2 "/>
<polygon class="st1" points="-115.5,385.2 -116,385.2 -116,381.9 -116.8,381.9 -116.8,381.6 -114.6,381.6 -114.6,381.9 
	-115.5,381.9 "/>
<polygon class="st1" points="-114,385.2 -113.5,385.2 -113.5,384.7 -114,384.7 "/>
<polygon class="st1" points="-108.5,381.6 -107.7,381.6 -107.1,384.5 -107.1,384.5 -106.3,381.6 -105.5,381.6 -105.5,385.2 
	-105.9,385.2 -105.9,382.1 -105.9,382.1 -106.8,385.2 -107.3,385.2 -108.1,382.1 -108.1,382.1 -108.1,385.2 -108.5,385.2 "/>
<path class="st1" d="M-102.2,382.1L-102.2,382.1l0.4,1.8h-1L-102.2,382.1L-102.2,382.1z M-103.5,385.2h0.4l0.2-0.9h1.2l0.2,0.9h0.4
	l-1-3.6h-0.6L-103.5,385.2L-103.5,385.2z"/>
<polygon class="st1" points="-99.5,381.6 -99,381.6 -98.3,383.3 -97.6,381.6 -97.1,381.6 -98,383.8 -98,385.2 -98.5,385.2 
	-98.5,383.8 "/>
<path class="st1" d="M-94.7,383.5h0.6c0.4,0,0.8,0.2,0.8,0.7c0,0.3-0.2,0.7-0.7,0.7h-0.7L-94.7,383.5L-94.7,383.5z M-95.1,385.2h1
	c0.8,0,1.2-0.2,1.2-1c0-0.4-0.2-0.8-0.7-0.9l0,0c0.3-0.1,0.6-0.4,0.6-0.8c0-0.7-0.4-0.9-1-0.9h-1.1V385.2L-95.1,385.2z M-94.7,381.9
	h0.6c0.4,0,0.7,0.2,0.7,0.6c0,0.7-0.4,0.7-0.7,0.7h-0.6V381.9L-94.7,381.9z"/>
<polygon class="st1" points="-90.7,381.6 -88.8,381.6 -88.8,381.9 -90.2,381.9 -90.2,383.2 -88.9,383.2 -88.9,383.5 -90.2,383.5 
	-90.2,384.8 -88.8,384.8 -88.8,385.2 -90.7,385.2 "/>
<polygon class="st1" points="-83.7,381.6 -83.2,381.6 -83.2,385.2 -83.7,385.2 "/>
<polygon class="st1" points="-79.8,385.2 -80.2,385.2 -80.2,381.9 -81.1,381.9 -81.1,381.6 -78.9,381.6 -78.9,381.9 -79.8,381.9 "/>
<path class="st1" d="M-76.7,381.6h0.4v0.4c0,0.3,0,0.7-0.4,0.8v-0.2c0.1,0,0.2-0.1,0.2-0.3v-0.1h-0.2V381.6L-76.7,381.6z"/>
<path class="st1" d="M-72.5,382.5c0-0.3-0.1-0.6-0.6-0.6c-0.3,0-0.6,0.1-0.6,0.6c0,1,1.7,0.4,1.7,1.7c0,0.9-0.6,1.1-1.1,1.1
	c-0.8,0-1.1-0.4-1.1-1.2h0.4c0,0.4,0.1,0.9,0.8,0.9c0.3,0,0.6-0.2,0.6-0.7c0-1-1.7-0.4-1.7-1.8c0-0.3,0.1-1,1-1c0.8,0,1,0.3,1,1
	H-72.5L-72.5,382.5z"/>
<polygon class="st1" points="-66.8,381.6 -66,381.6 -65.3,384.5 -65.3,384.5 -64.5,381.6 -63.9,381.6 -63.9,385.2 -64.3,385.2 
	-64.3,382.1 -64.3,382.1 -65.1,385.2 -65.5,385.2 -66.3,382.1 -66.3,382.1 -66.3,385.2 -66.8,385.2 "/>
<path class="st1" d="M-60.5,382.1h0.1l0.4,1.8h-1L-60.5,382.1L-60.5,382.1z M-61.8,385.2h0.4l0.2-0.9h1.2l0.2,0.9h0.4l-1-3.6H-61
	L-61.8,385.2L-61.8,385.2z"/>
<polygon class="st1" points="-57.7,381.6 -57.3,381.6 -56.6,383.3 -55.9,381.6 -55.4,381.6 -56.3,383.8 -56.3,385.2 -56.9,385.2 
	-56.9,383.8 "/>
<path class="st1" d="M-53,383.5h0.6c0.4,0,0.8,0.2,0.8,0.7c0,0.3-0.2,0.7-0.7,0.7H-53V383.5L-53,383.5z M-53.4,385.2h1
	c0.8,0,1.2-0.2,1.2-1c0-0.4-0.2-0.8-0.7-0.9l0,0c0.3-0.1,0.6-0.4,0.6-0.8c0-0.7-0.4-0.9-1-0.9h-1.1V385.2L-53.4,385.2z M-53,381.9
	h0.6c0.4,0,0.7,0.2,0.7,0.6c0,0.7-0.4,0.7-0.7,0.7H-53V381.9L-53,381.9z"/>
<polygon class="st1" points="-49,381.6 -47.1,381.6 -47.1,381.9 -48.5,381.9 -48.5,383.2 -47.2,383.2 -47.2,383.5 -48.5,383.5 
	-48.5,384.8 -47.1,384.8 -47.1,385.2 -49,385.2 "/>
<polygon class="st1" points="-44.8,381.6 -44.4,381.6 -44.4,384.8 -42.9,384.8 -42.9,385.2 -44.8,385.2 "/>
<polygon class="st1" points="-40.8,381.6 -40.4,381.6 -40.4,384.8 -38.9,384.8 -38.9,385.2 -40.8,385.2 "/>
<polygon class="st1" points="-36.8,381.6 -36.4,381.6 -36.4,385.2 -36.8,385.2 "/>
<polygon class="st1" points="-34,381.6 -33.5,381.6 -32.3,384.6 -32.3,384.6 -32.3,381.6 -31.8,381.6 -31.8,385.2 -32.5,385.2 
	-33.6,382.3 -33.6,382.3 -33.6,385.2 -34,385.2 "/>
<polygon class="st1" points="-29.5,381.6 -27.6,381.6 -27.6,381.9 -29,381.9 -29,383.2 -27.7,383.2 -27.7,383.5 -29,383.5 
	-29,384.8 -27.6,384.8 -27.6,385.2 -29.5,385.2 "/>
<polygon class="st1" points="-26.5,384.7 -26,384.7 -26,385.2 -26.5,385.2 "/>
<path class="st1" d="M-26.3,381.5c0.3,0,0.6,0.3,0.6,0.7c0,0.4-0.2,0.6-0.6,0.6s-0.6-0.2-0.6-0.6C-26.9,381.8-26.6,381.5-26.3,381.5
	L-26.3,381.5z M-26.3,381.5c-0.3,0-0.7,0.2-0.7,0.7c0,0.3,0.3,0.7,0.7,0.7s0.7-0.3,0.7-0.7C-25.6,381.7-25.9,381.5-26.3,381.5
	L-26.3,381.5z M-26.4,382.2h0.1l0.3,0.3h0.1l-0.2-0.3c0.1,0,0.2-0.1,0.2-0.2s-0.1-0.2-0.2-0.2h-0.3v0.7h0.1v-0.3H-26.4z
	 M-26.4,382.1v-0.3h0.1c0.1,0,0.2,0,0.2,0.1s-0.1,0.1-0.2,0.1h-0.1V382.1z"/>
<polygon class="st1" points="-87.9,406.9 -86.7,406.9 -83.8,410.7 -83.8,410.7 -83.8,406.9 -82.7,406.9 -82.7,411.9 -83.9,411.9 
	-86.9,408.1 -86.9,408.1 -86.9,411.9 -87.9,411.9 "/>
<polygon class="st1" points="-79,406.9 -74.7,406.9 -74.7,407.7 -78,407.7 -78,409 -74.9,409 -74.9,409.8 -78,409.8 -78,411.1 
	-74.7,411.1 -74.7,411.9 -79,411.9 "/>
<polygon class="st1" points="-71.8,406.9 -70.7,406.9 -69.4,410.8 -69.4,410.8 -68.2,406.9 -67.1,406.9 -65.9,410.8 -65.9,410.8 
	-64.8,406.9 -63.6,406.9 -65.3,411.9 -66.4,411.9 -67.7,408.1 -67.7,408.1 -69,411.9 -70.1,411.9 "/>
<polygon class="st1" points="-56.3,410 -58.5,406.9 -57.2,406.9 -55.9,409.1 -54.4,406.9 -53.1,406.9 -55.3,410 -55.3,411.9 
	-56.3,411.9 "/>
<path class="st1" d="M-47.3,411.2c-1.2,0-1.9-0.7-1.9-1.8s0.7-1.9,1.9-1.9c1.1,0,1.8,0.8,1.8,1.9S-46.2,411.2-47.3,411.2
	L-47.3,411.2z M-47.3,412c2.1,0,2.9-1.2,2.9-2.6s-0.8-2.7-2.9-2.7c-2.1,0-3,1.2-3,2.7C-50.3,410.8-49.4,412-47.3,412L-47.3,412z"/>
<path class="st1" d="M-39.9,409.1v-1.4h1.9c0.6,0,0.9,0.2,0.9,0.8s-0.3,0.7-0.9,0.7h-1.9V409.1z M-40.9,411.9h1v-2h1.8
	c0.8,0,0.9,0.6,0.9,1.2c0,0.4,0.1,0.7,0.1,0.8h1.2c-0.2-0.2-0.2-0.8-0.2-1c0-0.8-0.2-1.2-0.8-1.4l0,0c0.4-0.1,0.9-0.6,0.9-1.2
	c0-0.8-0.4-1.3-1.8-1.3h-3.1L-40.9,411.9L-40.9,411.9z"/>
<polygon class="st1" points="-32.6,406.9 -31.5,406.9 -31.5,409.2 -28.9,406.9 -27.5,406.9 -29.8,408.9 -27.4,411.9 -28.8,411.9 
	-30.7,409.5 -31.5,410.3 -31.5,411.9 -32.6,411.9 "/>
<path class="st2" d="M-26.1,390.4c-0.4,0-0.7,0.2-0.7,0.7c0,0.3,0.2,0.7,0.7,0.7c0.3,0,0.7-0.3,0.7-0.7
	C-25.5,390.6-25.8,390.4-26.1,390.4L-26.1,390.4L-26.1,390.4z M-26.1,390.5c0.2,0,0.6,0.2,0.6,0.6s-0.3,0.6-0.6,0.6
	s-0.7-0.2-0.7-0.6S-26.5,390.5-26.1,390.5L-26.1,390.5L-26.1,390.5z M-26.4,391.1h0.2l0.2,0.3h0.1l-0.1-0.3c0,0,0.1-0.1,0.1-0.2
	s0-0.2-0.2-0.2h-0.3v0.8h0.1v-0.4H-26.4z M-26.4,391v-0.3h0.2c0.1,0,0.1,0,0.1,0.1c0,0.1-0.1,0.1-0.2,0.1h-0.1V391z"/>
<polygon class="st1" points="-207.4,390.3 -204.8,390.3 -200,400.1 -195.3,390.3 -192.6,390.3 -192.6,402 -194.5,402 -194.5,392.3 
	-194.5,392.3 -199.2,402 -200.9,402 -205.5,392.3 -205.5,392.3 -205.5,402 -207.4,402 "/>
<path class="st1" d="M-177.8,391.7L-177.8,391.7l2.6,5.5h-5.1L-177.8,391.7L-177.8,391.7z M-184.7,402h2.1l1.7-3.6h6.2l1.7,3.6h2.2
	l-5.9-11.7h-2.2L-184.7,402L-184.7,402z"/>
<polygon class="st1" points="-158.6,397.2 -158.6,402 -160.6,402 -160.6,397.2 -166.4,390.3 -164,390.3 -159.5,395.9 -155.1,390.3 
	-152.9,390.3 "/>
<path class="st1" d="M-143.3,396.6h4.6c1.7,0,3.2,0.4,3.2,2c0,1.2-1.1,2-2.8,2h-5L-143.3,396.6L-143.3,396.6z M-145.2,402h7.1
	c3,0,4.6-1.7,4.6-3.3c0-1.4-1-2.6-2.9-2.8l0,0c1.4-0.4,2.2-1.4,2.2-2.7c0-1.1-0.7-2-1.7-2.4c-0.9-0.4-2.7-0.4-4-0.4h-5.3L-145.2,402
	L-145.2,402z M-143.3,391.6h4c1.8,0,3.2,0.2,3.2,1.9c0,1.2-1,1.8-3.2,1.8h-4V391.6L-143.3,391.6z"/>
<polygon class="st1" points="-124.6,390.3 -114.4,390.3 -114.4,391.6 -122.6,391.6 -122.6,395.3 -115,395.3 -115,396.6 
	-122.6,396.6 -122.6,400.6 -114.3,400.6 -114.3,402 -124.6,402 "/>
<polygon class="st1" points="-105.5,390.3 -103.6,390.3 -103.6,400.6 -95.7,400.6 -95.7,402 -105.5,402 "/>
<polygon class="st1" points="-88,390.3 -86,390.3 -86,400.6 -78.1,400.6 -78.1,402 -88,402 "/>
<polygon class="st1" points="-70,390.3 -68,390.3 -68,402 -70,402 "/>
<polygon class="st1" points="-58.7,390.3 -56.6,390.3 -48.7,399.8 -48.7,399.8 -48.7,390.3 -46.8,390.3 -46.8,402 -49,402 
	-56.9,392.6 -56.9,392.6 -56.9,402 -58.7,402 "/>
<polygon class="st1" points="-37.7,390.3 -27.4,390.3 -27.4,391.6 -35.7,391.6 -35.7,395.3 -27.9,395.3 -27.9,396.6 -35.7,396.6 
	-35.7,400.6 -27.4,400.6 -27.4,402 -37.7,402 "/>
</svg>
