<?xml version="1.0" encoding="utf-8"?>
<!-- Generator: Adobe Illustrator 19.0.0, SVG Export Plug-In . SVG Version: 6.00 Build 0)  -->
<svg version="1.1" id="Layer_1" xmlns="http://www.w3.org/2000/svg" xmlns:xlink="http://www.w3.org/1999/xlink" x="0px" y="0px"
	 viewBox="-128 255.5 354.3 283.5" style="enable-background:new -128 255.5 354.3 283.5;" xml:space="preserve">
<style type="text/css">
	.st0{fill:#555555;}
</style>
<g>
	<g>
		<path class="st0" d="M104.9,275.7c28,0,50.6,117.8,50.6,263.2H196c0-156.5-40.8-283.4-91.1-283.4c-28.6,0-54.2,38.1-70.9,97.8
			c-16.7-59.7-42.3-97.8-70.9-97.8c-50.3,0-91.1,126.9-91.1,283.5h40.5c0-145.4,22.7-263.2,50.6-263.2c28,0,50.6,108.8,50.6,243
			h40.5C54.2,384.5,76.9,275.7,104.9,275.7z"/>
	</g>
	<g>
		<path class="st0" d="M216.2,518.7c5.5,0,10.1,4.4,10.1,10.1c0,5.8-4.6,10.2-10.1,10.2s-10.2-4.4-10.2-10.2
			C206.1,523.1,210.7,518.7,216.2,518.7z M216.2,537.5c4.7,0,8.3-3.7,8.3-8.7c0-4.9-3.6-8.6-8.3-8.6c-4.7,0-8.3,3.7-8.3,8.6
			C207.9,533.7,211.5,537.5,216.2,537.5z M212.3,522.9h4.6c2.8,0,4.1,1.1,4.1,3.4c0,2.1-1.3,3-3.1,3.2l3.4,5.2h-2l-3.2-5.1h-1.9v5.1
			h-1.8v-11.8H212.3z M214.2,528.2h1.9c1.6,0,3.1-0.1,3.1-2c0-1.6-1.3-1.8-2.6-1.8h-2.4V528.2z"/>
	</g>
</g>
</svg>
