<?xml version="1.0" encoding="utf-8"?>
<!-- Generator: Adobe Illustrator 19.0.0, SVG Export Plug-In . SVG Version: 6.00 Build 0)  -->
<svg version="1.1" id="Layer_1" xmlns="http://www.w3.org/2000/svg" xmlns:xlink="http://www.w3.org/1999/xlink" x="0px" y="0px"
	 viewBox="-216 359.4 177.5 74.6" style="enable-background:new -216 359.4 177.5 74.6;" xml:space="preserve">
<style type="text/css">
	.st0{fill:#555555;}
	.st1{fill:none;stroke:#555555;stroke-miterlimit:10;}
	.st2{fill:#FFFFFF;}
</style>
<path class="st0" d="M-98.4,396.7c0,15.7-12.9,28.4-28.8,28.4s-28.8-12.7-28.8-28.4c0-15.7,12.9-28.4,28.8-28.4
	S-98.4,381-98.4,396.7L-98.4,396.7z"/>
<path class="st0" d="M-127.2,364.6c-18,0-32.6,14.4-32.6,32.1c0,17.7,14.6,32.1,32.6,32.1s32.6-14.4,32.6-32.1
	C-94.6,378.9-109.2,364.6-127.2,364.6L-127.2,364.6L-127.2,364.6z M-127.2,426.9c-16.9,0-30.6-13.5-30.6-30.2
	c0-16.7,13.7-30.2,30.6-30.2s30.6,13.5,30.6,30.2C-96.6,413.4-110.3,426.9-127.2,426.9L-127.2,426.9z"/>
<path class="st1" d="M-94.7,378.5c-6.4-11.1-18.6-18.7-32.5-18.7c-13.9,0-26,7.5-32.4,18.7h-55.5c0,0,17.4,24.4,45.3,42.5h14.7
	c6.8,7.7,16.9,12.6,28,12.6c11.2,0,21.2-4.9,28-12.6h14.5c27.9-18.1,45.3-42.5,45.3-42.5H-94.7L-94.7,378.5z"/>
<polygon class="st2" points="-106.4,388.9 -102.5,388.9 -102.5,404.9 -106.4,404.9 "/>
<polygon class="st2" points="-131.1,388.9 -127.3,388.9 -127.3,404.9 -131.1,404.9 "/>
<polygon class="st2" points="-113.2,388.9 -113.2,398.7 -120.2,388.9 -123.9,388.9 -123.9,404.9 -120.2,404.9 -120.2,395.2 
	-113.2,404.9 -109.6,404.9 -109.6,388.9 "/>
<polygon class="st2" points="-139.3,388.9 -143.5,398.9 -147.8,388.9 -152.2,388.9 -152.2,404.9 -148.5,404.9 -148.5,395.9 
	-144.8,404.9 -144.8,404.9 -142.5,404.9 -142.4,404.9 -138.3,395 -138.3,404.9 -134.7,404.9 -134.7,388.9 "/>
<path class="st0" d="M-210.4,384.6h47.9c-0.7,2.1-1.3,4.3-1.6,6.5l0,0c0.2-1.7,0.3-3.4,0.6-4.9L-210.4,384.6L-210.4,384.6z"/>
<path class="st0" d="M-163.9,402.8c-0.3-2-0.6-4-0.6-6.1v-0.1h-35c0.5,0.5,34.5,1.6,34.5,1.7C-165,399.8-164.4,401.3-163.9,402.8
	L-163.9,402.8z"/>
<path class="st0" d="M-159.5,415.3L-159.5,415.3c-1.1-2-2.1-4.2-2.9-6.5h-23.9c0.6,0.5,23.8,1.6,23.8,1.6
	C-161.7,412.1-160.5,413.7-159.5,415.3L-159.5,415.3z"/>
<path class="st0" d="M-44.2,384.6H-92c0.7,2.1,1.3,4.3,1.6,6.5h1.2c-0.3-1.7-0.7-3.3-1.3-4.9C-90.4,386.2-44.6,385.1-44.2,384.6
	L-44.2,384.6z"/>
<path class="st0" d="M-88.3,398.2c0,0,32.7-1.1,33.2-1.6h-34.8v0.1c0,2.2-0.2,4.3-0.6,6.4h1.8C-88.4,401.5-88.3,399.9-88.3,398.2
	L-88.3,398.2L-88.3,398.2z"/>
<path class="st0" d="M-68.2,408.8h-23.7c-0.8,2.3-1.8,4.4-3,6.5h2.4c0.8-1.6,1.6-3.2,2.2-4.9C-90.4,410.4-68.9,409.3-68.2,408.8
	L-68.2,408.8z"/>
</svg>
