<?xml version="1.0" encoding="utf-8"?>
<!-- Generator: Adobe Illustrator 19.0.0, SVG Export Plug-In . SVG Version: 6.00 Build 0)  -->
<svg version="1.1" id="Layer_1" xmlns="http://www.w3.org/2000/svg" xmlns:xlink="http://www.w3.org/1999/xlink" x="0px" y="0px"
	 viewBox="-186 347.1 238.6 98.9" style="enable-background:new -186 347.1 238.6 98.9;" xml:space="preserve">
<style type="text/css">
	.st0{fill:#555555;}
	.st1{fill:#FFFFFF;}
	.st2{fill:#4B2510;}
</style>
<path d="M-4.3,347.9L-4.3,347.9c-4.5,0.9-9.9,2.7-14.3,4.8c0,0-0.2,0.1-0.3,0.1s-0.3-0.1-0.3-0.1c-1.6-0.6-3.2-1-4.7-1.2
	c-2.8-0.4-5.9-0.2-9,0.4c-2.6,0.5-5.4,1.4-8.5,2.8c0,0-0.5,0.2-0.8,0.4c0-0.3-0.1-1-0.1-1l-0.7,0.1l-31.6,4.3c0,0,2.1,15.1,2.1,15.6
	c-0.3,0-0.7,0-0.7,0s-2.7,0.2-4.1,0.4c-2.8,0.5-5.4,1.6-7.3,2.9c0,0-0.5,0.4-0.9,0.6c0-0.2-0.1-0.4-0.1-0.4
	c-0.9-6.8-5.1-11.7-12.1-14.1c-4.7-1.6-10.6-1.9-16.6-0.7c-4.5,0.9-9.9,2.7-14.3,4.8c0,0-0.2,0.1-0.3,0.1s-0.3-0.1-0.3-0.1
	c-1.6-0.6-3.2-1-4.7-1.2c-2.9-0.4-5.9-0.2-9,0.4c-2.6,0.5-5.4,1.4-8.5,2.8c0,0-0.5,0.2-0.8,0.4c0-0.3-0.1-1-0.1-1l-32.5,4.5
	l2.9,21.4h0.6c1.6,0,2.7,0.3,3.3,0.9c1.3,1.1,1.5,2.1,1.7,3.4c0,0,0.1,0.7,3.1,23l0,0v0.1c0,0.1,0,0.2,0,0.4c0,0.7-0.3,1.6-1.1,2.5
	c-0.4,0.5-1.1,0.9-2,1.2l-0.5,0.2l2.4,17.4l100.2-13.6c0,0-1.8-13.3-1.9-13.9c0.3,0,0.8,0.1,0.8,0.1c2.9,0.3,6.8-0.4,8.3-1h-0.1
	l0.6-0.2c0,0,0.2-0.1,0.3-0.1c0.1,0.6,1.9,13.8,1.9,13.8l98.5-13.4c0,0-3.1-22.6-3.1-23.1c0.5-0.1,10.5-1.5,10.5-1.5
	c3.8-0.5,7-2.3,9-4.9c1.3-1.7,1.9-3.5,1.9-5.3l-0.1-1.1l-3-21.7c0,0-7.2,1-7.7,1c-0.1-0.4-0.6-4.8-0.6-4.8c-0.2-1.7-0.9-2.9-2.1-3.8
	c-1.2-0.9-2.7-1.2-4.2-1c0,0-15.6,2.1-16.6,2.3c-0.1-0.1-0.2-0.2-0.2-0.2c-1.7-1.3-3.6-2.4-5.8-3.1C7.6,346.9,1.7,346.7-4.3,347.9z"
	/>
<path class="st0" d="M-4.3,348.1L-4.3,348.1c-4.5,0.9-9.8,2.7-14.3,4.8c0,0-0.2,0.1-0.4,0.2c-0.2-0.1-0.4-0.1-0.4-0.1
	c-1.6-0.6-3.1-1-4.7-1.2c-2.8-0.4-5.8-0.2-9,0.4c-2.6,0.5-5.4,1.4-8.5,2.8c0,0-0.6,0.3-1.1,0.5c0-0.3-0.1-1.1-0.1-1.1l-0.5,0.1
	l-31.3,4.3c0,0,2,14.7,2.1,15.6c-0.4,0-1,0.1-1,0.1s-2.7,0.2-4,0.4c-2.8,0.5-5.3,1.5-7.2,2.8c0,0-0.7,0.5-1.2,0.8
	c-0.1-0.4-0.1-0.8-0.1-0.8c-0.9-6.7-5.1-11.5-12-13.9c-4.7-1.6-10.5-1.9-16.5-0.7c-4.5,0.9-9.8,2.7-14.3,4.8c0,0-0.2,0.1-0.4,0.2
	c-0.2-0.1-0.4-0.1-0.4-0.1c-1.6-0.6-3.2-1-4.7-1.2c-2.8-0.3-5.8-0.2-9,0.4c-2.6,0.5-5.4,1.4-8.5,2.8c0,0-0.6,0.3-1.1,0.5
	c0-0.3-0.1-1.1-0.1-1.1l-31.5,4.3l2.9,21h0.4c1.6,0,2.8,0.3,3.5,0.9c1.4,1.2,1.6,2.3,1.8,3.6l3.1,23v0.1c0.1,0.8-0.1,2-1.1,3
	c-0.5,0.5-1.2,0.9-2.1,1.2l-0.3,0.1l2.3,17l99.7-13.6c0,0-1.7-12.9-1.9-13.9c0.5,0,1.2,0.1,1.2,0.1c2.9,0.3,6.7-0.4,8.2-1
	c0,0,0.6-0.2,1.1-0.4c0.2,1.1,1.9,13.9,1.9,13.9l0.5-0.1L34,415.4c0,0-3-22.2-3.1-23.1c0.8-0.1,10.7-1.5,10.7-1.5
	c3.8-0.5,6.9-2.2,8.9-4.8c1.2-1.6,1.9-3.4,1.9-5.2c0-0.3,0-0.7-0.1-1l-2.9-21.4c0,0-6.9,0.9-7.7,1c-0.1-0.8-0.7-5-0.7-5
	c-0.2-1.6-0.9-2.8-2-3.6c-1.1-0.8-2.5-1.2-4-0.9c0,0-14.9,2-16.8,2.3c-0.1-0.1-0.3-0.2-0.3-0.2c-1.7-1.3-3.6-2.4-5.7-3.1
	C7.6,347.1,1.7,346.9-4.3,348.1z"/>
<path class="st0" d="M-174.4,425.1c0.1,0.9-0.1,2.2-1.3,3.4c-0.6,0.6-1.5,1.1-2.3,1.4c0.3,1.9,1.9,13.9,2.2,16.1
	c2.6-0.4,96.1-13.1,98.7-13.5c-0.3-2.2-1.9-14.1-1.9-14.1l1.7,0.2c2.8,0.2,6.5-0.4,8-1l1.7-0.7c0,0,1.6,11.8,1.9,14
	c2.6-0.4,94.5-12.9,97.1-13.2c-0.3-2.4-3.1-23.1-3.1-23.1l11.2-1.5c7.1-1,10.9-6.2,10.3-10.5c0,0-2.5-18.6-2.9-21
	c-1.9,0.3-7.7,1-7.7,1l-0.7-5.5c-0.2-1.5-0.8-2.6-1.8-3.3c-1-0.7-2.3-1-3.7-0.8l-17,2.3l-0.5-0.4c-1.6-1.3-3.5-2.3-5.6-3
	c-4.6-1.6-10.4-1.8-16.3-0.7c-4.5,0.9-9.8,2.7-14.2,4.7l-0.5,0.2h-0.3c-1.6-0.6-3.1-1-4.6-1.1c-2.8-0.3-5.7-0.2-8.8,0.4
	c-2.6,0.5-5.3,1.4-8.4,2.8l-1.7,0.8c0,0-0.1-0.7-0.2-1.2c-2.4,0.3-28.5,3.9-30.9,4.2c0.3,2.3,2.1,15.7,2.1,15.7l-1.5,0.1
	c0,0-2.7,0.2-4,0.4c-2.7,0.5-5.2,1.5-7,2.8l-1.7,1.1l-0.2-1.6c-0.9-6.5-4.9-11.2-11.7-13.5c-4.6-1.6-10.4-1.8-16.3-0.7
	c-4.5,0.9-9.8,2.7-14.2,4.7l-0.5,0.3l-0.5-0.2c-1.6-0.6-3.1-1-4.6-1.1c-2.8-0.3-5.7-0.2-8.8,0.4c-2.6,0.5-5.3,1.4-8.4,2.8l-1.7,0.8
	c0,0-0.1-0.7-0.2-1.2c-2.3,0.2-28.4,3.7-30.8,4.1c0.3,2.3,2.5,18,2.7,20.1c1.2,0,2.8,0.2,3.8,1c1.5,1.3,1.8,2.5,1.9,3.9l3.1,23
	L-174.4,425.1z"/>
<path class="st1" d="M-4.2,348.6c-4.5,0.9-9.8,2.7-14.2,4.7l-0.5,0.3l-0.5-0.2c-1.6-0.6-3.1-0.9-4.6-1.1c-2.8-0.3-5.7-0.2-8.8,0.4
	c-2.6,0.5-5.3,1.4-8.4,2.8l-1.7,0.6c0,0-0.1-0.7-0.2-1.2c-2.4,0.3-28.5,3.9-30.9,4.2c0.3,2.3,2.1,15.7,2.1,15.7l-1.5,0.1
	c0,0-2.7,0.2-4,0.4c-2.7,0.5-5.2,1.5-7,2.8l-1.9,1.3l-0.2-1.6c-0.9-6.5-4.9-11.2-11.7-13.5c-4.6-1.6-10.4-1.8-16.3-0.7
	c-4.5,0.9-9.8,2.7-14.2,4.7l-0.3,0.3l-0.5-0.2c-1.6-0.6-3.1-1-4.6-1.1c-2.8-0.3-5.7-0.2-8.8,0.4c-2.6,0.5-5.3,1.4-8.4,2.8l-1.7,0.6
	c0,0-0.1-0.7-0.2-1.2c-2.4,0.3-28.4,3.9-30.8,4.2c0.3,2.3,2.5,18,2.7,20.1c1.2,0,2.8,0.2,3.8,1c1.5,1.3,1.8,2.5,1.9,3.9l3.1,23
	l-0.2-0.6c0.1,0.2,0.2,0.4,0.2,0.7c0.1,0.9-0.1,2.2-1.3,3.4c-0.6,0.6-1.5,1.1-2.3,1.4c0.3,1.9,1.9,13.9,2.2,16.1
	c2.6-0.4,96.1-13.1,98.7-13.5c-0.3-2.2-1.9-14.1-1.9-14.1l1.7,0.2c2.8,0.2,6.5-0.4,8-1l1.7-0.7c0,0,1.6,11.8,1.9,14
	c2.6-0.4,94.5-12.9,97.1-13.2c-0.3-2.4-3.1-23.1-3.1-23.1l11.2-1.5c7.1-1,10.9-6.2,10.3-10.5c0,0-2.5-18.6-2.9-21
	c-1.8,0.3-7.7,1-7.7,1l-0.7-5.5c-0.2-1.5-0.8-2.6-1.8-3.3c-1-0.8-2.3-1-3.7-0.8l-17,2.3l-0.5-0.4c-1.6-1.3-3.5-2.3-5.6-3
	C7.5,347.6,1.7,347.4-4.2,348.6z"/>
<path class="st0" d="M25.8,399.7c-1.2-0.8-2-1.9-2.1-3.1l-4.5-32.8c-0.7-4.9-3.7-8.4-8.6-10.1c-3.8-1.3-8.7-1.5-13.7-0.5
	c-4.1,0.8-10.5,2.8-15.6,5.6c-1.6-1-3.6-1.6-5.8-1.9c-2.3-0.3-4.7-0.2-7.3,0.3c-4.2,0.8-8.6,2.6-11.9,4.9l-2.8,2l-0.5-3.9l-21.4,2.9
	l1.5,11.3c2.7,0.1,5.3,1.8,5.6,4l4,29.2c0.2,1.2-0.3,2.5-1.2,3.6c-0.6,0.7-1.4,1.3-2.3,1.6l1.3,9.9l26.3-3.6l-1.3-9.9
	c-0.9-0.1-1.8-0.4-2.6-0.9c-1.2-0.8-2-1.9-2.1-3.1l-4-29.3c-0.1-0.9,0.1-1.8,0.7-2.7c1-1.5,3-2.8,5.8-3.2c3.9-0.5,6.6,1.7,6.8,3.6
	l6,44.3l22.1-3l-1.3-9.9c-0.9-0.1-1.8-0.4-2.6-0.9c-1.2-0.8-2-1.9-2.1-3.1l-4-29.2c-0.1-0.9,0.1-1.8,0.7-2.7c1-1.5,3-2.8,5.8-3.2
	c3.9-0.5,6.6,1.7,6.8,3.6l6,44.2l22.1-3l-1.3-9.9C27.5,400.5,26.6,400.2,25.8,399.7z"/>
<path class="st1" d="M-85.4,384.3c-0.6,1.4-0.7,2.8-0.6,4.3l0,0c0.3,2.4,1.4,4,2.7,5.4c-2.6,2.3-4.9,5.2-4.4,9.5c0,0.1,0,0.2,0,0.3
	c0.4,2.6,1.6,4.8,3.8,6.5c2.9,2.3,7.1,3.2,11.5,2.7c3.1-0.4,5.9-1.7,8.6-3.4c0.6,0.5,2,1.6,2,1.6l11-1.5l-2.6-19.2l-10.9,1.5
	l-0.4,1.4c-0.1,0.5-0.5,1.1-0.7,1.6c-0.5-0.4-0.5-0.4-1-0.8c2.3-2.2,4.2-5,3.7-8.6l0,0c-0.7-5.4-6.4-8.7-13.1-7.9
	C-80.4,378.3-84,380.8-85.4,384.3z"/>
<path class="st0" d="M-74.8,384c1.9-0.3,3.5,0.7,3.8,2.3c0.2,1.7-1.4,3-3.5,4.4c-1.2-0.9-3.1-2.2-3.2-3.4
	C-78,385.7-76.7,384.3-74.8,384z M-73.3,405.5c-2.7,0.4-5-0.6-5.3-3c-0.2-1.4,1.3-2.9,3.5-4.6l6.6,5.2
	C-70,404.4-71.6,405.2-73.3,405.5z M-53.9,403l-4.1,0.6l-1.6-1.2c0.7-1,1.2-2,1.7-3.2c0.1-0.4,0.3-0.7,0.4-1.1l2.8-0.4l-0.6-4.8
	l-7.3,1c-0.4,1.5-1.1,3-2,4.5l-5.4-4.2c3-2.3,5.5-4.9,5-8.4c-0.5-3.9-4.9-6.7-10.6-6c-4.1,0.5-6.8,2.7-7.8,5.3
	c-0.4,1-0.6,2.1-0.4,3.2c0.4,2.6,1.7,4,3.9,5.8c-3.3,2.3-6.1,5.1-5.6,9.1c0.6,5.3,6.2,8.4,12.8,7.5c3.4-0.4,6.5-1.8,9-3.9l2.5,1.9
	l7.9-1.1L-53.9,403z"/>
<path class="st0" d="M-84.3,414.7c-1.2-0.8-2-1.9-2.1-3.1l-4.5-32.8c-0.7-4.9-3.7-8.4-8.6-10.1c-3.8-1.3-8.7-1.5-13.7-0.5
	c-4.1,0.8-10.5,2.8-15.6,5.6c-1.6-1-3.6-1.6-5.8-1.9c-2.3-0.3-4.7-0.2-7.3,0.3c-4.2,0.8-8.6,2.6-11.9,4.9l-2.8,2l-0.5-3.9l-21.4,2.9
	l1.5,11.3c2.7,0.1,5.3,1.8,5.6,4l4,29.2c0.2,1.2-0.3,2.5-1.2,3.6c-0.6,0.7-1.4,1.3-2.3,1.6l1.3,9.9l26.4-3.6l-1.3-9.9
	c-0.9-0.1-1.8-0.4-2.6-0.9c-1.2-0.8-2-1.9-2.1-3.1l-4-29.3c-0.1-0.9,0.1-1.8,0.7-2.7c1-1.5,3-2.8,5.8-3.2c3.9-0.5,6.6,1.7,6.8,3.6
	l6,44.3l22.1-3l-1.3-9.9c-1-0.1-1.8-0.4-2.6-0.9c-1.2-0.8-2-1.9-2.1-3.1l-4-29.2c-0.1-0.9,0.1-1.8,0.7-2.7c1-1.5,3-2.8,5.8-3.2
	c3.9-0.5,6.6,1.7,6.8,3.6l6,44.2l22.1-3l-1.3-9.9C-82.6,415.5-83.5,415.2-84.3,414.7z"/>
<path class="st0" d="M25.8,399.7c-1.2-0.8-2-1.9-2.1-3.1l-4.5-32.8c-0.7-4.9-3.7-8.4-8.6-10.1c-3.8-1.3-8.7-1.5-13.7-0.5
	c-4.1,0.8-10.5,2.8-15.6,5.6c-1.6-1-3.6-1.6-5.8-1.9c-2.3-0.3-4.7-0.2-7.3,0.3c-4.2,0.8-8.6,2.6-11.9,4.9l-2.8,2l-0.5-3.9l-21.4,2.9
	l0.3,2.5l18.8-2.6l0.5,3.9l2.8-2c3.3-2.3,7.7-4.1,11.9-4.9c2.6-0.5,5.1-0.6,7.3-0.3c2.2,0.3,4.1,0.9,5.8,1.9
	c5.1-2.8,11.5-4.8,15.6-5.6c5.1-1,9.9-0.8,13.7,0.5c4.9,1.7,7.8,5.2,8.6,10.1l4.5,32.8c0.2,1.2,0.9,2.3,2.1,3.1
	c0.8,0.5,1.7,0.8,2.6,0.9l1,7.4l2.5-0.3l-1.3-9.9C27.5,400.5,26.6,400.2,25.8,399.7z"/>
<path class="st0" d="M-86.4,411.6l-4.5-32.8c-0.7-4.9-3.7-8.4-8.6-10.1c-3.8-1.3-8.7-1.5-13.7-0.5c-4.1,0.8-10.5,2.8-15.6,5.6
	c-1.6-1-3.6-1.6-5.8-1.9c-2.3-0.3-4.7-0.2-7.3,0.3c-4.2,0.8-8.6,2.6-11.9,4.9l-2.8,2l-0.5-3.9l-21.4,2.9l0.3,2.5l18.8-2.6l0.5,3.9
	l2.8-2c3.3-2.3,7.7-4.1,11.9-4.9c2.6-0.5,5.1-0.6,7.3-0.3c2.2,0.3,4.1,0.9,5.8,1.9c5.1-2.8,11.5-4.8,15.6-5.6
	c5.1-1,9.9-0.8,13.7,0.5c4.9,1.7,7.8,5.2,8.6,10.1l4.5,32.8c0.2,1.2,0.9,2.4,2.1,3.1c0.8,0.5,1.7,0.8,2.6,0.9l1,7.4l2.5-0.3
	l-1.3-9.9c-0.9-0.1-1.8-0.4-2.6-0.9C-85.5,413.9-86.3,412.8-86.4,411.6z"/>
<path class="st0" d="M49.3,377.9c-0.5-3.4-3.6-5.2-7.4-5.9c-1.7-0.3-3.3-0.5-4.8-0.8c-1-0.2-2.3-0.5-2.6-1.8
	c-0.2-1.2,0.8-2.6,3.2-2.8c3-0.3,4.9,1.7,6,3.3l3.1-0.4l-1-7.4l-4.1,0.5l-0.3,0.6c-1-0.2-2.8-0.4-5.3-0.1c-4.7,0.6-8.3,3.8-7.7,7.9
	c0.4,3.3,3.3,5,6.8,5.7c1.7,0.3,3.8,0.6,5.3,0.9c1.1,0.3,2.4,0.6,2.6,1.9c0.2,1.3-0.8,2.7-3.3,3c-3,0.4-5-1.8-6.3-3.6l-3.3,0.4
	l1,7.7l4.6-0.6l0.4-0.7c1.3,0.4,4.6,0.8,7.4-0.2C47.2,384.3,49.7,381.3,49.3,377.9z"/>
<polygon class="st0" points="24.2,356.5 29.4,355.9 27.5,362.8 22.3,363.5 "/>
<path class="st0" d="M-64.8,398.2l-4.8-3.7c-0.4,0.4-0.9,0.8-1.4,1.1l5.4,4.2C-65.4,399.3-65.1,398.8-64.8,398.2z"/>
<path class="st0" d="M-74.3,406.9c1.7-0.2,3.3-1.1,4.8-2.3l-0.4-0.3c-1.1,0.7-2.2,1.1-3.3,1.3c-2.7,0.4-5-0.6-5.3-3
	c-0.1-0.4,0.1-0.9,0.3-1.3c-1,1-1.5,1.9-1.4,2.7C-79.3,406.2-77,407.2-74.3,406.9z"/>
<path class="st0" d="M-76.6,381.2c5.8-0.8,10.1,2,10.6,6c0.2,1.6-0.2,3.1-1.1,4.4c1.5-1.7,2.5-3.6,2.1-5.8c-0.5-3.9-4.9-6.7-10.6-6
	c-3.6,0.5-6.2,2.3-7.4,4.4C-81.6,382.8-79.4,381.6-76.6,381.2z"/>
<path class="st0" d="M-62.6,394c-0.1,0.4-0.3,0.9-0.5,1.3l6.7-0.9l0.5,3.5l1.2-0.2l-0.6-4.8L-62.6,394z"/>
<path class="st0" d="M-59.5,402.4c0.6-0.9,1.1-1.9,1.6-2.9l-0.5,0.1c-0.1,0.4-0.3,0.7-0.4,1.1c-0.5,1.1-1,2.2-1.7,3.2l1.6,1.2
	l4.1-0.6l0.5,3.5l1.2-0.2l-0.6-4.7l-4.1,0.6L-59.5,402.4z"/>
<path class="st0" d="M-78.9,388.7c0.2,1.1,2,2.5,3.2,3.4c1.5-1,2.8-2,3.3-3.1c-0.6,0.6-1.4,1.1-2.2,1.7c-1.2-0.9-3.1-2.2-3.2-3.4
	c-0.1-0.4,0-0.8,0.1-1.2C-78.5,386.8-79,387.7-78.9,388.7z"/>
<path class="st0" d="M35,364.5c2.5-0.3,4.3-0.1,5.3,0.1l0.4-0.6l4.1-0.5l0.8,6.2l1.2-0.2l-1-7.4l-4.1,0.5l-0.3,0.6
	c-1-0.2-2.8-0.4-5.3-0.1c-3.1,0.4-5.6,1.9-6.9,4.1C30.5,365.8,32.6,364.8,35,364.5z"/>
<path class="st0" d="M41.8,372.1c-1.7-0.3-3.3-0.5-4.8-0.8c-1-0.2-2.3-0.5-2.6-1.8c0-0.2,0-0.5,0.1-0.7c-0.8,0.6-1.3,1.3-1.1,2.1
	c0.2,1.3,1.5,1.6,2.6,1.8c1.5,0.3,3.2,0.5,4.8,0.8c3.8,0.7,7,2.5,7.4,5.9c0.2,1.4-0.1,2.6-0.8,3.8c1.4-1.4,2.1-3.2,1.8-5.2
	C48.8,374.5,45.7,372.8,41.8,372.1z"/>
<path class="st0" d="M33.5,378.9l-3.3,0.4l0.2,1.2l2.1-0.3c1.3,1.8,3.3,4,6.3,3.6c1.9-0.3,3-1.2,3.2-2.2c-0.5,0.4-1.2,0.7-2.2,0.8
	C36.7,382.9,34.8,380.7,33.5,378.9z"/>
<polygon class="st0" points="24.2,356.5 23.8,357.9 28.3,357.3 26.8,362.9 27.5,362.8 29.4,355.9 "/>
<g>
	<path class="st0" d="M32.3,355.5c-0.3-1.9,1.1-3.7,3-4c1.9-0.3,3.7,1.1,4,3s-1.1,3.7-3,4C34.4,358.7,32.6,357.4,32.3,355.5z
		 M38.6,354.6c-0.2-1.6-1.7-2.6-3.2-2.4c-1.6,0.2-2.6,1.6-2.4,3.2c0.2,1.6,1.7,2.6,3.2,2.4C37.8,357.6,38.8,356.1,38.6,354.6z
		 M37.8,356.6l-0.9,0.1l-1.1-1.5l-0.7,0.1l0.2,1.6l-0.7,0.1l-0.5-3.7l1.8-0.3c0.3,0,0.7-0.1,1,0c0.4,0.2,0.5,0.5,0.6,0.9
		c0.1,0.7-0.2,1-0.9,1.2L37.8,356.6z M36.2,354.7c0.4-0.1,0.7-0.2,0.6-0.7c-0.1-0.5-0.6-0.4-1-0.4l-0.9,0.1l0.2,1.1L36.2,354.7z"/>
</g>
<g>
	<g>
		<g>
			<path class="st2" d="M-140.1,443.7L-140.1,443.7L-140.1,443.7z"/>
		</g>
	</g>
</g>
</svg>
