<?xml version="1.0" encoding="utf-8"?>
<!-- Generator: Adobe Illustrator 19.0.0, SVG Export Plug-In . SVG Version: 6.00 Build 0)  -->
<svg version="1.1" id="Layer_1" xmlns="http://www.w3.org/2000/svg" xmlns:xlink="http://www.w3.org/1999/xlink" x="0px" y="0px"
	 viewBox="-641.8 527.3 197 447" style="enable-background:new -641.8 527.3 197 447;" xml:space="preserve">
<style type="text/css">
	.st0{fill:#FFFFFF;}
	.st1{fill:#555555;}
</style>
<path class="st0" d="M-595.8,527.3h105c25.4,0,46,20.6,46,46v355c0,25.4-20.6,46-46,46h-105c-25.4,0-46-20.6-46-46v-355
	C-641.8,547.9-621.2,527.3-595.8,527.3z"/>
<path class="st1" d="M-516.9,609.2l0.1,1.5c3.2,1.9,4.8,3.4,8.1,5.5c8.5,5.4,18.9,15,17.6,47.9c2.4,7.2,3.5,21.2,5.7,25.7
	c4.4,8.9,7.4,14.6,8.7,22.9c0,0,1.3,13,3,13.9c8.8,2,6.3,2.9,7.5,4.5c1.4,1.7,6.5,1.7,6.5,6.4c1.8,2.4,3.2,4.8,4.1,7.3V573.7
	c0-19.6-15.8-35.4-35.4-35.4h-33.8c5.4,1.9,8.5,4.2,10.3,7.8c4.3,0.4,9.4,10.1,1.4,24.6c3.5,2.4,0.8,6-1.7,10.2
	c-0.8,1.3-1.6,3.7-4,3.5c-3.2,6.6-6.8,12.7-9.6,13.1c-0.8,1-1.4,3.8-0.1,5.1C-524.4,604.4-519.4,606.9-516.9,609.2z"/>
<path class="st1" d="M-485.3,962.9l-0.4,0.1c15.5-9.4,5.9-27.3,3-37.8l0.6-1.8c0.8-1.4-0.9-4.8-0.9-4.8c-1.9-1.6-2.4-10.4-3.4-14.4
	c-1.7-6.6,3-18,3-21.9s-3-9.2-8.3-16c-1.3-1.5-5.2-34.7-8.6-43.1c-4.8-11.6-6.3-9.7-12-23.6c-4.4-9.7-0.9-24-10.9-57.3l2.2-2.1
	c0,0-7.9-28.9-10.5-36.9c-2.5-7.9-7.2-8.4-7.2-8.4l0.3-4.1c0.4-1.2,9.6-25.3,10.4-26.1c0.1-0.5,13.4-9.6,13.6-8.3
	c1.1,5.9,6.3,35.9,8.5,40.7s9.9,19.5,13.5,28.7c-13.8,3.4-24,15.8-24,30.6c0,17.4,14.1,31.6,31.5,31.6c13.3,0,24.8-8.3,29.4-19.9
	l-0.1,160.1C-455.6,945.7-468.4,960.3-485.3,962.9z"/>
<path class="st1" d="M-535.8,538.2c-11.5,4.5-13.1,9.4-13.5,25.4c-1.9,0.2-6-1.7-4.6,8.1c0,0,0.7,6.5,3.3,5.4
	c-2,14.1-0.4,17.6-9.8,18.6c-2,0.2-4.5,0.4-7.5,0.5l-0.9,1.3c-12.8,1.2-19.2,0.4-27.4,11.3c-3.2,4.2-6.6,10.1-10.7,18.5
	c0,0-3.8,9.4-5,13.3c-3.7,7.7-12.7,24.8-15.3,35.7c-0.9,3.7-2.5,4.9-0.1,10.3c3.5,7.8-2.3,9.8,17.7,9.2v4.6c0,0-5.3,4.6-6.5,7.3
	c-1.1,2.8-4.2,16.6-4,23.1c0.4,17.1,14.3,31.3,18.4,48.3l9.3,1.3c5,11.6,27.1,42.8,32.2,47.9c0.1,0.1,0.1,0.1,0.2,0.2
	c1.2,3,6.8,6.6,10.2,10.3c2,1.9,11.3,12,23.7,21.6c4.5,3.5,9.4,7,14.5,9.9c-0.1-0.1,3,6.3,4.6,11.4c-6.3,5.1,6,14.5,9.7,30
	c0.2,2.1-3.6,4.2,2.1,9.3c-0.4,23.4-7.5,35.6,4.5,42.1H-596c-19.2-0.4-34.6-16.1-34.6-35.4v-354c0-19.4,15.5-35,34.6-35.4
	L-535.8,538.2L-535.8,538.2z"/>
<path class="st0" d="M-592.5,938.9h12v-53h-10.6v31.2h-0.1l-0.4-2.2l-8.4-29.1h-12v53h10.6V906h0.1l0.2,1.9L-592.5,938.9z"/>
<path class="st0" d="M-576.4,938.9v-53h17.4c8.9,0,13.2,3.4,13.2,12.5c0,5.6-0.8,10.5-6.7,12.5v0.1c5.9,1.1,8.1,5.5,8.1,12.2
	c0,8.9-3.3,15.8-14.2,15.8L-576.4,938.9L-576.4,938.9z"/>
<path class="st1" d="M-563.8,906.8v-12h3.8c3,0,3.7,2.1,3.7,5.8c0,3.3-0.4,6.2-4.2,6.2H-563.8L-563.8,906.8z"/>
<path class="st1" d="M-560.2,929.9c4.1,0,4.5-2,4.5-7.3c0-3.6-0.4-7.1-4.2-7.1h-3.9v14.4L-560.2,929.9L-560.2,929.9z"/>
<path class="st0" d="M-518.3,885.9l9.9,53h-12.8l0,0l-1.2-11.6h-8.4l-1.3,11.6h-12.1l9.7-53H-518.3z"/>
<path class="st1" d="M-526.3,893.9v1.3l2.8,23.8h-6.1l3.1-23.8v-1.3H-526.3z"/>
</svg>
