<?xml version="1.0" encoding="utf-8"?>
<!-- Generator: Adobe Illustrator 19.0.0, SVG Export Plug-In . SVG Version: 6.00 Build 0)  -->
<svg version="1.1" id="Layer_1" xmlns="http://www.w3.org/2000/svg" xmlns:xlink="http://www.w3.org/1999/xlink" x="0px" y="0px"
	 viewBox="-217 362.4 175.7 68.6" style="enable-background:new -217 362.4 175.7 68.6;" xml:space="preserve">
<style type="text/css">
	.st0{fill:#555555;}
	.st1{fill:#FFFFFF;}
</style>
<polygon class="st0" points="-198.1,362.4 -64.5,362.4 -64.5,431 -198.1,431 "/>
<polygon class="st1" points="-197.2,363.4 -65.4,363.4 -65.4,430 -197.2,430 "/>
<polygon class="st0" points="-195.9,364.6 -66.7,364.6 -66.7,428.8 -195.9,428.8 "/>
<path class="st0" d="M-87.2,373.8h-3.7c-1,0-1.9,0.3-2.6,1c-0.7,0.8-1.1,1.7-1.1,2.7c0,0,0,4,0,9.4c-0.1-0.1-0.1-0.2-0.3-0.3
	c-0.6-0.6-1.2-0.9-2.1-0.9l-4.5,0.1c0-2.6,0-8.4,0-8.4c0-1-0.3-1.9-1-2.6c-0.7-0.7-1.7-1-2.6-1h-3.6c-1,0-1.9,0.3-2.5,1
	c-0.7,0.7-1,1.7-1,2.6v8.3c-0.3,0-0.6,0-0.6,0c-0.8,0-1.6,0.3-2.1,0.9c-0.6,0.6-0.8,1.3-0.8,2.1c0,0,0,0.8,0,1.4
	c-0.3-0.4-0.7-0.8-1-1.2c-2.8-2.7-7.1-4.3-12.1-4.3s-9.2,1.4-11.8,4.1c-1.9,1.9-2.9,4.4-2.9,7.2c0,4.8,3.4,8.4,9.2,9.9l3.9,1
	l3.5,0.8c2,0.6,2.7,1,2.7,1.6c0,0.5-0.1,0.8-0.5,1.2c-0.7,0.6-2.1,1-4,1c-2.4,0-4.6-1.1-5.2-2.5c-0.8-2.1-2.6-2.1-3.6-2.1h-4.1
	c-0.7,0-1.4,0.3-1.9,0.8s-0.8,1.1-0.8,1.8c-0.1-0.6-0.3-1.2-0.6-1.7c-0.6-0.6-1.2-1-2.1-1h-5c-1.3,0-2.4,0.6-3.1,1.6
	c-1.2,1.8-3,2.6-5.4,2.6c-3.3,0-5.4-2.3-6.1-4.7c4.6,0,19.4,0,19.4,0c2.5,0,4-1.5,4-4c0-5.3-1.8-9.9-5-13.2c-3.1-3-7.3-4.7-12.3-4.7
	c-4.8,0-9,1.7-12.2,4.8c-3.3,3.2-5.2,8-5.2,13c0,10.4,7.5,18.2,17.4,18.2c6.9,0,14.6-3.6,16-10.5c0-0.1,0-0.2,0.1-0.3v0.2
	c0,2,0.9,4.1,2.6,5.8c3,3,7.9,4.7,13,4.7c7.6,0,15.4-3.6,15.4-11.6c0-5-3.2-8.7-9-10.2l-7.6-2c-2,0-2.8-0.5-2.8-1s0-2,3.7-2
	c2.5,0,4.3,0.8,4.8,2.1c0.8,1.8,2.5,1.8,3.2,1.8h4c1.3,0,2.6-1,2.6-2.6c0-0.3,0-0.6,0-0.8c0.4,0.3,0.9,0.4,1.4,0.4h0.6
	c0,3.7,0,14.4,0,14.4c0,3.1,1.2,6,3.3,8.1c2.1,2.1,5,3.3,8.3,3.3h3.4c1.4,0,2.6-1,3-2.3c0.2,0.4,0.5,0.8,0.8,1.2
	c0.7,0.7,1.6,1.1,2.6,1.1h3.7c2,0,3.7-1.7,3.7-3.7v-38.9c0-1-0.4-1.9-1.1-2.7C-85.3,374.1-86.2,373.8-87.2,373.8L-87.2,373.8z
	 M-160.5,393.7c2.7,0,5.1,1.7,5.9,4h-11.9C-165.7,395.4-163.4,393.7-160.5,393.7L-160.5,393.7z M-97.3,411.1h-0.6
	c-1.1,0-2-0.3-2.6-1c-0.6-0.6-1-1.5-1-2.6v-13.2c1.7,0,4.5,0,4.5,0c1,0,1.8-0.5,2.3-1.2c0,7.2,0,15,0,19.6c-0.1-0.3-0.3-0.5-0.5-0.7
	C-95.7,411.4-96.5,411.1-97.3,411.1L-97.3,411.1z"/>
<path class="st0" d="M-78.6,382.9h25.7c1.9,0,3.3-1.5,3.3-3.3v-3.2c0-1-0.3-1.9-1.1-2.5c-0.6-0.6-1.4-0.9-2.3-0.8
	c-1,0.1-24.8,2.5-25.6,2.5c-1.4,0.1-2.5,1.4-2.5,2.8v1.8c0,0.7,0.3,1.4,0.8,1.9C-79.9,382.6-79.3,382.9-78.6,382.9L-78.6,382.9z"/>
<path class="st0" d="M-48.7,402.5c0-5.3-1.8-9.9-5-13.2c-3-3-7.2-4.7-12.3-4.7c-4.8,0-9,1.7-12.1,4.8c-3.3,3.2-5.2,8-5.2,13
	c0,10.4,7.4,18.2,17.4,18.2c6.9,0,14.5-3.6,16-10.5c0.1-0.8-0.1-1.7-0.6-2.3c-0.6-0.6-1.2-1-2.1-1h-4.9c-1.2,0-2.3,0.6-3,1.6
	c-1.2,1.8-3,2.6-5.4,2.6c-3.3,0-5.4-2.3-6.1-4.7c2.4,0,19.4,0,19.4,0C-50.1,406.5-48.7,405-48.7,402.5L-48.7,402.5z M-66,393.7
	c2.8,0,5.2,1.7,6,4h-11.8C-71.1,395.4-68.7,393.7-66,393.7L-66,393.7z"/>
<path class="st0" d="M-118.1,383.1c1.7,0,3-1.4,3-3.1v-2.8c0-0.8-0.3-1.6-0.9-2.2s-1.3-0.9-2.1-0.9h-67.3c-1,0-2.1,0.4-2.8,1.2
	c-0.8,0.8-1.1,1.7-1.1,2.8l0.1,21.7c-4.1-7.4-12.4-22.3-12.9-23.4c-0.8-1.4-2.7-3-5.4-3h-5.6c-1,0-2,0.4-2.8,1.2
	c-0.7,0.7-1.1,1.7-1.1,2.8v38.7c0,1.1,0.4,2.1,1.2,2.8c0.8,0.8,1.7,1.2,2.8,1.2h3.6c2.1,0,3.9-1.8,3.9-4l-0.1-22.5
	c4.1,7.5,12.5,22.6,12.9,23.4c1.2,1.9,3.1,3,5.4,3h5.1c2.2,0,4-1.8,4-4v-33C-169.8,383.1-118.1,383.1-118.1,383.1L-118.1,383.1z"/>
<path class="st1" d="M-84.7,377.5c0-1.4-1.1-2.5-2.5-2.5h-3.7c-1.4,0-2.5,1.1-2.5,2.5v38.9c0,1.4,1.1,2.5,2.5,2.5h3.7
	c1.4,0,2.5-1.2,2.5-2.5V377.5L-84.7,377.5z"/>
<path class="st1" d="M-80,378.5v1.8c0,0.8,0.6,1.4,1.4,1.4h25.7c1.2,0,2.1-1,2.1-2.1v-3.2c0-1.2-1-2.2-2.1-2.1
	c0,0-24.8,2.4-25.6,2.5C-79.4,377-80,377.7-80,378.5L-80,378.5z"/>
<path class="st1" d="M-100.8,418.9c-6.4,0-10.4-4.9-10.4-10.3v-15.5h-1.8c-1,0-1.8-0.8-1.8-1.8v-2.6c0-1,0.8-1.7,1.8-1.7h1.8v-9.6
	c0-1.4,1.1-2.5,2.4-2.5h3.6c1.4,0,2.5,1.1,2.5,2.5v9.6h5.6c1,0,1.8,0.8,1.8,1.7v2.6c0,1-0.8,1.8-1.8,1.8h-5.6v14.4
	c0,2.8,1.7,4.8,4.8,4.8h0.6c1,0,1.9,0.8,1.9,1.9v2.8c0,1-0.9,1.9-1.9,1.9H-100.8L-100.8,418.9z"/>
<path class="st1" d="M-160.5,392.5c3.8,0,7.1,2.8,7.4,6.4H-168C-167.6,395.2-164.4,392.5-160.5,392.5v-6.6
	c-10.4,0-16.2,8.1-16.2,16.6c0,9,6.2,17,16.2,17c6.9,0,13.6-3.6,14.9-9.5c0.1-0.8-0.3-1.9-1.5-1.9h-4.9c-0.9,0-1.7,0.5-2.1,1.1
	c-1.4,2.1-3.4,3.1-6.5,3.1c-4.3,0-7.2-3.4-7.5-7.1h20.8c1.9,0,2.8-1,2.8-2.8c0-8.3-4.9-16.6-16-16.6V392.5L-160.5,392.5z"/>
<path class="st1" d="M-66,392.5c3.9,0,7.1,2.8,7.4,6.4h-14.8C-73,395.2-69.8,392.5-66,392.5v-6.6c-10.3,0-16.1,8.1-16.1,16.6
	c0,9,6.3,17,16.2,17c6.9,0,13.6-3.6,14.9-9.5c0.1-0.8-0.3-1.9-1.5-1.9h-4.9c-0.9,0-1.6,0.5-2.1,1.1c-1.4,2.1-3.4,3.1-6.4,3.1
	c-4.3,0-7.2-3.4-7.5-7.1h20.8c1.9,0,2.8-1,2.8-2.8c0-8.3-4.9-16.6-16.1-16.6L-66,392.5L-66,392.5z"/>
<path class="st1" d="M-118.1,375.3h-67.3c-1.5,0-2.8,1.2-2.8,2.8l0.2,26.4c0,0-14.5-26.2-15.2-27.5c-0.8-1.3-2.3-2.4-4.3-2.4h-5.6
	c-1.5,0-2.8,1.2-2.8,2.8v38.7c0,1.6,1.2,2.8,2.8,2.8h3.6c1.5,0,2.8-1.3,2.8-2.8l-0.2-27.1c0,0,14.6,26.4,15.2,27.5
	c0.9,1.4,2.3,2.5,4.3,2.5h5.1c1.5,0,2.8-1.2,2.8-2.8V382h61.4c1,0,1.9-0.8,1.9-1.9v-2.8C-116.2,376.2-117.1,375.3-118.1,375.3
	L-118.1,375.3z"/>
<path class="st1" d="M-129.1,392.2c3,0,5.2,1,5.9,2.9c0.4,0.8,1.1,1,2.1,1h4c0.7,0,1.4-0.6,1.4-1.4c0-4.7-5.6-8.9-13.5-8.9
	c-8.1,0-13.5,3.9-13.5,10.1c0,4.8,3.7,7.6,8.3,8.7c2.1,0.6,5.7,1.4,7.4,1.9c1.9,0.5,3.6,1,3.6,2.7c0,2.5-2.7,3.4-5.6,3.4
	c-2.8,0-5.5-1.2-6.3-3.2c-0.5-1.1-1.3-1.3-2.5-1.3h-4.1c-0.7,0-1.5,0.6-1.5,1.6v0.5c0,4.5,6.1,9.3,14.5,9.3
	c5.9,0,14.2-2.5,14.2-10.5c0-4.5-3.1-7.8-8.1-9c-1.9-0.6-6.7-1.7-7.7-2c-1.8-0.5-3.5-1-3.5-2.6C-133.9,393-131.7,392.2-129.1,392.2
	L-129.1,392.2z"/>
<path class="st0" d="M-64.9,398.3h-7.8c0,0,1.2-5.8,7.8-5V398.3L-64.9,398.3z"/>
<path class="st0" d="M-72.7,405.8h7.7v5.9C-69.4,412.1-71.6,410-72.7,405.8L-72.7,405.8z"/>
<polygon class="st0" points="-67.3,382.3 -64.9,382.3 -64.9,385.3 -67.3,385.3 "/>
<path class="st0" d="M-48.1,410.8c0-1.9,1.5-3.4,3.4-3.4s3.4,1.5,3.4,3.4c0,1.9-1.4,3.4-3.4,3.4C-46.6,414.2-48.1,412.7-48.1,410.8
	h0.6c0,1.6,1.3,2.8,2.9,2.8c1.5,0,2.8-1.2,2.8-2.8c0-1.7-1.3-2.9-2.8-2.9c-1.6,0-2.9,1.2-2.9,2.9H-48.1L-48.1,410.8z"/>
<path class="st0" d="M-45.4,410.4h0.6c0.6,0,1.2,0.1,1.2-0.4s-0.4-0.6-0.8-0.6h-1v3.3H-46v-3.9h1.6c0.7,0,1.3,0.2,1.3,1s-0.5,1-1,1
	l1,1.8h-0.6l-1-1.8h-0.7V410.4L-45.4,410.4z"/>
</svg>
