<?xml version="1.0" encoding="utf-8"?>
<!-- Generator: Adobe Illustrator 19.0.0, SVG Export Plug-In . SVG Version: 6.00 Build 0)  -->
<svg version="1.1" id="NFL" xmlns="http://www.w3.org/2000/svg" xmlns:xlink="http://www.w3.org/1999/xlink" x="0px" y="0px"
	 viewBox="-149 185.2 311.4 423.8" style="enable-background:new -149 185.2 311.4 423.8;" xml:space="preserve">
<style type="text/css">
	.st0{fill:#FFFFFF;}
	.st1{fill:#555555;}
	.st2{fill:#6D6D6D;}
</style>
<path class="st0" d="M21.3,207.1c-5.9-6.8-10.7-14.2-14.5-21.9c-3.9,7.7-8.7,15.1-14.5,21.9c-36.8,42.5-86.1,56.7-141.3,6.9v289.5
	c0.6,32.9,25.6,44,48.7,52.6l18.1,5.1c27.1,3.5,53.3,10.2,89,47.8c35.7-37.6,61.9-44.3,89-47.8l18.1-5.1
	c23.1-8.7,48.1-19.8,48.7-52.6V214C107.2,263.8,57.9,249.6,21.3,207.1z"/>
<path class="st1" d="M21.5,225.5c-5.5-6.3-10-13.2-13.6-20.4c-3.6,7.2-8.1,14.1-13.6,20.4c-33.7,38.4-90.4,43.5-129.4,12.6v255.4
	c0.5,29.7,23.4,39.8,44.6,47.6l16.5,4.6c24.8,3.2,48.9,9.3,81.7,43.4c0-0.1,0.1-0.1,0.1-0.2c0,0.1,0.1,0.1,0.1,0.2
	c32.8-34.1,56.9-40.2,81.7-43.4l16.5-4.6c21.1-7.8,44-17.9,44.6-47.6V238.1C111.7,269,55,263.9,21.5,225.5z"/>
<path class="st0" d="M42.9,254.8c0,0-44-6.4-65,27.6c-20.8,33.6-6.1,64.1-6.1,64.1s44.2,7.4,67.6-28.7
	C58.8,287.7,42.9,254.8,42.9,254.8z"/>
<g>
	<path class="st1" d="M-4.3,280.5l19.7,10.1c0.8-0.8,1.5-1.6,2.3-2.4L-2,278.1C-2.9,278.9-3.6,279.7-4.3,280.5z"/>
	<path class="st1" d="M-11,289l19.2,9.8c0.7-0.9,1.5-1.8,2.3-2.8l-19.4-9.9C-9.6,287-10.3,288-11,289z"/>
	<path class="st2" d="M-16.1,297.7l18.5,9.5c0.5-0.9,1.1-1.8,1.6-2.7l-18.7-9.5C-15.2,295.9-15.7,296.8-16.1,297.7z"/>
	<path class="st2" d="M15.2,263.8c-1,0.6-1.9,1.3-2.9,2l19,9.7c0.9-0.8,1.8-1.5,2.6-2.2L15.2,263.8z"/>
	<path class="st1" d="M3.3,273l19.6,10c0.9-0.8,1.8-1.7,2.7-2.5l-19.5-10C5.2,271.3,4.2,272.2,3.3,273z"/>
</g>
<g>
	<path class="st1" d="M25.1,270.5c11.2-9.8,20.4-16.1,20.4-16.1l-1.7-1.1c0,0-10.1,3.6-23.6,14.8L25.1,270.5z"/>
	<path class="st1" d="M-7.7,300c-13.7,21.8-22.1,46.9-22.1,46.9l2,1.2c0,0,10.5-25.7,24.1-46.1L-7.7,300z"/>
</g>
<g>
	<g>
		<polygon class="st0" points="119.4,269.7 124.2,283.2 139.2,283.2 127.2,292.7 131.8,307.3 119.4,297.9 107,306.8 111.8,292.6 
			100.2,283.2 114.7,283.2 		"/>
		<polygon class="st0" points="119.4,313.9 124.2,327.4 139.2,327.4 127.2,337 131.8,351.6 119.4,342.1 107,351 111.8,336.9 
			100.2,327.4 114.7,327.4 		"/>
		<polygon class="st0" points="71.9,313.9 76.6,327.4 91.7,327.4 79.7,337 84.3,351.6 71.9,342.1 59.6,351 64.3,336.9 52.7,327.4 
			67.2,327.4 		"/>
		<polygon class="st0" points="71.5,269.7 76.3,283.2 91.3,283.2 79.3,292.7 83.9,307.3 71.5,297.9 59.2,306.8 63.9,292.6 
			52.3,283.2 66.8,283.2 		"/>
	</g>
	<g>
		<polygon class="st0" points="-56.4,269.7 -51.7,283.2 -36.6,283.2 -48.6,292.7 -44.1,307.3 -56.4,297.9 -68.8,306.8 -64,292.6 
			-75.6,283.2 -61.2,283.2 		"/>
		<polygon class="st0" points="-56.4,313.9 -51.7,327.4 -36.6,327.4 -48.6,337 -44.1,351.6 -56.4,342.1 -68.8,351 -64,336.9 
			-75.6,327.4 -61.2,327.4 		"/>
		<polygon class="st0" points="-103.9,313.9 -99.2,327.4 -84.2,327.4 -96.1,337 -91.6,351.6 -103.9,342.1 -116.3,351 -111.5,336.9 
			-123.1,327.4 -108.7,327.4 		"/>
		<polygon class="st0" points="-104.3,269.7 -99.5,283.2 -84.5,283.2 -96.5,292.7 -91.9,307.3 -104.3,297.9 -116.6,306.8 
			-111.9,292.6 -123.5,283.2 -109,283.2 		"/>
	</g>
</g>
<path class="st0" d="M-120.9,361.4v122.7c0.5,27.3,21.1,36.5,40.1,43.7l14.9,4.3c22.4,2.9,44.1,8.5,73.6,39.8c0-0.1,0.1-0.1,0.1-0.2
	c0,0.1,0.1,0.1,0.1,0.2c29.5-31.3,51.2-36.9,73.6-39.8l14.9-4.3c19-7.2,39.7-16.4,40.1-43.7V361.4H-120.9z"/>
<path class="st1" d="M15.5,377.7H-7.3h-8.1v19.4h8.1v35.8v19.4v29.4v9.8v17.1v0.9c-5-0.6-9.3-0.9-9.3-0.9v17.6
	c0,0,10.8,1.2,18.4,3.5c6.2,1.9,21.3,8.9,21.3,8.9v-19.4c0,0-2.9-1.9-7.7-3.9v-6.6v-26.9v-29.4h11.9l2.9,8H43v-8v-9.7v-0.6V433v-8.6
	H30.2l-3.1,8.6H15.4v-35.8h15l4.9,11.4h15.4v-11.4v-7v-12.5H15.5z"/>
<path class="st1" d="M-30.1,377.7h-22.7h-6.6v19.4h6.6v47.5l-23.8-68v-0.1h-22.8h-6.5v19.4h6.5v53.7v31.8c-5.2-0.3-9.8-0.3-9.8-0.3
	l1.6,19.8c0,0,10.9,0.4,18.7,2.4c6.3,1.6,22.1,8.3,22.1,8.3l-1.8-21.9c0,0-3.1-1.9-8-3.8v-36.4v-4.1L-52,516l21.9,6.8v-0.1v-12.9
	V397.1h6.3v-19.4H-30.1z"/>
<path class="st1" d="M105.5,458.1v27.6c-6,1.3-12.5,2.9-18,4.4v-1.8v-21.7V397l6.6-3v-16.4h-6.6H76.4h-0.6H64.7h-6.6V394l6.6,3v69.6
	v21.7v10.9c-3.9,2-7.2,4-9.8,5.6V527c7.2-4.2,25.1-14.3,33.8-17.8c16.7-6.7,34.7-8.3,34.7-8.3v-1.7v-17.3V458L105.5,458.1
	L105.5,458.1z"/>
</svg>
