<?xml version="1.0" encoding="utf-8"?>
<!-- Generator: Adobe Illustrator 19.0.0, SVG Export Plug-In . SVG Version: 6.00 Build 0)  -->
<svg version="1.1" id="Layer_1" xmlns="http://www.w3.org/2000/svg" xmlns:xlink="http://www.w3.org/1999/xlink" x="0px" y="0px"
	 viewBox="99 -8.5 809.5 809.5" style="enable-background:new 99 -8.5 809.5 809.5;" xml:space="preserve">
<style type="text/css">
	.st0{fill:#555555;}
	.st1{fill:#FFFFFF;}
</style>
<path class="st0" d="M908.5,396.2c0,223.6-181.2,404.8-404.7,404.8C280.2,801,99,619.8,99,396.2C99,172.7,280.2-8.5,503.8-8.5
	C727.3-8.5,908.5,172.7,908.5,396.2"/>
<polygon class="st1" points="651.7,364.2 610.2,364.2 610.2,382.8 651.7,382.7 651.7,407.7 610.2,407.7 610.2,428.3 651.7,428.3 
	651.7,462.8 567,462.8 567,330.7 651.7,330.7 "/>
<path class="st1" d="M725.2,426.6c0,0.1,16.5-33.9,16.5-33.9s16.2,34,16.2,33.9H725.2z M741.8,319.8c-26.8,47.2-79.5,143-79.5,143
	h45.2l7.3-14.4h53.9l7.1,14.4h45.5L741.8,319.8z"/>
<path class="st1" d="M484.3,389.9l29.6-59.2h46c0.2,0-75.7,141.9-75.7,141.9l-75.6-141.9h46.1C454.8,330.7,481.9,385.8,484.3,389.9"
	/>
<path class="st1" d="M401.7,462.8h-43.2V330.7c0,0,43.2,0.2,43.2,0V462.8z"/>
<polygon class="st1" points="276.3,381.8 276.3,330.7 319.5,330.7 319.5,472.6 249.3,411.6 249.3,462.8 206.1,462.8 206.1,320.7 "/>
</svg>
