<?xml version="1.0" encoding="UTF-8" ?>
<!DOCTYPE svg PUBLIC "-//W3C//DTD SVG 1.1//EN" "http://www.w3.org/Graphics/SVG/1.1/DTD/svg11.dtd">
<svg width="290pt" height="290pt" viewBox="0 0 290 290" version="1.1" xmlns="http://www.w3.org/2000/svg">
<path fill="#ffffff" d=" M 0.00 0.00 L 290.00 0.00 L 290.00 290.00 L 0.00 290.00 L 0.00 0.00 Z" />
<path fill="#1a181c" d=" M 60.20 105.13 C 62.23 96.27 76.11 95.58 80.68 102.65 C 79.59 102.89 78.46 102.85 77.36 102.83 C 73.19 98.29 62.99 99.86 62.96 106.93 C 62.11 115.82 77.41 116.90 78.75 108.50 C 74.66 108.34 70.56 108.51 66.47 108.43 C 66.38 107.84 66.20 106.67 66.11 106.08 C 71.32 106.11 76.55 105.90 81.75 106.18 C 81.93 109.49 80.70 113.03 77.77 114.84 C 74.05 117.01 69.28 117.07 65.32 115.56 C 61.26 114.01 59.21 109.25 60.20 105.13 Z" />
<path fill="#1a181c" d=" M 89.63 98.47 C 90.89 98.26 92.19 98.36 93.47 98.42 C 96.40 104.31 99.37 110.20 102.29 116.10 C 101.50 116.10 99.92 116.11 99.13 116.11 C 97.84 113.59 96.67 111.00 95.40 108.47 C 92.83 108.42 90.26 108.41 87.70 108.48 C 86.44 111.01 85.33 113.61 84.01 116.11 C 83.22 116.11 81.64 116.11 80.85 116.11 C 83.79 110.23 86.72 104.36 89.63 98.47 Z" />
<path fill="#1a181c" d=" M 140.13 98.38 C 140.84 98.38 142.25 98.37 142.95 98.37 C 143.21 104.26 143.00 110.20 143.05 116.12 C 141.63 116.13 140.22 116.13 138.81 116.12 C 134.99 111.19 131.28 106.19 127.51 101.22 C 127.47 106.19 127.53 111.15 127.49 116.12 C 126.76 116.12 125.30 116.12 124.58 116.12 C 124.54 110.21 124.57 104.30 124.56 98.39 C 125.98 98.35 127.40 98.35 128.82 98.38 C 132.64 103.27 136.25 108.33 140.11 113.19 C 140.14 108.25 140.09 103.32 140.13 98.38 Z" />
<path fill="#1a181c" d=" M 156.47 99.50 C 160.25 97.49 165.02 97.47 168.93 99.14 C 172.42 100.69 174.41 104.74 173.77 108.46 C 168.74 108.41 163.70 108.46 158.66 108.43 C 158.57 107.85 158.37 106.70 158.28 106.12 C 162.47 105.83 166.74 106.38 170.90 105.84 C 169.74 100.15 162.10 98.85 157.81 101.78 C 153.89 104.36 154.31 111.31 158.65 113.26 C 162.18 114.95 166.80 114.45 169.65 111.67 C 170.46 111.68 172.10 111.70 172.91 111.71 C 169.56 117.31 161.36 117.79 156.11 114.83 C 150.70 111.57 150.87 102.47 156.47 99.50 Z" />
<path fill="#1a181c" d=" M 176.51 98.39 C 181.34 98.61 186.32 97.80 191.06 98.89 C 195.09 100.14 194.70 106.39 190.70 107.44 C 193.45 109.51 193.99 113.05 195.00 116.11 C 194.24 116.11 192.70 116.11 191.93 116.11 C 190.75 113.54 190.74 109.54 187.58 108.55 C 184.88 108.32 182.15 108.48 179.45 108.45 C 179.42 111.01 179.47 113.56 179.43 116.12 C 178.72 116.12 177.28 116.12 176.57 116.13 C 176.41 110.22 176.53 104.30 176.51 98.39 Z" />
<path fill="#1a181c" d=" M 103.76 98.39 C 108.48 98.53 113.28 97.99 117.96 98.72 C 122.22 99.69 122.24 106.33 118.00 107.37 C 120.68 109.54 121.32 113.02 122.32 116.12 C 121.54 116.11 119.98 116.10 119.19 116.09 C 118.06 113.53 118.04 109.75 115.05 108.56 C 112.30 108.30 109.52 108.49 106.76 108.46 C 106.73 111.01 106.78 113.55 106.75 116.10 C 106.00 116.11 104.51 116.11 103.76 116.11 C 103.74 110.20 103.75 104.29 103.76 98.39 Z" />
<path fill="#1a181c" d=" M 146.63 98.38 C 147.36 98.38 148.83 98.38 149.56 98.38 C 149.57 104.29 149.57 110.21 149.56 116.12 C 148.83 116.12 147.37 116.12 146.64 116.12 C 146.60 110.20 146.63 104.29 146.63 98.38 Z" />
<path fill="#ffffff" d=" M 88.86 106.05 C 89.73 104.17 90.57 102.27 91.59 100.46 C 92.40 102.35 93.37 104.16 94.22 106.04 C 92.43 106.07 90.64 106.06 88.86 106.05 Z" />
<path fill="#ffffff" d=" M 106.77 100.77 C 110.11 100.93 113.56 100.35 116.83 101.11 C 119.17 102.03 118.46 105.79 116.01 105.98 C 112.93 106.15 109.85 106.02 106.77 106.04 C 106.74 104.28 106.75 102.53 106.77 100.77 Z" />
<path fill="#ffffff" d=" M 179.46 100.76 C 182.63 100.86 185.84 100.54 188.99 100.93 C 191.59 101.32 191.60 105.29 189.11 105.90 C 185.91 106.24 182.67 105.97 179.46 106.04 C 179.43 104.28 179.42 102.52 179.46 100.76 Z" />
<path fill="#c3007b" d=" M 161.16 131.27 C 163.81 129.76 167.55 131.89 167.52 134.96 C 167.86 138.23 163.79 140.70 161.03 138.94 C 158.03 137.46 158.14 132.67 161.16 131.27 Z" />
<path fill="#9a9a98" d=" M 71.51 137.51 C 75.76 134.19 81.21 132.59 86.57 132.49 C 86.52 134.35 86.49 136.23 86.37 138.09 C 81.50 138.68 76.66 140.39 73.02 143.78 C 72.57 141.68 72.09 139.58 71.51 137.51 Z" />
<path fill="#cfcecd" d=" M 86.57 132.49 C 92.99 131.30 99.51 134.63 105.29 137.32 L 104.39 138.31 C 103.22 139.82 103.40 141.99 102.53 143.67 C 98.07 139.97 92.20 137.53 86.37 138.09 C 86.49 136.23 86.52 134.35 86.57 132.49 Z" />
<path fill="#1a181c" d=" M 127.41 133.12 C 128.81 133.75 130.42 134.46 130.73 136.16 C 130.82 144.76 130.69 153.36 130.79 161.97 C 130.83 167.83 133.48 173.54 137.79 177.48 L 137.74 178.27 C 132.64 173.86 128.63 167.79 128.51 160.84 C 128.41 152.14 128.51 143.43 128.46 134.73 C 128.20 134.33 127.67 133.52 127.41 133.12 Z" />
<path fill="#cfcecd" d=" M 203.62 133.54 C 207.93 132.77 212.16 134.13 215.96 136.08 L 216.16 136.68 C 217.11 139.30 218.06 142.03 216.51 144.66 C 213.18 141.02 208.40 139.07 203.61 138.26 C 203.62 136.69 203.60 135.11 203.62 133.54 Z" />
<path fill="#cfcecd" d=" M 179.75 141.69 C 183.12 138.16 187.38 134.82 192.38 134.32 C 192.71 136.02 193.52 137.64 193.44 139.40 C 186.53 141.89 180.94 147.94 179.40 155.17 C 177.58 162.40 180.13 170.42 185.49 175.54 C 186.34 176.26 187.07 177.45 188.34 177.36 C 190.77 178.51 192.79 180.61 195.29 181.78 C 195.38 183.56 195.33 185.33 195.38 187.11 C 188.68 186.28 183.25 181.71 178.68 177.19 C 170.60 167.31 170.90 151.20 179.75 141.69 Z" />
<path fill="#cfcecd" d=" M 126.45 135.88 C 126.95 135.59 127.96 135.02 128.46 134.73 C 128.51 143.43 128.41 152.14 128.51 160.84 C 128.63 167.79 132.64 173.86 137.74 178.27 C 138.73 179.46 139.75 180.63 140.62 181.92 C 140.36 182.82 139.83 184.63 139.57 185.53 C 135.39 183.92 132.24 180.63 128.75 178.10 C 127.02 176.70 124.98 173.41 127.32 171.49 C 127.01 170.64 126.69 169.80 126.36 168.96 C 128.65 166.06 125.84 163.16 126.39 160.00 C 126.44 151.96 126.34 143.92 126.45 135.88 Z" />
<path fill="#9a9a98" d=" M 216.16 136.68 C 217.88 137.17 219.18 138.46 220.58 139.49 L 220.63 139.77 C 220.66 139.94 220.73 140.30 220.76 140.47 C 225.43 145.47 228.52 152.12 228.39 159.04 C 228.35 168.03 228.53 177.04 228.29 186.02 C 227.53 187.84 225.48 187.35 223.94 187.40 C 223.14 186.40 222.77 185.27 222.82 184.02 C 222.75 175.32 222.97 166.61 222.71 157.92 C 222.50 153.46 220.19 149.46 217.09 146.43 C 216.86 145.85 216.67 145.26 216.51 144.66 C 218.06 142.03 217.11 139.30 216.16 136.68 Z" />
<path fill="#7c7c7a" d=" M 59.99 158.93 C 60.10 150.48 64.71 142.42 71.51 137.51 C 72.09 139.58 72.57 141.68 73.02 143.78 C 65.63 150.48 63.63 162.12 68.72 170.77 C 68.92 173.39 68.54 176.04 67.20 178.35 L 66.03 177.66 C 61.97 172.44 59.68 165.60 59.99 158.93 Z" />
<path fill="#1a181c" d=" M 73.02 143.78 C 76.66 140.39 81.50 138.68 86.37 138.09 C 92.20 137.53 98.07 139.97 102.53 143.67 C 104.31 145.38 106.12 147.18 107.27 149.39 C 104.35 146.04 100.88 142.98 96.57 141.60 C 88.17 138.55 78.08 141.57 72.72 148.70 C 66.85 155.95 66.61 167.37 72.71 174.54 C 70.73 175.40 69.76 172.03 68.72 170.77 C 63.63 162.12 65.63 150.48 73.02 143.78 Z" />
<path fill="#ffffff" d=" M 102.53 143.67 C 103.40 141.99 103.22 139.82 104.39 138.31 C 109.01 140.70 111.88 145.47 113.82 150.14 C 117.82 160.13 115.02 172.10 107.46 179.63 C 107.53 177.25 107.66 174.85 107.48 172.47 C 107.24 172.46 106.75 172.43 106.50 172.42 C 104.14 174.76 101.93 177.38 98.88 178.88 C 95.92 180.64 92.44 181.02 89.23 182.11 C 82.92 182.61 76.77 179.28 72.71 174.54 C 66.61 167.37 66.85 155.95 72.72 148.70 C 78.08 141.57 88.17 138.55 96.57 141.60 C 100.88 142.98 104.35 146.04 107.27 149.39 C 106.12 147.18 104.31 145.38 102.53 143.67 Z" />
<path fill="#1a181c" d=" M 104.39 138.31 C 105.85 138.09 106.83 139.35 107.90 140.09 C 113.77 144.99 117.52 152.34 117.93 159.98 C 118.62 169.39 114.12 178.93 106.49 184.45 C 99.61 189.64 90.28 191.32 81.99 188.99 C 75.53 187.27 69.90 183.06 66.03 177.66 L 67.20 178.35 C 72.66 184.68 81.14 188.32 89.51 187.46 C 96.21 187.31 102.75 184.38 107.46 179.63 C 115.02 172.10 117.82 160.13 113.82 150.14 C 111.88 145.47 109.01 140.70 104.39 138.31 Z" />
<path fill="#1a181c" d=" M 193.44 139.40 C 196.62 138.07 200.22 137.90 203.61 138.26 C 208.40 139.07 213.18 141.02 216.51 144.66 C 216.67 145.26 216.86 145.85 217.09 146.43 C 209.40 137.99 194.63 138.75 187.11 147.10 C 178.99 155.15 179.31 170.15 188.34 177.36 C 187.07 177.45 186.34 176.26 185.49 175.54 C 180.13 170.42 177.58 162.40 179.40 155.17 C 180.94 147.94 186.53 141.89 193.44 139.40 Z" />
<path fill="#1a181c" d=" M 220.76 140.47 C 220.73 140.30 220.66 139.94 220.63 139.77 C 226.84 144.97 230.88 152.79 231.00 160.95 C 230.99 169.68 231.02 178.41 230.99 187.13 C 230.47 190.86 224.94 190.85 223.94 187.40 C 225.48 187.35 227.53 187.84 228.29 186.02 C 228.53 177.04 228.35 168.03 228.39 159.04 C 228.52 152.12 225.43 145.47 220.76 140.47 Z" />
<path fill="#9a9a98" d=" M 160.23 145.98 C 161.02 143.11 164.42 143.60 166.31 145.07 C 165.85 158.36 166.30 171.70 166.08 185.01 C 166.16 187.56 163.21 187.54 161.41 187.49 L 161.17 187.48 C 160.68 186.40 159.97 185.31 160.16 184.07 C 160.22 171.37 160.07 158.67 160.23 145.98 Z" />
<path fill="#1a181c" d=" M 166.08 185.01 C 166.30 171.70 165.85 158.36 166.31 145.07 C 166.78 145.58 167.73 146.60 168.20 147.11 C 168.75 160.33 168.30 173.67 168.43 186.94 C 168.20 190.72 162.40 191.06 161.41 187.49 C 163.21 187.54 166.16 187.56 166.08 185.01 Z" />
<path fill="#9a9a98" d=" M 67.20 178.35 C 68.54 176.04 68.92 173.39 68.72 170.77 C 69.76 172.03 70.73 175.40 72.71 174.54 C 76.77 179.28 82.92 182.61 89.23 182.11 C 89.31 183.89 89.37 185.67 89.51 187.46 C 81.14 188.32 72.66 184.68 67.20 178.35 Z" />
<path fill="#cfcecd" d=" M 106.50 172.42 C 106.75 172.43 107.24 172.46 107.48 172.47 C 107.66 174.85 107.53 177.25 107.46 179.63 C 102.75 184.38 96.21 187.31 89.51 187.46 C 89.37 185.67 89.31 183.89 89.23 182.11 C 92.44 181.02 95.92 180.64 98.88 178.88 C 101.93 177.38 104.14 174.76 106.50 172.42 Z" />
<path fill="#1a181c" d=" M 178.68 177.19 C 183.25 181.71 188.68 186.28 195.38 187.11 C 199.88 187.68 204.50 187.60 208.91 186.45 C 211.21 185.99 214.97 184.56 213.51 181.47 L 214.15 181.10 C 217.05 182.35 216.79 186.93 213.78 187.75 C 201.46 193.28 186.05 188.36 178.68 177.19 Z" />
<path fill="#1a181c" d=" M 128.75 178.10 C 132.24 180.63 135.39 183.92 139.57 185.53 C 143.09 187.27 147.13 187.52 151.00 187.42 C 153.26 187.40 153.59 184.70 153.12 183.02 C 155.45 183.80 156.59 186.93 154.85 188.83 C 153.07 190.81 150.16 189.83 147.88 189.69 C 140.20 188.68 133.51 184.05 128.75 178.10 Z" />
<path fill="#9a9a98" d=" M 137.74 178.27 L 138.53 177.71 C 140.74 179.65 143.43 181.08 146.37 181.48 C 148.63 181.98 151.27 181.29 153.12 183.02 C 153.59 184.70 153.26 187.40 151.00 187.42 C 147.13 187.52 143.09 187.27 139.57 185.53 C 139.83 184.63 140.36 182.82 140.62 181.92 C 139.75 180.63 138.73 179.46 137.74 178.27 Z" />
<path fill="#cfcecd" d=" M 208.35 180.78 C 210.16 179.08 212.48 179.86 214.33 180.99 L 214.15 181.10 L 213.51 181.47 C 214.97 184.56 211.21 185.99 208.91 186.45 C 207.43 184.94 208.33 182.63 208.35 180.78 Z" />
</svg>
