<?xml version="1.0" encoding="utf-8"?>
<!-- Generator: Adobe Illustrator 19.0.0, SVG Export Plug-In . SVG Version: 6.00 Build 0)  -->
<svg version="1.1" id="Layer_1" xmlns="http://www.w3.org/2000/svg" xmlns:xlink="http://www.w3.org/1999/xlink" x="0px" y="0px"
	 viewBox="145 250.6 901.3 292.4" style="enable-background:new 145 250.6 901.3 292.4;" xml:space="preserve">
<style type="text/css">
	.st0{fill:#555555;}
	.st1{fill:#FFFEF0;}
	.st2{fill:#FFFFFF;}
	.st3{fill:#EEEEEE;}
	.st4{fill:#A2A0A0;}
	.st5{fill:#B19C9E;}
	.st6{fill:#FFFDE1;}
	.st7{fill:#FFFEF2;}
</style>
<path class="st0" d="M633.1,250.9c5.7-0.1,11.4,0.1,17.1,0.5c9.8,0.4,19.6,0.3,29.3,1.4c-3.7,0.3-7.4,0.6-11.2,0.7
	c-0.2,5.4-0.2,10.8-0.2,16.2c-3.4-0.2-6.9-0.2-10.2,0.6c11.5,1.7,23.1,1,34.6,2.2c-0.6,0.5-1.9,1.5-2.5,2
	c-43.9-2.4-87.9-3.7-131.8-2.3c-28.6,0.6-57.3,2.1-85.8,4.3c-0.6-0.5-1.8-1.4-2.4-1.9c18.7-1.5,37.4-2.7,56.1-3.3
	c13.3-1,26.7-0.5,40-1.3c28.3-0.5,56.7-0.2,85,0.7c2.8,0.2,5.6,0,8.3-0.8c-7.9-1.7-15.9-0.8-23.9-1.4c-2.1-0.6-4.2-1.4-6.3-2.1
	c-0.2-4.7-0.2-9.4,0-14.1c3.4-0.1,6.7-0.3,10.1-0.5C637.3,251.5,635.2,251.1,633.1,250.9L633.1,250.9z"/>
<path class="st0" d="M512,252.7c13.4-1.2,26.9-1.4,40.3-1.3c0.7,0.3,2.1,0.9,2.7,1.1c0.3,5.4,0.3,10.8-0.5,16.1
	c-12.8-0.1-25.5,1-38.2,1.2c-0.6-5.7-0.3-11.5,3.1-16.3C516.9,253.3,514.5,253,512,252.7L512,252.7z"/>
<path class="st0" d="M551.3,251.1c14.3-0.7,28.6-0.3,42.9-0.4c13,0.1,25.9-0.3,38.9,0.2c2.1,0.3,4.2,0.6,6.4,1
	c-3.4,0.3-6.7,0.4-10.1,0.5c-0.2,4.7-0.2,9.4,0,14.1c2.1,0.7,4.2,1.4,6.3,2.1c-13.5,0.2-26.9-0.8-40.4-0.6
	c-13.6-0.2-27.2,0.6-40.7,0.7c0.8-5.3,0.9-10.7,0.5-16.1c-0.7-0.3-2.1-0.8-2.7-1.1L551.3,251.1L551.3,251.1z"/>
<path class="st0" d="M469.3,255.7c6.9-1.4,13.9-1.2,20.9-1.9c7.2-0.2,14.5-1.2,21.8-1.1c2.5,0.2,5,0.6,7.4,0.9
	c-3.4,4.8-3.8,10.6-3.1,16.3c-11.6,0.7-23.3,1.3-34.9,2.2c0.2-0.9,0.4-1.8,0.6-2.7c-2.2-0.2-4.4-0.4-6.5-0.6
	c-0.1-3.7-0.3-7.4-0.4-11C473.1,257.1,471.2,256.4,469.3,255.7L469.3,255.7z"/>
<path class="st0" d="M668.3,253.5c3.7-0.1,7.4-0.4,11.2-0.7c11.4,0.1,22.7,1.2,34.1,1.9c-4.2,5.9-11.1,9.8-13.6,16.9
	c-10.6-0.7-21.2-1.2-31.8-1.8C668.1,264.3,668.2,258.9,668.3,253.5L668.3,253.5z"/>
<path class="st0" d="M456.2,256.5c4.4-0.3,8.7-1.2,13.1-0.8c1.9,0.7,3.8,1.4,5.7,2.1c0.1,3.7,0.3,7.3,0.4,11
	c2.2,0.2,4.4,0.4,6.5,0.6c-0.2,0.9-0.4,1.8-0.6,2.7c-13,0.9-26,2.1-39,3.2c-0.6-0.1-1.9-0.2-2.6-0.3c0.1-2.8,0.2-5.7,0.3-8.5
	c-1.3-0.3-2.5-0.6-3.8-0.9c-0.1-2.5-0.2-4.9-0.3-7.4C442.8,257.6,449.5,256.9,456.2,256.5L456.2,256.5z"/>
<path class="st0" d="M713.6,254.7c10.3,0.8,20.6,1.4,30.9,2.7c-5.1,0.6-9,4.2-12,8.1c-1.8,2-0.9,4.9-1,7.4c-1.5,0.2-3,0.4-4.6,0.6
	c-9-0.5-18-1.5-27-2C702.5,264.5,709.3,260.6,713.6,254.7L713.6,254.7z"/>
<path class="st0" d="M391.8,263.6c14.7-2.4,29.5-3.8,44.3-5.3c0.1,2.5,0.2,4.9,0.3,7.4c1.3,0.3,2.5,0.6,3.8,0.9
	c-0.1,2.8-0.2,5.6-0.3,8.5c0.6,0.1,1.9,0.2,2.6,0.3c-15,1.4-30,3.4-45,5c-0.6,0-1.8-0.1-2.4-0.1c2-5,1.4-10.5,1.1-15.8
	C394.6,264.2,393.2,263.9,391.8,263.6L391.8,263.6z"/>
<path class="st0" d="M732.5,265.5c3-3.9,6.9-7.6,12-8.1c11.7,0.8,23.4,2.2,35.1,3.6c-3.4,4.1-7.5,7.5-11,11.5
	c-1.3,1.3-0.8,3.3-0.9,5c-13.5-1.5-27.1-2.7-40.7-3.9c1.5-0.2,3-0.4,4.6-0.6C731.5,270.4,730.7,267.6,732.5,265.5L732.5,265.5z"/>
<path class="st0" d="M779.6,261c23.9,2.6,47.6,6.1,71.4,9.8l0.4,0.5c0.5,0.6,1,1.1,1.5,1.7c-2.1,2.2-4.6,4.1-6.1,6.7
	c-0.8,2.3-0.7,4.8-1,7.2c-0.7,0.2-2.1,0.4-2.9,0.6c-25-3.9-50.1-7.3-75.3-10.1c0.2-1.7-0.4-3.6,0.9-5
	C772.1,268.5,776.2,265.1,779.6,261L779.6,261z"/>
<path class="st0" d="M383.1,264.4c2.9-0.4,5.7-1,8.6-0.9c1.4,0.3,2.8,0.6,4.3,0.9c0.3,5.3,0.9,10.7-1.1,15.8c0.6,0,1.8,0.1,2.4,0.1
	c-16.9,2.1-33.6,4.6-50.4,7.3c3.9-5.3,1.3-12.3,2.8-18.3C360.9,267.6,372,266,383.1,264.4L383.1,264.4z"/>
<path class="st0" d="M297.8,278.6c17.2-3.8,34.6-6.5,52-9.3c-1.5,6,1.1,13-2.8,18.3c-15.1,2.2-30,5.2-45,7.9
	c0.2-5.3,0.2-10.7,0.1-16C300.6,279.2,299.2,278.9,297.8,278.6L297.8,278.6z"/>
<path class="st1" d="M657.9,270.3c3.3-0.8,6.8-0.8,10.2-0.6c10.6,0.6,21.2,1.1,31.8,1.8c9,0.5,18,1.4,27,2
	c13.6,1.2,27.1,2.4,40.7,3.9c25.2,2.7,50.3,6.2,75.3,10.1c11.9,1.9,23.7,3.9,35.6,6.2c24,4.2,47.9,9.5,71.7,15.1
	c11.4,2.6,22.6,5.6,33.9,8.5c11.8,3.2,23.5,6.4,35.2,9.8c-12.6,21.1-25.9,41.8-38.6,62.8c6.1,26.2,11.9,52.4,17.5,78.6
	c-1.4-0.4-2.8-0.8-4.2-1.2c-20.3-6.2-40.9-11.8-61.5-17.1c-11-2.8-22-5.3-33.1-7.8c-15.3-3.3-30.6-6.6-46-9.3
	c-13.6-2.7-27.4-4.9-41.1-7c-13.4-2.2-26.8-4-40.2-5.6c-24.4-3-48.9-5.7-73.4-6.9c-0.5-0.7-1-1.4-1.4-2.1
	c50.6,4,101.2,9.9,151.1,19.2c50,9,99.4,21.1,147.9,35.9c-3.9-19.6-8.7-39.1-12.9-58.7c-1.1-6.3-3.4-12.3-3.8-18.7
	c3-6.3,7.3-11.9,10.8-17.9c8.9-14.5,18-28.9,26.9-43.5c-44.6-13.1-90.1-23.6-135.9-32.2c-62.3-12-125.5-19.1-188.9-23.1
	C681.1,271.3,669.4,272,657.9,270.3L657.9,270.3z"/>
<path class="st0" d="M558.3,272.1c43.9-1.4,87.9-0.1,131.8,2.3c63.4,3.6,126.5,11.4,188.9,22.8c45.5,8.4,90.6,19.1,135,32
	c-10.1,17-20.8,33.7-31.1,50.6c-1.8,3.1-4.3,5.9-5.4,9.4c0.1,3.7,1.3,7.3,2,11c4.7,21.1,9.6,42.3,14.1,63.4
	c-81.6-24.5-165.6-41-250.4-49.5c-15.5-1.4-31.1-3.2-46.7-3.7l-0.4-0.7c-2.4-1.1-5-1.1-7.5-0.8c-11.6,0.3-23.2-1.6-34.8-1.1
	c8.1,4.4,17.7,1.6,26.5,3.1c-4.1-0.6-8.2,0-12.3,0.5c-2.8,0-5.6-0.2-8.4-0.2c2.3,1.6,4.7,3.2,7.1,4.6c5,2.9,9.8,6.1,14.7,9.1
	c2.1,1.5,5.1,3,4.9,6c-0.1,1.7,0.5,4.1-0.8,5.4c-5,1.8-10.2-0.5-15.3-0.9c-4.7-0.2-9.3-1.2-14-0.8c-3.4,0.2-6.7-0.6-9.8-1.9
	c-5.9-2.4-11.9-4.7-18.2-5.9c-5.1-0.8-10.2-0.7-15.2-1.7c-5.9-1.3-10.7-5.1-15.9-8.1c-14.5-8-26.9-19.2-40.2-29
	c-1-0.7-2.1-1.2-3.1-1.8c-3.6,0.6-6.2,3.2-9,5.3c-12.7,10.1-25.3,20.5-37.5,31.1c-0.2,0.2-0.7,0.5-1,0.7c-0.7,0.5-2.2,1.5-2.9,2
	c-3.4-5.6,3.8-9.6,7-13.2c-0.9,0-2.8,0.1-3.7,0.2l1.1-1.2c2.6,0,5-0.9,7-2.6c-51.1,2.6-102,8.2-152.4,16.5
	c-8.1,1.4-16.3,2.5-24.3,4.4c-47.4,8.8-94.3,20.2-140.5,34c5.2-24.1,10.7-48.1,16-72.2c0.4-1.4,0.3-2.9-0.5-4.1
	c-11.9-19.5-24.2-38.6-35.9-58.2c33.1-9.5,66.5-18,100.2-25c64.3-13.4,129.5-22.9,195-27.7C501,274.2,529.6,272.7,558.3,272.1
	L558.3,272.1z"/>
<path class="st0" d="M851.4,271.2c7.1,0.5,14,2.2,20.9,3.3c8.7,1.6,17.4,3,26.1,5c-2.8,0.4-5.9,0.8-8,2.9c-4,3.7-7.3,8.3-11.9,11.3
	c-11.8-2.3-23.7-4.3-35.6-6.2c0.7-0.2,2.2-0.4,2.9-0.6c0.2-2.4,0.2-4.9,1-7.2c1.6-2.6,4-4.6,6.1-6.7
	C852.4,272.4,851.9,271.8,851.4,271.2L851.4,271.2z"/>
<path class="st0" d="M690.1,274.5c0.6-0.5,1.9-1.5,2.5-2c63.3,4,126.5,11.1,188.9,23.1c-0.6,0.4-1.9,1.3-2.5,1.7
	C816.5,285.9,753.4,278,690.1,274.5L690.1,274.5z"/>
<path class="st0" d="M506.2,276.2c59.3-3.3,118.8-3.2,178.1-0.1c5.2,0.6,10.4,0.5,15.6,0.7v0.6c-12.8,0.2-25.7,0-38.5-0.1
	c-0.4,10.6,0.2,21.2-0.3,31.7c-9.1-2.4-18.9-4.5-28.2-1.6c-6.8,2.2-12.2,7.3-15.8,13.3c-3.3,4.1-5.7,8.7-7.6,13.6
	c-1.5-9-5-18.6-13.2-23.6c-8.7-5.5-19.4-4.3-29.2-4.1c-4.3,0.2-8.6-0.2-12.9,0.2c1.7-0.6,3.4-1.1,5.1-1.5c-0.7-9.7,0-19.5-0.4-29.2
	c-9-0.1-18-0.6-26.9,0.7c-13.7,0.6-27.5,0.7-41.2,0.4C496,276.2,501.2,277,506.2,276.2L506.2,276.2z"/>
<path class="st0" d="M275,302.6c64.2-13.9,129.5-22.8,195-28c0.6,0.5,1.8,1.4,2.4,1.9c-65.5,4.9-130.7,14.4-195,27.7
	C276.8,303.8,275.6,303,275,302.6L275,302.6z"/>
<path class="st0" d="M532.2,277c8.9-1.2,17.9-0.7,26.9-0.7c0.4,9.7-0.3,19.5,0.4,29.2c-1.7,0.5-3.5,0.9-5.1,1.5
	c-0.5,0.2-1.5,0.5-2,0.7c1,1.2,2,2.3,3,3.5l0.5,1c-2.7,0.1-5.3,0.2-8,0.3c1.8,2.9,3.7,6,3.5,9.6c0.1,14,0.1,28.1,0,42.1
	c0.1,4.3-1.1,8.4-2.8,12.3c1.7,0.1,3.4,0.2,5.1,0.2c1.8,0.2,3.5,0.6,5.3,0.8c-2.5,0.5-5,1-7.2,2.2c-2.7,2-5.6,3.9-8.4,5.7
	c-8.7,6.1-16.2,13.7-24.7,20c0.6-8.7,0.3-17.4,0.5-26.1c4.3,0.1,8.6,0.1,12.6-1.6c3.7-0.2,7.5-0.2,11.2-0.8
	c-1.2-1.7-2.5-3.4-3.7-5.1c2.7,0,5.5,0,8.2-0.1c0-0.5,0.1-1.5,0.1-2c-0.9-0.6-1.8-1.1-2.7-1.7c-0.5-18-0.4-36-0.1-54
	c-0.3-2.5,3.3-4.7,2.3-6.7c-6.2-0.2-12.5,0.6-18.8,0.5v-0.7c2-0.1,4.1-0.1,6.2-0.1c-3-2-2.4-5.7-2.5-8.8
	C532.2,291.1,532.2,284,532.2,277L532.2,277z"/>
<path class="st0" d="M476.9,278.5c4.6-1.4,9.5-0.8,14.2-1.1c13.7,0.3,27.5,0.2,41.2-0.4c0,7.1,0,14.1-0.1,21.2
	c0,3.1-0.5,6.9,2.5,8.8c-2.1,0-4.1,0-6.2,0.1v0.7c0,0.5,0.1,1.5,0.1,2c0.7,1.1,1.4,2.3,2.1,3.4c-2.5,0.1-5,0.1-7.4,0.4
	c-0.2,1.5,1,2.7,1.4,4c1.3,2.3,1.2,5,1.2,7.5c-0.1,14.5,0.1,28.9-0.1,43.4c-7.9-6.6-13-15.7-19.4-23.5c4.6-3.7,8.8-8.6,9.5-14.8
	c1.2-7-0.6-15.8-7.6-19.1c-7.3-3.2-15.4-1-23.1-0.6c-3.5,0.4-7.5-0.5-10.5,1.8c0.6,0.6,1.7,1.7,2.2,2.2c0.1,0.4,0.3,1.3,0.4,1.8
	c-1.7,0.1-3.4,0.1-5.1,0.3c0.1-11.7,0.3-23.4,0-35.1c-2.8-0.3-5.6-0.7-8.4-0.9C468.2,280.2,472.7,280.1,476.9,278.5L476.9,278.5z"/>
<path class="st0" d="M661.4,277.4c12.8,0,25.7,0.3,38.5,0.1c8.1-0.3,16.2,0.9,24.3,1.4c-3.1-0.1-6.2,0.2-9.2,0.6
	c17.9,2.2,36,2.5,53.8,5.4c-5.5,0.5-10.9-0.1-16.4-0.6c-0.2,4.8-0.3,9.5-0.1,14.3c-5.7,0-11.7-3.4-17.2-0.7c1.4,1.4,2.8,2.7,4.2,4.1
	c-2.7-0.3-5.5-0.7-8.2-0.1c-0.4,2.9,3.6,4.3,3.7,7.2c0.8,11.4,0.1,22.8,0.5,34.1c-0.5,12.8,0.1,25.7-0.4,38.5c0.1,3.7-2.4,6.5-4.7,9
	c7.3,1.4,14.8,1.8,22.2,2.9c-0.2,5.3-0.3,10.7,0,16c1.7,0.7,3.4,1.4,5.2,2c-11.5-0.5-22.9-2.4-34.4-3.2c-8.2-0.8-16.4-1.2-24.5-2.2
	c-1.8-0.4-3.6-0.9-5.3-1.4c-0.5-8.5,0.4-17.1-0.7-25.6c2.5,0.2,5.1,0.5,7.6,0.3c1.8-0.9,2-3.2,2.9-4.9c1.1,0,2.2,0.1,3.4,0.1
	c1.1-3.1,1.6-6.4,1.6-9.6c-4.8,3.7-11.1,3.1-16.7,2.4c-1.7-0.3-3.7-1.3-3.7-3.2c-0.6-5.2-0.2-10.5-0.3-15.8c4,0.1,7.9,1.4,11.2,3.7
	c0.4-2.5,0.8-4.9,1.2-7.4c1.3,0.9,2.6,1.7,3.8,2.6c0.7-3.2,1.1-6.4,1.4-9.6c-5.9-0.2-11.8-0.6-17.7-1c-0.2-5.1-0.3-10.3-0.3-15.4
	c2.3,0.3,4.8,0.4,7,1.3c2,1.2,3.5,3,5.2,4.5c0.8-3,1.1-6,1.3-9.1c1.3,1.5,2.5,3.1,3.8,4.6c1-4.1,1.4-8.4,1.4-12.7
	c-12.2,0.8-24.4-1.5-36.6-1.2c1.2,1.7,2.6,3.3,3.7,5c-2.8-0.2-5.6-0.2-8.4-0.3c0.1,0.5,0.4,1.4,0.5,1.8l-1.4,0.8c0-2.1,0-4.2,0-6.3
	c-0.9-0.2-1.8-0.5-2.6-0.7C661.6,298.6,661,288,661.4,277.4L661.4,277.4z"/>
<path class="st0" d="M293.2,279.3c1.5-0.3,3.1-0.7,4.6-0.7c1.4,0.2,2.8,0.6,4.3,0.9c0.2,5.3,0.1,10.7-0.1,16
	c-22.9,4.4-45.7,9.5-68.4,15c0.7-5.3,0.7-10.7,0.5-16c-1.7-0.3-3.3-0.6-5-0.8C250.2,288,271.7,283.8,293.2,279.3L293.2,279.3z"/>
<path class="st0" d="M454.3,279.9c7.5-0.5,15-1.7,22.6-1.5c-4.2,1.6-8.7,1.7-13.1,2.2c-6.7,0.6-13.5,1.1-20.2,1.8
	c-20.2,2.3-40.6,4-60.7,7.2c-11.3,1.6-22.7,3-33.9,5.1c-11.5,1.8-23,3.8-34.4,5.8c-22.4,4.3-44.7,8.8-66.9,14
	c-21.7,5.3-43.4,10.6-64.8,16.8c3.1,6.1,7.1,11.7,10.6,17.5c7.4,11.9,14.8,23.9,22.3,35.8c1.2,2,2.4,4.2,1.6,6.6
	c-3.4,15-6.7,30-10.1,45c-1.5,7.3-3.5,14.5-4.6,22c13.8-3.9,27.6-8,41.6-11.6c22.8-5.8,45.7-11.2,68.7-16.1
	c13.1-2.4,26-5.1,39.1-7.3c16.1-2.6,32.1-5.4,48.3-7.5c8.4-1.1,16.9-1.9,25.2-3.4c5.8-0.1,11.5-0.8,17.2-1.7
	c2.8,0.1,5.7,0.5,8.5,0.7c-19.7,2.5-39.5,4.3-59.1,7.3c-64.9,9.3-129.2,23.2-192,42.1c4.9-23.3,10.3-46.4,15.4-69.6
	c0.4-1.6,0.3-3.4-0.8-4.7c-9.9-15.8-19.6-31.7-29.5-47.5c-1.9-2.9-3.6-5.8-5.2-8.8C269.8,304.8,361.6,288,454.3,279.9L454.3,279.9z"
	/>
<path class="st0" d="M714.9,279.5c3.1-0.4,6.1-0.7,9.2-0.6c85,6.9,169.6,20.6,252.2,42.1c11.6,3.1,23.2,5.9,34.7,9.7
	c-12.1,19.3-24.2,38.8-36.1,58.3c5.5,23.9,10.7,47.9,16.1,71.9c-25.7-7.8-51.6-14.6-77.7-20.7c-32.2-7.4-64.5-13.9-97.2-18.7
	l-0.8-0.5c-14.4-1.7-28.8-4.2-43.2-5.8c-33.4-3.9-67-7.3-100.6-8.5v-0.5c9-0.7,18.1,0.6,27.1,0.1c8.2,1,16.4,1.3,24.5,2.2
	c11.5,0.9,22.8,2.8,34.4,3.2c10.2,1.5,20.5,2.5,30.8,3.9c11.5,1.7,22.9,3.4,34.3,5.1c23.6,3.6,47,8.3,70.3,13.2
	c12.3,2.7,24.5,5.6,36.7,8.6c19.8,4.5,39.2,10.5,58.8,15.8c-4.5-22.6-10.1-44.9-14.8-67.4c-0.4-1.8,0.1-3.5,1-5
	c11.2-18.1,22.7-36.1,33.5-54.4c-23-6.8-46.3-12.3-69.6-18c-10-2.3-20-4.5-30.1-6.4c-13.9-3.2-27.9-5.8-42-8
	c-24.2-4.8-48.8-7.9-73.2-11.2c-8.2-1.2-16.5-2.1-24.7-2.8C750.9,282,732.8,281.6,714.9,279.5L714.9,279.5z"/>
<path class="st0" d="M890.4,282.4c2.1-2.1,5.2-2.4,8-2.9c18.3,3.4,36.5,7.5,54.6,11.7c-4.4,4.8-2.7,11.7-2.8,17.5
	c-23.8-5.5-47.6-10.9-71.7-15.1C883.2,290.7,886.4,286.1,890.4,282.4L890.4,282.4z"/>
<path class="st0" d="M443.5,282.4c6.7-0.7,13.5-1.2,20.2-1.8c2.8,0.2,5.6,0.6,8.4,0.9c0.3,11.7,0.1,23.4,0,35.1
	c-0.9,0.3-1.8,0.7-2.7,1.1c0.8,0.9,1.6,1.8,2.4,2.7c0.2,5.2,0.6,10.4,0.4,15.7c-0.1,12.9,0.7,25.9-0.5,38.8
	c-0.2,2.6-1.8,4.7-3.1,6.8c1.1,0.3,2.2,0.7,3.4,1c0.3,8,0.3,16,0,24c-9.6,2.2-19.5,2.3-29.2,3.9c-5.7,0.9-11.4,1.6-17.2,1.7
	c4.3-1.5,8.8-2.3,13.4-2.6c0.3-8.1-0.1-16.2,0.3-24.3c3.3-0.2,6.6-0.4,9.9-0.6c-2.1-0.3-4.1-0.6-6.2-0.9c6.1-0.7,12.2-0.9,18.2-1.8
	c2.5-0.4,2.2-3.6,3.2-5.3c5.3,0.4,4.8-6.3,5.3-9.9c-5.7,3.9-12.7,5.5-19.5,4.5c-1.4-0.9-1.4-2.7-1.5-4.2c-0.2-4.6,0-9.2-0.1-13.8
	c4-0.3,7.8,0.6,11.6,1.3c0.5-2.3,0.6-4.7,0.8-7l0.9,0.3c0.7,0.5,2.1,1.5,2.8,2c1-3.2,1.2-6.5,1.4-9.8c-5.9,0.4-11.7,1.3-17.6,1.7
	c0-5.3,0-10.7,0-16c2.8,0,5.6-0.3,8.3,0.5c1.5,1.1,2.6,2.5,3.9,3.8c0.8-3.1,1.3-6.3,1.6-9.5l0.6,0.6c1.1,1.1,2.2,2.1,3.3,3.2
	c0.7-4.1,1.2-8.3,1.5-12.5c-3.4,0.6-6.9,1.2-10.4,1.5c-4.4-0.2-8.8-0.4-13.2-0.3C443.7,302.8,445.1,292.6,443.5,282.4L443.5,282.4z"
	/>
<path class="st0" d="M382.8,289.6c20.1-3.2,40.5-4.9,60.7-7.2c1.6,10.1,0.1,20.4,0.8,30.6c4.4-0.1,8.8,0.1,13.2,0.3
	c-8.6,1-17.1,1.8-25.7,2.5c-0.1,0.5-0.2,1.4-0.2,1.9c1,0.9,2.1,1.9,3.1,2.8c-2.7,0.4-5.3,0.7-8,1.1c0,0.5-0.1,1.5-0.1,1.9
	c1,0.8,2,1.6,3,2.5c0.7,15.7,0.2,31.4,0.3,47.2c0.2,4.2-1,8.2-2.2,12.1c5.2,0.3,10.3-1.2,15.5-1.4c2.1,0.2,4.1,0.5,6.2,0.9
	c-3.3,0.2-6.6,0.5-9.9,0.6c-0.4,8.1,0.1,16.2-0.3,24.3c-4.6,0.3-9.1,1-13.4,2.6c-8.3,1.5-16.8,2.3-25.2,3.4
	c-0.5-8.8-0.3-17.6-0.2-26.3c0.6-0.3,1.2-0.7,1.8-1c-1.1-1.4-2.3-2.8-3.5-4.1c2.7-0.3,5.4-0.6,8.1-0.8c0.4-0.5,0.8-0.9,1.2-1.4
	c-1.1-0.5-2.2-0.9-3.3-1.3c-0.8-5.9-0.9-11.9-0.9-17.9c6-1.3,11.6-4.3,15-9.5c5.8-4.6,9.4-11.7,9.2-19.1c0.4-5.6-2.3-11.6-7.5-14.1
	c-4.9-2.2-10.5-1.5-15.7-0.7c-5.5,1-11,1.5-16.5,1.8c0.2-10.2,0.2-20.4-0.1-30.5C386.3,290.2,384.6,289.9,382.8,289.6L382.8,289.6z"
	/>
<path class="st0" d="M752.3,284.2c5.4,0.5,10.9,1.1,16.4,0.6c8.3,0.7,16.5,1.6,24.7,2.8c-0.2,12.4-0.5,24.8,0.1,37.2
	c-1.7,1.3-2.7,3.2-3.3,5.2c-5.6,16.4-11.9,32.6-18.5,48.6c-1.1,2.8-3.2,5-5.1,7.2c5.4,1.2,11,1.8,16.6,2.1c-0.6-1.7-1.1-3.5-1.7-5.2
	c1.5,0.2,3,0.4,4.5,0.7c-0.6,4.6-1,9.2-0.8,13.8c0.2,5.3-0.5,10.6,0.3,15.8c0.8,1,1.9,1.7,2.9,2.4c-10.3-1.4-20.6-2.5-30.8-3.9
	c-1.8-0.6-3.5-1.3-5.2-2c-0.3-5.4-0.2-10.7,0-16c1-0.3,2-0.6,3-0.9c-1.2-1.4-2.4-2.7-3.6-4c2.8,0,5.7,0.1,8.5,0
	c-1.4-2.2-3.6-4-4.4-6.5c-1.3-9.8-1-19.7-1-29.5c3.5,0.4,7.1,0.6,10.6,1.5c2.7,0.6,4.4,3,6.2,5c0.5,0,1.5,0,1.9,0
	c0.2-2.5,0.4-4.9,0.7-7.4c1.3,1.3,2.6,2.7,4,3.9c0.9-5.5,1.4-11.1,1.6-16.7c-2.5,1-5,2.3-7.8,2c-5.5-0.4-11-0.7-16.5-1.4
	c-0.2-0.2-0.5-0.6-0.6-0.8c-0.4-8.5,0-17.1-0.2-25.7c4.7,0.7,9.7,0.5,14.2,2.3c2.3,2,3.7,4.9,6.2,6.8c0.6-3,1.1-6,1.4-9
	c0.9,1.7,2,3.3,3.6,4.5c1.2-5.4,1.8-11,2.5-16.5c-10.2-0.2-20.4-1.7-30.6-2.4C752,293.7,752.1,289,752.3,284.2L752.3,284.2z"/>
<path class="st0" d="M793.4,287.7c24.5,3.3,49,6.4,73.2,11.2c-3.5,0.1-6.9,0-10.3-0.4c-0.6,10.5,0.7,21.2-0.9,31.6
	c-7.5-1.4-15-2.9-22.6-3.7c0.1,0.4,0.2,1.3,0.2,1.8c0.3,0.5,1.1,1.6,1.4,2.2l0.2,1.2c-2.2-0.2-4.5-0.5-6.8-0.6c1,3.7,2,7.4,1.8,11.3
	c-0.3,14.7,0.5,29.4-0.4,44c-4.2-6-6.2-13.1-8.7-19.8c-4.6-12.6-8.8-25.4-13-38.2c-1.1-3.3-2-6.8-3.8-9.8c-2.7,0-4.8,2.1-6.7,3.7
	c-1.2,0.9-2.4,1.8-3.6,2.7C792.9,312.5,793.2,300,793.4,287.7L793.4,287.7z"/>
<path class="st0" d="M348.9,294.7c11.2-2.1,22.6-3.5,33.9-5.1c1.8,0.2,3.5,0.6,5.3,0.9c0.3,10.2,0.2,20.4,0.1,30.5
	c-0.4,0.5-1.1,1.5-1.4,2c0.9,0.7,1.8,1.5,2.6,2.2l0.4,0.9c-2.8,0.4-5.6,0.9-8.3,1.5c2.8,2.8,4,6.6,3.7,10.5
	c-0.1,14.6,0.1,29.2-0.1,43.7c0,3.5-1.3,6.9-3.1,9.8c6.2-0.9,12.3-1.8,18.5-2.3c-0.1,8.8-0.3,17.6,0.2,26.3
	c-16.2,2.1-32.2,4.9-48.3,7.5c0.1-8.2-0.2-16.5,0.2-24.7c1.7-0.6,3.3-1.3,5-2l0.5-1c0.1-0.2,0.3-0.6,0.4-0.8
	c-1.2-1.2-2.5-2.3-3.8-3.5c2.9-0.4,5.8-0.9,8.6-1.5c-0.1-0.3-0.2-1-0.2-1.4c-1.4-0.8-2.7-2-2.7-3.7c-0.6-5.3-0.4-10.7-0.4-16
	c6.1-1.7,11.3-5.2,15.1-10.3c6.6-5.7,10-14.8,8.7-23.4c-0.8-4.6-3.9-9.2-8.7-10.3c-5.8-1.3-11.8,0.2-17.5,1.4
	c-1.7-0.1-3.3-0.2-5-0.3c-0.3-10.1,0.1-20.3-0.2-30.4C351.3,295.3,349.7,294.9,348.9,294.7L348.9,294.7z"/>
<path class="st0" d="M953,291.2c14.6,3.6,29.3,7.1,43.8,11.2c-3.7,5.4-9.8,8.9-12.7,14.8c-11.3-2.9-22.5-5.9-33.9-8.5
	C950.3,302.9,948.6,296.1,953,291.2L953,291.2z"/>
<path class="st0" d="M145,316.8c27.8-8.5,55.7-16.6,84-23.2c1.7,0.2,3.3,0.5,5,0.8c0.3,5.3,0.2,10.7-0.5,16
	c-20.5,5.2-41,10.4-61.2,16.7c0.7,2.9,2.6,5.3,4.1,7.8c10.8,17.3,21.4,34.7,32.2,51.9c1.6,2.2,1.3,4.9,0.8,7.4
	c-5.6,24.8-11.1,49.6-16.6,74.5c14-4.1,28-8.3,42.1-12.1c1.4,0.3,2.7,0.6,4.1,0.9c0,5.2,0,10.5,0.6,15.7v0.3
	c-23.6,6.1-46.9,13.5-70,21c5.3-25.2,11-50.3,16.5-75.5c1.8-8.7,4.1-17.2,5.5-25.9c-10.9-18.2-22.2-36-33.3-54.1
	C153.9,331.6,148.8,324.6,145,316.8L145,316.8z"/>
<path class="st0" d="M314.5,300.5c11.5-2,22.9-4,34.4-5.8c0.8,0.2,2.4,0.6,3.2,0.8c0.3,10.1-0.1,20.3,0.2,30.4
	c1.7,0.1,3.3,0.2,5,0.3c-5,1.3-10.4,1.1-15.1,3.4c1.1,1.1,2.3,2.3,3.4,3.4c-2.8,0.4-5.6,1.1-8.3,2.2c1.8,1.9,3.8,4,3.5,6.8
	c0.2,12.4,0,24.7,0.1,37.1c-0.1,6.6,0.9,13.9-3.3,19.6c6.8-0.8,13.5-1.8,20.2-3.2l-0.5,1c-1.6,0.8-3.3,1.4-5,2
	c-0.4,8.2-0.1,16.5-0.2,24.7c-13.1,2.1-26.1,4.9-39.1,7.3c1.1-0.8,2.1-1.6,3.1-2.4c0-7.8-0.2-15.6,0.2-23.4c1.3-0.5,2.6-0.9,3.9-1.4
	c-0.6-0.1-1.7-0.3-2.3-0.4c4.2-1,8.7-1.1,12.5-3.2c0.6-1.5,1.1-3,1.5-4.5c1.2-0.3,2.4-0.5,3.6-0.8c1-3.2,1.7-6.4,2-9.7
	c-6,4.3-13.3,7.3-20.9,6.2c-0.2-6-0.1-12-0.2-18c3.8-0.6,7.8-1,11.3,0.8c0.4-2.5,0.9-4.9,1.3-7.4c0.9,0.4,2.8,1.3,3.7,1.7
	c0.7-3.2,1.2-6.5,1.7-9.8c-6.1,0.8-12,2.5-18,3.7c0-5.6,0-11.2-0.1-16.8c2.8-0.3,5.7-0.9,8.5-0.4c1.4,0.9,2.5,2.1,3.7,3.3
	c0.7-3.1,1.4-6.3,1.9-9.5c1,1.3,1.9,2.6,2.9,3.9c1.3-3.9,1.8-8.1,2.2-12.2c-6.5,1.1-12.9,2.6-19.3,3.9c-0.3-8.7-0.1-17.4,0-26
	C316.2,305.5,316.6,302.4,314.5,300.5L314.5,300.5z"/>
<path class="st2" d="M735,297.8c5.5-2.7,11.5,0.7,17.2,0.7c10.2,0.7,20.4,2.2,30.6,2.4c-0.7,5.5-1.2,11.1-2.5,16.5
	c-1.7-1.1-2.8-2.7-3.6-4.5c-1.1-1.5-2.7-2.8-4.6-3.2c-5.7-1.1-11.5-1.2-17.2-2.1c0,1.7,0,3.5,0,5.2c0.2,8.6-0.2,17.1,0.2,25.7
	c0.2,0.2,0.5,0.6,0.6,0.8c5.5,0.7,11,1,16.5,1.4c2.8,0.3,5.3-1,7.8-2c-0.2,5.6-0.7,11.2-1.6,16.7c-1.4-1.3-2.7-2.6-4-3.9
	c-1.5-1.3-3.2-2.4-5.2-2.7c-4.7-0.6-9.5-1.1-14.2-1.3c0,1.6,0,3.3,0,4.9c0,9.8-0.3,19.7,1,29.5c0.8,2.5,3,4.3,4.4,6.5
	c-2.8,0.1-5.7,0.1-8.5,0c-0.2-0.1-0.5-0.5-0.6-0.6c-4.8-0.7-9.7-0.7-14.5-1.5c-0.4-0.5-1.1-1.5-1.5-2c0.8-0.3,2.4-0.9,3.2-1.2
	c1.8-5.2,1.8-10.7,2-16c0.1-16.3,0-32.7,0-49c-0.1-5.4,0-10.9-1.2-16.2C737.8,300.5,736.4,299.2,735,297.8L735,297.8z"/>
<path class="st0" d="M879,297.3c0.6-0.4,1.9-1.3,2.5-1.7c45.8,8.6,91.2,19.2,135.9,32.5c-8.9,14.5-17.9,29-26.9,43.5
	c-3.5,6-7.8,11.6-10.8,17.9c0.4,6.3,2.7,12.4,3.8,18.7c4.2,19.6,9,39,12.9,58.7c-48.6-14.8-98-26.9-147.9-35.9
	c-50-9.5-100.5-15.4-151.1-19.4c-0.2-0.3-0.6-0.9-0.8-1.2c15.6,0.5,31.1,2.3,46.7,3.7c84.7,8.5,168.7,25,250.4,49.5
	c-4.5-21.2-9.3-42.3-14.1-63.4c-0.7-3.7-2-7.2-2-11c1.1-3.5,3.6-6.3,5.4-9.4c10.3-16.9,21-33.6,31.1-50.6
	C969.6,316.3,924.5,305.6,879,297.3L879,297.3z"/>
<path class="st0" d="M856.3,298.5c3.4,0.4,6.9,0.5,10.3,0.4c14.1,2.2,28.1,4.9,42,8c-2.8-0.1-5.5-0.1-8.3-0.2
	c-0.7,12.7,0.7,25.6-0.8,38.2c-1.1-3.3-2.4-6.6-4-9.8c-1.6,0.7-3.2,1.4-4.8,2.1c0,0.5-0.2,1.6-0.2,2.1c-1.6,0.7-3.4,1.1-4.8,2.2
	c-1.4,4.7-1.3,9.8-2,14.7c-1.6,13.1-2.6,26.2-4.7,39.2c-6.6-9.1-12-19.1-17.6-28.7c4.8-3,8.7-7.9,9.3-13.7
	c1.7-10.1-5.4-20.4-15.2-22.9C857,319.6,855.7,309,856.3,298.5L856.3,298.5z"/>
<path class="st0" d="M247.6,314.5c22.2-5.2,44.5-9.7,66.9-14c2.2,2,1.8,5,1.9,7.6c-0.1,8.7-0.3,17.4,0,26c-6,1.7-12.8,1.1-18.2,4.5
	c1.4,1,2.8,2.1,4.1,3.2c-2.8,0.5-5.5,1-8.3,1.5c0.2-6.3-1.3-13.3-6.4-17.6c-4.5-3.9-10.9-3.7-16.5-2.8c-7.7,1.6-15.1,4.4-22.9,5.9
	C248.5,324,248.4,319.2,247.6,314.5L247.6,314.5z"/>
<path class="st0" d="M731,301.8c2.7-0.6,5.5-0.2,8.2,0.1c1.2,5.3,1.1,10.8,1.2,16.2c0,16.3,0.1,32.7,0,49c-0.2,5.4-0.2,10.9-2,16
	c-0.8,0.3-2.4,0.9-3.2,1.2c0.4,0.5,1.1,1.5,1.5,2c4.8,0.8,9.7,0.9,14.5,1.5c0.2,0.2,0.5,0.5,0.6,0.6c1.2,1.3,2.4,2.7,3.6,4
	c-1,0.3-2,0.6-3,0.9c-7.4-1.1-14.9-1.5-22.2-2.9c2.3-2.6,4.8-5.4,4.7-9c0.5-12.8-0.1-25.7,0.4-38.5c-0.4-11.4,0.3-22.8-0.5-34.1
	C734.6,306.1,730.6,304.6,731,301.8L731,301.8z"/>
<path class="st0" d="M996.8,302.5c16.6,4.4,33.1,9.4,49.5,14.4c-15.1,25.2-30.9,50.1-46.2,75.2c-0.6,0.9-0.7,1.9-0.3,3
	c7.3,33.1,14.6,66.3,21.9,99.5c-13.8-4.3-27.5-8.9-41.4-12.9c4.8-4.6,9.5-9.2,13.8-14.2c1.4,0.4,2.8,0.8,4.2,1.2
	c-5.6-26.2-11.5-52.4-17.5-78.6c12.6-21.1,26-41.7,38.6-62.8c-11.7-3.4-23.4-6.7-35.2-9.8C987,311.3,993,307.8,996.8,302.5
	L996.8,302.5z"/>
<path class="st0" d="M173.9,328c33.3-9.9,67.1-18.1,101.1-25.4c0.6,0.4,1.8,1.2,2.4,1.6c-33.7,7-67.1,15.5-100.2,25
	c11.7,19.6,24,38.8,35.9,58.2c0.8,1.2,0.9,2.7,0.5,4.1c-5.3,24.1-10.8,48.1-16,72.2c46.2-13.8,93.1-25.1,140.5-34
	c1.2,0.5,2.4,0.9,3.6,1.3c-10,1.5-19.9,3.6-29.8,5.7c-39.5,8-78.5,18.3-117.1,29.9c5.6-25.8,11.6-51.6,17.1-77.4
	C199.1,368.9,186.5,348.4,173.9,328L173.9,328z"/>
<path class="st2" d="M632.9,307.6c9.2-2.9,19.1-0.8,28.2,1.6c0.9,0.2,1.8,0.5,2.6,0.7c0,2.1,0,4.2,0,6.3c0,2.2-0.1,4.3-0.1,6.5
	c-0.5,0-1.5,0.1-2.1,0.2c-0.5-1-1-2-1.6-3c-4.1-5.3-11.5-6.8-17.8-7c-5.6-0.3-10.2,3.8-12.9,8.4c-3.6,6.7-4,14.6-3.4,22.1
	c0.8,6.7,2.9,13.7,8,18.4c3.4,3.2,8.1,4.4,12.6,5.2c1.7-0.2,3.4-0.5,5.1-0.9c-0.2-6.6,0.3-13.2-0.3-19.8c-1.4-1.7-2.8-3.4-4.1-5.2
	c7,0,14.1,0,20.9,1.4c-1.1,1.6-3.3,2.6-3.4,4.7c-0.6,7,0.3,14.1-0.4,21.1c-0.8,1-2,1.7-3.1,2.3c-11.3,2.8-23.9,2.5-34.5-2.7
	c-7.8-3.8-12.7-11.9-13.9-20.3c0.6-3.8,0.2-7.7-0.1-11.5c0.4-5.3,2.3-10.3,4.5-15.1C620.7,314.9,626.1,309.7,632.9,307.6
	L632.9,307.6z"/>
<path class="st0" d="M900.3,306.7c2.8,0.1,5.5,0.1,8.3,0.2c10.1,2,20.1,4.2,30.1,6.4c-2.5,4.2-1.3,9.2-1.5,13.8
	c-0.2,9.5,0.7,19.1-0.7,28.6c-0.4-4.2-0.7-9.6-5.3-11.5c-2,0.7-2.3,3-3.1,4.7c-1.8-0.2-3.8-0.5-4.3,1.6c-4.4,9.6-6.6,20.1-11.9,29.3
	c-4.2-11.6-8.5-23.2-12.3-34.9C901.1,332.3,899.6,319.4,900.3,306.7L900.3,306.7z"/>
<path class="st2" d="M528.4,307.8c6.3,0.2,12.5-0.7,18.8-0.5c1,2-2.6,4.2-2.3,6.7c-0.2,18-0.3,36,0.1,54c0.9,0.5,1.8,1.1,2.7,1.7
	c0,0.5-0.1,1.5-0.1,2c-2.7,0.1-5.5,0.1-8.2,0.1c-4.5,0-8.9,0.3-13.4,0.6c-2.4,0.1-4.9,0.3-7.3,0.4c-2.9-0.4-5.9-1-8.1-3
	c-6.2-5.4-10.3-12.6-15.3-19.1c-1.6,0-3.1,0.1-4.6,0.2c0,1.6,0,3.2,0,4.8c0,5.3,0.1,10.6,0.7,15.8c0.6,0.3,1.9,0.9,2.5,1.2
	c-0.1,0.5-0.3,1.4-0.5,1.8c-2.7,0.1-5.5,0.2-8.2,0.5c-3.8,0.5-7.5,0.8-11.3,0.9c1.2-2.1,2.9-4.1,3-6.7c0.7-6.4,0.4-12.8,0.4-19.2
	c-0.1-11.2,0.2-22.5-0.2-33.7c-0.1-0.4-0.3-1.3-0.4-1.8c-0.6-0.6-1.7-1.7-2.2-2.2c3-2.3,7-1.4,10.5-1.8c7.6-0.5,15.8-2.7,23.1,0.6
	c7,3.2,8.8,12.1,7.6,19.1c-0.6,6.2-4.8,11.1-9.5,14.8c6.5,7.8,11.6,16.9,19.4,23.5c1.2,0.5,2.5,1,3.8,1.5c2.2-5,1.2-10.6,1.5-15.9
	c-0.2-13.6,0.4-27.3-0.3-40.9c-0.7-1.2-1.4-2.3-2.1-3.4C528.5,309.3,528.4,308.3,528.4,307.8L528.4,307.8z"/>
<path class="st2" d="M552.4,307.8c0.5-0.2,1.5-0.5,2-0.7c4.3-0.4,8.6,0,12.9-0.2c9.8-0.2,20.5-1.5,29.2,4.1
	c8.1,5,11.6,14.6,13.2,23.6c-0.1,3.7,0,7.4-0.6,11c-0.2,0.4-0.6,1.2-0.8,1.6c-1.5,2.6-2.1,5.5-2.8,8.3c-0.5,2.1-1.6,3.9-3,5.6
	c-1.1,1.1-2.1,2.1-3.2,3.2c-8.1,5.8-18.4,7.3-28.2,6.6c-5.9-0.6-11.8,0.8-17.6,0.1c1.6-2.3,3-4.9,3-7.8c0.5-10.6,0.1-21.3,0.2-32
	c-0.1-6.3,0.4-12.7-0.6-19l-0.5-1C554.4,310.1,553.4,308.9,552.4,307.8L552.4,307.8z"/>
<path class="st0" d="M754.9,307.7c5.7,0.9,11.5,1,17.2,2.1c1.9,0.3,3.5,1.6,4.6,3.2c-0.3,3-0.8,6.1-1.4,9c-2.4-1.9-3.8-4.8-6.2-6.8
	c-4.5-1.7-9.5-1.5-14.2-2.3C754.9,311.2,754.9,309.4,754.9,307.7L754.9,307.7z"/>
<path class="st2" d="M669.3,308.7c12.2-0.3,24.4,1.9,36.6,1.2c0,4.2-0.4,8.5-1.4,12.7c-1.3-1.5-2.5-3-3.8-4.6
	c-4.3-1.8-9.1-1.6-13.6-2.3c0,1.9,0,3.7,0,5.6c0,5.1,0.1,10.3,0.3,15.4c5.9,0.5,11.8,0.8,17.7,1c-0.3,3.2-0.8,6.4-1.4,9.6
	c-1.3-0.9-2.6-1.8-3.8-2.6c-4-1.4-8.3-1.2-12.5-1.4c0,1.7,0,3.4,0.1,5.1c0.1,5.3-0.3,10.5,0.3,15.8c0,2,2,2.9,3.7,3.2
	c5.6,0.6,11.9,1.3,16.7-2.4c0,3.3-0.5,6.5-1.6,9.6c-1.1,0-2.3-0.1-3.4-0.1c-10.6-1-21.2-1.7-31.8-2c3.5-6.5,2.2-14.2,2.4-21.3
	c-0.3-12.5,0.4-25.1-0.7-37.5C671.8,311.9,670.5,310.3,669.3,308.7L669.3,308.7z"/>
<path class="st2" d="M457.4,313.3c3.5-0.3,6.9-0.8,10.4-1.5c-0.2,4.2-0.7,8.4-1.5,12.5c-1.1-1-2.2-2.1-3.3-3.2l-0.6-0.6
	c-4.5-1.2-9.2,0-13.8,0.1c0,1.7,0,3.4,0,5.2c0,5.3,0,10.7,0,16c5.9-0.4,11.7-1.3,17.6-1.7c-0.2,3.3-0.5,6.6-1.4,9.8
	c-0.7-0.5-2.1-1.5-2.8-2l-0.9-0.3c-4.2-0.2-8.3,0.1-12.5,0.3c0,1.8,0,3.6,0,5.4c0.1,4.6-0.1,9.2,0.1,13.8c0.1,1.5,0,3.3,1.5,4.2
	c6.8,1,13.9-0.6,19.5-4.5c-0.5,3.6-0.1,10.3-5.3,9.9c-10.6,0.8-21.2,2-31.7,3.1c0-0.5-0.1-1.5-0.1-2.1c0.5-0.4,1.4-1.2,1.9-1.6
	c0.7-11.3,0.4-22.7,0.5-34.1c-0.1-7.2,0.2-14.4-0.3-21.6c-1-1-2-1.9-3.1-2.8c0.1-0.5,0.2-1.4,0.2-1.9
	C440.3,315.1,448.9,314.3,457.4,313.3L457.4,313.3z"/>
<path class="st0" d="M547.9,312.5c2.6-0.1,5.3-0.2,8-0.3c1,6.3,0.5,12.7,0.6,19c-0.1,10.7,0.3,21.3-0.2,32c0,2.9-1.4,5.4-3,7.8
	c5.9,0.7,11.8-0.7,17.6-0.1c9.8,0.7,20.1-0.8,28.2-6.6c-3.3,3.6-6.9,7.3-11.6,9.1c-10.6,4.7-22.4,2.4-33.6,3.3c-1.7,0-3.4,0-5.1-0.2
	c1.8-3.8,2.9-8,2.8-12.3c0.1-14,0.1-28.1,0-42.1C551.6,318.6,549.7,315.5,547.9,312.5L547.9,312.5z"/>
<path class="st0" d="M523.2,313.7c2.4-0.4,4.9-0.4,7.4-0.4c0.7,13.6,0.1,27.3,0.3,40.9c-0.2,5.3,0.7,10.9-1.5,15.9
	c-1.3-0.5-2.5-1-3.8-1.5c0.2-14.5,0-28.9,0.1-43.4c0-2.5,0.1-5.2-1.2-7.5C524.2,316.3,523,315.1,523.2,313.7L523.2,313.7z"/>
<path class="st0" d="M569,313.5c6.3-1.5,13.5-0.1,18.3,4.5c6.5,5.7,9.7,14.5,9.6,23c0.1,6.7-0.7,14.1-5.4,19.3
	c3.3-12.1,3.1-26.8-6.2-36.2c-4-4.7-10.2-6.6-16.2-6.7C569,316.1,569,314.8,569,313.5L569,313.5z"/>
<path class="st0" d="M629.2,321.2c2.7-4.5,7.3-8.6,12.9-8.4c6.4,0.2,13.8,1.7,17.8,7c0.2,2.6-0.2,5.2-1.2,7.6
	c-2-2.6-3.6-5.7-6.6-7.3c-4-2.2-8.5-3.5-13.1-3.5C635.3,316.5,632.1,318.9,629.2,321.2L629.2,321.2z"/>
<path class="st0" d="M664.6,313.4c2.8,0,5.6,0.1,8.4,0.3c1.1,12.5,0.4,25,0.7,37.5c-0.2,7.1,1.1,14.7-2.4,21.3
	c10.6,0.3,21.2,1,31.8,2c-0.9,1.6-1,4-2.9,4.9c-2.5,0.2-5.1-0.1-7.6-0.3c-8.7-0.8-17.4-1.1-26-1.6c0.5-3.5,2.1-6.8,2-10.4
	c0.1-13.3,0-26.7-0.1-40c-0.2-4.1,0.3-8.9-3.2-11.9C665,314.8,664.8,313.9,664.6,313.4L664.6,313.4z"/>
<path class="st0" d="M937.2,327.1c0.2-4.6-1-9.6,1.5-13.8c23.3,5.7,46.6,11.2,69.6,18c-10.9,18.3-22.4,36.3-33.5,54.4
	c-1,1.5-1.5,3.2-1,5c4.7,22.5,10.3,44.8,14.8,67.4c-19.6-5.3-39-11.3-58.8-15.8c-1-2.3-1.8-4.7-1.6-7.2c0.1-6.6,0.2-13.3,0-19.9
	c4.6,1.2,9.2,2.4,13.9,3.1c-1.1-1.9-2.2-3.8-3.3-5.7c2.2,0.7,4.5,1.3,6.8,2c0.3-0.4,0.9-1.1,1.2-1.4c-2.6-2.4-4.2-5.5-4.4-9
	c-2-16.1-4-32.3-5.8-48.5C937.9,346.2,937,336.7,937.2,327.1L937.2,327.1z"/>
<path class="st0" d="M182.9,331.3c21.4-6.3,43-11.5,64.7-16.9c0.8,4.7,0.9,9.6,0.7,14.3c-2.4,0.5-4.6,1.3-6.3,3.1
	c1.3,0.8,2.6,1.5,3.9,2.3l0.6,0.4c-3.4,0.7-6.6,1.8-9.7,3.3c1.5,1.1,3.1,2.2,4.7,3.2c0.7,3.3,1.2,6.6,1.2,10c0,16.7,0.1,33.4,0,50.1
	c-0.1,6.2,0.2,12.5-0.7,18.8c-0.4,3.3-2.5,5.9-3.5,8.9c1.3,1.9,4.3-0.3,6.3-0.4c-0.6,6-0.7,12.1-0.5,18.2
	c-13.9,3.6-27.7,7.7-41.6,11.6c1-7.4,3.1-14.6,4.6-22c3.4-15,6.7-30,10.1-45c0.8-2.4-0.4-4.7-1.6-6.6c-7.5-11.9-14.9-23.8-22.3-35.8
	C190,343,186.1,337.4,182.9,331.3L182.9,331.3z"/>
<path class="st0" d="M469.5,317.8c0.9-0.4,1.8-0.7,2.7-1.1c1.7-0.2,3.4-0.2,5.1-0.3c0.4,11.2,0.1,22.5,0.2,33.7
	c-0.1,6.4,0.3,12.8-0.4,19.2c-0.1,2.5-1.8,4.6-3,6.7c3.8-0.1,7.5-0.4,11.3-0.9c1.3,1.5,2.7,3.1,4,4.6c-6.8,1.3-13.8,1.4-20.7,2
	c1.3-2.1,2.9-4.2,3.1-6.8c1.2-12.9,0.4-25.9,0.5-38.8c0.2-5.2-0.2-10.5-0.4-15.7C471.1,319.6,470.2,318.7,469.5,317.8L469.5,317.8z"
	/>
<path class="st0" d="M490.5,317.2c0.1-0.2,0.4-0.6,0.5-0.8c-0.1,0.7-0.2,2-0.3,2.7c2.4,1.3,5.4,2.2,6.6,4.9c3.3,5.9,2.2,12.9,1,19.2
	l-0.1,0.4c-2.5,0.1-5,0.1-7.5,0.1C490.7,334.8,490.9,326,490.5,317.2L490.5,317.2z"/>
<path class="st0" d="M491.1,316.4c1.7-0.4,3.5-0.5,5.3-0.7c3.5,1.6,6.3,4.6,6.9,8.5c1.3,6.4,1.4,15.1-4.9,19
	c1.2-6.3,2.3-13.3-1-19.2c-1.2-2.7-4.2-3.7-6.6-4.9C490.8,318.4,491,317,491.1,316.4L491.1,316.4z"/>
<path class="st0" d="M663.7,316.1l1.4-0.8c3.6,2.9,3,7.8,3.2,11.9c0.1,13.3,0.3,26.7,0.1,40c0.1,3.6-1.5,6.9-2,10.4
	c8.7,0.5,17.4,0.8,26,1.6c1.1,8.5,0.2,17.1,0.7,25.6c1.8,0.5,3.5,1,5.3,1.4c-9,0.4-18.1-0.9-27.1-0.1c-5.8,0.1-11.6-0.2-17.3-0.3
	c-6.3,0.4-10.3-5.6-16.1-6.9c-6.3-1.4-12.2-4.1-18.4-5.6c-0.4-5.6,0.8-11.1,2.3-16.4c-4.3-2-9-3.5-13.9-2.9c1.1-1,2.2-1.9,3.2-3
	c1.2-1.6,2.2-3.2,3.2-4.8c5.4,6.4,13.5,9.8,21.7,10.8c7.3,0.9,15,0.9,22-1.7c2-0.6,2.2-3,3-4.6c1.1-0.7,2.3-1.3,3.1-2.3
	c0.7-7-0.2-14.1,0.4-21.1c0.1-2.1,2.3-3.1,3.4-4.7c-6.8-1.4-13.9-1.4-20.9-1.4c1.3,1.8,2.7,3.4,4.1,5.2c-3.2-0.4-6.5-0.5-9.5,0.7
	c1.3,1.1,2.6,2.1,4,3.2c0.4,5.6,0.5,11.2,0.7,16.8c-4.5-0.8-9.2-2-12.6-5.2c-5.1-4.7-7.2-11.7-8-18.4c-0.7-7.4-0.2-15.3,3.4-22.1
	c2.9-2.2,6.1-4.6,9.9-4.5c4.5,0,9.1,1.3,13.1,3.5c3,1.6,4.6,4.7,6.6,7.3c1-2.4,1.4-5,1.2-7.6c0.5,1,1,2,1.6,3c0.5,0,1.5-0.1,2.1-0.2
	C663.7,320.4,663.7,318.3,663.7,316.1L663.7,316.1z"/>
<path class="st0" d="M687,315.7c4.5,0.7,9.3,0.5,13.6,2.3c-0.2,3.1-0.4,6.1-1.3,9.1c-1.8-1.5-3.3-3.3-5.2-4.5
	c-2.2-0.9-4.7-0.9-7-1.3C687,319.4,687,317.5,687,315.7L687,315.7z"/>
<path class="st2" d="M404.7,319.3c5.2-0.8,10.8-1.5,15.7,0.7c5.2,2.5,7.9,8.5,7.5,14.1c0.2,7.4-3.4,14.6-9.2,19.1
	c-4.6,2.5-9.7,3.7-14.9,3.9c0,1.9,0,3.8,0,5.7c0,6,0,12,0.9,17.9c1.1,0.5,2.2,0.9,3.3,1.3c-0.4,0.5-0.8,0.9-1.2,1.4
	c-2.7,0.3-5.4,0.5-8.1,0.8c-4.1,0.5-8.1,1.5-12.3,1.3c1-1.1,2.1-2.2,3.1-3.3c1.8-14.3,0.5-28.8,0.9-43.1c0-4.4,0.1-8.8-0.6-13.1
	l-0.4-0.9c-0.9-0.8-1.8-1.5-2.6-2.2c0.4-0.5,1.1-1.5,1.4-2C393.7,320.8,399.2,320.2,404.7,319.3L404.7,319.3z"/>
<path class="st0" d="M569.1,317.4c6,0.1,12.1,2.1,16.2,6.7c9.3,9.4,9.6,24.1,6.2,36.2c-2.7,2.2-5.6,4.4-9.2,4.8
	c-4.1,0.6-9,1.2-12.5-1.4c-0.6-2.8-0.7-5.7-0.8-8.5C569.1,342.6,569.1,330,569.1,317.4L569.1,317.4z"/>
<path class="st2" d="M797.1,322.1c1.9-1.6,4-3.7,6.7-3.7c1.9,3,2.7,6.5,3.8,9.8c4.2,12.8,8.4,25.5,13,38.2
	c2.5,6.8,4.4,13.9,8.7,19.8c0.7,1.1,1.4,2.2,2.1,3.4c-6,0.4-11.7-1.8-17.7-2.2c-1.4-7.8-4.9-15-7.3-22.5c-5.5-0.8-10.9-1.6-16.4-2.3
	c-0.6,1.6-1.2,3.3-1.8,5c-2.2,4.6-3.1,9.7-2.3,14.8v1.1c-1.5-0.2-3-0.5-4.5-0.7c-2.9-0.3-5.8-0.7-8.8-1.1c0.1-0.3,0.2-1,0.3-1.3
	c1.9-1.7,3.6-3.7,4.4-6.1C784.4,357.1,791.3,339.8,797.1,322.1L797.1,322.1z"/>
<path class="st0" d="M426.6,321.7c2.7-0.4,5.3-0.7,8-1.1c0.6,7.2,0.2,14.4,0.3,21.6c-0.1,11.4,0.3,22.7-0.5,34.1
	c-0.5,0.4-1.4,1.2-1.9,1.6c0,0.5,0.1,1.5,0.1,2.1c10.6-1.2,21.1-2.3,31.7-3.1c-1,1.7-0.7,4.9-3.2,5.3c-6,1-12.1,1.2-18.2,1.8
	c-5.2,0.2-10.3,1.7-15.5,1.4c1.2-4,2.5-8,2.2-12.1c-0.1-15.7,0.4-31.5-0.3-47.2c-1-0.8-2-1.7-3-2.5
	C426.5,323.1,426.5,322.1,426.6,321.7L426.6,321.7z"/>
<path class="st0" d="M448.6,320.7c4.6-0.2,9.3-1.3,13.8-0.1c-0.3,3.2-0.8,6.4-1.6,9.5c-1.3-1.3-2.4-2.7-3.9-3.8
	c-2.7-0.8-5.6-0.4-8.3-0.5C448.6,324.2,448.6,322.5,448.6,320.7L448.6,320.7z"/>
<path class="st0" d="M609.6,334.5c1.9-4.9,4.3-9.6,7.6-13.6c-2.2,4.8-4.1,9.8-4.5,15.1c0,3.6-1.7,6.7-3.7,9.5
	C609.6,341.9,609.5,338.2,609.6,334.5L609.6,334.5z"/>
<path class="st0" d="M793.5,324.8c1.2-0.9,2.4-1.8,3.6-2.7c-5.8,17.7-12.7,34.9-19.7,52.1c-0.9,2.4-2.5,4.4-4.4,6.1
	c-0.1,0.3-0.2,0.9-0.3,1.3c2.9,0.4,5.8,0.8,8.8,1.1c0.6,1.7,1.1,3.5,1.7,5.2c-5.6-0.3-11.2-0.8-16.6-2.1c2-2.2,4-4.4,5.1-7.2
	c6.6-16,12.9-32.2,18.5-48.6C790.8,328,791.8,326.1,793.5,324.8L793.5,324.8z"/>
<path class="st2" d="M248.3,328.8c7.7-1.5,15.1-4.3,22.9-5.9c5.5-0.8,12-1,16.5,2.8c5,4.2,6.5,11.3,6.4,17.6c0,0.6-0.1,1.8-0.1,2.4
	c-0.4,8.8-4,17.4-10.4,23.5c-6.2,5.3-13.9,8.3-21.8,9.7c0,1.9,0,3.7,0.1,5.6c0,9.7-0.2,19.3,1,28.9c1.6,0.6,3.1,1.2,4.6,1.9
	c-2.6,2.7-6.5,3.2-9.9,4.2c-4.9,1.2-9.6,3.1-14.7,3.5c2.4-3.9,4.4-8.2,4.4-12.9c0.7-18.6,0.2-37.3,0.3-55.9
	c-0.2-6.5,0.5-13.2-1.2-19.6l-0.6-0.4c-1.3-0.8-2.6-1.5-3.9-2.3C243.7,330.1,245.9,329.3,248.3,328.8L248.3,328.8z"/>
<path class="st2" d="M357.3,326.2c5.7-1.2,11.6-2.7,17.5-1.4c4.7,1.1,7.8,5.7,8.7,10.3c1.3,8.6-2.1,17.7-8.7,23.4
	c-4.6,2.9-9.8,4.5-15.2,5.2c0,1.7,0.1,3.4,0.1,5.1c0.1,5.3-0.2,10.7,0.4,16c0.1,1.7,1.4,2.9,2.7,3.7c0.1,0.3,0.2,1,0.2,1.4
	c-2.8,0.6-5.7,1.1-8.6,1.5c-4,0.7-8,1.5-12.1,1.5c1.8-2.2,3.5-4.6,3.4-7.5c0.6-12.7,0.1-25.4,0.3-38.2c0-4.7,0.2-9.4-0.5-14.1
	c-1.1-1.2-2.3-2.3-3.4-3.4C346.9,327.3,352.3,327.5,357.3,326.2L357.3,326.2z"/>
<path class="st0" d="M403.9,325.4c2.7-0.8,5.9-1.2,8.1,0.8c4.1,3.3,4,9.1,3.9,13.9c0,4.6-2.1,9.1-6,11.6c0.9-5.5,1.6-11.5-0.7-16.7
	c-1-2.4-3.6-3.5-5.5-5C403.7,328.5,403.7,327,403.9,325.4L403.9,325.4z"/>
<path class="st0" d="M381.4,327.6c2.8-0.6,5.5-1.1,8.3-1.5c0.8,4.3,0.6,8.7,0.6,13.1c-0.4,14.4,0.9,28.8-0.9,43.1
	c-1,1.1-2.1,2.2-3.1,3.3c4.1,0.2,8.2-0.8,12.3-1.3c1.2,1.4,2.4,2.7,3.5,4.1c-0.6,0.4-1.2,0.7-1.8,1c-6.2,0.5-12.4,1.4-18.5,2.3
	c1.8-3,3.2-6.3,3.1-9.8c0.3-14.6,0.1-29.2,0.1-43.7C385.4,334.2,384.1,330.5,381.4,327.6L381.4,327.6z"/>
<path class="st2" d="M832.8,326.4c7.6,0.8,15.1,2.4,22.6,3.7c9.8,2.5,16.9,12.8,15.2,22.9c-0.6,5.8-4.5,10.7-9.3,13.7
	c5.7,9.7,11,19.6,17.6,28.7c0.7,0.7,1.4,1.5,2.2,2.2c-2.4,1.1-5.1,0.9-7.6,0.6c-3.2-1.3-6.5-2.8-8.7-5.6c-5.4-6.8-8.7-14.9-13-22.3
	c-0.8-1.7-2.8-2.1-4.2-3.1c-0.6,2.6-0.8,5.3-0.4,7.9c0.5,4.6-0.2,9.2,0.6,13.8l0.1,0.4c0.8,0.6,2.3,1.9,3.1,2.5
	c-2.5,1.8-5.6,0.8-8.3,0.2c-3.7-0.8-7.5-1.2-11.1-2.2c1.8-2.2,3.4-4.7,3.1-7.7c0.3-16.9,0.3-33.8,0-50.7l-0.2-1.2
	c-0.4-0.5-1.1-1.6-1.4-2.2C832.9,327.7,832.8,326.8,832.8,326.4L832.8,326.4z"/>
<path class="st0" d="M359.6,331.6c3.9-1.7,9-0.9,10.8,3.3c2.8,7.7,2.3,18.5-5.5,23.2c2.4-5.3,2.4-11.7,0.4-17.1
	c-1-2.5-3.6-3.6-5.7-4.9C359.6,334.6,359.6,333.1,359.6,331.6L359.6,331.6z"/>
<path class="st0" d="M261.9,333.1c3.5-1.1,7.6-2.6,11-0.7c4.5,2.5,5.8,8,5.9,12.8c0.3,8.5-1.2,18-7.6,24.2c2.5-8.3,4.3-17.7,0.8-26
	c-1.7-4.1-6.1-5.4-10.2-5.4C261.8,336.3,261.8,334.7,261.9,333.1L261.9,333.1z"/>
<path class="st2" d="M316.4,334.1c6.4-1.2,12.8-2.8,19.3-3.9c-0.4,4.1-0.9,8.3-2.2,12.2c-1-1.3-1.9-2.6-2.9-3.9
	c-4.8-0.2-9.4,0.8-14.1,1.6c0,1.7,0,3.3,0,5c0,5.6,0,11.2,0.1,16.8c6-1.2,11.9-2.9,18-3.7c-0.5,3.3-1,6.6-1.7,9.8
	c-0.9-0.4-2.8-1.3-3.7-1.7c-4.3,0-8.4,1-12.6,1.6c0,1.6,0,3.3,0,5c0,6-0.1,12,0.2,18c7.6,1.1,14.9-2,20.9-6.2c-0.3,3.3-1,6.5-2,9.7
	c-1.2,0.3-2.4,0.5-3.6,0.8c-10.6,1.9-21.2,4.2-31.8,6.5c1.1-3.1,2.5-6.2,2.4-9.6c0.2-11.7,0.1-23.3,0.1-35
	c-0.1-5.1,0.2-10.3-0.4-15.4c-1.4-1.1-2.8-2.1-4.1-3.2C303.6,335.3,310.4,335.8,316.4,334.1L316.4,334.1z"/>
<path class="st0" d="M403.7,330.1c2,1.5,4.5,2.6,5.5,5c2.3,5.3,1.6,11.2,0.7,16.7v0.3c-2-0.1-4.1-0.3-6.1-0.5
	C403.7,344.4,403.8,337.3,403.7,330.1L403.7,330.1z"/>
<path class="st0" d="M827.9,330.9c2.2,0.1,4.5,0.3,6.8,0.6c0.3,16.9,0.3,33.8,0,50.7c0.3,3-1.3,5.5-3.1,7.7c3.7,1,7.4,1.4,11.1,2.2
	c0,0.3,0,1,0.1,1.4c0.9,1.4,1.9,2.7,2.8,4.1c-8.5-0.4-16.7-2.8-25.1-3.8c-3.6-0.5-7.1-1-10.6-1.7c-1.3-7.8-4.7-15-7.2-22.4
	c-4.8-0.8-9.6-1.4-14.4-2.2c0.6-1.7,1.2-3.3,1.8-5c5.5,0.8,10.9,1.6,16.4,2.3c2.4,7.5,5.9,14.7,7.3,22.5c5.9,0.5,11.7,2.7,17.7,2.2
	c-0.7-1.2-1.4-2.3-2.1-3.4c0.9-14.7,0.2-29.4,0.4-44C829.9,338.4,828.9,334.6,827.9,330.9L827.9,330.9z"/>
<path class="st0" d="M337.3,335.3c2.7-1.1,5.4-1.8,8.3-2.2c0.7,4.6,0.4,9.4,0.5,14.1c-0.2,12.7,0.3,25.5-0.3,38.2
	c0.1,3-1.6,5.4-3.4,7.5c4.1,0,8.1-0.8,12.1-1.5c1.3,1.1,2.5,2.3,3.8,3.5c-0.1,0.2-0.3,0.6-0.4,0.8c-6.7,1.4-13.4,2.4-20.2,3.2
	c4.2-5.7,3.2-13,3.3-19.6c-0.1-12.4,0.1-24.7-0.1-37.1C341.1,339.2,339.1,337.2,337.3,335.3L337.3,335.3z"/>
<path class="st0" d="M847.4,338.7c-1.6-1.7-0.2-4.1,2-4.1c3.9,1.6,7.6,4.3,8.8,8.5c2.1,6.1,2.9,14.8-2.9,19l-0.7-0.2
	c1.3-5.4,1.5-11.3-0.9-16.4C852.3,342.7,849.7,340.8,847.4,338.7L847.4,338.7z"/>
<path class="st3" d="M608.9,345.6c2-2.8,3.7-6,3.7-9.5c0.3,3.8,0.8,7.7,0.1,11.5c-0.7,2.8-0.3,5.6,1,8.2c1.6,3.2,1.6,6.9,0.8,10.3
	c-1,1.7-2,3.3-3.2,4.8c0.4-2.6,0.9-5.1,0.8-7.7c-0.7-3.3-3.3-5.7-4-9c-0.4-2.3-0.3-4.7-0.1-7C608.3,346.8,608.7,346,608.9,345.6
	L608.9,345.6z"/>
<path class="st2" d="M890.7,337.2c1.6-0.7,3.2-1.4,4.8-2.1c1.5,3.2,2.8,6.5,4,9.8c3.9,11.7,8.1,23.3,12.3,34.9
	c0.7,2.1,1.5,4.2,2.2,6.3c4.7-12.4,9.7-24.7,14-37.2c0.8-1.7,1.2-4,3.1-4.7c4.6,1.8,4.9,7.2,5.3,11.5c1.8,16.2,3.8,32.3,5.8,48.5
	c0.2,3.5,1.9,6.6,4.4,9c-0.3,0.4-0.9,1.1-1.2,1.4c-2.3-0.7-4.5-1.3-6.8-2c-3.3-1-6.6-1.8-9.9-2.5c0.6-1,1.2-2,1.9-3
	c-0.5-6.9-1.6-13.8-2.2-20.6c-0.1-5.4-0.2-11-2.1-16.2c-0.8,2-1.5,4-2.2,6c-0.5,1.2-0.9,2.5-1.3,3.8c-2.8,7.3-5.8,14.4-8.8,21.6
	c-0.7,1.9-2,3.5-3.7,4.7c-6.7-13.4-10.7-27.9-16.3-41.8c-0.3,4.7-0.6,9.4-1.1,14.1c-0.3,5.4-1.4,10.8-1.4,16.3
	c-0.2,1.9,1.1,3.3,2,4.8c0,0.5-0.1,1.4-0.1,1.8c-2.4-0.5-4.8-1-7.2-1.6c-1.6-0.4-3.2-0.8-4.7-1.2c0.5-0.6,1.4-1.7,1.9-2.2
	c1.2-3.1,1.4-6.5,1.9-9.7c1.7-15.9,3.6-31.8,5.1-47.8C890.5,338.9,890.7,337.8,890.7,337.2L890.7,337.2z"/>
<path class="st0" d="M359.6,336.1c2.1,1.4,4.7,2.4,5.7,4.9c2,5.5,2,11.8-0.4,17.1c-1.8,0.1-3.5-0.1-5.3-0.3
	C359.6,350.6,359.7,343.3,359.6,336.1L359.6,336.1z"/>
<path class="st0" d="M261.8,338c4.1,0,8.5,1.3,10.2,5.4c3.5,8.3,1.7,17.7-0.8,26c-2.5,2.5-6.2,2.6-9.4,1.4
	C261.9,359.9,261.9,348.9,261.8,338L261.8,338z"/>
<path class="st0" d="M316.5,340.1c4.7-0.8,9.3-1.8,14.1-1.6c-0.5,3.2-1.2,6.3-1.9,9.5c-1.2-1.1-2.4-2.3-3.7-3.3
	c-2.8-0.5-5.7,0.1-8.5,0.4C316.5,343.5,316.5,341.8,316.5,340.1L316.5,340.1z"/>
<path class="st0" d="M847.4,338.7c2.3,2.1,4.9,4,6.2,6.9c2.4,5.1,2.2,11,0.9,16.4l0.7,0.2c0.3,0.1,0.8,0.3,1,0.4
	c-2.9,0.5-5.9,0.1-8.7-1C847,354,846.4,346.3,847.4,338.7L847.4,338.7z"/>
<path class="st0" d="M795.7,348c0.2-2.8,1.8-5.4,2.7-8.1c2.1,6.2,4,12.5,5.9,18.7c-1.8-0.3-3.6-0.5-5.4-0.8
	C797.8,354.5,796.7,351.3,795.7,348L795.7,348z"/>
<path class="st0" d="M885.6,341.5c1.4-1.1,3.2-1.5,4.8-2.2c-1.6,15.9-3.4,31.8-5.1,47.8c-0.4,3.3-0.7,6.6-1.9,9.7
	c-0.6,0.2-1.7,0.6-2.3,0.8c-0.8-0.7-1.5-1.4-2.2-2.2c2.1-13,3.1-26.2,4.7-39.2C884.4,351.3,884.2,346.3,885.6,341.5L885.6,341.5z"/>
<path class="st0" d="M294,343.3c2.8-0.5,5.5-1,8.3-1.5c0.6,5.1,0.3,10.2,0.4,15.4c-0.1,11.7,0.1,23.3-0.1,35
	c0.1,3.4-1.3,6.5-2.4,9.6c10.6-2.3,21.1-4.6,31.8-6.5c-0.4,1.5-0.9,3-1.5,4.5c-3.8,2.1-8.3,2.3-12.5,3.2c-7.5,1.1-14.7,3.3-22.1,4.7
	c-0.6-3.2,1.7-6.1,1.6-9.4c0.4-12.7,0-25.4,0.2-38c0.1-4.5-0.1-9-0.7-13.4c-0.7-0.3-2.2-0.8-3-1.1C294,345.1,294,343.9,294,343.3
	L294,343.3z"/>
<path class="st0" d="M687.3,343.3c4.2,0.2,8.5,0,12.5,1.4c-0.4,2.5-0.8,4.9-1.2,7.4c-3.3-2.3-7.2-3.6-11.2-3.7
	C687.3,346.7,687.3,345,687.3,343.3L687.3,343.3z"/>
<path class="st0" d="M293.9,345.7c0.7,0.3,2.2,0.8,3,1.1c0.6,4.4,0.8,8.9,0.7,13.4c-0.1,12.7,0.2,25.4-0.2,38
	c0.1,3.2-2.2,6.2-1.6,9.4c7.4-1.4,14.6-3.6,22.1-4.7c0.6,0.1,1.7,0.3,2.3,0.4c-1.3,0.5-2.6,0.9-3.9,1.4c-0.4,7.8-0.2,15.6-0.2,23.4
	c-1,0.8-2.1,1.6-3.1,2.4c-23,4.8-45.9,10.2-68.7,16.1c-0.2-6.1-0.2-12.1,0.5-18.2c6-1.9,12.3-3,17.9-6.1c-1.6-1-3.3-2-5-2.9
	c3.4-1,7.2-1.5,9.9-4.2c-1.5-0.6-3.1-1.2-4.6-1.9c-1.2-9.6-1-19.3-1-28.9c8.8-2.2,17.2-7.2,21.8-15.3
	C289.9,363.1,293.5,354.5,293.9,345.7L293.9,345.7z"/>
<path class="st0" d="M641.7,346.8c3.1-1.2,6.3-1.1,9.5-0.7c0.5,6.6,0.1,13.2,0.3,19.8c-1.7,0.4-3.4,0.7-5.1,0.9
	c-0.2-5.6-0.3-11.2-0.7-16.8C644.4,348.9,643.1,347.8,641.7,346.8L641.7,346.8z"/>
<path class="st0" d="M605.3,355.5c0.7-2.9,1.3-5.7,2.8-8.3c-0.2,2.3-0.3,4.7,0.1,7c0.7,3.3,3.3,5.8,4,9c0.1,2.6-0.4,5.1-0.8,7.7
	c-1,1.1-2.1,2-3.2,3c-0.2,0-0.5,0.1-0.7,0.1C610.7,367.8,608.1,361.2,605.3,355.5L605.3,355.5z"/>
<path class="st0" d="M448.7,353.3c0-1.8,0-3.6,0-5.4c4.2-0.2,8.3-0.5,12.5-0.3c-0.2,2.3-0.4,4.7-0.8,7
	C456.5,353.9,452.6,353,448.7,353.3L448.7,353.3z"/>
<path class="st0" d="M613.8,355.7c-1.3-2.6-1.7-5.4-1-8.2c1.3,8.4,6.1,16.5,13.9,20.3c10.6,5.2,23.1,5.5,34.5,2.7
	c-0.8,1.6-1,4-3,4.6c-7,2.5-14.7,2.6-22,1.7c-8.2-0.9-16.3-4.4-21.7-10.8C615.4,362.6,615.4,358.9,613.8,355.7L613.8,355.7z"/>
<path class="st0" d="M754.9,347.6c4.8,0.2,9.5,0.7,14.2,1.3c2,0.2,3.7,1.3,5.2,2.7c-0.2,2.5-0.5,4.9-0.7,7.4c-0.5,0-1.5,0-1.9,0
	c-1.8-2-3.5-4.3-6.2-5c-3.5-0.9-7.1-1.1-10.6-1.5C754.9,350.9,754.9,349.2,754.9,347.6L754.9,347.6z"/>
<path class="st0" d="M792.4,356.7c1-3,2.1-5.9,3.4-8.7c1,3.3,2.1,6.5,3.1,9.8C796.7,357.4,794.5,357.1,792.4,356.7L792.4,356.7z"/>
<path class="st0" d="M923.8,350.6c0.5-2.1,2.5-1.8,4.3-1.6c-4.3,12.5-9.3,24.8-14,37.2c-0.8-2.1-1.5-4.2-2.2-6.3
	C917.1,370.7,919.4,360.2,923.8,350.6L923.8,350.6z"/>
<path class="st0" d="M490.7,355.7c0-1.6,0-3.2,0-4.8c1.5-0.1,3.1-0.1,4.6-0.2c4.9,6.5,9.1,13.7,15.3,19.1c2.2,2,5.2,2.6,8.1,3
	c1.6,0.9,3.2,2.1,5.2,2.1c0.8-0.8,1.5-1.6,2.2-2.5c4.5-0.3,8.9-0.6,13.4-0.6c1.2,1.7,2.5,3.4,3.7,5.1c-3.7,0.6-7.5,0.7-11.2,0.8
	c-5.6-0.2-11.2,0.7-16.8,0.5c-3.6-0.1-6.8-2.2-9.3-4.7c-4.1-4.3-7.4-9.4-10.9-14.2C493.9,357.8,492.3,356.8,490.7,355.7L490.7,355.7
	z"/>
<path class="st0" d="M403.8,357.2c5.2-0.1,10.3-1.4,14.9-3.9c-3.4,5.2-9,8.2-15,9.5C403.7,360.9,403.7,359,403.8,357.2L403.8,357.2z
	"/>
<path class="st0" d="M490.7,355.7c1.6,1,3.2,2,4.3,3.6c3.5,4.8,6.7,9.9,10.9,14.2c2.5,2.5,5.6,4.6,9.3,4.7
	c5.6,0.2,11.2-0.7,16.8-0.5c-4,1.7-8.4,1.7-12.6,1.6c-0.2,8.7,0.1,17.4-0.5,26.1v0.8c-22.5,1.4-44.9,3.1-67.4,5.1
	c-2.9-0.2-5.7-0.6-8.5-0.7c9.7-1.5,19.6-1.7,29.2-3.9c0.3-8,0.3-16,0-24c-1.1-0.3-2.2-0.7-3.4-1c6.9-0.6,13.9-0.7,20.7-2
	c-1.4-1.6-2.7-3.1-4-4.6c2.7-0.2,5.5-0.4,8.2-0.5c0.1-0.5,0.4-1.4,0.5-1.8c-0.6-0.3-1.9-0.9-2.5-1.2
	C490.8,366.3,490.7,361,490.7,355.7L490.7,355.7z"/>
<path class="st0" d="M605.3,355.5c2.8,5.8,5.4,12.4,2.2,18.6c0.2,0,0.5-0.1,0.7-0.1c4.8-0.6,9.5,0.8,13.9,2.9
	c-1.5,5.3-2.7,10.8-2.3,16.4c0,2.3,0,4.7,0.2,7c0,0.6,0.1,1.9,0.1,2.6c-6.1-0.5-12.3-1.1-18-3.4H602c-1-0.7-2.1-1.3-3.1-1.9
	c-0.1-3.2-0.1-6.4-0.2-9.6c-0.3-3.9-1.1-7.8-1.3-11.7c1.8-0.3,3.7-0.5,5.5-0.8c0.7-2.4,1.5-4.8,1.6-7.4c-0.2-2.5-1.3-4.7-2.1-7
	C603.7,359.4,604.8,357.5,605.3,355.5L605.3,355.5z"/>
<path class="st0" d="M359.6,363.7c5.4-0.7,10.6-2.2,15.2-5.2c-3.8,5-9,8.6-15.1,10.3C359.6,367.1,359.6,365.4,359.6,363.7
	L359.6,363.7z"/>
<path class="st0" d="M599.1,364.3c1.1-1,2.1-2.1,3.2-3.2c0.8,2.3,1.8,4.6,2.1,7c-0.1,2.5-0.9,5-1.6,7.4c-1.8,0.2-3.7,0.5-5.5,0.8
	c0.2,3.9,0.9,7.8,1.3,11.7c-4.8-1-9.6-2.1-14.4-2.8c-5.2-0.6-9.8-3.4-15-4.1c-5.7-0.6-11.5-2.5-17.3-1.3c2.2-1.2,4.7-1.7,7.2-2.2
	c-1.8-0.3-3.5-0.6-5.3-0.8c11.2-0.9,23,1.4,33.6-3.3C592.2,371.6,595.8,367.9,599.1,364.3L599.1,364.3z"/>
<path class="st0" d="M894.1,364.7c5.6,13.8,9.7,28.3,16.3,41.8c-1.2,1.6-2.3,3.2-3.4,4.8c-3.8-4.8-5.1-10.9-7.5-16.5
	c-2.2-5.3-3.6-11-6.5-16C893.4,374.2,893.8,369.4,894.1,364.7L894.1,364.7z"/>
<path class="st0" d="M316.5,368c4.2-0.7,8.3-1.6,12.6-1.6c-0.4,2.5-0.9,4.9-1.3,7.4c-3.6-1.7-7.5-1.4-11.3-0.8
	C316.5,371.3,316.5,369.6,316.5,368L316.5,368z"/>
<path class="st0" d="M788.2,367.5c4.8,0.7,9.6,1.4,14.4,2.2c2.5,7.4,5.9,14.6,7.2,22.4c3.5,0.6,7.1,1.2,10.6,1.7
	c1,6.1,0.8,12.3,0.6,18.4c-0.2,2.9,0.4,5.7,1.5,8.4c-11.4-1.8-22.9-3.5-34.3-5.1c-1-0.8-2.1-1.5-2.9-2.4c-0.8-5.2-0.1-10.5-0.3-15.8
	c-0.2-4.6,0.2-9.3,0.8-13.8v-1.1C785.1,377.2,786.1,372.2,788.2,367.5L788.2,367.5z"/>
<path class="st0" d="M847.3,375.2c-0.4-2.7-0.2-5.3,0.4-7.9c1.4,0.9,3.4,1.4,4.2,3.1c4.3,7.4,7.6,15.5,13,22.3
	c2.1,2.8,5.5,4.4,8.7,5.6c4,1.8,8.5,1.4,12.7,2c0.8,1.9,1.6,3.8,2.4,5.7c-9-2.2-20.3-0.3-27-8c-5.6-6.8-8.8-15.2-13.3-22.6
	c-0.2,4.5-0.1,9.1-0.4,13.7C847.1,384.4,847.8,379.7,847.3,375.2L847.3,375.2z"/>
<path class="st0" d="M261.8,378.9c8-1.3,15.7-4.4,21.8-9.7c-4.6,8.1-12.9,13.1-21.8,15.3C261.8,382.7,261.8,380.8,261.8,378.9
	L261.8,378.9z"/>
<path class="st4" d="M924.2,376.4c0.7-2,1.4-4,2.2-6c2,5.1,2,10.7,2.1,16.2c-0.8-4.3-1.4-8.6-2-13
	C926,374.3,924.8,375.7,924.2,376.4L924.2,376.4z"/>
<path class="st0" d="M518.7,372.8c2.4-0.1,4.9-0.2,7.3-0.4c-0.7,0.9-1.4,1.7-2.2,2.5C521.9,375,520.3,373.7,518.7,372.8L518.7,372.8
	z"/>
<path class="st0" d="M924.2,376.4c0.6-0.7,1.7-2.1,2.3-2.8c0.6,4.3,1.2,8.7,2,13c0.7,6.9,1.7,13.7,2.2,20.6c-0.7,1-1.3,2-1.9,3
	c3.3,0.8,6.6,1.6,9.9,2.5c1.1,1.9,2.2,3.8,3.3,5.7c-4.7-0.7-9.3-1.9-13.9-3.1c-1.1-0.3-2.2-0.6-3.2-1c2.1-11.4-2.2-22.6-2-34
	C923.3,378.9,923.8,377.7,924.2,376.4L924.2,376.4z"/>
<path class="st2" d="M599.7,378c4.3-1.1,8.7-1.5,13-2.3c-0.1,0.7-0.2,2.2-0.3,2.9c-1,0.1-3,0.4-4,0.5c0.7,0.6,1.4,1.1,2.1,1.7
	c0,0.9,0,1.8,0,2.8c-0.8,0.3-2.3,0.8-3,1.1c0.3-1.2,0.6-2.3,1-3.5c-0.5-0.6-1.1-1.1-1.6-1.7c-2.4,0.2-4.8,0.5-7.2,0.5
	C599.7,379.5,599.7,378.5,599.7,378L599.7,378z"/>
<path class="st0" d="M847.8,388.9c0.3-4.5,0.2-9.1,0.4-13.7c4.6,7.4,7.7,15.8,13.3,22.6c6.7,7.7,18,5.9,27,8
	c-0.8-1.9-1.6-3.8-2.4-5.7c2.4,0.6,4.8,1.1,7.2,1.6c-0.8,10.6,0,21.3-0.5,32c-23.4-4.8-46.8-9.5-70.3-13.2c-1.1-2.7-1.7-5.5-1.5-8.4
	c0.2-6.1,0.4-12.3-0.6-18.4c8.4,1,16.6,3.3,25.1,3.8c-1-1.4-1.9-2.8-2.8-4.1c0-0.3,0-1-0.1-1.4c2.7,0.5,5.8,1.6,8.3-0.2
	c-0.8-0.6-2.3-1.9-3.1-2.5L847.8,388.9L847.8,388.9z"/>
<path class="st0" d="M892.9,378.9c3,5,4.3,10.7,6.5,16c2.4,5.5,3.7,11.6,7.5,16.5c1.1-1.6,2.2-3.2,3.4-4.8c1.7-1.2,3-2.8,3.7-4.7
	c3-7.2,6-14.3,8.8-21.6c-0.2,11.4,4.1,22.7,2,34c1,0.4,2.1,0.7,3.2,1c0.2,6.6,0.1,13.3,0,19.9c-0.2,2.5,0.6,4.9,1.6,7.2
	c-12.2-3-24.5-6-36.7-8.6c0.5-10.7-0.3-21.3,0.5-32c0-0.5,0.1-1.4,0.1-1.8c-0.9-1.5-2.2-3-2-4.8
	C891.5,389.7,892.6,384.3,892.9,378.9L892.9,378.9z"/>
<path class="st2" d="M558.9,382.4c5.5-0.2,11,0.6,16.2,2.3c6.8,2.2,14,2.7,20.8,5c1.4,0.2,2.1,1.4,2.7,2.5c-10.8-2-21.3-6.2-32.4-7
	c0.6,1,1.1,2,1.7,3.1C564.5,387.1,560.8,385.7,558.9,382.4L558.9,382.4z"/>
<path class="st2" d="M601.6,382.5c1.5,0,2.9,0,4.4,0c-0.5,2.1-0.9,4.1-1.6,6.1c-0.9,0.7-1.7,0.6-2.4-0.2
	C601.6,386.5,601.7,384.5,601.6,382.5L601.6,382.5z"/>
<path class="st2" d="M606.4,386.7c0.8-0.3,2.5-0.9,3.3-1.2c0.9,2,1.1,4.1,1,6.2c-1.3-0.3-2.6-0.8-3.8-1.3
	C606.5,389.2,606.6,387.9,606.4,386.7L606.4,386.7z"/>
<path class="st0" d="M544.8,391.8c2.8-2.1,5.4-4.7,9-5.3c-10,8.5-20.6,16.3-30.8,24.5c-5.3,3.9-10.1,8.5-15.8,12
	C519.5,412.2,532,401.9,544.8,391.8L544.8,391.8z"/>
<path class="st2" d="M553.8,386.4c1.1,0.5,2.1,1.1,3.1,1.8c-15.3,11.5-30.3,23.4-45.3,35.3c-1.6,1.1-3.2,2.1-4.9,3.1
	c-0.1-0.8-0.4-2.3-0.5-3c0.2-0.2,0.7-0.5,1-0.7c5.6-3.4,10.5-8,15.8-12C533.2,402.7,543.8,395,553.8,386.4L553.8,386.4z"/>
<path class="st0" d="M511.6,423.5c15-11.9,30-23.8,45.3-35.3c13.3,9.8,25.7,21,40.2,29c5.1,2.9,10,6.8,15.9,8.1
	c5,1,10.1,0.9,15.2,1.7c6.3,1.2,12.3,3.5,18.2,5.9c3.1,1.2,6.4,2.1,9.8,1.9c4.7-0.4,9.3,0.6,14,0.8c5.1,0.4,10.2,2.7,15.3,0.9
	c1.3-1.3,0.7-3.7,0.8-5.4c0.1-3-2.8-4.6-4.9-6c-4.9-3-9.7-6.3-14.7-9.1c0.4-1.5,0.8-2.9,1.3-4.4c4.1-0.5,8.2-1.1,12.3-0.5
	c0.3,0,1,0.1,1.4,0.2c2.6,1.5,5.5,2,8.4,1.8l-0.6-1.4c-0.2-0.6-0.7-1.8-0.9-2.5c2.5-0.4,5.2-0.3,7.5,0.8l0.4,0.7
	c0.2,0.3,0.6,0.9,0.8,1.2c0.4,0.7,0.9,1.4,1.4,2.1c3.2,1.4,7.6,0,9.6,3.5c0.2,1.5,0.2,3,0.2,4.6c2.4,0.1,4.8,0,7.1,0.6
	c0.9,1.8,0.5,4.6,2.5,5.6c3.7,2.2,8.2,2.2,12.3,2.7c0.3,1.1,0.6,2.2,0.8,3.4c-0.5,0.2-1.5,0.5-2,0.7c0.1,0.8,0.3,1.6,0.4,2.5
	c-0.1,1.1-0.2,2.3-0.1,3.4c1.7,1.8,4.1,2.6,6.2,3.6c-0.1,1.4-0.3,2.8-0.4,4.2c1.8,0.2,3.9-0.1,5.3,1.5c-0.9,1.2-1.8,2.4-2.7,3.5
	c3.3,2.1,7.2,2.9,10.9,4.2c-0.7,1.1-1.4,2.2-2.2,3.2c0.4,1.4,0.7,2.8,1,4.2c-2.8,0.5-5.4-0.6-7.9-1.3c-0.1,0.7-0.4,2.2-0.5,2.9
	c-1.5-0.7-3-1.4-4.5-1.9c-2.2,0.5-1.2,2.9-1.5,4.5c1.9,0.5,3.8,1,5.7,1.6c-0.4,0.6-1.3,1.9-1.8,2.6c1.9,0.7,3.8,1.4,5.7,2.1
	c-0.1,0.9-0.2,1.8-0.3,2.8c-1.6,0.5-3.1,1-4.7,1.6c0.2,0.6,0.7,1.7,0.9,2.2c2.3,1.1,5.8,1.9,5.1,5.2c-1.5,0.1-3,0.2-4.6,0.3
	c1.4,1.7,2.8,3.3,4.1,5c-2.8,0.1-5.6,0.1-8.4,0.2c0.8,4.2,5.2,5.5,8.6,7.1c0,1,0.1,2.1,0.1,3.1c2,1.5,4.4,3,4.3,5.9
	c-2.5,2-5.6,3.1-8.7,2.4c-5.2-2-10.4-4.4-15.7-6.2c0.9-1,1.8-1.9,2.7-2.9c-3.1,0-6.1,0.2-9.2,0.6c0.1-0.5,0.4-1.6,0.5-2.1
	c-3.3-0.7-6.6-1.7-9.4,0.8c-1.7-1.1-3.6-1.3-5.5-1.2c1.6-7,3.2-14.2,2.3-21.4c-1.2-13-7.2-26-18.2-33.5c-6.8-4.8-15.6-5.4-23.6-4.9
	c-6.2,1.5-12.7,1.5-19.1,1.1c-4.1-0.3-8.4-1.7-12.4-0.1c-8.1,2.8-13.8,10-17.7,17.3c-6,11.9-8.6,26.6-3,39.2c1-7.1,2.4-14,4.2-20.9
	c0.7-2.2,0.2-4.4-0.4-6.5c1.7-0.4,3.4-0.7,5.1-1c-2.7,6.8-3.8,14.2-3,21.4c0.8,2.2,0.9,4.6,0.5,7c-2.4,1.4-5.4,2.3-6.8,4.9
	c-0.4,1.5,0.5,2.9,1.1,4.3c-2.4,0-4.7,1-6.9,1.1l-0.4-0.4c-1.1-2.4-0.7-5.1-0.8-7.7c-1,0.1-2,0.2-3,0.3c-0.3,2-0.6,4-1,6.1
	c-3.3-0.7-6.7-1.4-9.9-2.3c-2.1-2-5.1-1.8-7.8-1.8c-0.5,0.9-1,1.8-1.6,2.7c-4.7,1.2-9.3,3-14.2,2.5c-1.5-0.2-3.6,0-4-1.9
	c-1.8-3.6-1.1-8.5-4.7-11c0.4-0.4,0.7-0.8,1.1-1.2c2.7,0,5.4,0,8,0.1c0-0.9,0-2.7,0-3.6c-5.4,0.2-10.8,0.6-16.2,0.8
	c0.2,1.4,0.5,2.8,0.7,4.3c-0.7,0.6-1.4,1.1-2.1,1.7c-0.1,2-0.3,3.9-0.4,5.9c3.4-0.6,6.8-1.5,10.3-0.7c-1.5,0.5-3,1.1-4.5,1.6
	c-0.3,2.4-0.5,4.9-0.8,7.3l-0.1,0.3l-0.2,0.1c-2.5-0.2-5-0.7-7.5-1c-0.1-1.6-0.1-3.2-0.2-4.8c-1-0.1-1.9-0.2-2.9-0.4
	c-0.2,1.6-0.4,3.3-0.6,4.9c-0.1,0.6-0.3,1.7-0.3,2.3c-1.4,0-2.8,0-4.2,0c0.2-8.1,1.3-16.2,1.4-24.3c-5,0.1-9.9,0.4-14.9,0.7
	c3.2,0.6,6.4,1.1,9.6,1.7c0,6.5-0.5,13-1,19.5c-3.5,1.1-6.9,2.4-10.3,3.6c-1.1,0.4-2.3,0.7-3.5,1l0.1-1c0.2-1.6,0.4-3.1,0.6-4.7
	c-0.7,0.1-2.2,0.3-2.9,0.4c-0.7,1.6,0.1,5.1-2.6,4.3c-0.4-1.4-0.7-2.7-0.9-4c-2.6,0.6-5.2,1.2-7.8,1.9c-0.7-0.9-1.4-1.7-2.2-2.5
	l-0.1-0.9c-0.2-2.5-0.5-5-0.7-7.4c-15.8,1-31.6,1.7-47.3,2.6c0.7-2.3,3.2-2.1,5-2.4c4.6-0.4,9.2-0.4,13.8-0.8
	c9.4-0.9,19-0.3,28.4-1.5c-0.5-1.8-1-3.7-1.2-5.5c-0.1-1.9-0.2-3.9-0.2-5.8c0-0.2,0-0.5-0.1-0.7c-0.7-0.4-1.3-0.8-2-1.2
	c0.6-0.3,1.7-0.9,2.2-1.2c-0.1-0.9-0.4-2.5-0.5-3.4c-3.4,0-6.8-0.1-10.2,0c0.2-0.2,0.6-0.6,0.8-0.9c2.9-0.4,5.9-0.5,8.8-0.6
	c-0.4-1.9-0.7-3.8-1.1-5.7c-14.6,1.8-29.4,2.1-44,3.7c0-0.5-0.1-1.6-0.2-2.1c1.7-0.6,3.3-1.4,4.9-2.4l0.4-0.3
	c6.2,0.4,12.5,0.7,18.4-1.3c9.8-3,20.3-2.2,30-4.7c1.2-9.4,1.5-19,2.6-28.4c0.5-3.5,0.8-7,0.9-10.5c-1.9,0.4-3.7,0.7-5.6,1
	c-1-1.1-2-2.2-3-3.2c0.7-0.5,2.2-1.5,2.9-2c0.1,0.8,0.4,2.3,0.5,3C508.4,425.7,510,424.7,511.6,423.5L511.6,423.5z"/>
<path class="st2" d="M601.6,392.3c0.2-2.8,3.9-0.9,5.5-0.7c-0.1,1-0.2,2-0.4,3C604.8,396.7,600.7,395.3,601.6,392.3L601.6,392.3z"/>
<path class="st2" d="M554,399.1c2.1-1.5,4.2-2.9,6.4-4.4c1.8,1.2,3.5,2.5,5.3,3.7c0.1,4,0,7.9,0,11.9c-4.1,0.3-8.1,0.6-12.2,0.8
	C553.5,407.1,553.8,403.1,554,399.1L554,399.1z"/>
<path class="st2" d="M605.6,399.4c-0.2-2.7,2.9-4.4,5.1-5.2c0,2.3,0,4.6,0,6.8C608.9,400.7,606.7,401.1,605.6,399.4L605.6,399.4z"/>
<path class="st5" d="M881.2,397.6c0.6-0.2,1.7-0.6,2.3-0.8c-0.5,0.5-1.5,1.6-1.9,2.2c1.5,0.4,3.1,0.8,4.7,1.2
	c-4.2-0.6-8.7-0.2-12.7-2C876.1,398.6,878.8,398.7,881.2,397.6L881.2,397.6z"/>
<path class="st0" d="M557.5,398.4c2-0.8,2.4,2.5,0.5,2.8C555.8,402,555.5,398.7,557.5,398.4L557.5,398.4z"/>
<path class="st0" d="M561.3,398.6c1.4-0.4,1.9,0.1,1.5,1.5C561.4,400.5,560.9,400,561.3,398.6L561.3,398.6z"/>
<path class="st2" d="M625.8,398.1c4.3-0.3,7.9,2.1,11.5,4c6.5,3.2,12.3,7.7,18.4,11.7c7.4,7.1,18.7,7.7,25.7,15.2
	c-2.2-0.1-4.6-0.2-6.5-1.6c-7.1-4.2-14.3-8.3-20.7-13.4c-5.7-4.5-13.1-5.8-19.1-9.8C631.9,402.3,628.6,400.6,625.8,398.1
	L625.8,398.1z"/>
<path class="st2" d="M568,400.6c1.7,0.3,3,1.5,4.4,2.4c4.3,3.1,9,5.8,13,9.4c-8.2,0.6-16.7,0.2-24.8,2.1c9.1,1.2,18.3-0.8,27.4-0.8
	c2.8,2.1,5.7,4.1,8.6,6.1c-3,0.5-5.9,0.8-8.9,1.1c-0.4-1-0.8-2-1.2-3c-5.7,0.4-11.3,0.8-17,0.9c-0.1,0.7-0.2,2.1-0.2,2.8
	c-6.9,1-14,0.9-20.9,2.2c-0.3,0.3-1,0.8-1.4,1.1c7.4,0,14.6-1.4,22-1.6c-0.1,2.1-0.1,4.3-0.2,6.5c-8,0.6-16,1.3-24.1,2
	c0-3.4,0-6.9,0-10.3c-6,0.6-11.9,1.5-17.9,1.9c8-6.6,16.6-12.5,24.7-19c-0.1,2.9-0.2,5.7-0.3,8.6c5.3-0.2,10.5-0.6,15.8-1.2
	C567.6,408,567.6,404.3,568,400.6L568,400.6z"/>
<path class="st2" d="M602,399.4c5.7,2.3,11.9,2.9,18,3.4c0-0.7-0.1-2-0.1-2.6c1.1,1.6,2.1,3.4,3.7,4.6c6,4.4,12.9,7.5,18.8,12.1
	c-6.1-1-12-2.5-18-4c-5.4-1.3-9.6-5-14.2-7.8C607.4,403.3,604.1,402.1,602,399.4L602,399.4z"/>
<path class="st0" d="M556.1,402.8c0.8-0.1,1.7-0.1,2.5-0.2c-0.7,2.6,0.5,6.5-2.7,7.7c-0.2-0.6-0.5-1.9-0.7-2.6l1.6-0.2
	c-0.5-0.6-1-1.3-1.5-1.9C555.4,404.9,555.9,403.5,556.1,402.8L556.1,402.8z"/>
<path class="st0" d="M560.9,402.5c0.9,0,1.8-0.1,2.8-0.1c0,0.6,0,1.9,0,2.5c-1,0-2,0-2.9,0C560.8,404.3,560.9,403.1,560.9,402.5
	L560.9,402.5z"/>
<path class="st0" d="M560.9,406.8c0.9,0,1.7,0,2.6,0c0.1,0.5,0.2,1.6,0.3,2.1c-1.1,0.1-2.2,0.2-3.3,0.2
	C560.5,408.5,560.7,407.3,560.9,406.8L560.9,406.8z"/>
<path class="st0" d="M653.8,407.9c11.6-0.5,23.2,1.4,34.8,1.1c0.2,0.6,0.7,1.8,0.9,2.5c-2.6-0.2-5.2-0.2-7.8-0.3
	c-0.3,0-1-0.1-1.4-0.2C671.5,409.5,661.9,412.3,653.8,407.9L653.8,407.9z"/>
<path class="st0" d="M362.3,425.3c50.4-8.4,101.4-13.9,152.4-16.5c-2,1.7-4.4,2.6-7,2.6c-7.8,0-15.5,0.8-23.2,1.3
	c-47.9,3.6-95.6,9.9-142.9,18.4c-1.2-0.4-2.4-0.9-3.6-1.3C346,427.8,354.2,426.7,362.3,425.3L362.3,425.3z"/>
<path class="st0" d="M659.5,411.3c2.8,0,5.6,0.2,8.4,0.2c-0.4,1.5-0.9,2.9-1.3,4.4C664.2,414.5,661.9,412.9,659.5,411.3L659.5,411.3
	z"/>
<path class="st2" d="M681.6,411.1c2.6,0.1,5.2,0.1,7.8,0.3l0.6,1.4C687.1,413.2,684.2,412.6,681.6,411.1L681.6,411.1z"/>
<path class="st0" d="M458.7,416.3c16-1.6,32-2.4,47.9-3.7c0.9,0,2.8-0.1,3.7-0.2c-3.2,3.6-10.4,7.6-7,13.2c1,1.1,2,2.1,3,3.2
	c1.8-0.3,3.7-0.7,5.6-1c-0.2,3.5-0.4,7-0.9,10.5l-0.5,0.2c0.1-2.7,0.3-5.5,0.4-8.2c-8.2,0-16.4,0.5-24.6,1.3
	c-9.3,0.9-18.7,1.4-28,2.3C458.2,428.1,458.1,422.2,458.7,416.3L458.7,416.3z"/>
<path class="st0" d="M543.7,416.9c3-3.1,8-1.8,11.9-2.3c-0.7,0.8-1.3,1.8-2.4,1.7C550,416.7,546.8,416.9,543.7,416.9L543.7,416.9z"
	/>
<path class="st0" d="M698.8,413.8c24.5,1.2,49,3.9,73.4,6.9c0.1,5.1-0.5,10.3,0.3,15.3c1.1,1.2,2.6,2.1,4,3c-1.5-0.2-3-0.4-4.4-0.6
	c-5.3-0.6-10.7-1.3-16-1.9c-8.2-0.8-16.3-2-24.6-2.3c-0.3-1.1-0.6-2.3-0.8-3.4c-4.2-0.5-8.6-0.5-12.3-2.7c-2-1.1-1.6-3.8-2.5-5.6
	c-2.3-0.6-4.7-0.5-7.1-0.6c0-1.5,0-3.1-0.2-4.6C706.4,413.7,701.9,415.1,698.8,413.8L698.8,413.8z"/>
<path class="st0" d="M421.7,420.4c12.3-1.5,24.6-2.9,37-4c-0.7,5.9-0.6,11.8-0.5,17.7c-1.2,0.1-2.3,0.3-3.5,0.4
	c-6.3,0.5-12.7,1.2-19,2c-5.5,0.6-10.9,1.3-16.4,1.9c-1.4-0.2-2.8-0.4-4.2-0.6c2-0.3,4-0.7,6-1C421.1,431.3,421.1,425.8,421.7,420.4
	L421.7,420.4z"/>
<path class="st0" d="M390.8,424.4c10.3-1.5,20.6-2.8,30.9-4c-0.7,5.4-0.6,10.9-0.6,16.4c-2,0.3-4,0.6-6,1c1.4,0.2,2.8,0.4,4.2,0.6
	c-0.6,0.1-1.8,0.2-2.5,0.3c-8.8,1.3-17.6,2.1-26.3,3.7C391.5,436.4,391.4,430.4,390.8,424.4L390.8,424.4z"/>
<path class="st2" d="M691.2,423.2c1.2-2.1,3.5-3.2,5.9-2.4c2.8,1.1,5.6,2.5,8.5,3.4c-1.9,0.6-3.8,1-5.7,1.5
	c-1.2-0.7-2.5-1.5-3.7-2.3C694.5,423.3,692.8,423.3,691.2,423.2L691.2,423.2z"/>
<path class="st2" d="M571.5,428.9c0.1-2.7,0.2-5.5,0.3-8.2c1.7,0,3.4-0.1,5.1-0.1c-0.1,2.7-0.2,5.3-0.3,8
	C574.8,428.7,573.1,428.8,571.5,428.9L571.5,428.9z"/>
<path class="st2" d="M579.6,420.5c1.7-0.1,3.5-0.1,5.2-0.1c-0.1,2.7-0.2,5.4-0.3,8c-1.7,0-3.4,0.1-5.1,0.1
	C579.5,425.9,579.5,423.2,579.6,420.5L579.6,420.5z"/>
<path class="st2" d="M587.5,421.8c3.9,0.1,7.8-0.4,11.6-0.1c2.9,1.2,5.4,3.3,7.1,5.9c-6.3,1.7-13,0.6-19.5,1.1
	C586.9,426.4,587.1,424.1,587.5,421.8L587.5,421.8z"/>
<path class="st0" d="M772.2,420.6c13.4,1.6,26.8,3.4,40.2,5.6c-2.3,2-5.2,3.6-6.6,6.4c-0.8,3-0.6,6.2-0.7,9.2
	c-1.3,0.1-2.7,0.3-4,0.4c-5-0.6-10-1.4-15-2.1c-3.2-0.4-6.4-0.8-9.6-1.3c-1.4-0.9-2.8-1.7-4-3C771.6,430.9,772.2,425.7,772.2,420.6
	L772.2,420.6z"/>
<path class="st2" d="M526.2,423.5c2.6,3.2,0.8,7.6,1.2,11.4c-4.4-0.6-8.8-0.1-13.1,0.8c0.1-3.3,0.2-6.7,0.6-10
	c1.4,1.1,2.8,2.3,4.4,3.2C522,427.6,524,425.4,526.2,423.5L526.2,423.5z"/>
<path class="st2" d="M529.9,425.5c1.7-0.3,3.4-0.6,5-0.8c-0.1,2.7-0.2,5.4-0.3,8.1c-1.7,0.3-3.3,0.7-5,1
	C529.7,431,529.8,428.3,529.9,425.5L529.9,425.5z"/>
<path class="st2" d="M537.7,424.6c1.7-0.2,3.4-0.5,5.2-0.7c-0.1,2.6-0.2,5.3-0.2,7.9c-1.7,0.4-3.4,0.7-5.1,1.1
	C537.6,430.1,537.6,427.3,537.7,424.6L537.7,424.6z"/>
<path class="st0" d="M346,431.7c14.9-2.9,29.9-4.9,44.8-7.3c0.5,6,0.6,12-0.2,17.9c-0.4,0.1-1.4,0.2-1.8,0.3
	c-7.9,1.1-15.8,2.3-23.7,3.7c-1.9,0.3-3.9,0.7-5.8,0.8c-3.4-0.1-6.7-0.6-10-1.1c-0.1-4.5-0.1-9-0.1-13.5
	C348.4,432.2,346.8,431.9,346,431.7L346,431.7z"/>
<path class="st0" d="M805.8,432.6c1.4-2.8,4.3-4.5,6.6-6.4c13.7,2.1,27.4,4.3,41.1,7c-4.3,4.8-9.4,9-13,14.3
	c-0.6,0.2-1.7,0.6-2.3,0.8c-3.9-0.7-7.9-1.4-11.8-2c-5.9-1-11.8-2-17.8-2.8c-2.5-0.4-5.1-0.9-7.6-1.3c1.3-0.1,2.6-0.2,4-0.4
	C805.2,438.8,805,435.6,805.8,432.6L805.8,432.6z"/>
<path class="st2" d="M609.9,430.8c1-0.7,2-1.4,3-2.1c12.6,2.8,25.5,4.8,38,8.2c0.5,1.4-2.6,1.5-3.6,1.4
	C634.9,435.6,622.4,433.2,609.9,430.8L609.9,430.8z"/>
<path class="st2" d="M579,431c1.9-0.4,3.9-0.4,5.8-0.6c-0.3,2.8,0.5,5.9-0.8,8.5c-1.9,0.3-3.7,0.2-5.6,0.3
	C578.5,436.4,578.4,433.7,579,431L579,431z"/>
<path class="st2" d="M586.8,430.4c6.2-0.8,12.5-0.6,18.8-0.7c-0.5,5.1-0.8,10.2-0.7,15.3c-13.3,0-26.6,1.3-39.8,0.8
	c0,0.5-0.1,1.6-0.1,2.1c1-0.1,3.1-0.3,4.1-0.4c-0.1,2-0.2,4.1-0.2,6.1c-5.2,0-10.5,0.7-15.7,1c-1.3,0-2.5,0.4-3.6,1.2
	c6.4,0.4,12.8-0.6,19.2-1.1c-0.1,2.3-0.2,4.6-0.3,6.9c-5.1,0.3-10.1,0.5-15.1,1.2c-0.4,0.3-1.1,0.8-1.5,1.1c5.5,0.1,11-0.5,16.4-1
	c-0.1,1.9-0.3,3.8-0.5,5.6c-7.8-0.2-15.5,0.9-23.3,1.4c0.2-6.9,0.2-13.8,0.3-20.7c-5.8,0.4-11.5,1-17.2,1.6
	c-0.8,7.4-0.9,14.8-1.1,22.3c14.1-0.9,28.2-3.3,42.4-3.2c12-0.1,23.9-1.6,35.8-1.2c0,1,0,3.1,0.1,4.2c-8.5,0.2-16.9-0.2-25.4,0.6
	c-23.3,0.2-46.4,3.4-69.4,6.3c1.4-14.3,2.7-28.6,3.9-42.9c4.5-0.2,8.9-1,13.3-1.6c-0.2,3.6-0.3,7.2-0.4,10.8c6-0.6,12-1.4,18-2.1
	c0-1.1,0.1-2.1,0.2-3.2c7.9-1,15.8-1.5,23.7-2.1c-0.1,0.8-0.2,2.3-0.2,3.1c6.1-0.2,12.2-1.1,18.4-1c0-0.8,0.1-2.3,0.1-3
	c6-0.4,12.1,0.2,18.1-1c-5.8-1.8-12-0.2-18-0.6C586.8,434.1,586.8,432.3,586.8,430.4L586.8,430.4z"/>
<path class="st2" d="M570.9,431.6c1.7-0.1,3.4-0.3,5.2-0.4c-0.1,2.7-0.2,5.5-0.4,8.2c-1.6,0-3.2,0.1-4.8,0.1
	C570.9,436.9,570.9,434.2,570.9,431.6L570.9,431.6z"/>
<path class="st2" d="M579.6,431.2c1.1,0,3.2-0.1,4.3-0.1c-0.1,2.4-0.2,4.9-0.3,7.3c-1.1,0.1-3.2,0.2-4.2,0.3
	C579.5,436.1,579.5,433.6,579.6,431.2L579.6,431.2z"/>
<path class="st0" d="M297.7,441.4c16-3.7,32.2-6.7,48.4-9.6c0.8,0.2,2.3,0.5,3.1,0.7c0,4.5,0.1,9,0.1,13.5c3.3,0.5,6.7,0.9,10,1.1
	c-15.2,3-30.5,5.6-45.6,8.8c-2.4,0.5-4.9,1.2-7.4,1.3c-0.9,0-1.8,0-2.7,0c4.3-3.2,2.2-9,2.4-13.5C303.3,442.9,300.5,442,297.7,441.4
	L297.7,441.4z"/>
<path class="st2" d="M544.7,433.5c8-1.3,16-1.7,24.1-2.2c-0.1,2-0.2,4-0.3,6c-7.9,0.2-15.8,1.4-23.7,1.7
	C544.8,437.2,544.8,435.3,544.7,433.5L544.7,433.5z"/>
<path class="st0" d="M853.5,433.2c15.4,2.7,30.7,6,46,9.3c-4.7,4.9-10.1,9.2-13.8,14.9c-15.8-3-31.6-6.4-47.4-9.1
	c0.6-0.2,1.7-0.6,2.3-0.8C844.1,442.1,849.2,438,853.5,433.2L853.5,433.2z"/>
<path class="st2" d="M707.4,434.7c4.1-0.5,8.4,0.9,12.2-1.1c1.3,1.8,1.5,3.9,1.3,6c-2,0.1-4.1,0.1-6.1,0.1c-0.9,0.7-1.8,1.4-2.7,2.1
	c-0.6,0-1.7-0.1-2.2-0.1c-0.1-0.7-0.2-2.1-0.2-2.8C708.8,437.6,708.1,436.2,707.4,434.7L707.4,434.7z"/>
<path class="st2" d="M536.9,442.7c0-2.7,0.2-5.4,0.7-8c1.7-0.1,3.3-0.1,5-0.1c-0.1,2.6-0.3,5.2-0.5,7.7
	C540.3,442.4,538.6,442.6,536.9,442.7L536.9,442.7z"/>
<path class="st2" d="M529,443.7c0.2-2.6,0.1-5.3,0.8-7.8c1.6-0.2,3.1-0.4,4.7-0.5c-0.2,2.6-0.5,5.2-0.7,7.9
	C532.2,443.4,530.6,443.5,529,443.7L529,443.7z"/>
<path class="st2" d="M609.1,437.5c1-0.7,2-1.3,3-2c4.5,0.8,9,1.4,13.4,2.4c-1,0.7-1.9,1.8-3.3,1.5
	C617.8,439,613.4,438.3,609.1,437.5L609.1,437.5z"/>
<path class="st0" d="M510.4,438.5l0.5-0.2c-1,9.5-1.4,19-2.6,28.4c-9.8,2.5-20.3,1.7-30,4.7c-6,1.9-12.3,1.6-18.4,1.3
	c8.1-6.2,18.9-4.4,28.3-5.9c4.1-0.5,8.2-2.8,9.7-6.9c2.4-5.5,6-10.2,9-15.2c-8.5,2.1-16.9,4.3-25.1,7.2c-4.4,1.6-9.7,2.2-12.7,6.3
	c-3.6,4.8-8.1,8.8-12.5,13c0.7,0.5,2,1.4,2.7,1.9c-1.6,0.9-3.2,1.7-4.9,2.4c-1.6,0.1-3.2,0.1-4.8,0.2c2.4-7,9-11,13.4-16.5
	c5.1-8,15.2-8.8,23.4-11.9C494.6,444.4,502.4,441.3,510.4,438.5L510.4,438.5z"/>
<path class="st6" d="M775.4,530.7c-6.1-3.4-12-7.3-18.2-10.5"/>
<path class="st0" d="M234.9,456.6c20.8-5.7,41.7-10.8,62.7-15.3c2.8,0.7,5.6,1.5,8.4,2.3c-0.1,4.5,1.9,10.3-2.4,13.5
	c0.9,0,1.8,0,2.7,0c-14.7,3.6-29.6,6.7-44.2,10.5c-7.5,1.8-14.9,4.1-22.5,5.6c-0.6-5.2-0.6-10.5-0.6-15.7
	C237.6,457.2,236.3,456.9,234.9,456.6L234.9,456.6z"/>
<path class="st0" d="M515.9,443.8c2-1.4,4.6-1.6,6.9-2.1c0.1,0.4,0.2,1.3,0.3,1.7C520.7,443.7,518.3,443.9,515.9,443.8L515.9,443.8z
	"/>
<path class="st2" d="M608,443.3c0.7-0.6,1.2-1.6,2.2-1.7c3.8-0.1,7.5,0.7,11.3,1.2c-0.4,0.4-1.1,1.3-1.5,1.8
	C616,444.7,612,443.8,608,443.3L608,443.3z"/>
<path class="st0" d="M631.8,441.7c4-1.6,8.3-0.2,12.4,0.1c6.4,0.4,12.8,0.4,19.1-1.1c8.1-0.6,16.8,0.1,23.6,4.9
	c11,7.5,17,20.5,18.2,33.5c0.9,7.2-0.6,14.4-2.3,21.4l-0.4,1.7c-2,0-3.9,0-5.9-0.1c4.4-10.8,4.9-23.1,0.8-34
	c-2.9-7.8-7.7-15.5-15.2-19.7c-4.6-2.7-10.2-1.2-14.7,1.1c-7.7,4.1-12.1,12.5-13.7,20.8c-2.3,11.5,0.6,23.1,4.4,33.9
	c-2.1,0.4-4.1,0.7-6.2,0.9c-4-11-6.5-23.1-3.9-34.8c1.8-9.1,6.6-17.4,12.8-24.3c-8.4,5.5-13.1,14.9-15.3,24.4
	c-2.2,9-0.9,18.3-0.8,27.4c-3.2-8.4-5.3-17.5-3.7-26.5c0.8-6.9,4-13.1,7.1-19.3c-4.7-0.1-9.4,0.1-14.1,0.5c-0.3-0.2-0.9-0.6-1.2-0.8
	l-1.6-1.1c-0.9,0.7-1.7,1.4-2.6,2.1c-2.2,0.1-4.4,0.2-6.5,0.3c1.2,1.4,2.4,2.9,3.6,4.3l-0.7,1c-0.6,0.9-1.2,1.7-1.8,2.6
	c-2,0-4,0-6,0.1c1.2,2.3,2.4,4.6,3.1,7.2l-0.4,1.7c-1.7,0.3-3.4,0.7-5.1,1c0.6,2.1,1.1,4.3,0.4,6.5c-1.8,6.9-3.2,13.9-4.2,20.9
	c-5.6-12.6-3-27.3,3-39.2C618,451.6,623.6,444.4,631.8,441.7L631.8,441.7z"/>
<path class="st0" d="M885.6,457.4c3.8-5.7,9.1-10.1,13.8-14.9c11,2.6,22.1,5.1,33.1,7.8c-0.8,0.3-2.4,1-3.2,1.3
	c-0.2,5.3-0.2,10.7-0.1,16c-14.6-3.5-29.1-7.2-43.8-10.1L885.6,457.4L885.6,457.4z"/>
<path class="st7" d="M798.6,470.6"/>
<path class="st7" d="M793.9,543c-6.8-3.1-12.2-8.3-18.5-12.3"/>
<path class="st2" d="M481.9,451.8c8.2-2.9,16.6-5.2,25.1-7.2c-3,5.1-6.7,9.8-9,15.2c-1.6,4-5.6,6.4-9.7,6.9
	c-9.5,1.5-20.2-0.3-28.3,5.9l-0.4,0.3c-0.7-0.5-2-1.4-2.7-1.9c4.3-4.2,8.8-8.2,12.5-13C472.1,454,477.4,453.4,481.9,451.8
	L481.9,451.8z"/>
<path class="st2" d="M633.4,445c7.3,0,14.5-0.5,21.8-0.3c-1.4,1.3-2.5,3.2-4.3,4c-5.5,0.4-11,0-16.5,0.2
	C634.1,447.5,633.7,446.2,633.4,445L633.4,445z"/>
<path class="st0" d="M554.9,446.9c3.1,0,6.7-1.2,9.1,1.4c-3.2,0.1-6.3,0.2-9.5,0.3C554.6,448.2,554.8,447.3,554.9,446.9L554.9,446.9
	z"/>
<path class="st2" d="M586.7,446.7c6.1-0.1,12.1-0.2,18.2-0.2c-0.1,2-0.2,4-0.3,6c-6,0-12,0.1-18,0.2
	C586.7,450.7,586.7,448.7,586.7,446.7L586.7,446.7z"/>
<path class="st2" d="M607.1,448.4c2.5-3.3,6.9-1.3,10.3-1C614.9,450.7,610.5,448.6,607.1,448.4L607.1,448.4z"/>
<path class="st2" d="M645.6,470.3c2.2-9.5,6.9-18.9,15.3-24.4c-6.1,6.9-11,15.1-12.8,24.3c-2.7,11.7-0.1,23.8,3.9,34.8
	c-1.9,0.4-3.8,0.8-5.7,1.2c-3.7,0.8-7.3,1.8-11.1,1.9c0.7-0.4,2-1.3,2.7-1.8c0-1.4-0.1-2.8-0.2-4.1c-0.7-1.3-1.3-2.7-2-4
	c1.3-1.6,2.8-3,3.9-4.8c0.4-2.7-1.9-4.6-2.7-6.9c0.1-4.8,2.1-9.4,2.2-14.2c-0.9-1.4-3.1-2.2-3.1-4c1-3.4,2.8-6.6,3.6-10.1
	c-0.6-2.1-2.7-1.5-4.3-1.4c-0.8,3.1-1.9,7.4-5.8,7.6c-1.3-4.8,3.2-8.1,3.5-12.6c0.3,0.2,0.9,0.6,1.2,0.8c4.7-0.4,9.4-0.6,14.1-0.5
	c-3.1,6.1-6.3,12.4-7.1,19.3c-1.6,9,0.5,18.1,3.7,26.5C644.7,488.6,643.5,479.3,645.6,470.3L645.6,470.3z"/>
<path class="st2" d="M667.5,449.4c4.4-2.3,10-3.8,14.7-1.1c7.5,4.1,12.3,11.8,15.2,19.7c4.1,10.9,3.6,23.2-0.8,34
	c-7.2-0.2-14.4-0.2-21.6,0.1c1.5-0.2,3.1-0.3,4.6-0.5c0.4-2.5,0.8-5.1,1.2-7.6c1,2.6,2.1,5.2,3.2,7.8c1.8,0,3.5-0.1,5.3-0.1
	c-1.4-4-2.8-8-4.1-12c3.4,2.1,6.8,4.2,10.6,5.5c0.1-1.5,0.2-3,0.3-4.5c-3.3-2.1-6.7-4.1-10.2-5.8c-0.5,1.6-1,3.2-1.5,4.8
	c-2-0.1-4.4,1-5.9-0.7c-2.4-2.2-1.9-5.8-1.7-8.7c0.1-2.6,3.3-4.7,5.6-3.3s2.8,4.3,3.8,6.6c3.8-0.4,7.6-0.8,11.4-1.2
	c0-0.8,0-2.5,0-3.4c-0.5-0.3-1.6-0.8-2.1-1.1c-2.8,0.3-5.5,0.5-8.3,0.7c3-3.2,6.1-6.3,9-9.6c-1.4-1.2-2.3-3.6-4.4-3.5
	c-3.4,2.6-5.9,6-9,8.9c0-7.6,1.2-15.1,1.1-22.7c-1.8-0.2-3.6-0.3-5.4-0.5c-1.1,6.6-0.5,13.4-1.7,20c-3.2-6.1-5.8-12.5-8.6-18.8
	c-1.6,1.2-3.2,2.4-4.8,3.6c2.7,6.6,6.4,12.7,8.5,19.5c-5-2.5-9.6-5.6-14.3-8.4c0,2.2-0.2,4.4,0.1,6.6c3.5,2.8,7.7,4.5,11.1,7.3
	c-4.4,0.9-8.8,1.7-13.2,2.6c0.5,1.6,1.1,3.3,1.6,5c4.5-0.7,9-1.6,13.5-2.3c-0.3-3.8-0.5-7.9,2.3-10.8c-1,4.3-1.4,8.7,0.1,13
	c-0.5-0.5-1.5-1.6-2-2.2c-4.2,4.1-8.4,8.1-12.7,12c1.2,1.5,2.4,3.1,3.6,4.6c4.2-3.9,8.2-7.9,12.7-11.5c-0.3,3.6-0.6,7.2-0.9,10.8
	c-5.2,0.5-10.3,1.2-15.5,1.8c-3.9-10.8-6.7-22.4-4.4-33.9C655.4,461.9,659.8,453.5,667.5,449.4L667.5,449.4z"/>
<path class="st0" d="M527.5,450.8c5.7-0.6,11.5-1.2,17.2-1.6c0,6.9-0.1,13.8-0.3,20.7c7.8-0.5,15.5-1.6,23.3-1.4
	c0.2,0.3,0.7,1,1,1.3c-14.2-0.1-28.2,2.4-42.4,3.2C526.6,465.6,526.7,458.2,527.5,450.8L527.5,450.8z"/>
<path class="st0" d="M570.9,449.4c1.9-0.2,3.9-0.5,5.8-0.7c-0.1,3-0.4,6.1-0.7,9.1c-1.8,0-3.6,0.1-5.4,0.1
	C570.7,455.1,570.8,452.2,570.9,449.4L570.9,449.4z"/>
<path class="st2" d="M578.6,457c0.2-2.8,0.5-5.5,0.9-8.3c1.7,0,3.3,0,5,0c-0.1,2.7-0.1,5.4-0.1,8.1
	C582.5,457.1,580.6,457.1,578.6,457L578.6,457z"/>
<path class="st2" d="M714.6,449.5c4.2-0.2,8.4,0.2,12.6,0c2-0.2,3.7,1.1,5.2,2.2c-1.9,0.1-3.8,0.2-5.7,0.2c-0.3,0.5-0.8,1.5-1.1,2.1
	c-1.7-0.3-3.7-0.4-4.5-2.3C718.9,451.1,716.7,450.6,714.6,449.5L714.6,449.5z"/>
<path class="st2" d="M571.9,449.6c1,0,3-0.1,4-0.1c-0.1,2.6-0.2,5.1-0.3,7.7c-1,0.1-3.1,0.2-4.1,0.2
	C571.6,454.8,571.7,452.2,571.9,449.6L571.9,449.6z"/>
<path class="st0" d="M678.5,451.3c1.8,0.1,3.6,0.3,5.4,0.5c0.1,7.6-1.2,15.1-1.1,22.7c3.1-2.9,5.7-6.3,9-8.9c2.1,0,3,2.3,4.4,3.5
	c-2.9,3.3-6,6.4-9,9.6c2.8-0.2,5.5-0.4,8.3-0.7c0.5,0.3,1.6,0.8,2.1,1.1c0,0.9,0,2.6,0,3.4c-3.8,0.4-7.6,0.8-11.4,1.2
	c-1-2.3-1.5-5.2-3.8-6.6s-5.6,0.6-5.6,3.3c-0.2,2.9-0.7,6.5,1.7,8.7c1.5,1.7,4,0.6,5.9,0.7c0.5-1.6,1-3.2,1.5-4.8
	c3.5,1.8,6.9,3.7,10.2,5.8c-0.1,1.5-0.2,3-0.3,4.5c-3.8-1.3-7.2-3.4-10.6-5.5c1.3,4,2.7,8,4.1,12c-1.8,0-3.5,0.1-5.3,0.1
	c-1.1-2.6-2.1-5.2-3.2-7.8c-0.4,2.5-0.8,5.1-1.2,7.6c-1.5,0.1-3.1,0.3-4.6,0.5l-1.3,0.1c0.3-3.6,0.6-7.2,0.9-10.8
	c-4.4,3.6-8.5,7.6-12.7,11.5c-1.2-1.5-2.4-3.1-3.6-4.6c4.3-3.9,8.5-7.9,12.7-12c0.5,0.5,1.5,1.6,2,2.2c-1.4-4.3-1.1-8.7-0.1-13
	c-2.8,3-2.6,7.1-2.3,10.8c-4.5,0.7-9,1.6-13.5,2.3c-0.5-1.7-1.1-3.3-1.6-5c4.4-0.9,8.8-1.6,13.2-2.6c-3.4-2.8-7.6-4.5-11.1-7.3
	c-0.3-2.2-0.2-4.4-0.1-6.6c4.8,2.8,9.3,5.9,14.3,8.4c-2.1-6.8-5.8-13-8.5-19.5c1.6-1.2,3.2-2.4,4.8-3.6c2.8,6.3,5.4,12.7,8.6,18.8
	C678,464.7,677.3,457.9,678.5,451.3L678.5,451.3z"/>
<path class="st0" d="M929.3,451.6c0.8-0.3,2.4-1,3.2-1.3c20.6,5.2,41.1,10.8,61.5,17.1c-4.3,5-9,9.6-13.8,14.2
	c-16.9-5-33.9-9.6-50.9-13.9C929.2,462.3,929.2,457,929.3,451.6L929.3,451.6z"/>
<path class="st2" d="M537.6,452.3c1.4-0.9,3.3-0.4,5-0.8c-0.1,2.7-0.3,5.4-0.5,8.1c-1.7,0.1-3.4,0.1-5.1,0.2
	C537,457.3,536.9,454.7,537.6,452.3L537.6,452.3z"/>
<path class="st0" d="M622.2,452.8c2.2-0.1,4.3-0.2,6.5-0.3c-1,1.5-2,3.1-2.9,4.6C624.6,455.7,623.4,454.3,622.2,452.8L622.2,452.8z"
	/>
<path class="st2" d="M529.3,460.5c0.1-2.6,0.2-5.2,0.4-7.9c1.7-0.1,3.3-0.2,5-0.3c-0.1,2.7-0.4,5.4-0.9,8.1
	C532.3,460.5,530.8,460.5,529.3,460.5L529.3,460.5z"/>
<path class="st2" d="M586.4,467.5c0.1-4.5,0.1-9.1,0.3-13.6c6-0.1,12-0.2,18.1-0.2c0,2.3-0.1,4.6-0.1,6.9c-4.5,0.1-9-0.1-13.4,0.1
	c-1,0-2,0.4-2.8,1.1c5.4,0.4,10.7,0,16.1,0.1c0,1.7,0.1,3.4,0.1,5.2C598.6,467.8,592.5,467.3,586.4,467.5L586.4,467.5z"/>
<path class="st0" d="M623.3,460.8c0.6-0.9,1.2-1.8,1.8-2.6c-1.6,3.3-3.2,6.5-4.7,9.9c-0.7-2.5-1.9-4.9-3.1-7.2
	C619.4,460.8,621.4,460.8,623.3,460.8L623.3,460.8z"/>
<path class="st2" d="M570.9,460c1.6-0.1,3.2-0.1,4.9-0.1c-0.1,2.6-0.2,5.2-0.3,7.8c-1.7,0.1-3.3,0.2-5,0.2
	C570.6,465.2,570.7,462.6,570.9,460L570.9,460z"/>
<path class="st2" d="M578.7,459.8c1.7-0.1,3.5-0.1,5.2-0.2c-0.1,2.6-0.1,5.2-0.3,7.8c-1.7,0-3.4,0-5.1,0.1
	C578.6,464.9,578.7,462.4,578.7,459.8L578.7,459.8z"/>
<path class="st2" d="M536.8,462.5c1.7-0.2,3.4-0.5,5.1-0.7c0,2.6-0.1,5.2-0.2,7.8c-1.7,0.1-3.5,0.3-5.2,0.5
	C536.7,467.6,536.7,465,536.8,462.5L536.8,462.5z"/>
<path class="st2" d="M529.1,463c1.6-0.1,3.2-0.3,4.8-0.4c-0.1,2.6-0.2,5.2-0.3,7.9c-1.6,0.1-3.2,0.3-4.9,0.4
	C528.8,468.3,528.9,465.7,529.1,463L529.1,463z"/>
<path class="st0" d="M632.2,468.3c-2.2,4.6-6.2,8-8.3,12.6c-1.7,3.3-2.5,7-3.3,10.6c-0.2-3.8-0.9-7.8,0.8-11.3
	C623.5,475.1,628,471.6,632.2,468.3L632.2,468.3z"/>
<path class="st2" d="M714.6,469.4c3.6,0.4,7.2,1.6,10.8,0.5c3.1-0.8,6.4,2.9,5.5,6c-1.5,1-3.5,0.3-5.2,0.7c-0.2,1.4-0.3,2.7-0.3,4.1
	c-1.1-0.1-2.2-0.1-3.3-0.2c-0.6-1.8-1-3.7-1.8-5.4c-1.6-1.3-3.7-1.9-5.5-2.8C714.7,471.3,714.6,470.4,714.6,469.4L714.6,469.4z"/>
<path class="st2" d="M454.7,477.4c14.6-1.6,29.4-1.8,44-3.7c0.4,1.9,0.7,3.8,1.1,5.7c-2.9,0.1-5.9,0.2-8.8,0.6
	c-0.2,0.2-0.6,0.6-0.8,0.9l-0.8,0.8c3.4,0,6.9-0.2,10.3-0.4c0.1,0.8,0.2,2.5,0.3,3.3c-2.2,0.3-4.5,0.6-6.7,0.9
	c0,0.5,0.1,1.4,0.1,1.9c2.4,0,4.9,0,7.3,0c0.1,1.9,0.1,3.8,0.2,5.8c0.3,1.9,0.7,3.7,1.2,5.5c-9.4,1.2-19,0.6-28.4,1.5
	c-4.6,0.4-9.2,0.4-13.8,0.8c-1.8,0.3-4.3,0.1-5,2.4c15.8-0.9,31.6-1.6,47.3-2.6c0.3,2.5,0.5,4.9,0.7,7.4c-2.7-0.2-5.4-0.5-8-1.3
	c-2.9-1-5.9,0.4-8.7,1.1c0.5-0.7,1.5-2,2-2.7c-2.6,0.1-5.1,0.5-7.6,1.2c-0.8-0.7-1.7-1.5-2.5-2.2c-0.6,1-1.1,2-1.7,3
	c-1.7-1.5-3.6-2.8-5.8-3.4c-0.4,1.2-0.8,2.5-1.2,3.7c-2.8-1.1-6.1-3.4-9.1-1.4c-2.5,1.6-5.4,1.6-8.2,1.2c0.3-3.5,0.5-7,0.7-10.5
	c2-0.3,3.9-0.6,5.9-0.9c-1.8-0.4-3.6-0.7-5.4-0.9c0.2-3.1,0.2-6.1,0.8-9.1c0.1-0.6,0.3-1.7,0.5-2.3c4.9-0.2,9.9-0.6,14.8-1
	c0,1.5-0.1,3.1-0.1,4.6c-3.7,0.5-8-0.2-11,2.4c3.6,0.1,7.3-0.3,10.9-0.6c-0.1,1.7-0.2,3.4-0.3,5.1c-2.2,0.1-4.5,0.3-6.7,0.4
	c0.1,0.5,0.3,1.4,0.4,1.8c12.1-0.8,24.2-1.2,36.2-2.3c0-0.2-0.1-0.7-0.1-0.9c-4.4-1.7-9.5-0.1-14.2-0.3c0.1-4.5,0.2-9,0.2-13.4
	c-10.1,0.2-20,1.8-30.1,2.5C454.9,480.5,454.8,478.9,454.7,477.4L454.7,477.4z"/>
<path class="st2" d="M590.6,475.7c3.1,0,6.2,0,9.3,0c-0.1,1.6-0.2,3.2-0.3,4.9c-3.1,0-6.5,0.9-9.5-0.2
	C590.1,478.8,590.4,477.2,590.6,475.7L590.6,475.7z"/>
<path class="st2" d="M568.8,476.5c6.4-0.4,12.9-0.7,19.3-0.7c-0.1,0.8-0.3,2.5-0.4,3.4c0.3,2.2-2.5,2.1-3.8,2.7
	c0-1.4,0.1-2.9,0.1-4.3c-3.9,0.4-8.3-0.4-11.9,1.5c-0.3,0.6-0.8,1.8-1.1,2.4c2.3,0.1,4.7,0.1,7,0.1c-2.8,0.1-5.6,0.1-8.4,0.2
	C569.4,480,569.1,478.2,568.8,476.5L568.8,476.5z"/>
<path class="st2" d="M555.8,478.8c3.6-0.3,7.2-0.5,10.9-0.3c0,3.1,0.1,6.1,0.1,9.2c-2,0.1-4.4,1.2-6.2-0.1c-1.1-1.5-0.8-3.5-1.1-5.2
	c-1.8-0.3-3.5-0.5-5.3-0.9C554.7,480.9,555.5,479.5,555.8,478.8L555.8,478.8z"/>
<path class="st0" d="M679.4,478.4c5-1.5,6.8,6.2,4.2,9.3c-2,2.7-6.3,0.2-6.1-2.8C677.4,482.8,676.8,479.4,679.4,478.4L679.4,478.4z"
	/>
<path class="st0" d="M454.9,482.1c10-0.8,20-2.3,30.1-2.5c0,4.5-0.1,9-0.2,13.4c4.7,0.3,9.8-1.4,14.2,0.3c0,0.2,0.1,0.7,0.1,0.9
	c-12.1,1.1-24.2,1.5-36.2,2.3c-0.1-0.5-0.3-1.4-0.4-1.8c2.2-0.1,4.5-0.3,6.7-0.4c0.1-1.7,0.2-3.4,0.3-5.1c-3.6,0.3-7.3,0.7-10.9,0.6
	c3-2.6,7.3-2,11-2.4c0-1.5,0-3.1,0.1-4.6c-4.9,0.4-9.9,0.8-14.8,1C454.7,483.3,454.8,482.5,454.9,482.1L454.9,482.1z"/>
<path class="st2" d="M520.7,480.9c3.7-0.3,7.4-0.9,11.1-1.3c-1.1,1.9-2.1,3.9-3.1,5.9c-2.8,0.1-5.5,0.3-8.3,0.5
	C520.4,484.2,520.5,482.5,520.7,480.9L520.7,480.9z"/>
<path class="st0" d="M629.8,486c0.9-2.5,2.5-4.6,4.1-6.8c-1.4,8.3-2.4,16.7-3.3,25.1c-0.2,1.9-0.2,3.8,0.2,5.6
	c-3.3,0.7-6.6,1.6-9.9,2.3c0.7-3.2-1.6-5.9-2.1-9c0.6-3.6,3-6.7,5.7-9.1c0,0.6,0,1.7,0,2.3c-1,1.9-2.2,3.8-2.7,5.9
	c-0.3,1.9,0.8,3.7,1.3,5.6c1.4,0.1,3.3-0.1,3.5-1.9c0.2-4.5,1-9.2,4.2-12.6C630.7,490.7,629.7,488.4,629.8,486L629.8,486z"/>
<path class="st2" d="M478.6,482.3c1.3-0.4,2.7-0.5,4.1-0.7c0,1.6,0,3.3-0.1,5c-1.4,0.1-2.9,0.1-4.3,0.2
	C478.4,485.3,478.4,483.8,478.6,482.3L478.6,482.3z"/>
<path class="st0" d="M490.2,480.9c3.4-0.2,6.8-0.1,10.2,0c0.1,0.9,0.4,2.5,0.5,3.4c-0.6,0.3-1.7,0.9-2.2,1.2c0.7,0.4,1.3,0.8,2,1.2
	c0,0.2,0,0.5,0.1,0.7c-2.4,0-4.9,0-7.3,0c0-0.5-0.1-1.4-0.1-1.9c2.2-0.3,4.5-0.6,6.7-0.9c-0.1-0.8-0.2-2.5-0.3-3.3
	c-3.4,0.2-6.9,0.4-10.3,0.4L490.2,480.9L490.2,480.9z"/>
<path class="st2" d="M538.4,481.4c2.2-0.4,4.4-0.8,6.7-1c-0.1,1.6-0.1,3.1-0.2,4.7c-2.1-1-4.3-1.3-6.6-1.3
	C538.4,483.2,538.4,482,538.4,481.4L538.4,481.4z"/>
<path class="st2" d="M679.5,481.4c1.1,0,2.1,0,3.2,0.1c0,1.4,0,2.8,0,4.2c-1.1,0.1-2.1,0.2-3.2,0.3
	C679.3,484.4,678.9,482.9,679.5,481.4L679.5,481.4z"/>
<path class="st2" d="M471.6,482.6c1.6-0.2,3.2-0.3,4.9-0.4c0,1.5,0.1,3,0.2,4.5c-1.7,0.3-3.3,0.6-4.9,0.9
	C471.6,485.9,471.6,484.3,471.6,482.6L471.6,482.6z"/>
<path class="st2" d="M509.6,482.5c2.7-0.4,5.4-0.8,8.2-1.1c0,1.1,0,3.1-0.1,4.2c-2.4,0.6-5,0.7-7.3,1.6c-1.6,1.6-1.4,4.1-1.8,6.2
	c2,0,4.1,0.1,6.1,0.1c0,0.9-0.1,1.9-0.1,2.9c-2.1,0.2-4.2,0.5-6.3,0.7C508.5,492.2,509.1,487.4,509.6,482.5L509.6,482.5z"/>
<path class="st2" d="M590.2,482.7c4.6-0.4,9.2-0.3,13.8-0.4c-0.1,3.6-0.1,7.2-0.1,10.8c-1-0.2-1.9-0.4-2.8-0.5
	c-0.2-0.6-0.5-1.7-0.7-2.2c-2.6-0.3-5.2-0.5-7.8-0.7c-0.1-0.6-0.2-1.7-0.3-2.3C591.4,485.9,590.7,484.3,590.2,482.7L590.2,482.7z"/>
<path class="st0" d="M446.1,485.5c2.5-1.8,5.5-0.4,8,0.5c-0.5,3-0.6,6.1-0.8,9.1c1.8,0.3,3.6,0.6,5.4,0.9c-2,0.3-3.9,0.6-5.9,0.9
	c-0.2,3.5-0.4,7-0.7,10.5c-8.9,0.4-17.9-0.1-26.8,0.3c-1.6,0-3.2,0-4.8,0c1.6-1,3.3-1.9,5-2.8c0.1-1.8,0.2-3.5,0.2-5.3
	c1.6-0.5,3.2-0.9,4.8-1.4c0-0.2,0.1-0.6,0.2-0.8c0.2-0.9,0.6-2.6,0.8-3.5c0.5-0.5,1.1-1,1.6-1.5c0.2,0.8,0.6,2.3,0.8,3.1
	c1-1.4,2-2.8,3.1-4.2c0.8,0.4,2.4,1.1,3.2,1.5c0.6-2.5,1.1-5.1,2.5-7.4c0.3,0.9,0.9,2.7,1.2,3.6
	C444.7,487.9,445.4,486.7,446.1,485.5L446.1,485.5z"/>
<path class="st2" d="M576.6,484.9c2,0,4,0,6-0.1c0,1.9-0.1,3.8-0.1,5.7c-2,0-4,0-6,0.1C576.5,488.7,576.6,486.8,576.6,484.9
	L576.6,484.9z"/>
<path class="st2" d="M570.5,485.2c1.4-0.2,2.9-0.3,4.3-0.5c0,1.9,0,3.9-0.1,5.8c-1.1,0-3.3,0.1-4.4,0.1
	C570.4,488.9,570.4,487,570.5,485.2L570.5,485.2z"/>
<path class="st2" d="M544.2,485.5c2.3,0.1,4.6,0.2,6.9,0.3c0,4.1-4.6,3-7.2,3.5C544,488,544.1,486.7,544.2,485.5L544.2,485.5z"/>
<path class="st2" d="M585.7,486.9c0.6-0.1,1.6-0.2,2.2-0.3c0.4,1.1,0.8,2.1,1.2,3.2c-1,1.6-2.1,3.1-3.4,4.5
	C585.6,491.9,585.6,489.4,585.7,486.9L585.7,486.9z"/>
<path class="st2" d="M478.4,488.7c1.4-0.1,2.8-0.2,4.2-0.2c-0.1,1.6-0.2,3.2-0.2,4.9c-1.3,0.1-2.6,0.1-4,0.2
	C478.4,491.9,478.4,490.3,478.4,488.7L478.4,488.7z"/>
<path class="st0" d="M524.1,489c5-0.4,9.9-0.6,14.9-0.7c0,8.1-1.1,16.2-1.4,24.3c-4.3,0-8.6,0.2-12.8,1c-0.6,0.1-1.8,0.2-2.3,0.3
	c3.4-1.3,6.8-2.5,10.3-3.6c0.5-6.5,1-13,1-19.5C530.5,490.2,527.3,489.6,524.1,489L524.1,489z"/>
<path class="st2" d="M471.5,489.3c1.6,0.1,3.4-0.7,4.9,0.2c0.1,1.3,0.1,2.7,0.1,4c-1.7,0.1-3.3,0.2-5,0.3
	C471.6,492.3,471.6,490.8,471.5,489.3L471.5,489.3z"/>
<path class="st2" d="M550.4,491c5.4-0.2,10.8-0.6,16.2-0.8c0,0.9,0,2.7,0,3.6c-2.7,0-5.4-0.1-8-0.1c-0.4,0.4-0.7,0.8-1.1,1.2
	c3.6,2.5,3,7.4,4.7,11c0.4,1.9,2.5,1.7,4,1.9c4.9,0.4,9.6-1.3,14.2-2.5c0.5-0.9,1-1.8,1.6-2.7c2.7,0,5.6-0.2,7.8,1.8
	c3.2,1,6.6,1.6,9.9,2.3c0.3-2,0.6-4.1,1-6.1c1-0.1,2-0.2,3-0.3c0.1,2.6-0.3,5.3,0.8,7.7l0.4,0.4c-0.5,1.2-2.4,0.6-3.4,0.3
	c-5.2-2.1-10.7-4-16.4-3.9c-5,0.3-9.5,2.7-14.4,3.5c-0.9,0.1-1.8,0.3-2.7,0.4c-2.6-0.5-5.1-1.2-7.6-2c-2.2,1.5-4.4,2.9-6.7,4.4
	c0.3-2.5,0.5-4.9,0.8-7.3c1.5-0.5,3-1.1,4.5-1.6c-3.4-0.8-6.9,0.1-10.3,0.7c0.1-2,0.2-4,0.4-5.9c0.7-0.6,1.4-1.1,2.1-1.7
	C550.9,493.9,550.7,492.4,550.4,491L550.4,491z"/>
<path class="st2" d="M517.8,491.9c0.9-0.1,1.9-0.1,2.8-0.2c0,1.2-0.1,2.5-0.1,3.8c-1.1,0.1-2.2,0.3-3.3,0.4
	C517.4,494.6,517.6,493.2,517.8,491.9L517.8,491.9z"/>
<path class="st2" d="M543.8,491.6c1.4,0,2.8,0,4.2,0c1.3,3.3-1.9,4.3-4.5,4.5C543.6,494.6,543.7,493.1,543.8,491.6L543.8,491.6z"/>
<path class="st2" d="M570,492.6c1.6,0,3.3-0.1,4.9-0.1c-0.1,1.7-0.2,3.4-0.3,5.1c-1.6-0.2-3.1-0.4-4.7-0.6
	C569.9,495.5,569.9,494,570,492.6L570,492.6z"/>
<path class="st2" d="M576.5,492.4c2,0,4.1,0,6.1,0c-0.1,1.7-0.1,3.5-0.2,5.2c-2-0.1-4-0.1-5.9-0.1
	C576.5,495.8,576.5,494.1,576.5,492.4L576.5,492.4z"/>
<path class="st2" d="M587.7,496.4c0.7-4.6,6-2.5,9.2-3c0.8,2.4,0.8,4.9,0,7.3c-8.4,0.3-16.9,0.5-25.2-0.1c4.4-0.4,8.9-0.1,13.3-0.2
	c0.2-1.2,0.5-2.4,0.7-3.6C586.2,496.7,587.2,496.5,587.7,496.4L587.7,496.4z"/>
<path class="st2" d="M507.6,499.8c3.4,0.3,7.4-2,10.4,0.1c-1,4.8-6.9,3.5-10.5,4.3C507.5,502.7,507.6,501.3,507.6,499.8L507.6,499.8
	z"/>
<path class="st2" d="M517.7,503.7c0.5-0.1,1.6-0.3,2.1-0.3c-0.1,1.4-0.1,2.8-0.2,4.3c-0.6,0.1-1.7,0.2-2.2,0.3
	C517.4,506.5,517.5,505.1,517.7,503.7L517.7,503.7z"/>
<path class="st2" d="M542.7,505.4c1,0.1,1.9,0.2,2.9,0.4c0,1.6,0.1,3.2,0.2,4.8c-1.2-0.1-2.4-0.2-3.6-0.2
	C542.4,508.7,542.6,507.1,542.7,505.4L542.7,505.4z"/>
<path class="st2" d="M553.6,511.2c2.2-1.5,4.5-2.9,6.7-4.4c2.5,0.7,5.1,1.4,7.6,2c-1.8,1.6-3.9,2.2-6.1,1.2c-2.8,0.4-5.5,1-8.3,1.6
	L553.6,511.2L553.6,511.2z"/>
<path class="st2" d="M516.7,509.6c0.7-0.1,2.2-0.3,2.9-0.4c-0.2,1.5-0.4,3.1-0.6,4.7c-4.6,0.6-9.9,0.8-13.7-2.2
	c2.6-0.7,5.2-1.3,7.8-1.9c0.3,1.3,0.6,2.7,0.9,4C516.8,514.7,516,511.2,516.7,509.6L516.7,509.6z"/>
<path class="st2" d="M542.2,510.3c1.2,0,2.4,0.1,3.6,0.2c2.5,0.3,5,0.8,7.5,1c-1.2,0.4-2.3,0.8-3.5,1.2c-2.7-0.1-5.3-0.2-8-0.2
	C541.9,512,542.1,510.9,542.2,510.3L542.2,510.3z"/>
<path class="st0" d="M524.7,513.6c4.2-0.7,8.5-0.9,12.8-1c1.4,0,2.8,0,4.2,0c2.7,0,5.3,0.1,8,0.2c6.1,1.1,12.1,2.3,18.1,3.6
	c-5.1,1.7-10.5,1.1-15.8,1.2c-3.6,0-7.3,0.2-10.6-1.4C536.4,513.2,530.4,513.9,524.7,513.6L524.7,513.6z"/>
<path class="st0" d="M541.5,516.2c3.3,1.5,7,1.4,10.6,1.4c5.3-0.1,10.7,0.5,15.8-1.2c4.6,1.2,10.1,1.9,12.8,6.3
	c-0.7,0.4-2.2,1.3-3,1.7c-16.4-1.4-32.8,0.2-49.2-0.8c3.9-1.9,7.9-3.2,11.9-4.9C540.8,518.1,541.3,516.9,541.5,516.2L541.5,516.2z"
	/>
<path class="st0" d="M518.9,528.4c2.9-2.1,6.1-4.5,9.8-4.8c16.4,1,32.8-0.6,49.2,0.8c1.1,1.5,2.3,2.9,3.6,4.3c-2,0.6-4.1,1-6.2,0.9
	c-15-0.1-30,0-45,0C526.5,529.2,522.2,530.5,518.9,528.4L518.9,528.4z"/>
</svg>
