<?xml version="1.0" encoding="utf-8"?>
<!-- Generator: Adobe Illustrator 19.0.0, SVG Export Plug-In . SVG Version: 6.00 Build 0)  -->
<svg version="1.1" id="Layer_1" xmlns="http://www.w3.org/2000/svg" xmlns:xlink="http://www.w3.org/1999/xlink" x="0px" y="0px"
	 viewBox="-217 378.4 175.7 37.6" style="enable-background:new -217 378.4 175.7 37.6;" xml:space="preserve">
<style type="text/css">
	.st0{fill:#555555;}
	.st1{fill:#FFFFFF;}
</style>
<path class="st0" d="M-182.8,382.7h3.8v17.6h-3.8V382.7L-182.8,382.7z M-130.6,382.7h1.1h0.5l10.8,10.8l7.7-8.2l2.5-2.7l0,0h1.3v0.3
	v17.3h-3.8V387l-7,7.3l0,0l-0.7,0.8h-0.1l-1.6,1.8l-9.6-9.8v13.1h-1.1v-14.1L-130.6,382.7L-130.6,382.7z M-166.2,382.7h1.1h0.5
	l10.8,10.8l7.7-8.1l2.6-2.7l0,0h1.2v0.3v17.3h-3.8V387l-6.9,7.3l0,0l-0.8,0.8l0,0l-1.7,1.8l-9.6-9.8v13.1h-1.1v-14.1V382.7
	L-166.2,382.7z M-95.8,382.7h2.7h1.1h15.6v1.1H-92v6.7h9.8v1.1H-92v7.6h16.5v1.1H-92h-1.1h-2.7L-95.8,382.7L-95.8,382.7z
	 M-65.6,382.7h3.8v16.5h16.2v1.1h-16.2h-1.4h-2.4L-65.6,382.7L-65.6,382.7z M-210.8,382.7c0.8,0,1.6,0,2.3,0c2.9,0,5.7,0,8.5,0
	s6.3,2.2,6.3,4.9c0,2.6-1.8,4.7-4.5,4.9l6,7.9h-4.7l-5.8-7.5h-6v7.5h-3.5v-17.7H-210.8L-210.8,382.7z M-208.5,391.7h7.3
	c2.1,0,3.6-2.1,3.6-3.9c0-2.3-1.6-4.1-3.9-4.2l0,0l0,0h-7V391.7L-208.5,391.7z"/>
<path class="st0" d="M-212.6,378.4h167c2.4,0,4.4,2,4.4,4.4V400c0,2.4-2,4.3-4.4,4.3h-167c-2.4,0-4.4-1.9-4.4-4.3v-17.2
	C-217,380.4-215,378.4-212.6,378.4L-212.6,378.4z M-212.6,378.9c-2.1,0-3.8,1.7-3.8,3.8v17.2c0,2.1,1.7,3.8,3.8,3.8h167
	c2.1,0,3.8-1.6,3.8-3.8v-17.1c0-2.1-1.7-3.8-3.8-3.8h-167V378.9z"/>
<polygon class="st0" points="-103.5,406.3 -63.4,401.4 -62.2,411 -102.3,416 "/>
<path class="st1" d="M-67.3,408.5l-0.5-3.4c0-0.4-0.2-0.5-0.5-0.5s-0.5,0.2-0.4,0.6l0.3,2.2l-1.4-1.9c-0.3-0.5-0.5-0.6-0.8-0.6
	c-0.5,0.1-0.5,0.3-0.5,0.8l0.4,3.4c0.1,0.4,0.2,0.5,0.5,0.5s0.5-0.3,0.4-0.6l-0.3-2.2l1.5,2.1c0.3,0.4,0.5,0.5,0.8,0.5
	C-67.4,409.3-67.3,409.1-67.3,408.5L-67.3,408.5z"/>
<path class="st1" d="M-73.8,407.7c0.2,1,0.1,1.6-0.6,1.7c-0.8,0.1-1-0.5-1.1-1.5c-0.2-1.1-0.1-1.6,0.6-1.7
	C-74.1,406.2-73.9,406.7-73.8,407.7L-73.8,407.7z M-72.8,407.6c-0.2-1.5-0.8-2.4-2.2-2.2c-1.3,0.2-1.7,1.2-1.6,2.7
	c0.2,1.5,0.8,2.3,2.2,2.1C-73,410.1-72.6,409.1-72.8,407.6L-72.8,407.6z"/>
<path class="st1" d="M-79.2,408.4c0.2,1.1-0.2,1.6-1,1.6h-0.4l-0.4-2.9h0.5C-79.7,407-79.3,407.4-79.2,408.4L-79.2,408.4z
	 M-78.2,408.3c-0.2-1.6-1-2.2-2.4-2l-0.8,0.1c-0.5,0.1-0.5,0.3-0.5,0.8l0.4,3.1c0,0.5,0.2,0.6,0.6,0.6l0.5-0.1
	c0.6-0.1,1.2-0.2,1.6-0.6C-78.3,409.8-78.1,409.1-78.2,408.3L-78.2,408.3z"/>
<path class="st1" d="M-84,410.7l-0.5-3.4c0-0.4-0.2-0.5-0.5-0.5c-0.3,0.1-0.4,0.3-0.4,0.6l0.3,2.2l-1.4-1.9
	c-0.3-0.5-0.5-0.6-0.8-0.6c-0.5,0.1-0.5,0.3-0.5,0.8l0.4,3.4c0.1,0.4,0.2,0.5,0.5,0.5s0.5-0.2,0.4-0.5l-0.3-2.3l1.5,2.1
	c0.3,0.4,0.5,0.5,0.8,0.5C-84,411.4-84,411.1-84,410.7L-84,410.7z"/>
<path class="st1" d="M-90.8,409.8c0.2,1,0.1,1.6-0.6,1.6c-0.8,0.1-1-0.5-1.1-1.5s-0.1-1.6,0.6-1.6
	C-91.1,408.3-90.9,408.8-90.8,409.8L-90.8,409.8z M-89.8,409.7c-0.2-1.5-0.8-2.4-2.2-2.2c-1.3,0.2-1.6,1.2-1.6,2.7
	c0.2,1.5,0.8,2.3,2.2,2.1C-90,412.1-89.6,411.2-89.8,409.7L-89.8,409.7z"/>
<path class="st1" d="M-94.9,412.2c-0.1-0.3-0.3-0.4-0.6-0.4l-1.4,0.2l-0.4-3.3c0-0.3-0.2-0.5-0.5-0.5c-0.3,0.1-0.5,0.3-0.4,0.6
	l0.4,3.3c0.1,0.5,0.3,0.7,0.7,0.6l1.6-0.2C-95,412.7-94.9,412.5-94.9,412.2L-94.9,412.2z"/>
</svg>
