<?xml version="1.0" encoding="utf-8"?>
<!-- Generator: Adobe Illustrator 19.0.0, SVG Export Plug-In . SVG Version: 6.00 Build 0)  -->
<svg version="1.1" id="Layer_1" xmlns="http://www.w3.org/2000/svg" xmlns:xlink="http://www.w3.org/1999/xlink" x="0px" y="0px"
	 viewBox="-143 292.1 324 208.9" style="enable-background:new -143 292.1 324 208.9;" xml:space="preserve">
<style type="text/css">
	.st0{fill:#555555;}
</style>
<g>
	<path class="st0" d="M161.6,421.6c2.7,0,5.2,2,5.3,5c0.1,3.1-2.3,5.1-5,5.1s-5.2-2-5.3-5.1C156.5,423.6,158.9,421.6,161.6,421.6
		 M161.9,430.6c2.1,0,3.8-1.7,3.7-4c-0.1-2.3-1.8-3.9-3.9-3.9s-3.8,1.7-3.7,3.9C158,428.9,159.8,430.6,161.9,430.6 M159.7,423.8h2.1
		c1.4,0,2.2,0.4,2.3,1.7c0,1-0.6,1.5-1.4,1.5l1.6,2.5H163l-1.4-2.4h-0.7l0.1,2.4h-1.1L159.7,423.8z M160.9,426.2h1
		c0.6,0,1.1-0.1,1.1-0.8c0-0.6-0.7-0.7-1.2-0.7h-0.9V426.2z"/>
	<path class="st0" d="M17.2,359.2C16.8,366.3,10.4,372,3,372s-13-5.7-12.6-12.8s6.8-12.8,14.2-12.8C12,346.4,17.7,352.1,17.2,359.2"
		/>
	<path class="st0" d="M162.6,339.2c-6.2-6.9-33.3-5.7-57.4,28.2c4-18.9,8-38.3,8.6-42.4c0.3-1.9,3.9-19.3-1.8-27.8
		c-4.7-6.9-12.5-5.3-22.2-4c8.9,4.5,3.2,34.5,1.5,42.3c-1.5,6.5-7.3,35.6-12.2,59.3c-1.9,9.4-3.9,19.1-5.7,27.6
		c-4.6,20.7,0.8,28.5,11.7,28.1c8.6-0.3,12.1-2.7,14.2-4.1c-2,0.1-5.4-2.6-6.4-4.8c-1.9-4-0.9-10.5-0.2-14c1.9-9,4.4-20.4,6.6-31.2
		c9.1,40.2,32.1,54,54.2,50.5c11.4-1.8,17.1-6.1,22.3-13.3c-27.4,12.2-53.3-17.1-59-41.8C140.7,383.3,178.3,356.5,162.6,339.2
		 M100.5,388.1c0.8-2.7,2.2-5.1,5.1-9.6c9.3-14.5,33.5-36.3,39.3-28.5C149.2,356,131,379.8,100.5,388.1"/>
	<path class="st0" d="M-10.2,406c0,0-3.1,15.2-5.5,25.6c-2.4,10.4-6,29.2,5.2,33.9c9,3.7,20.3,1.1,29.1-5.3c5.1-3.6,9.4-9.4,13-16.3
		c-1.2,1.5-2.3,0.8-3.7,2.1c-3.5,3.4-8.6,7-11.5,8c-7.5,2.5-10.2-1.6-11.2-3.7c-2.4-4.8-1.1-10.6,1.6-25.9c1.6-9.5,4.5-16.8,6-24.5
		c2.2-11,6.8-26-25.1-20.5c5.9,5.7,4.2,14.4,3.1,22.4C-9.5,404-9.6,402.7-10.2,406"/>
	<path class="st0" d="M45.1,337.2c0,0-15.4,75.4-17.8,85.9c-2.4,10.4-6,29.2,5.2,33.9c9.5,4,17.1,3.7,29.1-5.3
		c5-3.7,9.4-9.4,13-16.3c-1.2,1.6-1.5-0.3-2.9,1.1c-3.6,3.5-9.4,8-12.3,9c-7.5,2.5-10.2-1.6-11.2-3.7c-2.4-4.8-1.1-10.6,1.5-25.9
		c1.6-9.5,17.7-84.3,19.2-92.1c2.2-11,0.9-25.5-25.1-20.5c5.9,5.7,4.2,14.4,3.1,22.4C46.8,327.9,45.7,333.9,45.1,337.2"/>
	<path class="st0" d="M-4.9,338.7c10.7-19,1.9-31.2-9.9-36.2c-19.9-8.3-43.7-5.9-62,14.5c-10.2,11.4-12.3,31-5.7,47.3
		c10.8,26.8,37.4,62.4,36.4,80.5c-0.9,15.5-13,35.6-35.9,37.3c-24.1,1.8-35.5-20.3-35.1-30.6c0.5-16.8,11.1-28.9,24.7-34.1
		c1.5-0.6,1.6-1.8-0.1-1.9c-3.8-0.2-8.4-0.2-11.7,0.4c-20.4,3.3-40.8,23.5-38.6,45.9c2.5,24.7,31.1,36.2,58.3,33.4
		c27.3-2.8,69.1-26,62.5-68.9c-2.7-17.2-13-34.5-32.2-67.2c-9.5-16.1-6.1-32.5,4.1-40.4C-28,301.7-6.4,319.6-4.9,338.7"/>
	<path class="st0" d="M95.3,430.2c-0.2,0.7-0.3,1.6-0.5,2.6c-0.4,2.8-0.5,5.9,0.2,8.6c0.5,0.8,1.2,1.6,2,2.3c0,0,0.1,0,0.1,0.1
		c-0.6-3.8,0.1-8.3,0.7-11c1.2-5.7,2.6-12.3,4.1-19.1c-0.7-1.7-1.3-3.5-1.9-5.3C98.4,416,96.7,423.7,95.3,430.2"/>
	<path class="st0" d="M95.1,441.3c0.1,0.4,0.3,0.8,0.4,1.2c0.5,0.4,1,0.7,1.6,1C96.2,442.9,95.6,442.1,95.1,441.3"/>
	<path class="st0" d="M97.6,445.5C97.6,445.4,97.5,445.4,97.6,445.5C97.5,445.4,97.5,445.4,97.6,445.5
		C97.5,445.4,97.5,445.4,97.6,445.5"/>
	<path class="st0" d="M116.4,327.6c-0.5,3.2-3,15.8-6,30.2c1.3-1.5,2.6-2.9,3.9-4.2c2.4-11.5,4.3-20.9,4.7-23.6
		c0.3-1.9,3.9-19.3-1.8-27.8c-0.4-0.5-0.7-1-1.1-1.4c3,6.8,2,17,1.2,22.3C116.8,325.4,116.5,327.1,116.4,327.6"/>
	<path class="st0" d="M90.2,455.5c8.6-0.3,12.1-2.7,14.2-4.1c-1,0.1-2.4-0.6-3.7-1.6c-2.2,1.4-5.8,3.1-12.9,3.3
		c-2,0.1-3.8-0.2-5.3-0.6c-0.6,0-1.2,0-1.7-0.1C83,454.7,86.2,455.7,90.2,455.5"/>
	<path class="st0" d="M168.8,352.8c-2,15.9-29.7,34.4-48.9,41.4c0.6,2.3,1.4,4.7,2.3,7c1.3,3,2.8,5.9,4.6,8.8
		c-2.2-4.4-3.8-8.9-4.8-13.2c23.6-8.4,60.8-34.9,46-52.1C169.2,347.2,169.4,350,168.8,352.8"/>
	<path class="st0" d="M174.8,440.6c-4.4,4.6-9.8,7.4-18.6,8.8c-4.7,0.8-9.5,0.7-14.2-0.2c-2.9-0.2-5.8-0.8-8.6-1.7
		c8,4.4,16.7,5.7,25.3,4.3c11.4-1.8,17.1-6.1,22.3-13.3C178.9,439.5,176.9,440.1,174.8,440.6"/>
	<path class="st0" d="M108.2,381.1c-0.7,1.1-1.3,2-1.8,2.8c1.9-0.7,3.7-1.4,5.4-2.1c7.6-11,22.6-25.1,31.7-27.9
		c0-0.8-0.3-1.4-0.6-1.9c-0.2-0.3-0.5-0.5-0.7-0.8C132.8,353.2,115.6,369.5,108.2,381.1"/>
	<path class="st0" d="M21.4,462.8c-7.8,5.6-17.6,8.3-25.9,6.3c-1.2-0.1-2.4-0.2-3.6-0.4c0.8,0.7,1.8,1.4,2.9,1.8
		c8.9,3.7,20.3,1.1,29.1-5.3c2.4-1.7,4.6-3.9,6.6-6.4c-1.1-0.5-2.1-1.2-2.9-1.9C25.6,459.2,23.6,461.2,21.4,462.8"/>
	<path class="st0" d="M17.9,404.8c1.3-6.4,3.3-14.1-1.3-18.4c0.9,2.6,0.7,5.7,0.2,8.9c-0.3,2.4-0.9,4.8-1.3,7.1
		c-1.5,7.7-4.4,15-6,24.5c-0.9,5.2-1.6,9.3-2.1,12.7c-0.6,4.6-0.7,7.7,0.1,10.3c0.3,0.6,0.8,1.3,1.5,2c0.2,0.1,0.3,0.1,0.5,0.2
		c-0.8-4.4,0.5-10.6,2.5-22.7C13.5,419.8,16.4,412.5,17.9,404.8"/>
	<path class="st0" d="M7.9,451.3c0.3,0.2,0.6,0.4,0.9,0.5c-0.7-0.7-1.1-1.4-1.5-2C7.5,450.3,7.7,450.8,7.9,451.3"/>
	<path class="st0" d="M71.8,326.3c-1.5,7.7-17.6,82.6-19.2,92.1c-0.9,5.3-1.6,9.4-2.1,12.8c-0.6,4.6-0.7,7.6,0.1,10.2
		c0.3,0.6,0.8,1.3,1.5,2c0.2,0.1,0.3,0.1,0.5,0.2c-0.7-4.4,0.5-10.6,2.6-22.7c1.6-9.5,17.7-84.3,19.3-92.1
		c1.2-5.9,1.3-12.8-2.8-17.2c1.4,3.6,1.4,7.9,0.7,11.9C72.1,324.4,72,325.4,71.8,326.3"/>
	<path class="st0" d="M51,442.8c0.3,0.2,0.6,0.4,0.9,0.5c-0.6-0.7-1.1-1.4-1.5-2C50.6,441.8,50.8,442.3,51,442.8"/>
	<path class="st0" d="M71.8,446.9c-2.3,2.9-4.7,5.5-7.3,7.4c-9.7,7.2-16.6,8.8-23.8,7c-1.8-0.1-3.5-0.4-5.3-0.8
		c0.7,0.6,1.6,1.1,2.5,1.5c9.5,4,17.1,3.6,29.1-5.3c2.5-1.9,4.8-4.3,7-7C73.1,448.9,72.4,448,71.8,446.9"/>
	<path class="st0" d="M-20.1,449.6c-6.8,29.7-39.1,46.1-61.6,48.5c-6.9,0.7-13.8,0.5-20.4-0.5c-5.5-0.5-10.8-1.6-15.7-3.3
		c10.9,5.6,24.9,7.7,38.5,6.3c20.9-2.2,50.3-16.6,59.8-42.4C-20,455.5-20.2,452.6-20.1,449.6"/>
	<path class="st0" d="M-0.7,338.4c0.5,1.8,0.8,3.6,0.9,5.4c7-12.5,5.6-22,0.5-28.5c0,0.1,0.1,0.2,0.1,0.3c1.7,3.6,2.4,7.8,1.5,12.7
		C2,331.3,1,334.7-0.7,338.4"/>
	<path class="st0" d="M0.7,315.2c0.1,0.1,0.1,0.2,0.2,0.3C0.8,315.4,0.8,315.4,0.7,315.2L0.7,315.2"/>
	<path class="st0" d="M-113.5,450.4c-0.1,1-0.1,2-0.1,3c0,2.4,0.6,5.3,1.8,8.5c0.8,1.8,1.9,3.6,3.2,5.4c-1.8-3.8-2.6-7.5-2.6-10.3
		c0.2-16.8,10.5-29.1,24-34.6c1.5-0.6,1.6-1.9-0.2-1.9c-1,0-2.1-0.1-3.2-0.1C-102.6,425.6-111.8,436.1-113.5,450.4"/>
	<path class="st0" d="M-0.1,373.9c1.2,1,2.7,1.8,4.3,2.3c0.9,0.1,1.7,0.3,2.4,0.5c0.5,0.1,1,0.1,1.6,0.1c7.4,0,13.8-5.7,14.2-12.8
		c0.2-3.5-1.1-6.6-3.3-9c0.7,1.7,1.1,3.6,1,5.6c0,0.6-0.1,1.2-0.3,1.8c-0.8,6.8-7,12.1-14.1,12.1c-1.3,0-2.6-0.2-3.8-0.6
		c-0.3,0-0.5,0-0.8,0C0.7,373.9,0.3,373.9-0.1,373.9"/>
	<path class="st0" d="M-18.3,433.5c0.4-1.1,1.2-7,0.3-11.8c-2.9-16.9-8.4-27.1-27.1-59.2c-10.9-18.7-8.3-32.4,1.9-40.2
		c8.2-6.3,15.1-5.5,21.9-3.8c1.8,0.4,1.8,0.3,0.1-0.7c-5.4-3-15.1-4.8-24.8,2.7c-10.2,7.9-13.1,23.6-3.4,40.4
		c18.9,32.9,27.5,47,30.2,64.2C-19.1,426.1-18.3,435-18.3,433.5"/>
</g>
</svg>
