<?xml version="1.0" encoding="utf-8"?>
<!-- Generator: Adobe Illustrator 19.0.0, SVG Export Plug-In . SVG Version: 6.00 Build 0)  -->
<svg version="1.1" id="Layer_1" xmlns="http://www.w3.org/2000/svg" xmlns:xlink="http://www.w3.org/1999/xlink" x="0px" y="0px"
	 viewBox="-209 357 193 80" style="enable-background:new -209 357 193 80;" xml:space="preserve">
<style type="text/css">
	.st0{fill:#555555;}
	.st1{fill:#FFFFFF;}
	.st2{fill:#777777;}
</style>
<path class="st0" d="M-21.6,373.7c0,0.1-0.1,0.1-0.1,0.2c-1.6-2.5-4.2-3.9-6.7-5.3c-1.6-5.3-5.8-10.2-11.6-10.6
	c-7.3-0.8-14.1,4.1-17.3,10.4c-5.7,0.8-11.2,3.8-14.1,8.8c-6.2,0.2-12.2,2.7-16.4,7.3c-4.6-1.3-9.6-0.5-13.7,2
	c-1.2,0.5-2.3,1.9-3.8,1.5c-4.5-1-9.2-0.4-13.1,1.9c-4.5-1.1-9.1,0.5-13.6-0.8c-3.3-0.9-6.8,1.4-10-0.2c-3.8-1.7-8-1.1-12-0.2
	c-3.8-3-8.8-2.8-13.1-4.7c-2-10.7-15.8-16.3-25-10.9c-7.3,4-10.9,13-9.4,21c-2.8,2.7-5,6.2-6.3,9.9c-1.2,4.6,0.9,9.4,4,12.8
	c4.3,4.8,11,6.8,17.3,6.3c3.2,2.9,7.5,4,11.7,4.7c4,1.7,8.3,3.3,12.8,2.7c1.9,1.2,3.8,2.5,6,2.6c5.6,0.6,11.2,2.5,16.9,1
	c3.5,1.9,7.5,1.8,11.4,1.5c4,0.3,7.9,0.3,11.8-0.7c6.2,1.3,13,0.1,18-4c6.2,2.1,12.5-0.9,18.6-2c6.3,4.7,15.3,3.3,21.5-0.8
	c5.1-3.3,7.8-9.1,8.3-15.1c6.2-1.1,11.7-4.4,15.2-9.6c5.6-1.6,11.6-3.9,14.5-9.3c3.9-5.8,3.5-13.7-0.7-19.1
	C-21,374.6-21.4,374.1-21.6,373.7z"/>
<path class="st1" d="M-48.6,364.5c3.3-2.8,8.6-4.2,12.2-1.2c2.5,1.7,3,4.9,3.6,7.6c2.5,1,5.1,2,6.9,3.9c5.2,5.2,5.2,15-0.6,19.8
	c-3,2.8-7.2,3.4-11.1,3.6c-2.2,7.2-10.3,10.9-17.4,9.4c0.6,4,0.9,8.4-1.4,11.9c-4.2,7.1-15.9,10.3-21.7,3.4c-4.1,2-8.7,2.3-13,3.5
	c-2.7,1-5.3-0.6-7.7-1.8c-4,5.3-11.2,7.1-17.4,4.8c-4.7,2.4-9.9,0.6-14.9,1.3c-2.8,0.6-5.3-0.9-7.5-2.3c-4.8,2.6-10.3,0.2-15.4-0.3
	c-2.7,0-4.8-1.8-6.7-3.4c-4,1.8-8.5,0.3-12-2.1c-4.3,0-9.4-0.9-11.1-5.5c-5.9,2.2-13.1,0.5-16.9-4.6c-4.5-5.4-0.9-14,4.9-17
	c-1.6-6.4-0.4-14.1,5-18.4c5.4-4.6,14.5-2.6,18,3.5c0.8,1.7,1.1,3.5,1.5,5.3c2.1,0.9,4.2,1.8,6.3,2.8c3.9-0.1,7.5,1.4,10,4.3
	c2.6-0.8,5.2-1.8,7.9-1.8c2.8,0,5.1,1.6,7.4,2.9c3.4-2.5,7.8-2.1,11.5-0.5c3.5-0.9,7.3-1.2,10.6,0.5c4.2-3.5,10.2-4.3,14.9-1.4
	c4-5.2,11.7-7,17.2-3.2c2.8-6.4,10.8-10.7,17.5-7.8c0.9-3,2.4-5.9,5.2-7.7c2.7-2.1,6.2-1.9,9.3-1.8
	C-52.5,369.5-51.2,366.5-48.6,364.5L-48.6,364.5z"/>
<path class="st0" d="M-52.1,374.1c0.4-5.7,5.1-11.3,11.1-11.1c4.5-0.2,8.1,5.4,5.5,9.2c5,0.1,9.9,3,11.4,7.9
	c3.1,8.2-6.5,16.9-14.5,14.2c-1.1,3.8-3.2,7.5-7.1,9c-4,2.2-8.7,1.1-12.6-0.8c1.1,3.1,2.5,6.2,2.1,9.6c-0.6,9-13.1,14.9-20.1,8.8
	c-0.2-1-0.5-1.9-0.7-2.9c-2.9,2.6-6.7,3.9-10.6,3.5c-3.7,2.7-8.7,2-11.6-1.6c-2.9,6.4-11.4,9-17.5,5.3c-2.1,2.3-5.3,2.5-8.3,1.8
	c-2.7-0.8-5.3,0.5-8,0.3c-2.5-0.4-4.2-2.3-5.9-4c-2.4,4.7-8,2.4-12,1.6c-1.8-0.2-3.8,0-5.5-0.6c-1.7-1-2.8-2.7-4-4.2
	c-3.2,3.8-8.7,1.7-11.7-1.3c-4.3,0.9-10-0.7-10.2-5.9c-6,3.5-14.6,1.7-17.9-4.6c-2.1-3.5,0.4-7.4,2.7-10c1.4-1.7,3.8-0.5,5.6-0.5
	c-3.6-5.7-4.1-13.9,1-18.8c4.2-4.6,12.2-3.8,16.1,0.8c1.9,1.9,1.6,4.6,1.6,7.1c2.8,0.6,5.4,1.8,7.8,3.3c4.1-0.6,7.8,1.4,9.9,4.8
	c5.1-3.1,12.2-3.2,16.4,1.5c0.7-0.9,1.4-1.8,2-2.6c3-0.3,6.2-0.3,8.8,1.6c3.5-1.9,7.7-1.9,10.8,0.7c3.9-4.3,10.5-5,15.2-1.5
	c1.5-1.6,3.2-3.2,4.9-4.5c0.1,0.3,0.2,0.8,0.3,1.1c-1.3,1.3-2.8,2.5-3.7,4.1c-0.5,1.9,0.3,3.9,1,5.6c2.7,0.3,4.7-2.3,7.3-2.6
	c1.3,1.1,1.8,2.8,2.7,4.1c-3.2,0-7.3-0.5-9.2,2.7c-1.6,3.3-0.8,7.3,0.4,10.6c1,2.3,2.8,4.9,5.6,5c2,0.2,3.6-1.3,5.3-2.1
	c2.9,0.6,6.2,0.4,8.4-1.9c-0.1-4.3-2.2-8.2-3-12.3c-1.2-4-1.5-8.5-4.1-12c-1.7-2.2-4.6-2.7-7.2-2.6c-0.6,0.3-1.9,0.8-2.5,1
	c-0.3-0.1-0.8-0.3-1.1-0.4c4-2.8,9-1.5,12.4,1.6c2-7.1,11.4-12.5,17.9-7.6c0.7-3.5,1.9-7.3,5.2-9.1C-58.9,373-55.3,373.4-52.1,374.1
	L-52.1,374.1z"/>
<path class="st1" d="M-50.2,372c0.7-4.4,4.8-8,9.2-8.3c2.9,0.2,6.3,3.8,4.1,6.6c-2.3,0.3-5-1.3-6.8,0.8c1.2,4,5.7,2.4,8.8,2.6
	c5.2-0.8,10.2,4.2,9.6,9.4c0,5.5-5.6,9.3-10.7,9.2c-2.6-0.7-3.7-3.4-5.1-5.4c2.2-1.4,4.8-1.9,7.2-2.8c0.8-1.3,0.7-2.5-0.6-3.5
	c-3.1-0.7-6.4,0.3-9.5-0.5C-47.5,379-50,375.5-50.2,372L-50.2,372z"/>
<path class="st1" d="M-61.1,376c6.3-4.7,15,2.3,15.3,9.1c-1.7,3.9-6,5.7-9.4,7.8c1.6,1,3.1,2.8,5.3,2.4c2.7-0.9,3.3-4,4.6-6.2
	c1.5,0.3,3.9-0.2,4.2,1.9c2.1,6.6-6,11.9-11.9,10.7c-5.9-1.5-9.4-7.1-11.2-12.5C-65.6,384.7-65.5,378.8-61.1,376L-61.1,376z"/>
<path class="st1" d="M-185.9,377c4-1.3,8.5,1,10.6,4.4c1.5,2.5-0.1,5.7-2,7.5c-4.5,2.2-3.6-6.7-7.8-5.1c-1,5,4.4,7.9,5.5,12.3
	c1.2,4.9,0.2,10.9-3.9,14.2c-5.4,3.8-13.9,0.8-15.9-5.5c0.1-2.6,2-4.7,3.5-6.7c3.2-0.7,3.8,7.5,7.4,3.8c0.7-4.8-4.2-8.2-4.3-13
	C-193.6,384.1-190.7,378.7-185.9,377L-185.9,377z"/>
<path class="st0" d="M-57.4,381.8c2.6-0.7,3.6,2.6,4.9,4.1c-1.3,0.9-2.6,1.9-4,2.8C-57.3,386.6-60.2,383.4-57.4,381.8L-57.4,381.8z"
	/>
<path class="st1" d="M-82.7,392.9c-0.4-5.8,5.5-9.6,10.7-9.8c3.9,0.2,4.9,4.6,6.4,7.5c2.4,6.2,6.5,11.8,7.8,18.3
	c0.9,7.6-7.8,13.4-14.7,11.4c-2.8-1.1-3.8-4.9-1.5-7c2.8-0.5,6.6,0.6,8.2-2.4c0-0.9,0-2.7,0-3.6c-2.6,2.4-6.5,4.6-9.8,2.2
	C-80.3,405.5-82.4,399-82.7,392.9L-82.7,392.9z"/>
<path class="st1" d="M-176.5,397c0.9-3,1.3-6.6,3.6-8.9c2.6,0.1,5.1,1.5,6.6,3.7c3-1.2,6.7-0.7,8.6,2.2c1.3,4.6-0.8,9.3-1.9,13.7
	c-1.2,3.8-1.4,7.9-3.3,11.5c-2.2,0.6-6,0.3-6.9-2.2c0.8-5.1,3.5-9.8,4.2-15c0.5-1.5-0.4-3.6-2.2-3.3c-5,4.7-2.4,12.6-5.6,18.2
	c-2.2-0.9-6.5-0.6-6.6-3.9C-179.3,407.7-177.5,402.4-176.5,397L-176.5,397z"/>
<path class="st1" d="M-93.6,389.7c2.6,0,5.5,0.4,7.2,2.6c2.6,3.4,2.9,8,4.1,12c0.8,4.1,2.9,8,3,12.3c-2.2,2.3-5.5,2.4-8.4,1.9
	c-1.7,0.9-3.3,2.3-5.3,2.1c-2.8,0-4.6-2.7-5.6-5c-1.1-3.3-1.9-7.3-0.4-10.6c1.9-3.2,6.1-2.7,9.2-2.7c-0.9-1.4-1.5-3-2.7-4.1
	c-2.6,0.3-4.6,2.9-7.3,2.6c-0.7-1.7-1.5-3.7-1-5.6c0.9-1.6,2.4-2.8,3.7-4.1l1-0.4C-95.5,390.5-94.2,390-93.6,389.7L-93.6,389.7z"/>
<path class="st0" d="M-73.5,400.4c-1.1-2.9-3-6.6,0-8.9c1.7,4.1,4.7,8.1,4.8,12.7C-71.4,405-72.7,402.4-73.5,400.4L-73.5,400.4z"/>
<path class="st1" d="M-151.6,394.2c5-2.4,12.1,0.8,11.9,6.8c-0.5,7.5-1.4,15-1.7,22.5c-2.6-0.1-5.1-0.3-7.7-0.6
	c-0.2-0.4-0.5-1.1-0.7-1.5c-2.1,0.5-4.7,1.5-6.6-0.1c-3.5-2.8-3.5-8-2.1-11.9c0.7-2.8,3.4-5.5,6.4-5.1c2,0.1,3.2,1.9,4.8,2.7
	c-0.5-1.9,0.4-5.1-2.3-5.7c-1.8,0.2-3.5,0.9-5.2,1.3C-156,399.6-155.2,395.1-151.6,394.2L-151.6,394.2z"/>
<path class="st1" d="M-115.7,396.4c2.3-3.3,7-3.8,10.5-2.3c3,1.6,2.3,5.6,0.7,7.9c-1.8-1.2-6.5-4.4-6.1,0.1c2.6,2.2,6.3,3.3,8.1,6.4
	c2.5,4.2,2.8,10.6-1.5,13.8c-3.3,2.2-8.2,3-11.5,0.4c-1.3-2.4-1.2-5.4,0-7.7c2.3-1,4.8,1.1,7.1-0.1c1.4-3.2-2.3-4.8-4.5-6.1
	C-117.3,406.7-118.9,400.2-115.7,396.4L-115.7,396.4z"/>
<path class="st1" d="M-137.3,397c0.1-3.3,4.1-2.5,6.3-2.1c2.4,1.1,1.2,4.1,1.3,6.1c-0.3,5.1-1.9,10.8,0.5,15.6
	c2.3,1.3,2.3-2.3,2.5-3.7c0.3-5.8-0.2-11.5-0.2-17.3c2.4-0.3,5.5-1.5,7.4,0.6c0.5,4.2,0,8.5,0.2,12.7c0,5,1,10,0.4,15
	c-2.6,1.1-6.1,1.2-8.1-1.1c-1.9,1-3.8,2.6-6.1,1.8c-3.4-0.8-5.5-4.3-5.3-7.6C-138.2,410.3-137.6,403.7-137.3,397L-137.3,397z"/>
<path class="st0" d="M-90.7,414.6c-1.2-2.3-3.8-6.5-0.4-8.1C-88.8,408.5-87.6,412.8-90.7,414.6L-90.7,414.6z"/>
<path class="st2" d="M-152.5,416.6c0.1-2.8,0.7-5.5,2.6-7.6c2,1.9,2.2,4.6,0.8,7C-149.7,417.5-151.3,416.7-152.5,416.6L-152.5,416.6
	z"/>
</svg>
