<?xml version="1.0" encoding="utf-8"?>
<!-- Generator: Adobe Illustrator 19.0.0, SVG Export Plug-In . SVG Version: 6.00 Build 0)  -->
<svg version="1.1" id="Layer_1" xmlns="http://www.w3.org/2000/svg" xmlns:xlink="http://www.w3.org/1999/xlink" x="0px" y="0px"
	 viewBox="-156 346.8 297.3 101.2" style="enable-background:new -156 346.8 297.3 101.2;" xml:space="preserve">
<style type="text/css">
	.st0{fill:#555555;}
	.st1{display:none;fill:#555555;stroke:#A90B24;stroke-width:2.4736;}
	.st2{display:none;fill:#555555;}
	.st3{display:none;}
	.st4{display:inline;}
</style>
<g id="Logo">
	<g>
		<g>
			<g>
				<g>
					<path class="st0" d="M13.4,441.3l0.9-5.3h-3.9l-3,5.3H5.6l11.8-20.5h1l-3.1,20.5H13.4z M15.4,428.8c0.1-0.7,0.3-1.6,0.5-2.5
						l0,0c-0.4,0.9-0.9,1.8-1.3,2.5l-2.8,4.9h2.9L15.4,428.8z"/>
					<path class="st0" d="M26.6,429.9c-0.4-0.7-0.9-1-1.6-1c-1.4,0-3.3,2-4.4,5.1c-1.1,3.1-0.7,5.1,0.8,5.1c0.7,0,1.4-0.3,2.3-0.9
						l-1.2,2.6c-0.7,0.4-1.4,0.7-2.2,0.7c-2.2,0-3.1-2.8-1.4-7.5c1.7-4.7,4.7-7.5,6.9-7.5c1,0,1.6,0.4,2,1L26.6,429.9z"/>
					<path class="st0" d="M33.7,433.3l-1.5,1.4h-4.4c-0.7,2.1-0.7,4.5,1,4.5c1,0,1.9-0.5,2.8-1.3l-1.3,2.8c-0.7,0.5-1.5,0.9-2.6,0.9
						c-2.3,0-3.1-3-1.4-7.5c1.7-4.7,4.6-7.5,6.5-7.5c2.2,0,2.4,2.7,1.4,5.4C34,432.4,33.8,433,33.7,433.3z M28.7,432.5h3.6
						c0.1-0.1,0.2-0.4,0.2-0.5c0.5-1.5,0.6-3.2-0.4-3.2S29.6,430.4,28.7,432.5"/>
					<path class="st0" d="M34.1,440.4c-0.2-0.7-0.1-1.7,0.4-3l3-8.3H36l0.8-2.2h1.5l1-2.9l2.2-1.3l-1.5,4.2h2.6l-1,2.2h-2.4l-3,8.2
						c-0.4,1.2-0.2,1.8,0.5,1.8c0.3,0,0.6-0.1,1-0.3l-1.1,2.4c-0.2,0.1-0.6,0.2-0.9,0.2C34.8,441.5,34.3,441.1,34.1,440.4"/>
					<path class="st0" d="M44.1,441.6c-0.5-0.2-0.8-0.9-0.6-1.7c-0.9,1.2-1.9,1.7-2.8,1.7c-1.5,0-1.9-1.8-1-4.3
						c1-2.8,2.9-4.5,4.4-4.7l1.7-0.3l0.4-1c0.5-1.5,0.4-2.5-0.6-2.5c-0.8,0-1.7,0.5-2.5,1.1l0.6-2.3c0.9-0.7,1.9-1.1,2.9-1.1
						c1.8,0,2.5,1.8,1.3,5.1l-2.2,5.9c-0.5,1.3-0.3,2,0.1,2.2L44.1,441.6z M45,434.6l-1.4,0.2c-0.9,0.1-1.8,1.2-2.2,2.5
						c-0.4,1.1-0.3,2,0.3,2c0.8,0,2.1-1.3,2.7-2.9L45,434.6z"/>
					<path class="st0" d="M56.3,441.3l3.7-10.1c0.5-1.4,0.3-2.3-0.7-2.3s-1.9,1-2.4,2.3l-3.7,10.1h-1.7l3.7-10.1
						c0.5-1.4,0.3-2.3-0.8-2.3c-1,0-1.9,1-2.4,2.3l-3.7,10.1h-1.8l5.2-14.4h1.6l-0.4,1.3c0.9-1,1.7-1.6,2.9-1.6c1,0,1.5,0.8,1.5,1.9
						c0.9-1.1,2-1.9,3.4-1.9c1.7,0,2.1,1.8,1.2,4.3l-3.8,10.4C58.1,441.3,56.3,441.3,56.3,441.3z"/>
					<path class="st0" d="M60.3,441.3l5.2-14.4h1.8L62,441.3H60.3z M67.4,424.3c-0.4,0-0.6-1.2-0.4-1.8c0.2-0.6,1.3-1.8,1.7-1.8
						s0.6,1.2,0.4,1.8C68.8,423.1,67.7,424.3,67.4,424.3z"/>
					<path class="st0" d="M69.4,441.3l3.5-9.7c0.5-1.5,0.5-2.7-0.7-2.7c-1.1,0-2.2,1.3-2.7,2.7l-3.5,9.7h-1.8l5.2-14.4H71l-0.4,1.3
						c0.9-1,1.7-1.6,2.9-1.6c1.8,0,2.3,1.8,1.2,4.7l-3.6,10H69.4z"/>
					<path class="st0" d="M76.6,441.6c-2.4,0-3-3.1-1.3-7.5c1.6-4.5,4.4-7.5,6.8-7.5c2.4,0,3,3.1,1.3,7.5
						C81.8,438.5,79,441.6,76.6,441.6z M81.2,429c-1.3,0-3.1,2.1-4.2,5.1c-1.1,3-0.8,5.1,0.5,5.1c1.2,0,3-2.1,4.1-5.1
						C82.7,431,82.4,429,81.2,429z"/>
					<path class="st0" d="M85.8,441.6c-0.7,0-1.3-0.4-1.5-0.8l-2.6,7.2H80l7.7-21.2h1.4l-0.3,1.1c0.7-0.8,1.7-1.3,2.8-1.3
						c1.7,0,2.8,2.6,1,7.5C91,438.5,88.2,441.6,85.8,441.6z M90.4,428.9c-0.7,0-1.5,0.5-2.2,1.2l-2.9,7.9c0.2,0.6,0.6,1.1,1.3,1.1
						c1.3,0,3.1-2.1,4.2-5.1S91.7,428.9,90.4,428.9z"/>
					<path class="st0" d="M96.7,441.3l3.5-9.7c0.5-1.5,0.5-2.7-0.7-2.7c-1.1,0-2.2,1.3-2.7,2.7l-3.5,9.7h-1.7l8-21.9h1.7
						c0,0-3.1,8.6-3.1,8.5c0.8-0.8,1.6-1.3,2.7-1.3c1.8,0,2.3,1.8,1.2,4.7l-3.6,10C98.5,441.3,96.7,441.3,96.7,441.3z"/>
					<path class="st0" d="M110.1,433.3l-1.5,1.4h-4.4c-0.7,2.1-0.7,4.5,1,4.5c1,0,1.9-0.5,2.8-1.3l-1.3,2.8
						c-0.7,0.5-1.5,0.9-2.6,0.9c-2.3,0-3.1-3-1.4-7.5c1.7-4.7,4.6-7.5,6.5-7.5c2.2,0,2.4,2.7,1.4,5.4
						C110.4,432.4,110.2,433,110.1,433.3z M108.5,428.8c-0.9,0-2.5,1.6-3.4,3.7h3.6c0.1-0.1,0.2-0.4,0.2-0.5
						C109.4,430.5,109.4,428.8,108.5,428.8z"/>
					<path class="st0" d="M113.9,441.3l3.5-9.7c0.5-1.5,0.5-2.7-0.7-2.7c-1.1,0-2.2,1.3-2.7,2.7l-3.5,9.7h-1.8l5.2-14.4h1.5
						l-0.4,1.3c0.9-1,1.7-1.6,2.9-1.6c1.8,0,2.3,1.8,1.2,4.7l-3.6,10H113.9z"/>
				</g>
			</g>
		</g>
	</g>
	<path id="Swoosh_Dk_Red_Outline_2_" class="st1" d="M137,416l-0.4-2.9c-88.6-16-236.1-15.3-287.6,1c0,0-3.9,15.6-3.7,15.6
		C-74.3,410.1,95.2,410.1,137,416z"/>
	<path id="Swoosh_Dk_Red_Drp_Shdw_2_" class="st0" d="M138.1,418.5l-0.4-2.9c-88.3-15.9-236.4-15.2-287.6,1.1c0,0-3.9,15.6-3.7,15.6
		C-73.2,412.7,96.3,412.7,138.1,418.5z"/>
	<path id="Swoosh_Red_2_" class="st0" d="M137,416l-0.4-2.9c-88.3-15.9-236.4-15.2-287.6,1c0,0-3.9,15.6-3.7,15.6
		C-74.3,410.1,95.2,410.1,137,416z"/>
	<path id="Swoosh_Highlight_1_" class="st0" d="M-25.1,410.1c-52.6,0.4-95.9,5.2-125.9,12.6c0,0-0.2,0.9-0.6,2.4
		c30.6-7.6,73.1-12.7,125.8-13.6L-25.1,410.1z"/>
	<path id="Black_Drop_Shadow_2_" class="st0" d="M-77.9,384.2c0,0-1.2,1.2-1.6,2.1c-0.6,0.9-1,2-1.7,3.7l-0.4,1.3l-2.4,7.8
		c-0.9,2.9-1.3,4.9-1.4,7.7v1.7h-18.7l0.6-0.7c1.2-1.5,1.7-2.5,2.8-4.9c0.8-1.7,1-2.4,1.2-3c0,0,2.9-9.2,2.9-9.4
		c-0.4-1.3-4.7-17.8-4.7-17.8l-1.2-4.4l-0.4-1.3l-0.5-1.4l-0.4-1l-0.7-1.8h19.9c0,0,2.3,14.9,2.5,16.7c0.5,0.5,9.2-12.5,9.9-14.1
		l0.4-1.1l0.3-0.8l0.4-1.2h12.5h1.8l-0.7,1.8C-58.7,364.3-77.9,384.2-77.9,384.2z M-37.2,398.5c-3.7,1.2-7.6,1.9-11.9,1.9
		c0,0-3.8,0-4.7,0c0.3-1.1,9.6-30.1,9.6-30.1l0.1-0.1l1.1-2.9l0.9-2.3l0.4-0.8l0.8-2.1h-0.6h-16v1c0,1.8-0.1,3-1.1,6.5l-0.5,1.6
		l-8.8,28.4c-1.1,3.5-2,5.7-3.6,8.2l-0.5,0.6h31.2l4.5-10.3L-37.2,398.5z M132.5,398.5c-3.7,1.2-7.6,1.9-11.9,1.9c0,0-3.8,0-4.7,0
		c0.3-1.1,9.6-30.1,9.6-30.1l0.1-0.1l1.1-2.9l0.7-1.6l0.2-0.6l0.4-0.8l0.8-2.1h-0.6h-16v1c0,1.8-0.1,3-1.1,6.5l-0.4,1.6l-8.8,28.4
		c-1.1,3.5-2.1,5.7-3.6,8.2l-0.4,0.7h31.2l4.5-10.3L132.5,398.5z M-4.4,399.1c-4.5,0.9-6.6,1.2-9.5,1.2c0,0-3.4,0-4.2,0
		c0.3-1,3.7-11.6,3.9-12.2c0.4,0,1.2,0,1.2,0l1.7,0.1c2,0.2,3.9,0.5,5.1,0.9l0.6,0.2l0.7,0.3l0.4,0.2l3.1-10.6l-1.7,0.5l-1,0.2
		l-0.7,0.1l-0.9,0.2c-2.5,0.5-4.1,0.6-5.2,0.6c0,0-0.5,0-1,0c0.3-1,3.3-10.8,3.4-11.4c0.5,0,3.7,0,3.7,0l1.8,0.1
		c3.9,0.2,5.4,0.6,7.6,1.3L5,371l1.9-8.3H6.4H-22v0.4c-0.1,2.1-0.4,3.9-1.1,6.4l-0.4,1.4l-9.2,29.8l-0.3,0.9
		c-1.1,2.8-1.9,4.5-2.9,6.2l-0.4,0.7h30.7l4.4-10L-4.4,399.1z M52.6,372.7c0,0,0.8-2.8,0.9-2.8l0.1-0.2c0.4-1.1,1-2.6,2.1-5l1.1-2.1
		h-0.7h-9.6h-0.4v0.4c-0.1,2-0.3,3.7-1.1,6.4l-0.6,2.1l-0.3,1.1l-0.3,0.8c0,0-3.7,12-4.9,15.8c-0.7-2.1-9.6-26.6-9.6-26.6H10.7
		l0.4,0.7c0.4,0.7,0.5,1.1,0,4.5c-0.1,1.1-0.6,2.8-1.2,4.9l-7.7,25l-0.3,0.9l-1,3.1c-0.9,2.4-1.9,4.3-3,6.1l-0.4,0.7H9.4l0.3-3.5
		c0.2-1.5,0.4-2.4,0.6-3.1l0.5-1.7l0.4-1.4l0.2-1c0,0,4.5-14.3,5.8-18.5c0.8,2.1,10.7,29,10.7,29h13.6l10.7-34.8L52.6,372.7z
		 M86.5,370.2c-0.5-1.3-1.4-2.2-2.7-2.6c-1.9-0.6-4.3,0-6.5,1.7c-3.8,2.8-6.3,6.7-9,14.1c-1.1,3.2-2.7,10.3-2.7,11.2
		c-0.1,1-0.1,1.8-0.1,2.5c0,1.3,0.1,2.2,0.4,3c0.5,1.6,1.5,2.7,3,3.2c2.1,0.7,4.6,0.2,7-1.6c3.1-2.3,5.6-5.4,8.6-13.9
		c1.7-4.6,2.5-9.2,2.7-11.7C87.3,372.8,87,371.6,86.5,370.2z M99.8,389.4c-5.2,10.4-15.5,18-26.8,19.6c-8.7,1.3-15.6-0.5-19.3-5.1
		c-3.3-4-4-9.9-2.1-16.7c3.7-13.4,14.3-22.7,28.2-25c2.5-0.4,5-0.6,7.4-0.4c7,0.4,12,3.1,14.5,7.7c1.1,2,1.6,4.4,1.6,7
		C103.2,380.4,102.1,384.8,99.8,389.4z M-104.9,358.1c0.2,0,0.3,0,0.5,0H-85l-2.1-9.1h-57.7l-4.8,11l0.9-0.2
		c3.2-0.7,5.8-1.1,10.1-1.4c3.1-0.3,4-0.3,4.8-0.3c0,0,7.5,0,8.5,0c-0.4,1.2-12.8,42-12.8,42l-0.6,2c-1.5,4.1-2.9,7.1-4.7,9.9
		l-0.4,0.8h22.3v-0.5c0-0.2,0-0.5,0-0.7c0.1-2.7,0.5-5.4,1.5-9.2c0.1-0.7,0.3-1.4,0.6-2c0,0,11.7-38.5,12.8-42.3
		C-106.1,358.1-104.9,358.1-104.9,358.1z"/>
	<path id="Tylenol-White_2_" class="st2" d="M-79.6,382c0,0-1.2,1.2-1.6,2.1c-0.5,0.9-1,2-1.7,3.7l-0.4,1.3l-2.4,7.8
		c-0.9,2.9-1.3,4.8-1.3,7.7v1.7h-18.7l0.6-0.7c1.1-1.5,1.7-2.5,2.8-5c0.8-1.7,1-2.4,1.2-3c0,0,2.9-9.2,2.9-9.4
		c-0.4-1.3-4.7-17.8-4.7-17.8l-1.2-4.4l-0.4-1.3l-0.5-1.4l-0.4-1l-0.7-1.8h19.9c0,0,2.3,14.9,2.5,16.7c0.5,0.5,9.2-12.5,9.9-14.1
		l0.4-1.1l0.3-0.8l0.4-1.2h12.5h1.8l-0.7,1.8C-60.4,362.1-79.6,382-79.6,382z M-38.8,396.3c-3.7,1.2-7.6,1.9-11.9,1.9
		c0,0-3.8,0-4.7,0c0.3-1.1,9.6-30.1,9.6-30.1l0.1-0.1l1.1-2.9l0.9-2.3l0.4-0.8l0.8-2.1h-0.6h-16v1c0,1.8-0.1,3-1.1,6.6l-0.5,1.6
		l-8.8,28.4c-1.1,3.5-2,5.7-3.6,8.2l-0.4,0.7h31.2l4.5-10.3L-38.8,396.3z M130.8,396.3c-3.7,1.2-7.6,1.9-11.9,1.9c0,0-3.8,0-4.7,0
		c0.3-1.1,9.6-30.1,9.6-30.1l0.1-0.1l1.1-2.9l0.7-1.6l0.2-0.6l0.4-0.8l0.8-2.1h-0.6h-16v1c0,1.8-0.1,3-1.1,6.6l-0.5,1.6l-8.8,28.4
		c-1,3.5-2,5.7-3.6,8.2l-0.4,0.7h31.2l4.5-10.3L130.8,396.3z M-6,396.9c-4.5,0.9-6.6,1.2-9.5,1.2c0,0-3.3,0-4.2,0
		c0.3-1,3.7-11.6,3.9-12.2c0.4,0,1.2,0,1.2,0l1.7,0.1c2,0.2,3.9,0.5,5.1,0.9l0.6,0.2l0.7,0.3l0.4,0.2L-3,377l-1.7,0.5l-1,0.2
		l-0.7,0.1l-0.9,0.2c-2.5,0.5-4.1,0.6-5.2,0.6c0,0-0.5,0-1,0c0.3-1,3.3-10.8,3.4-11.4c0.5,0,3.7,0,3.7,0l1.8,0.1
		c3.9,0.2,5.4,0.6,7.6,1.3l0.4,0.1l1.9-8.3H4.8h-28.4v0.4c0,2-0.4,3.9-1.1,6.4l-0.4,1.4l-9.2,29.8l-0.3,0.9
		c-1.1,2.8-1.9,4.5-2.9,6.2l-0.4,0.7h30.7l4.4-10L-6,396.9z M51,370.5l0.9-2.8l0.1-0.2c0.4-1.1,1-2.6,2.1-5l1.1-2.1h-0.7h-9.6h-0.4
		v0.4c-0.1,2-0.3,3.7-1.1,6.4l-0.6,2.1l-0.3,1.1l-0.3,0.8c0,0-3.7,12-4.9,15.8c-0.7-2.1-9.5-26.6-9.5-26.6H9.1l0.4,0.7
		c0.4,0.7,0.5,1.1,0,4.5c-0.1,1.1-0.6,2.8-1.2,4.9l-7.7,25l-0.3,0.9l-1,3.1c-0.9,2.4-1.9,4.3-3,6.1l-0.4,0.7H7.8l0.3-3.5
		c0.2-1.5,0.4-2.4,0.6-3.1l0.5-1.7l0.4-1.4l0.2-1c0,0,4.5-14.3,5.8-18.5c0.8,2.1,10.7,29,10.7,29h13.6l10.7-34.8L51,370.5z
		 M84.9,368c-0.5-1.3-1.4-2.2-2.7-2.6c-1.9-0.6-4.3,0-6.5,1.7c-3.8,2.8-6.3,6.7-9,14.1c-1.1,3.2-2.7,10.3-2.7,11.2
		c-0.1,1-0.1,1.8-0.1,2.5c0,1.3,0.1,2.2,0.4,3c0.5,1.6,1.5,2.7,3,3.2c2.1,0.7,4.6,0.2,7-1.6c3.1-2.3,5.6-5.4,8.6-13.9
		c1.6-4.6,2.5-9.2,2.7-11.7C85.6,370.6,85.4,369.4,84.9,368z M98.1,387.2c-5.2,10.4-15.5,18-26.8,19.6c-8.7,1.3-15.6-0.5-19.3-5.1
		c-3.3-4-4-9.9-2.1-16.7c3.7-13.4,14.3-22.7,28.2-25c2.5-0.4,5-0.6,7.4-0.4c7,0.4,12,3.1,14.5,7.7c1.1,2,1.6,4.4,1.6,7
		C101.6,378.2,100.4,382.6,98.1,387.2z M-106.5,355.9c0.2,0,0.3,0,0.5,0h19.3l-2.1-9.1h-57.6l-4.8,11l0.8-0.2
		c3.2-0.7,5.8-1.1,10.1-1.4c3.1-0.3,4-0.3,4.8-0.3c0,0,7.5,0,8.5,0c-0.4,1.2-12.8,42-12.8,42l-0.6,2c-1.5,4.1-2.9,7.1-4.7,9.9
		l-0.4,0.7h22.3V410c0-0.2,0-0.5,0-0.7c0.1-2.7,0.5-5.4,1.5-9.2c0.1-0.7,0.3-1.4,0.6-2c0,0,11.7-38.5,12.8-42.3
		C-107.7,355.9-106.5,355.9-106.5,355.9z"/>
	<path id="Gray_Inner_Shadow_2_" class="st2" d="M-87.6,360.4h1.4c0,0,1.4,9,2.1,13.8c-0.7,0.8-1.1,1.3-1.2,1.2
		C-85.6,374-87,364.3-87.6,360.4z M-60.3,359.9h-0.5l-0.1,0.2c-1.1,0.4-20.3,20.2-20.3,20.2s-1.2,1.2-1.6,2.1c-0.5,0.9-1,2-1.6,3.7
		l-0.4,1.3l-2.4,7.8c-0.9,2.9-1.3,4.9-1.4,7.7v1.7h-15.9c-0.2,0.3-0.4,0.6-0.7,0.9l-0.6,0.7h18.6v-1.7c0.1-2.8,0.4-4.7,1.4-7.7
		l2.4-7.8l0.4-1.3c0.6-1.7,1.1-2.8,1.7-3.7c0.5-0.9,1.6-2.1,1.6-2.1s19.2-19.9,20.4-20.3l0.7-1.8h-1.7V359.9z M-45,360.4l-0.4,0.8
		l-0.9,2.3l-1.1,2.8l-0.1,0.1c0,0-9.2,29-9.6,30.1c0.4,0,1.3,0,2.2,0c2-6.3,9-28.4,9.1-28.5l0.1-0.1l1.1-2.9l0.9-2.3l0.4-0.8
		l0.8-2.1h-0.6h-1.6L-45,360.4z M-38.8,396.3c-0.6,0.2-1.2,0.4-1.8,0.5l-3.4,7.8h-28.6c-0.2,0.3-0.4,0.6-0.6,1l-0.4,0.7h31.2
		l4.5-10.3L-38.8,396.3z M124.6,360.4l-0.4,0.8l-0.2,0.6l-0.7,1.6l-1.1,2.8l-0.1,0.1c0,0-9.2,29-9.6,30.1c0.4,0,1.3,0,2.2,0
		c2-6.3,9-28.4,9.1-28.5l0.1-0.1l1.1-2.9l0.7-1.6l0.2-0.6l0.4-0.8l0.8-2.1h-0.6h-1.6L124.6,360.4z M130.8,396.3
		c-0.6,0.2-1.2,0.4-1.8,0.5l-3.4,7.8H97c-0.2,0.3-0.4,0.6-0.6,1l-0.4,0.7h31.2l4.5-10.3L130.8,396.3z M-16.3,384.3c0,0-0.8,0-1.2,0
		c-0.2,0.6-3.6,11.2-3.9,12.2c0.4,0,1.3,0,2.2,0c1-3.3,3.2-10.1,3.4-10.6c0.4,0,1.2,0,1.2,0l1.7,0.1c2,0.2,3.9,0.5,5.1,0.9l0.6,0.2
		l0.7,0.3l0.4,0.2L-3,377l-1.7,0.5c0,0-0.3,0.1-0.6,0.2l-2.4,8.3l-0.4-0.2l-0.7-0.3l-0.6-0.2c-1.3-0.4-3.1-0.7-5.1-0.9L-16.3,384.3z
		 M4.8,360.4H3.2L1.7,367l-0.4-0.1c-2.1-0.7-3.7-1.1-7.6-1.3l-1.8-0.1c0,0-3.2,0-3.7,0c-0.2,0.6-3.1,10.4-3.4,11.4c0.4,0,1,0,1,0
		c0.3,0,0.7,0,1.2,0c0.9-3.1,2.8-9.2,2.9-9.7c0.5,0,3.7,0,3.7,0l1.8,0.1c3.9,0.2,5.4,0.6,7.6,1.3l0.4,0.1l1.9-8.3
		C5.3,360.4,4.8,360.4,4.8,360.4z M-8.9,404.6h-28c-0.2,0.3-0.4,0.7-0.6,1l-0.4,0.7h30.7l4.4-10l-2.6,0.6L-8.9,404.6z M35.7,385.4
		c0.1-0.4,0.3-1,0.5-1.6c-2.6-7.2-8.4-23.4-8.4-23.4h-1.1C28.7,365.9,35,383.6,35.7,385.4z M14,375.6c-1.3,4.2-5.8,18.5-5.8,18.5
		S8,395,8,395.1l-0.4,1.4l-0.5,1.7c-0.2,0.7-0.4,1.5-0.6,3.1l-0.3,3.5H-3c-0.2,0.3-0.4,0.7-0.6,1l-0.4,0.7H7.9l0.3-3.5
		c0.2-1.5,0.4-2.4,0.6-3.1l0.5-1.7l0.4-1.4l0.2-1c0,0,3.6-11.6,5.3-16.9C14.5,377.1,14.1,375.9,14,375.6z M54.5,360.4h-1.9l-0.2,0.5
		c-1.1,2.4-1.7,3.9-2.1,5l-0.1,0.2c0,0-0.8,2.8-0.9,2.8l-0.3,0.8l-10.7,34.8H25.7c0.4,1,0.6,1.7,0.6,1.7h13.6l10.7-34.8l0.3-0.8
		l0.9-2.8l0.1-0.2c0.4-1.1,1-2.6,2.1-5l1.1-2.1h-0.6V360.4z M64.7,399.1c-0.2-0.4-0.4-0.8-0.5-1.2c-0.3-0.8-0.4-1.7-0.4-3
		c0-0.7,0-1.5,0.1-2.5c0.1-0.9,1.6-8,2.7-11.2c2.7-7.3,5.2-11.3,9-14.1c2.3-1.7,4.6-2.3,6.5-1.7c0.2,0.1,0.5,0.2,0.7,0.3
		c-0.5-0.9-1.3-1.6-2.3-2c-1.9-0.6-4.3,0-6.5,1.7c-3.8,2.8-6.3,6.7-9,14.1c-1.1,3.2-2.7,10.3-2.7,11.2c-0.1,1-0.1,1.8-0.1,2.5
		c0,1.3,0.1,2.2,0.4,3C62.9,397.5,63.7,398.4,64.7,399.1z M99.9,367.3c-0.8-1.5-1.9-2.7-3.1-3.8c0.6,0.7,1.1,1.4,1.5,2.1
		c1.1,2,1.6,4.4,1.6,7c0,3.9-1.2,8.2-3.5,12.9c-5.2,10.4-15.5,18-26.8,19.6c-7.5,1.1-13.6-0.1-17.6-3.4c3.8,4.5,10.6,6.3,19.2,5
		c11.3-1.7,21.6-9.2,26.8-19.6c2.3-4.6,3.5-9,3.5-12.9C101.6,371.7,101,369.3,99.9,367.3z M-88.8,346.8H-90l1.7,7.5h-19.4
		c-0.2,0-0.3,0-0.5,0c0,0-1.2,0-1.7,0c-1.1,3.8-12.8,42.3-12.8,42.3c-0.2,0.7-0.4,1.3-0.6,2c-1,3.8-1.5,6.5-1.5,9.2
		c0,0.2,0,0.5,0,0.7v0.5h-19.6c-0.2,0.3-0.4,0.6-0.6,0.9l-0.4,0.7h22.3v-0.5c0-0.2,0-0.5,0-0.7c0.1-2.7,0.5-5.4,1.5-9.2
		c0.1-0.7,0.3-1.4,0.6-2c0,0,11.7-38.5,12.8-42.3c0.5,0,1.7,0,1.7,0c0.2,0,0.3,0,0.5,0h19.3L-88.8,346.8z M-135.4,355.9
		c0,0,3.8,0,6.4,0c0.3-0.9,0.5-1.5,0.5-1.7c-1,0-8.5,0-8.5,0c-0.8,0-1.7,0-4.8,0.3c-3.5,0.3-5.9,0.6-8.3,1.1l-1.1,2.2l0.8-0.2
		c3.2-0.7,5.8-1.1,10.1-1.4C-137.1,355.9-136.2,355.9-135.4,355.9z"/>
	<path id="_x00AE__2_" class="st0" d="M134.9,368l0.4-2h0.3h0.3c0.2,0,0.4,0,0.5,0.1c0.2,0.1,0.3,0.2,0.3,0.4c0,0.1,0,0.3,0,0.7
		c0,0.3-0.1,0.6,0,0.8h1.4v-0.2c0-0.1,0-0.1,0-0.2c0-0.1,0-0.1,0-0.2l0.1-0.5c0.1-0.6,0-1-0.3-1.2c-0.2-0.1-0.4-0.2-0.7-0.3
		c0.4,0,0.7-0.2,1-0.4c0.3-0.2,0.5-0.5,0.6-1c0.1-0.6,0-1-0.5-1.3c-0.3-0.2-0.6-0.2-1-0.3c-0.1,0-0.5,0-1.1,0c-0.7,0-1.2,0-1.5,0
		l-1.1,5.5h1.3V368z M137.3,364.2c-0.1,0.3-0.2,0.5-0.4,0.7c-0.2,0.1-0.5,0.2-0.8,0.2h-0.6l0.3-1.6h0.4c0.4,0,0.6,0,0.8,0.1
		C137.3,363.7,137.4,363.9,137.3,364.2z M141.2,365.2c0.3-1.4,0-2.5-0.8-3.5s-1.9-1.4-3.2-1.4c-1.3,0-2.5,0.5-3.7,1.3
		c-1.2,1-2,2.2-2.2,3.6c-0.3,1.4,0,2.6,0.8,3.5c0.8,1,1.9,1.4,3.3,1.4s2.6-0.5,3.8-1.4C140.2,367.8,140.9,366.6,141.2,365.2z
		 M137,361.1c1.1,0,2,0.4,2.7,1.2c0.6,0.8,0.8,1.8,0.6,2.9c-0.2,1.1-0.8,2.1-1.7,2.9c-1,0.8-2,1.2-3.1,1.2s-2-0.4-2.7-1.2
		c-0.7-0.8-0.9-1.8-0.6-2.9c0.2-1.1,0.8-2.1,1.7-2.9C134.8,361.5,135.9,361.1,137,361.1z"/>
</g>
<g id="Callouts" class="st3">
	<g class="st4">
		<g>
			<path d="M-76.5,241.2h-2.2v-0.8h5.4v0.8h-2.2v5.9h-0.9v-5.9H-76.5z"/>
			<path d="M-69,247.1h-0.8l-1-3.9l0,0l-1,3.9h-0.9l-1.6-4.8h0.9l1.1,4l0,0l1-4h0.9l1,4l0,0l1.1-4h0.8L-69,247.1z"/>
			<path d="M-64.6,242.2c1.5,0,2.4,1.1,2.4,2.5c0,1.4-0.8,2.5-2.4,2.5c-1.5,0-2.4-1.1-2.4-2.5C-66.9,243.3-66.1,242.2-64.6,242.2z
				 M-64.6,246.6c0.8,0,1.5-0.7,1.5-1.8c0-1.2-0.7-1.8-1.5-1.8s-1.5,0.7-1.5,1.8S-65.4,246.6-64.6,246.6z"/>
			<path d="M-55.4,243.9c-0.1-0.6-0.5-1-1.2-1c-1.2,0-1.5,0.9-1.5,1.9c0,0.9,0.4,1.8,1.4,1.8c0.8,0,1.2-0.4,1.3-1.2h0.8
				c-0.2,1.2-0.9,1.9-2.1,1.9c-1.5,0-2.3-1-2.3-2.5s0.8-2.6,2.3-2.6c1.1,0,2,0.5,2.1,1.7C-54.6,243.9-55.4,243.9-55.4,243.9z"/>
			<path d="M-51.5,242.2c1.5,0,2.4,1.1,2.4,2.5c0,1.4-0.8,2.5-2.4,2.5c-1.5,0-2.4-1.1-2.4-2.5C-53.9,243.3-53.1,242.2-51.5,242.2z
				 M-51.5,246.6c0.8,0,1.5-0.7,1.5-1.8c0-1.2-0.7-1.8-1.5-1.8s-1.5,0.7-1.5,1.8S-52.4,246.6-51.5,246.6z"/>
			<path d="M-48.2,240.5h0.8v6.7h-0.8V240.5z"/>
			<path d="M-44.1,242.2c1.5,0,2.4,1.1,2.4,2.5c0,1.4-0.8,2.5-2.4,2.5c-1.5,0-2.4-1.1-2.4-2.5C-46.4,243.3-45.6,242.2-44.1,242.2z
				 M-44.1,246.6c0.8,0,1.5-0.7,1.5-1.8c0-1.2-0.7-1.8-1.5-1.8s-1.5,0.7-1.5,1.8S-44.9,246.6-44.1,246.6z"/>
			<path d="M-40.8,242.3h0.8v1l0,0c0.4-0.8,0.9-1.2,1.8-1.1v0.8c-1.3,0-1.8,0.7-1.8,2v2.2h-0.8V242.3z"/>
			<path d="M-35,240.5h0.8v6.7H-35V240.5z"/>
			<path d="M-30.9,242.2c1.5,0,2.4,1.1,2.4,2.5c0,1.4-0.8,2.5-2.4,2.5c-1.5,0-2.4-1.1-2.4-2.5C-33.2,243.3-32.4,242.2-30.9,242.2z
				 M-30.9,246.6c0.8,0,1.5-0.7,1.5-1.8c0-1.2-0.7-1.8-1.5-1.8s-1.5,0.7-1.5,1.8S-31.7,246.6-30.9,246.6z"/>
			<path d="M-23.4,246.7c0,1.6-0.7,2.4-2.3,2.4c-0.9,0-2-0.4-2-1.4h0.8c0,0.6,0.7,0.8,1.3,0.8c1,0,1.5-0.8,1.5-1.8v-0.3l0,0
				c-0.3,0.6-0.9,0.9-1.5,0.9c-1.4,0-2.2-1.1-2.2-2.5c0-1.1,0.6-2.6,2.2-2.6c0.6,0,1.2,0.3,1.4,0.8l0,0v-0.7h0.8V246.7z
				 M-24.2,244.6c0-0.9-0.4-1.7-1.4-1.7s-1.4,0.8-1.4,1.8c0,0.9,0.3,1.8,1.4,1.8C-24.6,246.5-24.2,245.5-24.2,244.6z"/>
			<path d="M-20.1,242.2c1.5,0,2.4,1.1,2.4,2.5c0,1.4-0.8,2.5-2.4,2.5c-1.5,0-2.4-1.1-2.4-2.5C-22.5,243.3-21.6,242.2-20.1,242.2z
				 M-20.1,246.6c0.8,0,1.5-0.7,1.5-1.8c0-1.2-0.7-1.8-1.5-1.8s-1.5,0.7-1.5,1.8S-20.9,246.6-20.1,246.6z"/>
			<path d="M-16.3,245.6c0,0.7,0.6,0.9,1.3,0.9c0.5,0,1.2-0.1,1.2-0.7c0-0.6-0.8-0.7-1.6-0.9c-0.8-0.2-1.6-0.4-1.6-1.4
				s1-1.4,1.8-1.4c1.1,0,1.9,0.3,2,1.5H-14c-0.1-0.6-0.6-0.8-1.1-0.8s-1,0.1-1,0.6c0,0.6,0.8,0.7,1.6,0.8c0.8,0.2,1.6,0.4,1.6,1.4
				c0,1.2-1.1,1.5-2.1,1.5c-1.1,0-2-0.4-2.1-1.6L-16.3,245.6L-16.3,245.6z"/>
			<path d="M-8.2,249c-0.9-1.4-1.5-2.7-1.5-4.4c0-1.5,0.5-3,1.5-4.3h0.6c-0.9,1.4-1.2,2.8-1.2,4.3c0,1.6,0.3,3,1.2,4.4H-8.2z"/>
			<path d="M-6.9,240.5H-4c1.3,0,2.1,0.7,2.1,2c0,1.2-0.7,2-2.1,2h-2v2.7h-0.9V240.5z M-6.1,243.7h1.7c1,0,1.5-0.4,1.5-1.2
				c0-0.8-0.5-1.2-1.5-1.2h-1.7V243.7z"/>
			<path d="M-0.9,240.5h1.2l2.1,5.6l2.1-5.6h1.2v6.7H5v-5.6l0,0l-2.1,5.6H2.1L0,241.6l0,0v5.6h-0.8L-0.9,240.5L-0.9,240.5z"/>
			<path d="M11.2,242.4c-0.1-1-0.7-1.4-1.7-1.4c-0.8,0-1.5,0.3-1.5,1.1c0,0.8,1.1,0.9,2.1,1.2c1.1,0.2,2.1,0.6,2.1,1.9
				c0,1.4-1.4,2-2.6,2c-1.5,0-2.8-0.7-2.8-2.4h0.8c0,1.1,0.9,1.6,2,1.6c0.8,0,1.7-0.3,1.7-1.2s-1.1-1.1-2.1-1.3
				c-1.1-0.2-2.1-0.5-2.1-1.8c0-1.4,1.2-2,2.4-2c1.4,0,2.4,0.6,2.5,2.1h-0.8V242.4z"/>
			<path d="M18.6,247.1h-0.8v-4.8h-1.7v-0.6c0.9,0,1.7-0.2,1.9-1.2h0.6V247.1z"/>
			<path d="M23,240.5c1.5,0,2,0.9,2,1.7c0,0.6-0.4,1.1-0.9,1.4c0.8,0.3,1.2,0.8,1.2,1.7c0,1.3-1,2-2.2,2c-1.3,0-2.3-0.7-2.3-2
				c0-0.8,0.4-1.4,1.2-1.7c-0.6-0.2-0.9-0.8-0.9-1.4C21.1,241.1,22,240.5,23,240.5z M23.1,246.6c0.8,0,1.4-0.6,1.4-1.3
				c0-0.7-0.6-1.3-1.4-1.3c-0.8,0-1.4,0.5-1.4,1.3C21.7,246.1,22.3,246.6,23.1,246.6z M23.1,243.3c0.6,0,1.1-0.4,1.1-1.1
				c0-0.7-0.5-1-1.1-1s-1.2,0.4-1.2,1C21.9,243,22.4,243.3,23.1,243.3z"/>
			<path d="M29.6,242.2c-0.1-0.6-0.5-1-1.1-1c-1.4,0-1.6,1.5-1.6,2.5l0,0c0.4-0.6,0.9-0.9,1.7-0.9c1.3,0,2,0.9,2,2.2
				c0,1-0.5,2.2-2.2,2.2c-2,0-2.3-1.8-2.3-3.2c0-1.8,0.6-3.6,2.4-3.6c1.1,0,1.8,0.6,1.9,1.7h-0.8V242.2z M27,245.1
				c0,0.8,0.5,1.5,1.4,1.5s1.3-0.7,1.3-1.5s-0.4-1.5-1.3-1.5C27.5,243.6,27,244.2,27,245.1z"/>
			<path d="M31.7,246.1h1v0.9c0,0.7-0.3,1.3-1,1.5V248c0.4-0.1,0.6-0.6,0.5-0.9h-0.6v-1H31.7z"/>
			<path d="M36.8,240.5h0.9v3.3l3.4-3.3h1.2l-2.8,2.7l2.9,4h-1.1l-2.4-3.4l-1.1,1v2.3h-0.9L36.8,240.5L36.8,240.5z"/>
			<path d="M42.3,249c0.9-1.4,1.2-2.8,1.2-4.3c0-1.6-0.3-3-1.2-4.4h0.6c0.9,1.4,1.5,2.7,1.5,4.4c0,1.5-0.5,3-1.5,4.3H42.3z"/>
		</g>
	</g>
</g>
</svg>
