<?xml version="1.0" encoding="utf-8"?>
<!-- Generator: Adobe Illustrator 19.0.0, SVG Export Plug-In . SVG Version: 6.00 Build 0)  -->
<svg version="1.1" id="Layer_1" xmlns="http://www.w3.org/2000/svg" xmlns:xlink="http://www.w3.org/1999/xlink" x="0px" y="0px"
	 viewBox="-217 348 175.7 97" style="enable-background:new -217 348 175.7 97;" xml:space="preserve">
<style type="text/css">
	.st0{fill:#555555;}
</style>
<g>
	<polygon class="st0" points="-166.8,400.4 -151.2,349.1 -137.3,349.1 -152.9,400.4 	"/>
	<path class="st0" d="M-173,349.1l-12.4,21.8c-3.2,5.7-5,8.6-5.9,12.2h-0.2c0.2-4.6-0.4-10.2-0.5-13.3l-1.4-20.7h-23.4l-0.2,1.4
		c6,0,9.6,3,10.5,9.2l4.6,40.7h14.4l29-51.3H-173L-173,349.1z"/>
	<path class="st0" d="M-65.1,400.4l-0.4-7.6h-17.3l-3.5,7.6h-15.1l27.3-51.2h18.5l4.6,51.2H-65.1L-65.1,400.4z M-66.7,370.2
		c-0.2-3.8-0.3-8.9,0-12h-0.2c-0.8,2.5-4.5,10.2-6.1,13.9l-5.2,11.2H-66L-66.7,370.2L-66.7,370.2z"/>
	<path class="st0" d="M-122.8,401.9c-9.8,0-16.3-3.1-20.9-5.9l6.6-10.1c4.2,2.3,7.4,5,15,5c2.4,0,4.8-0.6,6.1-2.9
		c1.9-3.3-0.4-5.1-5.9-8.2l-2.7-1.8c-8-5.5-11.5-10.7-7.7-19.8c2.4-5.8,8.8-10.2,19.3-10.2c7.3,0,14.1,3.1,18,6.2l-7.6,8.9
		c-3.9-3.1-7.1-4.7-10.8-4.7c-2.9,0-5.2,1.1-5.9,2.7c-1.4,2.9,0.5,4.8,4.7,7.4l3.2,2c9.8,6.2,12.1,12.6,9.6,18.6
		C-105.9,399.5-114.2,401.9-122.8,401.9L-122.8,401.9z"/>
	<path class="st0" d="M-204.3,445c35.9-15.4,86.2-29.3,152.9-15.4l0.7-16.9c-70.3-7.7-120.8,14.7-153.6,30.6V445L-204.3,445z"/>
	<path class="st0" d="M-47.2,357.1h-0.9v-5.6h2.1c1.3,0,2,0.5,2,1.6c0,1-0.6,1.4-1.4,1.5l1.6,2.4h-1l-1.4-2.4h-0.9v2.5H-47.2z
		 M-46.1,353.9c0.7,0,1.3-0.1,1.3-0.9c0-0.7-0.7-0.8-1.2-0.8h-1.1v1.6h1V353.9z M-46.2,359.2c-2.9,0-4.9-2.2-4.9-5c0-3,2.3-5,4.9-5
		c2.6,0,4.9,2,4.9,5S-43.5,359.2-46.2,359.2L-46.2,359.2z M-46.2,350c-2.2,0-3.9,1.7-3.9,4.1c0,2.3,1.5,4.1,3.9,4.1
		c2.1,0,3.8-1.7,3.8-4.1C-42.3,351.7-44,350-46.2,350L-46.2,350z"/>
</g>
</svg>
