<?xml version="1.0" encoding="utf-8"?>
<!-- Generator: Adobe Illustrator 19.0.0, SVG Export Plug-In . SVG Version: 6.00 Build 0)  -->
<svg version="1.1" id="Layer_1" xmlns="http://www.w3.org/2000/svg" xmlns:xlink="http://www.w3.org/1999/xlink" x="0px" y="0px"
	 viewBox="0 0 406.1 54.4" style="enable-background:new 0 0 406.1 54.4;" xml:space="preserve">
<style type="text/css">
	.st0{fill:#555655;}
</style>
<g>
	<path class="st0" d="M401.2,1.8v3.8h0.7V4.1h0.5c0.4,0,0.6,0,0.7,0.1c0.2,0.1,0.4,0.5,0.4,0.9v0.4c0,0,0,0,0,0l0,0.1h0.6l0-0.1
		c0,0,0-0.1,0-0.2c0-0.1,0-0.2,0-0.3V4.7c0-0.2,0-0.4-0.2-0.6c-0.1-0.2-0.3-0.3-0.6-0.4c0.2,0,0.4-0.1,0.5-0.2
		c0.3-0.2,0.4-0.4,0.4-0.7c0-0.5-0.2-0.8-0.6-1c-0.2-0.1-0.6-0.1-1-0.1H401.2 M403.5,2.9c0,0.3-0.1,0.5-0.4,0.6
		c-0.1,0.1-0.3,0.1-0.6,0.1h-0.6V2.2h0.6c0.4,0,0.6,0.1,0.8,0.2C403.4,2.4,403.5,2.6,403.5,2.9z M406.1,3.6c0-0.9-0.3-1.8-1-2.4
		c-0.7-0.7-1.5-1-2.5-1c-0.9,0-1.7,0.3-2.4,1c-0.7,0.7-1,1.5-1,2.4c0,1,0.3,1.8,1,2.5c0.7,0.7,1.5,1,2.4,1c1,0,1.8-0.3,2.5-1
		C405.7,5.4,406.1,4.6,406.1,3.6z M402.6,0.7c0.8,0,1.5,0.3,2.1,0.9c0.6,0.6,0.9,1.3,0.9,2.1c0,0.8-0.3,1.6-0.9,2.1
		c-0.6,0.6-1.3,0.9-2.1,0.9c-0.8,0-1.5-0.3-2.1-0.9c-0.6-0.6-0.8-1.3-0.8-2.1c0-0.8,0.3-1.5,0.8-2.1C401.1,1,401.8,0.7,402.6,0.7z"
		/>
	<path class="st0" d="M60.2,54.4H43.4l-4.2-21c-0.6-2.8-1.1-6.7-1.6-12.2c-0.2-2.5-0.5-4.9-0.9-9.7h-0.4c-0.3,5.9-0.4,7.6-1,12.5
		c-0.5,4.9-1,7.5-1.3,9.4l-4.2,21H13L0,0h14.6l3.7,17.2c0.8,3.8,1.5,9.5,2.1,15.6c0.4,3.1,0.5,5.8,0.8,11.3h0.5
		c0.2-6.9,0.4-9.1,1.1-14.7c0.6-5.9,1.2-9.8,1.8-12.3L28.2,0h16.4l3.5,15.9c0.7,3.4,1.6,9.7,2.3,15.9c0.3,3.3,0.6,6.3,0.8,12.3h0.5
		c0.5-7.7,0.7-11.1,1.4-15.8c0.6-5,1.3-9.2,2-12.6L58.7,0h14.9L60.2,54.4"/>
	<path class="st0" d="M91,9.6L85.3,30h11.5L91,9.6 M79,54.4H64.8L80.5,0h21.6l15.6,54.4h-14.7l-3.3-11.7H82.4L79,54.4z"/>
	<polyline class="st0" points="153.3,40.8 153.3,54.4 120.3,54.4 120.3,0 134.7,0 134.7,40.8 153.3,40.8 	"/>
	<path class="st0" d="M250.8,54.4h-13.7V26.5c0-0.7,0-2.2,0.1-4.2c0.2-7.3,0.2-6.1,0.4-10.2h-0.5l-0.4,2.3c-1.3,8.3-0.9,5.9-1.1,7.5
		c-1.1,6.5-1.7,9.6-2.8,13.7l-4.9,18.8h-13.6L209.5,36c-1.4-5.4-1.9-7.8-2.6-13.4c-0.1-0.9-0.2-1.7-0.3-2.6l-0.3-2.8l-0.3-2.8
		l-0.3-2.8H205c0.2,3.8,0.3,5,0.4,8.1c0.2,3.8,0.2,5.8,0.2,7.3v27.3H192V0h21.7l4.7,22.1c0.3,1.7,0.9,4.9,1.5,9.9
		c0.4,2.8,0.8,5.8,1.1,11.2h0.5c0.5-6.6,0.8-9.2,1.5-13.7c0.4-3.3,0.9-5.9,1.2-7.7L228.7,0h22V54.4"/>
	<path class="st0" d="M279.3,9.6L273.6,30h11.5L279.3,9.6 M267.3,54.4H253L268.8,0h21.6L306,54.4h-14.6l-3.3-11.7h-17.4L267.3,54.4z
		"/>
	<path class="st0" d="M322.7,23.6h5.2c5.8,0,8.2-1.8,8.2-5.9c0-2.1-0.8-3.8-2.3-4.5c-1.1-0.4-2.4-0.6-5.5-0.6h-5.6V23.6 M330.9,0
		c6.2,0,9.3,0.4,12.3,1.6c4.7,1.9,7.7,6.8,7.7,12.8c0,5.5-2,10.3-5.5,13.2c-2,1.6-4,2.4-8.3,3.4l16.2,23.4h-17.5l-8.8-14.2
		c-1.5-2.4-3-5.1-4.3-8v22.2h-14.4V0H330.9z"/>
	<polyline class="st0" points="396.3,0 396.3,14.1 381.7,14.1 381.7,54.4 367.2,54.4 367.2,14.1 352.4,14.1 352.4,0 396.3,0 	"/>
	<polyline class="st0" points="150.4,19.7 180.7,41.7 169.2,6.1 157.5,41.9 187.8,19.7 150.4,19.7 	"/>
</g>
</svg>
