<?xml version="1.0" encoding="utf-8"?>
<!-- Generator: Adobe Illustrator 19.0.0, SVG Export Plug-In . SVG Version: 6.00 Build 0)  -->
<svg version="1.1" id="Layer_1" xmlns="http://www.w3.org/2000/svg" xmlns:xlink="http://www.w3.org/1999/xlink" x="0px" y="0px"
	 viewBox="3676.7 -1645.5 2404.6 1615.4" style="enable-background:new 3676.7 -1645.5 2404.6 1615.4;" xml:space="preserve">
<style type="text/css">
	.st0{fill:#555555;}
	.st1{fill:#FFFFFF;}
</style>
<path class="st0" d="M3676.7-837.8c0-447.2,537.1-807.7,1202.3-807.7S6081.3-1285,6081.3-837.8S5544.2-30.1,4879-30.1
	S3676.7-390.6,3676.7-837.8"/>
<path class="st1" d="M4615.9-388.8c2.5-1.7,2.5-3.4,0-3.4h-20.1v3.4h2.5l2.5,1.7c0,1.7-2.5,6.8-5,8.5c-5,13.6-10,27.2-15.1,39.1
	c0-1.7,0-5.1-2.5-10.2l-5-10.2c-2.5-1.7-2.5-3.4-2.5-3.4s2.5-3.4,2.5-5.1c2.5-3.4,5-8.5,7.5-11.9c2.5-6.8,5-6.8,7.5-8.5h2.5
	c0.9-0.1,1.6-0.9,1.5-1.9c-0.1-0.8-0.7-1.4-1.5-1.5h-20.1c-2.5,0-2.5,1.7,0,3.4h2.5l2.5,1.7c0,1.7-2.5,3.4-2.5,8.5l-2.5,1.7
	c0,1.7-2.5,5.1-2.5,6.8c0-1.7-2.5-5.1-2.5-6.8l-5-6.8v-3.4l2.5-1.7h2.5v-3.4h-25.1c-2.5,0-2.5,1.7-2.5,3.4h2.5c5,0,5,1.7,7.5,6.8
	l10,22.1v6.8l-2.5,3.4c-2.5,5.1-5,8.5-5,10.2c-2.5-1.7-2.5-5.1-5-10.2l-10-23.8c-5-8.5-7.5-13.6-7.5-13.6s2.5-1.7,5-1.7
	c0.9-0.1,1.6-0.9,1.5-1.9c-0.1-0.8-0.7-1.4-1.5-1.5h-25c-2.5,0-2.5,1.7-2.5,3.4h2.5c5,1.7,5,1.7,7.5,8.5l17.6,37.4
	c5,8.5,7.5,17,10,22.1h5c2.5-3.4,5-6.8,5-10.2l5-10.2c2.5-3.4,2.5-6.8,5-8.5c0,1.7,2.5,5.1,2.5,8.5l5,10.2c2.5,3.4,2.5,6.8,5,10.2h5
	c5-15.3,17.6-40.8,22.6-52.7c2.5-6.8,5-10.2,5-11.9c2.5-1.7,2.5-1.7,5-3.4H4615.9 M4628.5-351.4c-2.5,0-2.5-1.7-2.5-3.4l2.5-8.5
	c2.5-5.1,5-8.5,5-11.9c0,3.4,2.5,6.8,5,11.9l2.5,8.5c0,1.7,0,3.4-2.5,3.4H4628.5 M4638.5-346.3c5,0,5,0,5,1.7l2.5,8.5
	c2.5,5.1,2.5,6.8,2.5,8.5l-2.5,1.7h-2.5c-2.5,1.7-2.5,3.4,0,3.4h30.1v-3.4h-5c-2.5-1.7-5-3.4-7.5-10.2l-12.6-40.8
	c-2.5-8.5-5-11.9-5-15.3c0-1.7-2.5-1.7-2.5-1.7s-5,5.1-10,6.8c0,1.7,0,6.8-5,13.6l-7.5,25.5c-2.5,6.8-5,11.9-7.5,17
	c-2.5,3.4-2.5,5.1-5,5.1h-5v3.4h25.1v-3.4h-2.5l-5-1.7v-5.1l5-11.9c0-1.7,0-1.7,2.5-1.7H4638.5L4638.5-346.3z M4726.4-342.9
	c0-10.2-7.5-17-15.1-20.4l-5-3.4c-5-3.4-10-8.5-10-11.9c0-6.8,2.5-10.2,10-10.2s12.5,6.8,15.1,11.9c0,1.7,2.5,1.7,2.5,0v-15.3h-5
	c-5-1.7-7.5-1.7-12.5-1.7c-15.1,0-22.6,8.5-22.6,20.4c0,10.2,7.5,17,15.1,20.4c5,3.4,15.1,8.5,15.1,17c0,5.1-5,10.2-12.5,10.2
	s-15.1-10.2-17.6-17c-2.5,0-2.5,0-5,1.7c0,6.8,2.5,13.6,5,17c0,0,7.5,3.4,17.6,3.4C4716.3-320.8,4726.4-329.3,4726.4-342.9
	 M4789.1-356.5c5,0,5,0,5,3.4v15.3c0,10.2,0,10.2-5,11.9h-2.5c-0.9,0.1-1.6,0.9-1.5,1.9c0.1,0.8,0.7,1.5,1.5,1.5h30.1v-3.4h-2.5
	c-5-1.7-5-1.7-5-11.9v-39.1c0-10.2,0-10.2,5-11.9h2.5v-3.4h-30.1c-0.9,0.1-1.6,0.9-1.5,1.9c0.1,0.8,0.7,1.4,1.5,1.5h2.5
	c5,1.7,5,1.7,5,11.9v11.9c0,3.4,0,3.4-5,3.4h-22.6c-2.5,0-2.5,0-2.5-3.4v-11.9c0-10.2,0-10.2,5-11.9h2.5v-3.4h-32.6v3.4h2.5
	c5,1.7,7.5,1.7,7.5,11.9v39.1c0,10.2-2.5,10.2-7.5,11.9h-2.5v3.4h32.6v-3.4h-2.5c-5-1.7-5-1.7-5-11.9v-15.3c0-3.4,0-3.4,2.5-3.4
	H4789.1 M4859.4-376.9c0-10.2,2.5-10.2,5-11.9h5v-3.4h-32.6v3.4h2.5c5,1.7,5,1.7,5,11.9v39.1c0,10.2,0,10.2-5,11.9h-2.5v3.4h32.6
	v-3.4h-5c-2.5-1.7-5-1.7-5-11.9V-376.9 M4952.3-365c0-10.2,0-17,2.5-20.4c0-1.7,2.5-3.4,5-3.4h2.5v-3.4h-25.1c-2.5,0-2.5,1.7,0,3.4
	h2.5c2.5,0,5,1.7,5,3.4c2.5,3.4,2.5,10.2,2.5,20.4v18.7c-2.5-1.7-7.5-6.8-10-11.9l-10-10.2c-10-11.9-17.6-18.7-17.6-23.8H4887
	c-2.5,0-2.5,1.7-2.5,3.4h5c2.5,1.7,5,1.7,5,3.4v56.1c-2.5,1.7-2.5,1.7-7.5,3.4c-2.5,1.7-2.5,3.4,0,3.4h25.1v-3.4h-2.5
	c-2.5-1.7-5-1.7-7.5-3.4v-40.8v-6.8c2.5,1.7,5,6.8,12.6,13.6l22.6,30.6c3.1,4.2,6.5,8.2,10,11.9c2.5,0,5-1.7,5-3.4L4952.3-365
	 M5037.6-341.2c0-5.1,2.5-5.1,5-6.8h2.5v-3.4h-32.6v3.4h5c5,1.7,5,1.7,5,6.8v6.8c0,6.8,0,8.5-7.5,8.5c-2.5,0-7.5,0-12.6-3.4
	c-7.5-5.1-12.6-13.6-12.6-28.9c0-17,7.5-30.6,25.1-30.6c10,0,15.1,5.1,20.1,15.3c0,0,2.5,0,2.5-1.7v-17c-5,0-10-1.7-22.6-1.7
	c-7.5,0-17.6,1.7-22.6,5.1c-15.1,6.8-20.1,18.7-20.1,32.3c0,15.3,7.5,27.2,20.1,32.3c7.5,3.4,15.1,3.4,22.6,3.4
	c5,0,15.1-1.7,17.6-1.7c2.5-1.7,5-1.7,7.5-1.7v-3.4c-2.5,0-2.5-1.7-2.5-6.8L5037.6-341.2 M5070.2-337.8c0,10.2,0,10.2-5,11.9h-5v3.4
	h35.1v-3.4h-2.5c-5-1.7-7.5-1.7-7.5-11.9v-45.9c0-3.4,0-3.4,2.5-3.4h7.5c7.5,0,10,5.1,12.6,11.9c0,0,2.5,0,2.5-1.7
	c0-5.1,0-13.6,2.5-17l-2.5-1.7v1.7c-2.5,1.7-2.5,1.7-10,1.7h-40.2c-7.5,0-7.5,0-10-1.7v-1.7c0,0-2.5,0-2.5,1.7c0,3.4,0,10.2-2.5,17
	c0,1.7,2.5,1.7,2.5,1.7c5-8.5,7.5-11.9,15-11.9h5c2.5,0,2.5,0,2.5,3.4V-337.8 M5170.6-356.5c0,17-5,30.6-20.1,30.6
	c-17.6,0-22.6-20.4-22.6-34c0-17,7.5-28.9,20.1-28.9S5170.6-375.2,5170.6-356.5 M5150.6-393.9c-22.6,0-37.6,15.3-37.6,37.4
	s15.1,35.7,35.1,35.7c22.6,0,37.6-13.6,37.6-37.4C5185.7-378.6,5170.6-393.9,5150.6-393.9z M5261-365v-20.4c2.5-1.7,2.5-3.4,7.5-3.4
	c2.5-1.7,2.5-3.4,0-3.4h-25.1v3.4h2.5c2.5,0,5,1.7,7.5,3.4v39.1c-2.5-1.7-5-6.8-10-11.9l-10-10.2c-7.5-11.9-15.1-18.7-17.6-23.8
	h-22.6v3.4h2.5c5,1.7,5,1.7,5,3.4c2.5,1.7,2.5,3.4,2.5,10.2v25.5c0,8.5,0,17-2.5,20.4c0,1.7-2.5,1.7-5,3.4h-2.5v3.4h27.6v-3.4h-5
	c-2.5-1.7-5-1.7-5-3.4c-2.5-3.4-2.5-11.9-2.5-20.4v-20.4v-6.8c2.5,1.7,7.5,6.8,12.6,13.6l25.1,30.6c5,6.8,7.5,11.9,7.5,11.9
	c2.5,0,5-1.7,7.5-3.4v-17V-365 M4113.9-504.4c0,15.3,0,15.3-7.5,17l-7.5,1.7c-2.5,0-2.5,3.4,0,5.1c10,0,20.1-1.7,27.6-1.7
	c5,0,15.1,1.7,25.1,1.7v-5.1l-7.5-1.7c-7.5-1.7-7.5-1.7-7.5-17v-69.7c0-5.1,0-5.1,5-5.1h7.5c12.5,0,15.1,6.8,17.6,17
	c2.5,1.7,5,1.7,7.5,0c-2.5-8.5,0-22.1,0-27.2v-1.7c-2.5,0-2.5,1.7-2.5,1.7c-2.5,3.4-5,3.4-15.1,3.4h-60.2c-10,0-12.6-1.7-12.6-3.4
	c0,0,0-1.7-2.5-1.7c0,0,0,1.7-2.5,1.7c0,6.8,0,15.3-5,27.2c2.5,1.7,5,1.7,7.5,1.7c5-11.9,7.5-18.7,17.6-18.7h10c5,0,5,1.7,5,5.1
	L4113.9-504.4 M4257-531.7c7.5,0,7.5,0,7.5,5.1v22.1c0,15.3,0,15.3-7.5,17l-5,1.7v5.1c7.5,0,17.6-1.7,25.1-1.7s15.1,1.7,22.6,1.7
	v-5.1l-5-1.7c-7.5-1.7-7.5-1.7-7.5-17V-564c0-13.6,0-15.3,7.5-17h5v-5.1H4252v5.1h5c7.5,1.7,7.5,3.4,7.5,17v18.7
	c0,5.1,0,5.1-7.5,5.1h-32.6c-5,0-5,0-5-5.1V-564c0-13.6,0-15.3,7.5-17h2.5v-5.1h-45.2c-2.5,0-2.5,3.4,0,5.1h2.5
	c7.5,1.7,7.5,3.4,7.5,17v59.5c0,15.3,0,15.3-7.5,17l-2.5,1.7c-2.5,0-2.5,3.4,0,5.1c7.5,0,15.1-1.7,22.6-1.7s15.1,1.7,25.1,1.7v-5.1
	l-5-1.7c-7.5-1.7-7.5-1.7-7.5-17v-22.1c0-5.1,0-5.1,5-5.1H4257 M4354.9-572.5c0-6.8,0-6.8,5-6.8h12.5c7.5,0,12.6,1.7,15.1,5.1
	c2.5,1.7,5,6.8,5,11.9c2.5,1.7,7.5,1.7,7.5,0c0-10.2-2.5-22.1-2.5-23.8h-77.8c-2.5,0-2.5,3.4,0,5.1h2.5c7.5,1.7,10,3.4,10,17v59.5
	c0,15.3-2.5,15.3-10,17l-7.5,1.7v5.1c12.6,0,20.1-1.7,27.6-1.7h22.6c12.6,0,27.6,1.7,35.1,1.7c2.5-5.1,7.5-17,7.5-25.5
	c0-1.7-5-3.4-5-1.7c-10,18.7-15.1,18.7-30.1,18.7c-10,0-12.5-1.7-15.1-3.4c-2.5-3.4-2.5-8.5-2.5-15.3v-18.7c0-5.1,0-5.1,2.5-5.1
	h12.6c7.5,0,10,1.7,12.6,8.5v3.4c0,1.7,5,1.7,5,0v-17v-15.3c0-1.7-5-1.7-5-1.7v5.1c-2.5,6.8-5,8.5-12.6,8.5h-12.6
	c-2.5,0-2.5,0-2.5-5.1L4354.9-572.5 M4643.5-581v-5.1h-30.1c-2.5,0-2.5,3.4-2.5,5.1h5c2.5,1.7,2.5,1.7,2.5,3.4s-2.5,10.2-5,13.6
	c-7.5,18.7-15.1,39.1-22.6,56.1c0-1.7-2.5-5.1-7.5-15.3l-7.5-15.3v-3.4c0-1.7,2.5-6.8,2.5-8.5c2.5-5.1,7.5-11.9,10-18.7
	c5-10.2,7.5-10.2,12.6-11.9h5v-5.1h-32.6c0,0-2.5,3.4,0,5.1h5c2.5,1.7,2.5,1.7,2.5,3.4c0,0,0,5.1-5,11.9v3.4c-2.5,3.4-2.5,5.1-5,8.5
	c-2.5-1.7-2.5-5.1-5-8.5l-5-11.9v-5.1l2.5-1.7h2.5c2.5-1.7,2.5-5.1,0-5.1h-37.7c-2.5,0-2.5,3.4,0,5.1c7.5,0,7.5,1.7,12.6,10.2
	l15.1,32.3v5.1c0,0,0,3.4-2.5,6.8v5.1c-5,6.8-7.5,11.9-10,15.3c0-5.1-2.5-6.8-7.5-17l-15.1-35.7c-5-10.2-7.5-18.7-7.5-20.4
	c0,0,0-1.7,2.5-1.7h2.5c2.5-1.7,2.5-5.1,0-5.1H4478v5.1h5c5,1.7,5,1.7,10,11.9l25.1,56.1c5,11.9,12.5,27.2,15.1,34h10
	c2.5-5.1,2.5-10.2,5-15.3l7.5-17l7.5-10.2c0,1.7,2.5,6.8,5,11.9l5,15.3c2.5,5.1,5,10.2,7.5,13.6c0,1.7,2.5,1.7,5,1.7
	c0,0,2.5,0,5-1.7c7.5-20.4,25.1-59.5,32.6-78.2c5-10.2,7.5-15.3,10-17c0-1.7,2.5-3.4,5-5.1H4643.5"/>
<path class="st1" d="M4716.3-531.7c7.5,0,7.5,0,7.5,5.1v22.1c0,15.3-2.5,15.3-10,17l-2.5,1.7c-2.5,0-2.5,3.4,0,5.1
	c7.5,0,15.1-1.7,22.6-1.7s15.1,1.7,22.6,1.7c2.5-1.7,2.5-5.1,0-5.1l-2.5-1.7c-7.5-1.7-7.5-1.7-7.5-17V-564c0-13.6,0-15.3,7.5-17h2.5
	c2.5-1.7,2.5-5.1,0-5.1h-45.2c-2.5,0-2.5,3.4,0,5.1h2.5c7.5,1.7,10,3.4,10,17v18.7c0,5.1,0,5.1-7.5,5.1h-32.6c-7.5,0-7.5,0-7.5-5.1
	V-564c0-13.6,0-15.3,7.5-17h5v-5.1H4641v5.1h5c7.5,1.7,7.5,3.4,7.5,17v59.5c0,15.3,0,15.3-7.5,17l-5,1.7v5.1c10,0,17.6-1.7,25.1-1.7
	s15.1,1.7,22.6,1.7c2.5-1.7,2.5-5.1,0-5.1l-5-1.7c-7.5-1.7-7.5-1.7-7.5-17v-22.1c0-5.1,0-5.1,7.5-5.1H4716.3 M4811.7-564
	c0-13.6,2.5-15.3,10-17h2.5c2.5-1.7,2.5-5.1,0-5.1h-47.7v5.1h5c7.5,1.7,7.5,3.4,7.5,17v59.5c0,15.3,0,15.3-7.5,17l-5,1.7v5.1
	c10,0,17.6-1.7,25.1-1.7s15.1,1.7,22.6,1.7c2.5-1.7,2.5-5.1,0-5.1l-2.5-1.7c-7.5-1.7-10-1.7-10-17V-564 M4879.5-504.4
	c0,15.3-2.5,15.3-7.5,17l-7.5,1.7c-2.5,0-2.5,3.4,0,5.1c10,0,20.1-1.7,27.6-1.7c5,0,15.1,1.7,25.1,1.7v-5.1l-7.5-1.7
	c-7.5-1.7-7.5-1.7-7.5-17v-69.7c0-5.1,0-5.1,5-5.1h7.5c12.6,0,15.1,6.8,17.6,17c0,1.7,5,1.7,5,0c0-8.5,2.5-22.1,2.5-27.2
	c0,0,0-1.7-2.5-1.7v1.7c-2.5,3.4-5,3.4-15.1,3.4H4862c-10,0-12.5-1.7-12.5-3.4c0,0,0-1.7-2.5-1.7c0,0,0,1.7-2.5,1.7
	c0,6.8,0,15.3-5,27.2c2.5,1.7,5,1.7,7.5,1.7c2.5-11.9,7.5-18.7,17.6-18.7h10c5,0,5,1.7,5,5.1v69.7 M4989.9-572.5c0-6.8,0-6.8,5-6.8
	h12.6c7.5,0,12.6,1.7,15.1,5.1c2.5,1.7,5,6.8,7.5,11.9c0,1.7,5,1.7,5,0c0-10.2-2.5-22.1-2.5-23.8h-77.8v5.1h5
	c7.5,1.7,7.5,3.4,7.5,17v59.5c0,15.3,0,15.3-7.5,17l-7.5,1.7c-2.5,0-2.5,3.4,0,5.1c10,0,20.1-1.7,27.6-1.7h20.1
	c12.6,0,27.6,1.7,35.1,1.7c2.5-5.1,7.5-17,7.5-25.5c0-1.7-5-3.4-5-1.7c-10,18.7-15.1,18.7-27.6,18.7s-15.1-1.7-17.6-3.4
	c-2.5-3.4-2.5-8.5-2.5-15.3v-18.7c0-5.1,0-5.1,5-5.1h10c7.5,0,10,1.7,12.5,8.5v3.4c2.5,1.7,5,1.7,5,0v-17v-15.3c0-1.7-2.5-1.7-5-1.7
	v5.1c-2.5,6.8-5,8.5-12.5,8.5h-10c-5,0-5,0-5-5.1V-572.5 M5213.3-531.7c7.5,0,7.5,0,7.5,5.1v22.1c0,15.3-2.5,15.3-10,17l-2.5,1.7
	c-2.5,0-2.5,3.4,0,5.1c7.5,0,15.1-1.7,22.6-1.7s15,1.7,22.6,1.7c2.5-1.7,2.5-5.1,0-5.1l-2.5-1.7c-7.5-1.7-7.5-1.7-7.5-17V-564
	c0-13.6,0-15.3,7.5-17h2.5c2.5-1.7,2.5-5.1,0-5.1h-45.2c-2.5,0-2.5,3.4,0,5.1h2.5c7.5,1.7,10,3.4,10,17v18.7c0,5.1,0,5.1-7.5,5.1
	h-32.6c-7.5,0-7.5,0-7.5-5.1V-564c0-13.6,0-15.3,7.5-17h2.5c2.5-1.7,2.5-5.1,0-5.1H5138v5.1h5c7.5,1.7,7.5,3.4,7.5,17v59.5
	c0,15.3,0,15.3-7.5,17l-5,1.7v5.1c7.5,0,17.6-1.7,25.1-1.7c5,0,15.1,1.7,22.6,1.7c2.5-1.7,2.5-5.1,0-5.1l-5-1.7
	c-7.5-1.7-7.5-1.7-7.5-17v-22.1c0-5.1,0-5.1,7.5-5.1H5213.3 M5358.9-531.7c0,25.5-7.5,45.9-30.1,45.9c-25.1,0-32.6-32.3-32.6-51
	c0-27.2,12.6-44.2,30.1-44.2C5346.4-581,5358.9-558.9,5358.9-531.7 M5328.8-589.5c-32.6,0-57.7,25.5-57.7,56.1
	c0,34,22.6,54.4,55.2,54.4c35.1,0,57.7-20.4,57.7-56.1C5384-567.4,5361.4-589.5,5328.8-589.5z M5416.6-523.2c0,17,2.5,28.9,10,35.7
	c10,6.8,20.1,8.5,32.6,8.5s25.1-3.4,30.1-11.9c10-8.5,10-22.1,10-37.4V-547c0-11.9,2.5-23.8,2.5-28.9c2.5-3.4,5-3.4,10-5.1h2.5
	c2.5-1.7,0-5.1,0-5.1h-40.2v5.1h5c5,1.7,7.5,1.7,10,5.1c0,5.1,2.5,17,2.5,28.9v20.4c0,20.4-7.5,39.1-27.6,39.1
	c-22.6,0-25.1-20.4-25.1-39.1V-564c0-13.6,0-15.3,7.5-17h2.5c2.5-1.7,2.5-5.1,0-5.1h-45.2c-2.5,0-2.5,3.4,0,5.1h2.5
	c7.5,1.7,10,3.4,10,17L5416.6-523.2 M5599.9-511.3c0-17-12.5-27.2-22.6-32.3l-10-5.1c-7.5-3.4-15.1-10.2-15.1-18.7
	c0-6.8,5-13.6,17.6-13.6c10,0,17.6,10.2,20.1,18.7c2.5,1.7,5,1.7,5,0c0-10.2,0-18.7-2.5-22.1c0-1.7-2.5-1.7-5-1.7
	c-5-1.7-12.5-3.4-17.6-3.4c-22.6,0-37.7,13.6-37.7,30.6c0,15.3,12.5,25.5,25.1,30.6c10,5.1,20.1,13.6,20.1,25.5c0,8.5-5,17-15.1,17
	c-15.1,0-25.1-15.3-27.6-25.5c-2.5-1.7-5-1.7-7.5,0c0,11.9,2.5,22.1,5,25.5c5,3.4,12.5,6.8,27.6,6.8
	C5584.8-478.9,5599.9-490.8,5599.9-511.3 M5652.6-572.5c0-6.8,0-6.8,5-6.8h12.5c10,0,12.6,1.7,17.6,5.1c0,1.7,2.5,6.8,5,11.9
	c2.5,1.7,5,1.7,5,0v-23.8h-77.8c-2.5,0-2.5,3.4-2.5,5.1h5c7.5,1.7,7.5,3.4,7.5,17v59.5c0,15.3,0,15.3-7.5,17l-7.5,1.7v5.1
	c12.6,0,20.1-1.7,27.6-1.7h20.1c12.6,0,27.6,1.7,37.7,1.7c2.5-5.1,5-17,5-25.5c0-1.7-2.5-3.4-5-1.7c-7.5,18.7-15.1,18.7-27.6,18.7
	s-15.1-1.7-17.6-3.4c0-3.4-2.5-8.5-2.5-15.3v-18.7c0-5.1,0-5.1,5-5.1h10c10,0,10,1.7,12.6,8.5v3.4c2.5,1.7,5,1.7,7.5,0v-17v-15.3
	c-2.5-1.7-5-1.7-7.5-1.7v5.1c-2.5,6.8-2.5,8.5-12.6,8.5h-10c-5,0-5,0-5-5.1L5652.6-572.5"/>
<g>
	<path class="st1" d="M5215.8-775.3h9.7v42.8h-8.6h-61.2h-8.6v-42.8h9.7l9.9-380.9l-62.7,77.9h-32.3c-2.7,4.1-5.4,8.3-8.3,12.4h29.6
		v116.8h-65.1v-69.7c-5.1,6-10.1,11.6-15.2,17l5.9,226.6h2.3v-116.5h88.7v149.2h-81.3v10.1h-8.6h-61.2h-8.6v-42.9h9.7l4.8-185.1
		c-24.9,16.5-49.6,24.9-73.7,25.1l21.5,20v19.6c17.1,7.8,29,24.9,29,44.9v19.1h-98.6v-19.1c0-18.3,10-34.3,24.8-42.8v-21.7l21.3-20
		c-23.9-0.3-48.4-9-72.9-25.8l4.8,185.8h10.6v42.8h-9.5h-61.2h-7.7v-10.1H4671v-149.1h88.7v116.4h2l6-229.2
		c-4.7-5.3-9.4-10.8-14.1-16.7v72h-65.1v-116.7h33.3c-2.7-4.2-5.2-8.3-7.7-12.4h-41.7l-57.8-77.5l9.9,380.6h9.7v42.8h-8.6h-61.2
		h-8.6v-23.3h-80.3V-899h80.7v123.7h9.3l8.6-330.2h-534.4v383.7h66.8v-4.8h26.9v4.8h99.9v-4.8h26.9v4.8h99.9v-4.8h26.9v4.8h99.9
		v-4.8h26.9v4.8h23.8v6.2h-23.8v5.5h23.8v6.2h-23.8v5.5h23.8v6.2h-23.8v7.1h-26.9v-7.1H4387v7.1h-26.9v-7.1h-99.9v7.1h-26.9v-7.1
		h-99.9h-26.9h-66.8v7.3h1704.9v-419.4h-537.2L5215.8-775.3z M4477.6-976h5.5v-98.8h65.1v98.8h5.5v22.4h-76.2L4477.6-976L4477.6-976
		z M4345.5-976h5.5v-98.8h65.1v98.8h5.5v22.4h-76.2L4345.5-976L4345.5-976z M4213.2-976h5.5v-98.8h65.1v98.8h5.5v22.4h-76.2
		L4213.2-976L4213.2-976z M4080.8-976h5.5v-98.8h65.1v98.8h5.5v22.4h-76.2L4080.8-976L4080.8-976z M4159.3-755.8h-80.7V-899h80.7
		V-755.8z M4072.4-908c7-18.7,25.4-32.4,46.6-32.4c21.3,0,39.5,13.5,46.4,32.4H4072.4z M4291.6-755.8h-80.7V-899h80.7V-755.8z
		 M4204-908l47.3-32.4l47.3,32.4H4204z M4423.9-755.8h-80.7V-899h80.7V-755.8z M4337.1-908c7-18.7,25.4-32.4,46.6-32.4
		c21.3,0,39.5,13.5,46.4,32.4H4337.1z M4515.7-940.3l47.3,32.4h-94.5L4515.7-940.3z M5018-902.1l47.3-32.4l47.3,32.4L5018-902.1
		L5018-902.1z M4900.2-815.6h24.6v38h-24.6V-815.6z M4900.2-774.3h24.6v38h-24.6V-774.3z M4872.4-815.6h24.6v38h-24.6V-815.6z
		 M4872.4-774.3h24.6v38h-24.6V-774.3z M4713.4-934.4c21.3,0,39.5,13.5,46.4,32.4h-93C4673.8-920.8,4692.2-934.4,4713.4-934.4z
		 M5238.1-686.4h-692.4v-6.2h692.4V-686.4z M5238.1-698.1h-692.4v-6.2h692.4V-698.1z M5238.1-709.7h-692.4v-6.2h692.4V-709.7z
		 M5238.1-721.4h-692.4v-6.2h692.4V-721.4z M5228.4-755.8V-899h80.7v143.2L5228.4-755.8L5228.4-755.8z M5744.3-715.5h-68.5v5.5h68.5
		v6.2h-68.5v5.5h68.5v6.2h-68.5v7.1h-26.9v-7.1H5549v7.1h-26.9v-7.1h-99.9v7.1h-26.9v-7.1h-99.9v7.1h-26.9v-7.1h-22.2v-6.2h22.2
		v-5.5h-22.2v-6.2h22.2v-5.5h-22.2v-6.2h22.2v-4.8h26.9v4.8h99.9v-4.8h26.9v4.8h99.9v-4.8h26.9v4.8h99.9v-4.8h26.9v4.8h68.5V-715.5
		L5744.3-715.5z M5361-755.8V-899h80.7v143.2L5361-755.8L5361-755.8z M5493-755.8V-899h80.7v143.2L5493-755.8L5493-755.8z
		 M5625.5-755.8V-899h80.7v143.2L5625.5-755.8L5625.5-755.8z M5627.7-980h5.5v-98.8h65.1v98.8h5.5v22.4h-76.2L5627.7-980L5627.7-980
		z M5665.9-940.3c21.3,0,39.5,13.5,46.4,32.4h-93C5626.4-926.7,5644.7-940.3,5665.9-940.3z M5495.2-980h5.5v-98.8h65.1v98.8h5.5
		v22.4h-76.1V-980z M5533.3-940.3l47.3,32.4H5486L5533.3-940.3z M5363.3-980h5.5v-98.8h65.1v98.8h5.5v22.4h-76.2L5363.3-980
		L5363.3-980z M5401.5-940.3c21.3,0,39.5,13.5,46.4,32.4h-93C5361.9-926.7,5380.3-940.3,5401.5-940.3z M5230.6-980h5.5v-98.8h65.1
		v98.8h5.5v22.4h-76.2L5230.6-980L5230.6-980z M5268.7-940.3l47.3,32.4h-94.5L5268.7-940.3z"/>
	<path class="st1" d="M5338.2-1206v-45.6h-62.3v45.6h-50.4v14.9h-2.8v30.7h-5.9v-30.7H5205l1.7,66.1h546.6l0.5-1.2v-79.8H5338.2z
		 M5234.2-1160.5h-5.9v-36.6h5.9V-1160.5z M5245.6-1160.5h-5.9v-36.6h5.9V-1160.5z M5257.1-1160.5h-5.9v-36.6h5.9V-1160.5z
		 M5268.5-1160.5h-5.9v-36.6h5.9V-1160.5z M5280-1160.5h-5.9v-36.6h5.9V-1160.5z M5291.4-1160.5h-5.9v-36.6h5.9V-1160.5z
		 M5344.4-1160.5h-5.9v-36.6h5.9V-1160.5z M5355.8-1160.5h-5.9v-36.6h5.9V-1160.5z M5367.2-1160.5h-5.9v-36.6h5.9V-1160.5z
		 M5378.7-1160.5h-5.9v-36.6h5.9V-1160.5z M5390.1-1160.5h-5.9v-36.6h5.9V-1160.5z M5401.6-1160.5h-5.9v-36.6h5.9V-1160.5z
		 M5413-1160.5h-5.9v-36.6h5.9V-1160.5z M5467.2-1160.5h-5.9v-36.6h5.9V-1160.5z M5478.6-1160.5h-5.9v-36.6h5.9V-1160.5z
		 M5490.1-1160.5h-5.9v-36.6h5.9V-1160.5z M5501.5-1160.5h-5.9v-36.6h5.9V-1160.5z M5513-1160.5h-5.9v-36.6h5.9V-1160.5z
		 M5524.4-1160.5h-5.9v-36.6h5.9V-1160.5z M5535.8-1160.5h-5.9v-36.6h5.9V-1160.5z M5597.9-1160.5h-5.9v-36.6h5.9V-1160.5z
		 M5609.4-1160.5h-5.9v-36.6h5.9V-1160.5z M5620.8-1160.5h-5.9v-36.6h5.9V-1160.5z M5632.2-1160.5h-5.9v-36.6h5.9V-1160.5z
		 M5643.7-1160.5h-5.9v-36.6h5.9V-1160.5z M5655.1-1160.5h-5.9v-36.6h5.9V-1160.5z M5666.6-1160.5h-5.9v-36.6h5.9V-1160.5z"/>
	<path class="st1" d="M4892.9-941.6c12.3-0.4,24.4-3,36.3-7.6h-36.3V-941.6z"/>
	<path class="st1" d="M4886.7-1078.3h-74l2.9,109.6c22.1,16,46,26.3,71.1,27.1v-7.6h-19v-116.7h19V-1078.3z"/>
	<path class="st1" d="M4964.7-968.3l2.9-110H4893v12.4h39.9v115.3C4943.7-955.1,4954.4-961.2,4964.7-968.3z"/>
	<path class="st1" d="M5010.7-1078.3l1.8,67.2c5.3-5.8,10.4-11.7,15.4-17.8v-37h27.8c2.9-4.2,5.7-8.3,8.4-12.4H5010.7z"/>
	<path class="st1" d="M4970.5-1191.1h-20.6v-2.4h-118.7v2.4h-21.4l2.6,100.4h74.3v-80c0-1.7,1.4-3.1,3.1-3.1c1.7,0,3.1,1.4,3.1,3.1
		v80h74.9L4970.5-1191.1z"/>
	<path class="st1" d="M4767.8-1013.8l1.7-64.5h-48.1c2.5,4.1,5.1,8.3,7.9,12.4h24.2v34.4C4758.1-1025.5,4762.9-1019.6,4767.8-1013.8
		z"/>
	<path class="st1" d="M4772.4-1191.1h-19.7v-2.4H4634v2.4h-20.6l0.4,13.7l64.6,86.7h28.1c-24.2-41.8-38.3-76.1-38.5-76.5
		c-0.7-1.6,0.1-3.4,1.7-4.1c1.6-0.7,3.4,0.1,4.1,1.7c0.4,0.9,15.1,36.2,40.1,78.9h55.9L4772.4-1191.1z"/>
	<path class="st1" d="M5079.6-1090.8h18.4l69.2-85.9l0.4-14.5H5147v-2.4h-118.7v2.4h-20.6l2.6,100.4h61.7
		c26.9-42.7,43.1-78.1,43.5-79c0.7-1.6,2.6-2.3,4.1-1.6c1.6,0.7,2.3,2.6,1.6,4.1C5121-1166.7,5105.5-1132.5,5079.6-1090.8z"/>
	<rect x="4039.5" y="-715.5" class="st1" width="66.8" height="5.5"/>
	<rect x="4259.9" y="-715.5" class="st1" width="99.9" height="5.5"/>
	<rect x="4039.5" y="-703.9" class="st1" width="66.8" height="5.5"/>
	<rect x="4386.7" y="-715.5" class="st1" width="99.9" height="5.5"/>
	<rect x="4386.7" y="-703.9" class="st1" width="99.9" height="5.5"/>
	<rect x="4133.2" y="-703.9" class="st1" width="99.9" height="5.5"/>
	<path class="st1" d="M4576.2-1191.1h-13.4v30h-5.9v-30h-1.2v-14.9h-51.1v-45.6h-62.3v45.6h-412v79.8h544.3L4576.2-1191.1z
		 M4118.9-1161.1h-5.9v-36.6h5.9V-1161.1z M4130.4-1161.1h-5.9v-36.6h5.9V-1161.1z M4141.8-1161.1h-5.9v-36.6h5.9V-1161.1z
		 M4153.2-1161.1h-5.9v-36.6h5.9V-1161.1z M4164.7-1161.1h-5.9v-36.6h5.9V-1161.1z M4176.1-1161.1h-5.9v-36.6h5.9V-1161.1z
		 M4187.6-1161.1h-5.9v-36.6h5.9V-1161.1z M4240.5-1161.1h-5.9v-36.6h5.9V-1161.1z M4252-1161.1h-5.9v-36.6h5.9V-1161.1z
		 M4263.4-1161.1h-5.9v-36.6h5.9V-1161.1z M4274.9-1161.1h-5.9v-36.6h5.9V-1161.1z M4286.3-1161.1h-5.9v-36.6h5.9V-1161.1z
		 M4297.7-1161.1h-5.9v-36.6h5.9V-1161.1z M4309.2-1161.1h-5.9v-36.6h5.9V-1161.1z M4363.3-1161.1h-5.9v-36.6h5.9V-1161.1z
		 M4374.8-1161.1h-5.9v-36.6h5.9V-1161.1z M4386.2-1161.1h-5.9v-36.6h5.9V-1161.1z M4397.7-1161.1h-5.9v-36.6h5.9V-1161.1z
		 M4409.1-1161.1h-5.9v-36.6h5.9V-1161.1z M4420.6-1161.1h-5.9v-36.6h5.9V-1161.1z M4432-1161.1h-5.9v-36.6h5.9V-1161.1z
		 M4494.1-1161.1h-5.9v-36.6h5.9V-1161.1z M4505.5-1161.1h-5.9v-36.6h5.9V-1161.1z M4517-1161.1h-5.9v-36.6h5.9V-1161.1z
		 M4528.4-1161.1h-5.9v-36.6h5.9V-1161.1z M4539.8-1161.1h-5.9v-36.6h5.9V-1161.1z M4551.3-1161.1h-5.9v-36.6h5.9V-1161.1z"/>
	<rect x="5549" y="-715.5" class="st1" width="99.9" height="5.5"/>
	<rect x="4259.9" y="-703.9" class="st1" width="99.9" height="5.5"/>
	<rect x="4133.2" y="-715.5" class="st1" width="99.9" height="5.5"/>
	<rect x="5295.6" y="-703.9" class="st1" width="99.9" height="5.5"/>
	<rect x="5422.3" y="-715.5" class="st1" width="99.9" height="5.5"/>
	<rect x="5422.3" y="-703.9" class="st1" width="99.9" height="5.5"/>
	<rect x="5295.6" y="-715.5" class="st1" width="99.9" height="5.5"/>
	<rect x="5549" y="-703.9" class="st1" width="99.9" height="5.5"/>
	<polygon class="st1" points="5204.4,-1211.7 5206.9,-1211.7 5206.9,-1273.5 4577,-1273.5 4577,-1211.7 4613,-1211.7 4634,-1211.7 
		4634,-1206 4752.8,-1206 4752.8,-1211.7 4773,-1211.7 4809.2,-1211.7 4831.2,-1211.7 4831.2,-1206 4949.9,-1206 4949.9,-1211.7 
		4971,-1211.7 5007.3,-1211.7 5028.4,-1211.7 5028.4,-1206 5147.1,-1206 5147.1,-1211.7 5168.2,-1211.7 	"/>
	<path class="st1" d="M4577-1280.7h629.8h18.3l24.2-22.1l-42.6-17.7v-30.8H5133l-235.1-97.9v-52.4c6,2.1,19,5.3,31.2-1.4
		c16.6-9.1,36.7,0,36.7,0v-56.8c0,0-25.7-5.8-37.2,0c-8.8,4.4-23.9,2.1-30.7,0.8v-5h-7.7v114.5l-238.2,98.2h-75v30.9l-42.6,17.5
		l22.2,22.1h20.4V-1280.7L4577-1280.7z M4711.4-1351.3l182.5-73.4l180.2,73.4l119,48.4H4591L4711.4-1351.3z"/>
	<rect x="4700.3" y="-1049" class="st1" width="18.9" height="18.2"/>
	<path class="st1" d="M4741.5-1049h-0.9c0.3,0.4,0.6,0.9,0.9,1.3V-1049z"/>
	<path class="st1" d="M4741.5-1036.8c-2.9-4-5.8-8.1-8.7-12.3h-10.2v18.2h18.9V-1036.8z"/>
	<rect x="4700.3" y="-1027.4" class="st1" width="18.9" height="18.2"/>
	<rect x="4722.6" y="-1027.4" class="st1" width="18.9" height="18.2"/>
	<rect x="4700.3" y="-1005.8" class="st1" width="18.9" height="18.2"/>
	<rect x="4722.6" y="-1005.8" class="st1" width="18.9" height="18.2"/>
	<rect x="4700.3" y="-984.2" class="st1" width="18.9" height="18.2"/>
	<rect x="4722.6" y="-984.2" class="st1" width="18.9" height="18.2"/>
	<rect x="4892.9" y="-1049" class="st1" width="5.6" height="18.2"/>
	<rect x="4879.7" y="-1049" class="st1" width="7" height="18.2"/>
	<rect x="4902" y="-1049" class="st1" width="18.9" height="18.2"/>
	<rect x="4879.7" y="-1027.4" class="st1" width="7" height="18.2"/>
	<rect x="4892.9" y="-1027.4" class="st1" width="5.6" height="18.2"/>
	<rect x="4902" y="-1027.4" class="st1" width="18.9" height="18.2"/>
	<rect x="4892.9" y="-1005.8" class="st1" width="5.6" height="18.2"/>
	<rect x="4879.7" y="-1005.8" class="st1" width="7" height="18.2"/>
	<rect x="4902" y="-1005.8" class="st1" width="18.9" height="18.2"/>
	<rect x="4892.9" y="-984.2" class="st1" width="5.6" height="18.2"/>
	<rect x="4879.7" y="-984.2" class="st1" width="7" height="18.2"/>
	<rect x="4902" y="-984.2" class="st1" width="18.9" height="18.2"/>
	<path class="st1" d="M5058.7-1049h-7.2c-3.9,5.3-7.8,10.5-11.7,15.5v2.7h18.9L5058.7-1049L5058.7-1049z"/>
	<path class="st1" d="M5039.8-1044c1.3-1.7,2.5-3.3,3.8-5h-3.8V-1044z"/>
	<rect x="5062.2" y="-1049" class="st1" width="18.9" height="18.2"/>
	<rect x="5039.8" y="-1027.4" class="st1" width="18.9" height="18.2"/>
	<rect x="5062.2" y="-1027.4" class="st1" width="18.9" height="18.2"/>
	<rect x="5039.8" y="-1005.8" class="st1" width="18.9" height="18.2"/>
	<rect x="5062.2" y="-1005.8" class="st1" width="18.9" height="18.2"/>
	<rect x="5039.8" y="-984.2" class="st1" width="18.9" height="18.2"/>
	<rect x="5062.2" y="-984.2" class="st1" width="18.9" height="18.2"/>
	<rect x="4495" y="-1057.9" class="st1" width="18.9" height="18.2"/>
	<rect x="4517.4" y="-1057.9" class="st1" width="18.9" height="18.2"/>
	<rect x="4495" y="-1036.3" class="st1" width="18.9" height="18.2"/>
	<rect x="4517.4" y="-1036.3" class="st1" width="18.9" height="18.2"/>
	<rect x="4495" y="-1014.7" class="st1" width="18.9" height="18.2"/>
	<rect x="4517.4" y="-1014.7" class="st1" width="18.9" height="18.2"/>
	<rect x="4495" y="-993.1" class="st1" width="18.9" height="18.2"/>
	<rect x="4517.4" y="-993.1" class="st1" width="18.9" height="18.2"/>
	<rect x="4362.9" y="-1057.9" class="st1" width="18.9" height="18.2"/>
	<rect x="4385.3" y="-1057.9" class="st1" width="18.9" height="18.2"/>
	<rect x="4362.9" y="-1036.3" class="st1" width="18.9" height="18.2"/>
	<rect x="4385.3" y="-1036.3" class="st1" width="18.9" height="18.2"/>
	<rect x="4362.9" y="-1014.7" class="st1" width="18.9" height="18.2"/>
	<rect x="4385.3" y="-1014.7" class="st1" width="18.9" height="18.2"/>
	<rect x="4362.9" y="-993.1" class="st1" width="18.9" height="18.2"/>
	<rect x="4385.3" y="-993.1" class="st1" width="18.9" height="18.2"/>
	<rect x="4230.7" y="-1057.9" class="st1" width="18.9" height="18.2"/>
	<rect x="4253" y="-1057.9" class="st1" width="18.9" height="18.2"/>
	<rect x="4230.7" y="-1036.3" class="st1" width="18.9" height="18.2"/>
	<rect x="4253" y="-1036.3" class="st1" width="18.9" height="18.2"/>
	<rect x="4230.7" y="-1014.7" class="st1" width="18.9" height="18.2"/>
	<rect x="4253" y="-1014.7" class="st1" width="18.9" height="18.2"/>
	<rect x="4230.7" y="-993.1" class="st1" width="18.9" height="18.2"/>
	<rect x="4253" y="-993.1" class="st1" width="18.9" height="18.2"/>
	<rect x="4098.3" y="-1055.7" class="st1" width="18.9" height="18.2"/>
	<rect x="4120.6" y="-1055.7" class="st1" width="18.9" height="18.2"/>
	<rect x="4098.3" y="-1034.1" class="st1" width="18.9" height="18.2"/>
	<rect x="4120.6" y="-1034.1" class="st1" width="18.9" height="18.2"/>
	<rect x="4098.3" y="-1012.5" class="st1" width="18.9" height="18.2"/>
	<rect x="4120.6" y="-1012.5" class="st1" width="18.9" height="18.2"/>
	<rect x="4098.3" y="-990.8" class="st1" width="18.9" height="18.2"/>
	<rect x="4120.6" y="-990.8" class="st1" width="18.9" height="18.2"/>
	<rect x="4097.3" y="-882.2" class="st1" width="11.8" height="24"/>
	<rect x="4097.3" y="-853.7" class="st1" width="11.8" height="24"/>
	<rect x="4097.3" y="-825.1" class="st1" width="11.8" height="24"/>
	<rect x="4097.3" y="-796.5" class="st1" width="11.8" height="24"/>
	<rect x="4113" y="-882.2" class="st1" width="11.8" height="24"/>
	<rect x="4113" y="-853.7" class="st1" width="11.8" height="24"/>
	<rect x="4113" y="-825.1" class="st1" width="11.8" height="24"/>
	<rect x="4113" y="-796.5" class="st1" width="11.8" height="24"/>
	<rect x="4128.7" y="-882.2" class="st1" width="11.8" height="24"/>
	<rect x="4128.7" y="-853.7" class="st1" width="11.8" height="24"/>
	<rect x="4128.7" y="-825.1" class="st1" width="11.8" height="24"/>
	<rect x="4128.7" y="-796.5" class="st1" width="11.8" height="24"/>
	<rect x="4229.7" y="-882.2" class="st1" width="11.8" height="24"/>
	<rect x="4229.7" y="-853.7" class="st1" width="11.8" height="24"/>
	<rect x="4229.7" y="-825.1" class="st1" width="11.8" height="24"/>
	<rect x="4229.7" y="-796.5" class="st1" width="11.8" height="24"/>
	<rect x="4245.4" y="-882.2" class="st1" width="11.8" height="24"/>
	<rect x="4245.4" y="-853.7" class="st1" width="11.8" height="24"/>
	<rect x="4245.4" y="-825.1" class="st1" width="11.8" height="24"/>
	<rect x="4245.4" y="-796.5" class="st1" width="11.8" height="24"/>
	<rect x="4261.1" y="-882.2" class="st1" width="11.8" height="24"/>
	<rect x="4261.1" y="-853.7" class="st1" width="11.8" height="24"/>
	<rect x="4261.1" y="-825.1" class="st1" width="11.8" height="24"/>
	<rect x="4261.1" y="-796.5" class="st1" width="11.8" height="24"/>
	<rect x="4362" y="-882.2" class="st1" width="11.8" height="24"/>
	<rect x="4362" y="-853.7" class="st1" width="11.8" height="24"/>
	<rect x="4362" y="-825.1" class="st1" width="11.8" height="24"/>
	<rect x="4362" y="-796.5" class="st1" width="11.8" height="24"/>
	<rect x="4377.7" y="-882.2" class="st1" width="11.8" height="24"/>
	<rect x="4377.7" y="-853.7" class="st1" width="11.8" height="24"/>
	<rect x="4377.7" y="-825.1" class="st1" width="11.8" height="24"/>
	<rect x="4377.7" y="-796.5" class="st1" width="11.8" height="24"/>
	<rect x="4393.4" y="-882.2" class="st1" width="11.8" height="24"/>
	<rect x="4393.4" y="-853.7" class="st1" width="11.8" height="24"/>
	<rect x="4393.4" y="-825.1" class="st1" width="11.8" height="24"/>
	<rect x="4393.4" y="-796.5" class="st1" width="11.8" height="24"/>
	<rect x="4494.1" y="-882.2" class="st1" width="11.8" height="24"/>
	<rect x="4494.1" y="-853.7" class="st1" width="11.8" height="24"/>
	<rect x="4494.1" y="-825.1" class="st1" width="11.8" height="24"/>
	<rect x="4494.1" y="-796.5" class="st1" width="11.8" height="24"/>
	<rect x="4509.8" y="-882.2" class="st1" width="11.8" height="24"/>
	<rect x="4509.8" y="-853.7" class="st1" width="11.8" height="24"/>
	<rect x="4509.8" y="-825.1" class="st1" width="11.8" height="24"/>
	<rect x="4509.8" y="-796.5" class="st1" width="11.8" height="24"/>
	<rect x="4525.5" y="-882.2" class="st1" width="11.8" height="24"/>
	<rect x="4525.5" y="-853.7" class="st1" width="11.8" height="24"/>
	<rect x="4525.5" y="-825.1" class="st1" width="11.8" height="24"/>
	<rect x="4525.5" y="-796.5" class="st1" width="11.8" height="24"/>
	<rect x="5645.2" y="-1061.9" class="st1" width="18.9" height="18.2"/>
	<rect x="5667.5" y="-1061.9" class="st1" width="18.9" height="18.2"/>
	<rect x="5645.2" y="-1040.3" class="st1" width="18.9" height="18.2"/>
	<rect x="5667.5" y="-1040.3" class="st1" width="18.9" height="18.2"/>
	<rect x="5645.2" y="-1018.7" class="st1" width="18.9" height="18.2"/>
	<rect x="5667.5" y="-1018.7" class="st1" width="18.9" height="18.2"/>
	<rect x="5645.2" y="-997" class="st1" width="18.9" height="18.2"/>
	<rect x="5667.5" y="-997" class="st1" width="18.9" height="18.2"/>
	<rect x="5512.7" y="-1061.9" class="st1" width="18.9" height="18.2"/>
	<rect x="5535" y="-1061.9" class="st1" width="18.9" height="18.2"/>
	<rect x="5512.7" y="-1040.3" class="st1" width="18.9" height="18.2"/>
	<rect x="5535" y="-1040.3" class="st1" width="18.9" height="18.2"/>
	<rect x="5512.7" y="-1018.7" class="st1" width="18.9" height="18.2"/>
	<rect x="5535" y="-1018.7" class="st1" width="18.9" height="18.2"/>
	<rect x="5512.7" y="-997" class="st1" width="18.9" height="18.2"/>
	<rect x="5535" y="-997" class="st1" width="18.9" height="18.2"/>
	<rect x="5380.8" y="-1061.9" class="st1" width="18.9" height="18.2"/>
	<rect x="5403.1" y="-1061.9" class="st1" width="18.9" height="18.2"/>
	<rect x="5380.8" y="-1040.3" class="st1" width="18.9" height="18.2"/>
	<rect x="5403.1" y="-1040.3" class="st1" width="18.9" height="18.2"/>
	<rect x="5380.8" y="-1018.7" class="st1" width="18.9" height="18.2"/>
	<rect x="5403.1" y="-1018.7" class="st1" width="18.9" height="18.2"/>
	<rect x="5380.8" y="-997" class="st1" width="18.9" height="18.2"/>
	<rect x="5403.1" y="-997" class="st1" width="18.9" height="18.2"/>
	<rect x="5248.1" y="-1059.7" class="st1" width="18.9" height="18.2"/>
	<rect x="5270.4" y="-1059.7" class="st1" width="18.9" height="18.2"/>
	<rect x="5248.1" y="-1038.1" class="st1" width="18.9" height="18.2"/>
	<rect x="5270.4" y="-1038.1" class="st1" width="18.9" height="18.2"/>
	<rect x="5248.1" y="-1016.4" class="st1" width="18.9" height="18.2"/>
	<rect x="5270.4" y="-1016.4" class="st1" width="18.9" height="18.2"/>
	<rect x="5248.1" y="-994.8" class="st1" width="18.9" height="18.2"/>
	<rect x="5270.4" y="-994.8" class="st1" width="18.9" height="18.2"/>
	<rect x="5247.1" y="-882.2" class="st1" width="11.8" height="24"/>
	<rect x="5247.1" y="-853.7" class="st1" width="11.8" height="24"/>
	<rect x="5247.1" y="-825.1" class="st1" width="11.8" height="24"/>
	<rect x="5247.1" y="-796.5" class="st1" width="11.8" height="24"/>
	<rect x="5262.8" y="-882.2" class="st1" width="11.8" height="24"/>
	<rect x="5262.8" y="-853.7" class="st1" width="11.8" height="24"/>
	<rect x="5262.8" y="-825.1" class="st1" width="11.8" height="24"/>
	<rect x="5262.8" y="-796.5" class="st1" width="11.8" height="24"/>
	<rect x="5278.5" y="-882.2" class="st1" width="11.8" height="24"/>
	<rect x="5278.5" y="-853.7" class="st1" width="11.8" height="24"/>
	<rect x="5278.5" y="-825.1" class="st1" width="11.8" height="24"/>
	<rect x="5278.5" y="-796.5" class="st1" width="11.8" height="24"/>
	<rect x="5379.8" y="-882.2" class="st1" width="11.8" height="24"/>
	<rect x="5379.8" y="-853.7" class="st1" width="11.8" height="24"/>
	<rect x="5379.8" y="-825.1" class="st1" width="11.8" height="24"/>
	<rect x="5379.8" y="-796.5" class="st1" width="11.8" height="24"/>
	<rect x="5395.5" y="-882.2" class="st1" width="11.8" height="24"/>
	<rect x="5395.5" y="-853.7" class="st1" width="11.8" height="24"/>
	<rect x="5395.5" y="-825.1" class="st1" width="11.8" height="24"/>
	<rect x="5395.5" y="-796.5" class="st1" width="11.8" height="24"/>
	<rect x="5411.2" y="-882.2" class="st1" width="11.8" height="24"/>
	<rect x="5411.2" y="-853.7" class="st1" width="11.8" height="24"/>
	<rect x="5411.2" y="-825.1" class="st1" width="11.8" height="24"/>
	<rect x="5411.2" y="-796.5" class="st1" width="11.8" height="24"/>
	<rect x="5511.7" y="-882.2" class="st1" width="11.8" height="24"/>
	<rect x="5511.7" y="-853.7" class="st1" width="11.8" height="24"/>
	<rect x="5511.7" y="-825.1" class="st1" width="11.8" height="24"/>
	<rect x="5511.7" y="-796.5" class="st1" width="11.8" height="24"/>
	<rect x="5527.4" y="-882.2" class="st1" width="11.8" height="24"/>
	<rect x="5527.4" y="-853.7" class="st1" width="11.8" height="24"/>
	<rect x="5527.4" y="-825.1" class="st1" width="11.8" height="24"/>
	<rect x="5527.4" y="-796.5" class="st1" width="11.8" height="24"/>
	<rect x="5543.1" y="-882.2" class="st1" width="11.8" height="24"/>
	<rect x="5543.1" y="-853.7" class="st1" width="11.8" height="24"/>
	<rect x="5543.1" y="-825.1" class="st1" width="11.8" height="24"/>
	<rect x="5543.1" y="-796.5" class="st1" width="11.8" height="24"/>
	<rect x="5644.2" y="-882.2" class="st1" width="11.8" height="24"/>
	<rect x="5644.2" y="-853.7" class="st1" width="11.8" height="24"/>
	<rect x="5644.2" y="-825.1" class="st1" width="11.8" height="24"/>
	<rect x="5644.2" y="-796.5" class="st1" width="11.8" height="24"/>
	<rect x="5659.9" y="-882.2" class="st1" width="11.8" height="24"/>
	<rect x="5659.9" y="-853.7" class="st1" width="11.8" height="24"/>
	<rect x="5659.9" y="-825.1" class="st1" width="11.8" height="24"/>
	<rect x="5659.9" y="-796.5" class="st1" width="11.8" height="24"/>
	<rect x="5675.6" y="-882.2" class="st1" width="11.8" height="24"/>
	<rect x="5675.6" y="-853.7" class="st1" width="11.8" height="24"/>
	<rect x="5675.6" y="-825.1" class="st1" width="11.8" height="24"/>
	<rect x="5675.6" y="-796.5" class="st1" width="11.8" height="24"/>
	<rect x="4693.7" y="-872" class="st1" width="11.8" height="24"/>
	<rect x="4693.7" y="-843.4" class="st1" width="11.8" height="24"/>
	<rect x="4693.7" y="-814.8" class="st1" width="11.8" height="24"/>
	<rect x="4693.7" y="-786.3" class="st1" width="11.8" height="24"/>
	<rect x="4709.4" y="-872" class="st1" width="11.8" height="24"/>
	<rect x="4709.4" y="-843.4" class="st1" width="11.8" height="24"/>
	<rect x="4709.4" y="-814.8" class="st1" width="11.8" height="24"/>
	<rect x="4709.4" y="-786.3" class="st1" width="11.8" height="24"/>
	<rect x="4725.1" y="-872" class="st1" width="11.8" height="24"/>
	<rect x="4725.1" y="-843.4" class="st1" width="11.8" height="24"/>
	<rect x="4725.1" y="-814.8" class="st1" width="11.8" height="24"/>
	<rect x="4725.1" y="-786.3" class="st1" width="11.8" height="24"/>
	<rect x="5043.7" y="-872" class="st1" width="11.8" height="24"/>
	<rect x="5043.7" y="-843.4" class="st1" width="11.8" height="24"/>
	<rect x="5043.7" y="-814.8" class="st1" width="11.8" height="24"/>
	<rect x="5043.7" y="-786.3" class="st1" width="11.8" height="24"/>
	<rect x="5059.4" y="-872" class="st1" width="11.8" height="24"/>
	<rect x="5059.4" y="-843.4" class="st1" width="11.8" height="24"/>
	<rect x="5059.4" y="-814.8" class="st1" width="11.8" height="24"/>
	<rect x="5059.4" y="-786.3" class="st1" width="11.8" height="24"/>
	<rect x="5075.1" y="-872" class="st1" width="11.8" height="24"/>
	<rect x="5075.1" y="-843.4" class="st1" width="11.8" height="24"/>
	<rect x="5075.1" y="-814.8" class="st1" width="11.8" height="24"/>
	<rect x="5075.1" y="-786.3" class="st1" width="11.8" height="24"/>
	<polygon class="st1" points="4888.4,-900 4888.4,-911 4872.1,-911 4872.1,-896 4872.1,-862.9 4888.4,-862.9 	"/>
	<polygon class="st1" points="4907.5,-897.6 4907.5,-911 4891.2,-911 4891.2,-900.1 4891.2,-862.9 4907.5,-862.9 	"/>
	<path class="st1" d="M4890.7-935.3l-0.2-0.1l-0.9-0.9l-0.9,0.8l-0.2,0.2c0.4,0,0.8,0,1.2,0C4890.1-935.2,4890.4-935.3,4890.7-935.3
		z"/>
</g>
</svg>
