<?xml version="1.0" encoding="utf-8"?>
<!-- Generator: Adobe Illustrator 19.0.0, SVG Export Plug-In . SVG Version: 6.00 Build 0)  -->
<svg version="1.1" id="Layer_1" xmlns="http://www.w3.org/2000/svg" xmlns:xlink="http://www.w3.org/1999/xlink" x="0px" y="0px"
	 viewBox="-429.8 698.9 167.4 90.9" style="enable-background:new -429.8 698.9 167.4 90.9;" xml:space="preserve">
<style type="text/css">
	.st0{fill:#555555;}
	.st1{fill:#6D6D6D;}
	.st2{fill:#FDB913;}
	.st3{fill:#FFFFFF;}
</style>
<path class="st0" d="M-281.4,753.3c0.6,1.6,0.9,3.3,0.9,5.1c0,18.6-30.9,27.9-69.1,27.9s-69-11.1-69.1-27.9
	c-0.1-19.3,30.9-27.9,69.1-27.9c11.9,0,23.1,0.9,32.8,2.8l2-3.8c-10.5-1.7-22.3-2.5-34.8-2.5c-44.3,0-80.1,8.9-80.2,31.4
	c-0.1,18.8,35.9,31.4,80.2,31.4s80.1-10.7,80.2-31.4c0-3.5-0.9-6.6-2.7-9.5L-281.4,753.3L-281.4,753.3z"/>
<path class="st0" d="M-392,760.4c0-5.4,4.4-9.8,9.8-9.8c5.4,0,9.8,4.4,9.8,9.8c0,5.4-4.4,9.8-9.8,9.8
	C-387.7,770.2-392,765.8-392,760.4L-392,760.4z M-382.3,766.9c3.6,0,6.5-2.9,6.5-6.5c0-3.6-2.9-6.5-6.5-6.5s-6.5,2.9-6.5,6.5
	C-388.8,764-385.9,766.9-382.3,766.9L-382.3,766.9z"/>
<path class="st0" d="M-345.4,760.7c0-5.4,4.4-9.8,9.8-9.8s9.8,4.4,9.8,9.8s-4.4,9.8-9.8,9.8S-345.4,766.1-345.4,760.7L-345.4,760.7z
	 M-335.6,767.2c3.6,0,6.5-2.9,6.5-6.5s-2.9-6.5-6.5-6.5c-3.6,0-6.5,2.9-6.5,6.5C-342.1,764.3-339.2,767.2-335.6,767.2L-335.6,767.2z
	"/>
<path class="st0" d="M-371.1,760.5c0-5.4,4.4-9.8,9.8-9.8c5.4,0,9.8,4.4,9.8,9.8s-4.4,9.8-9.8,9.8S-371.1,765.9-371.1,760.5
	L-371.1,760.5z M-361.3,767.1c3.6,0,6.5-2.9,6.5-6.5c0-3.6-2.9-6.5-6.5-6.5s-6.5,2.9-6.5,6.5C-367.8,764.2-364.9,767.1-361.3,767.1
	L-361.3,767.1z"/>
<polygon class="st0" points="-402.1,740.5 -398.7,740.5 -398.7,756.6 -384.2,740.5 -379.4,740.5 -405.7,769.6 -409.9,769.6 
	-402.1,760.2 "/>
<polygon class="st0" points="-346.8,769.6 -346.8,740.5 -350.1,740.5 -350.1,769.6 "/>
<polygon class="st0" points="-325.7,769.6 -325.7,751.9 -329,751.9 -329,769.6 "/>
<polygon class="st0" points="-319.7,769.7 -319.7,751.8 -323,751.8 -323,769.7 "/>
<polygon class="st0" points="-367.9,779.8 -367.9,751.8 -371.2,751.8 -371.2,779.8 "/>
<polygon class="st0" points="-313.6,769.6 -313.6,740.5 -316.9,740.5 -316.9,769.6 "/>
<polygon class="st0" points="-308.7,754.9 -308.7,751.7 -315.3,751.7 -315.3,754.9 "/>
<polygon class="st0" points="-319.7,748.8 -319.7,745.1 -323,745.1 -323,748.8 "/>
<path class="st0" d="M-286.2,738.4c-0.2-0.6,0.3-1.3,0-1.8c0.1-0.5-0.2-1,0.2-1.4c-0.1-0.8,0.2-1.7-0.2-2.5c0.5-0.7-0.2-1.6,0.3-2.3
	c-0.4-0.6-0.1-1.2-0.2-1.8c0.6-1.8,0.1-3.6,0.5-5.4c0.3-0.1,0.5,0.1,0.8,0.2c0.1,1.1-0.2,2.3,0.2,3.4c0.1,0.5-0.2,0.9-0.3,1.4
	c0.3,1.5,0.3,3,0.3,4.5c-0.3,0.4,0,0.9-0.5,1.2c0.1,0.4-0.2,0.8,0.2,1.1c-0.1,0.1-0.2,0.2-0.2,0.3c0.3,0.6,0.2,1.3,0.3,2
	c-0.7,1.9,0,3.9-0.5,5.9c0.4,3.1-0.4,6.3,0.2,9.4c-0.4,1.7,0,3.5-0.3,5.2c0.2,0.1,0.1,0.3,0.2,0.5c-0.3,1-0.3,1.9-0.3,2.9
	c0.5,1.3-0.2,2.6,0,3.9c0.3,0.2,0.1,0.4,0.2,0.6c-0.3,0.7,0,1.5-0.8,2c0,0.1,0,0.2,0,0.3c-0.1,0.1-0.2,0.2-0.3,0.2
	c-0.2-0.4-0.3-0.7-0.6-0.9c-0.1-0.5,0.2-1-0.2-1.4c0.1-1.2,0.4-2.5,0.3-3.7c0.2-0.1,0.1-0.4,0.3-0.5c-0.5-0.8-0.2-1.6-0.3-2.5
	c0.5-0.8,0.3-1.6,0.5-2.5c-0.3-0.3-0.1-0.6-0.2-0.9c0.4-1.5-0.1-3,0.3-4.5c-0.4-0.6,0-1.3-0.2-2c0.3-1.4,0.1-2.8,0.3-4.2
	c-0.4-0.5-0.1-1-0.2-1.5c0.3-0.3,0.1-0.7,0.2-1.1C-286.7,741.1-286,739.8-286.2,738.4L-286.2,738.4z"/>
<path class="st0" d="M-277.5,736.5c-0.1-0.3,0.2-0.3,0.3-0.5c0-0.1,0-0.2-0.2-0.3c-0.4-0.2-0.9,0.4-1.2,0c0-0.2,0-0.3,0-0.5
	c-0.4-0.2-0.2-0.5-0.5-0.8c-0.2,0-0.3,0-0.5,0c-0.4-0.3-0.7-0.7-0.6-1.2c-0.2-0.2-0.4-0.3-0.6-0.3c-0.4-0.4-0.1-1.2-0.8-1.2
	c-0.3-1.3-0.5-2.6-0.6-3.9c-0.1-0.1-0.2-0.2-0.3-0.2c-0.3-0.8-0.9-1.4-1.2-2.2c-0.1-0.6,0.2-1.1,0.2-1.7c0.5-0.5,1.1-0.2,1.7,0
	c0.1-0.2,0.3-0.1,0.5-0.2c0.3,0.4,0.9,0.4,1.2,0.8c0.3,0,0.6,0,0.8,0.3c0.1-0.1,0.2-0.2,0.3-0.2c0.1,0.1,0.2,0.2,0.3,0.3
	c0,0.1,0,0.2,0,0.3c0.3,0.2,0.6,0.4,0.8,0.6c0.1,0,0.2,0,0.3-0.2c0.2,0,0.4,0.2,0.6,0.3c0,0.4-0.3,0.6,0.2,0.8
	c0.3-0.2,0.7-0.2,1.1-0.2c0.3,0.2,0.1,0.4,0.2,0.6c0.5,0.4,1.1,0.3,1.7,0.5c0,0.2,0.1,0.4-0.2,0.5c0.2,0.3,0.4,0.1,0.6,0.2
	c0.5,0.2,0.6,0.7,1.1,0.9c0.1-0.1,0.2-0.2,0.3-0.2c0.3,0.3,0.7,0,0.9,0.5c0,0.1,0,0.2-0.2,0.3c0.3,0.3,0.7,0.4,0.9,0.8
	c0.1,0,0.2,0,0.3,0c0.3,0.3,0.6,0.6,0.9,0.9c0.3,0.1,0.6-0.1,0.8,0.2c0.2,1.4,0.2,2.9,0.3,4.3c-0.4-0.1-0.7,0.2-0.9,0.5
	c0,1-0.6,1.8-0.5,2.8c-0.4,0.2-0.9,0.2-1.4,0.2c-0.8-0.6-1.8-0.7-2.8-0.5c-0.4-0.6-1-0.9-1.7-0.8c0-0.2-0.2-0.4-0.3-0.6
	c-0.3-0.1-0.6-0.2-0.8-0.5C-277,737.3-277.2,736.9-277.5,736.5L-277.5,736.5z"/>
<path class="st0" d="M-274.9,724.3c-0.9-0.2-1.9-0.4-2.6-1.1c-0.5,0.1-0.9-0.1-1.4-0.2c-0.3-0.4-0.8-0.4-1.2-0.5
	c-0.2-0.4-0.5-0.2-0.8-0.5c0-0.2,0.1-0.4-0.2-0.5c-0.4,0-0.8,0-1.2-0.2c0.1-0.7,0.1-1.9,1.1-1.8c0.1-0.1,0.2-0.2,0.2-0.3
	c0.6-0.1,0.8-0.8,1.2-1.1c0.3,0,0.5,0,0.8,0c1.3-1,2.9-1.2,4.5-1.7c0.5-0.1,1.1,0.2,1.5-0.2c0.3,0.3,0.6,0.1,0.9,0.2
	c1.2-0.4,2.4,0,3.5-0.2c0.2,0.2,0.5,0.2,0.6,0.5c0.1,0,0.2,0,0.3,0c0.1,0.1,0.2,0.2,0.3,0.3c1,0,2.1-0.1,3.1,0.3
	c0,0.1,0,0.2,0.2,0.3c0.1,0.3-0.4,0.2-0.5,0.5c0,0.4,0,0.9-0.3,1.2c0.1,0.1,0.2,0.2,0.3,0.3c0.2,0,0.4-0.2,0.6-0.3
	c0.4,0.2,0.9,0.2,1.4,0.2c0.2,0.1,0.1,0.3,0.2,0.5c-0.5,0.5-0.6,1.2-1.1,1.7c-0.1,0-0.2,0-0.3,0.2c0.1,0.4,0.6,0.6,0.9,0.6
	c0,0.2,0,0.4,0,0.6c-0.2,0.2-0.4,0.5-0.5,0.8c-0.2,0.3-0.6,0.4-0.8,0.8c-2.3,0.4-4.6,0.4-6.9-0.2c-0.2-0.2-0.5-0.5-0.8-0.2
	c0,0.1,0,0.2,0,0.3c-0.2,0-0.4-0.3-0.6-0.2c-0.1,0.1-0.1,0.1-0.2,0.2c-0.3-0.2-0.7-0.3-1.1-0.5
	C-273.9,724.8-274.5,724.5-274.9,724.3L-274.9,724.3z"/>
<path class="st0" d="M-302.2,748.1c1.3,0.1,2.6,0.1,3.9,0.5c0.3-0.3,0.7-0.1,1.1-0.2c0.3,0.3,0.7,0,0.9,0.5c0.3-0.3,0.6-0.1,0.9-0.2
	c0.1,0.1,0.2,0.2,0.3,0.3c0.3,0.1,0.5-0.3,0.8-0.2c0.3,0.3,0.7,0.4,1.1,0.3c0.1,0.1,0.2,0.2,0.3,0.3c0.6,0,1.2,0.2,1.7,0.6
	c1,0.1,1.6,1,2.5,1.5c0.1,0,0.2,0,0.3,0c0.3,0.3,0.8,0.4,0.6,0.9c-0.9-0.2-0.6,0.9-0.6,1.4c-0.6,0.4-1.5,0.6-2,1.2
	c-0.1,0-0.2,0-0.3-0.2c-0.3,0.1-0.7,0.1-0.9,0.5c-0.2,0-0.3,0-0.5,0c-0.2,0.4-0.7,0.3-1.1,0.5c-0.1-0.1-0.2-0.2-0.3-0.2
	c-0.9,0.5-1.9-0.2-2.6,0.5c-0.6,0.1-1.2-0.1-1.8-0.3c-0.2,0.3-0.5,0.1-0.8,0.2c-0.1-0.1-0.1-0.1-0.2-0.2c-0.6,0.4-1.3,0.1-1.7-0.3
	c-0.9,0-2-0.2-2.6-0.9c-0.3,0-0.6,0-0.9,0c-0.2-0.2-0.3-0.3-0.5-0.5c-0.3,0.3-0.6,0.1-0.9,0.2c-0.4-0.4-0.7-0.9-1.4-0.9
	c-0.2-0.2-0.3-0.3-0.5-0.5c0-0.2,0-0.2,0.2-0.3c0-0.2-0.2-0.4-0.3-0.6c0.3-0.5,0.7-0.9,1.1-1.4c0.6-0.1,1-0.7,0.9-1.2
	c0.3-0.2,0.4-0.5,0.6-0.8c0.6-0.2,1.3-0.2,1.8-0.5c0.2,0,0.5-0.1,0.6,0.2C-302.4,748.3-302.3,748.2-302.2,748.1L-302.2,748.1z"/>
<path class="st0" d="M-289.7,716.5c0-0.2,0-0.3,0-0.5c-0.1-0.1-0.2-0.2-0.3-0.2c-0.2,0.2-0.4,0.3-0.6,0.3c0-0.1,0-0.2,0-0.3
	c-0.2-0.2-0.3-0.3-0.5-0.5c-0.4,0.1-0.8-0.1-1.2-0.2c-0.3-0.8-1.4-1.1-1.2-2c-0.3-0.3-0.7-0.5-1.1-0.8c-0.1,0.1-0.2,0.2-0.3,0.2
	c-0.1-0.1-0.2-0.2-0.3-0.2c0-0.2,0-0.3,0-0.5c-0.1-0.1-0.2-0.2-0.3-0.2c0-0.2-0.3-0.4-0.2-0.6c-0.4-0.2-0.8-0.2-1.1-0.6
	c0-0.1,0-0.2,0-0.3c-0.3-0.2-0.6-0.4-0.8-0.6c0-0.1,0-0.2,0-0.3c-0.2-0.2-0.3-0.3-0.5-0.5c0-0.1,0-0.2,0-0.3
	c-0.3-0.3-0.8-0.6-0.6-1.1c-0.2-0.2-0.3-0.3-0.5-0.5c0-0.2,0-0.3,0-0.5c-0.4-0.3-0.4-0.8-0.5-1.2c0.1,0,0.2,0,0.3,0
	c0.5,0.5,0.6,1.2,0.8,1.8c0.1,0.1,0.2,0.2,0.3,0.2c0.1,0.3,0.2,0.6,0.2,0.9c0.6,0.4,1.1,1,1.2,1.7c0.2,0.2,0.5,0.3,0.8,0.3
	c0,0.2,0.3,0.4,0.2,0.6c0.8,0.1,1.1,0.9,1.7,1.4c0.3,0.1,0.6,0.2,0.8,0.5c0.3,0,0.6,0,0.8-0.3c0.1-0.3-0.4-0.2-0.5-0.5
	c-0.1-0.4-0.2-0.7-0.5-1.1c-0.2,0-0.3,0-0.5,0c-0.3-0.2-0.4-0.5-0.3-0.8c-0.2-0.2-0.6-0.2-0.8-0.5c0.2-0.1,0.1-0.4,0.3-0.5
	c-0.5-0.2-0.6-0.6-0.9-0.9c-0.1,0-0.2,0-0.3,0c-0.2-0.3-0.6-0.3-0.6-0.8c0.6-0.3,0.9-0.9,0.5-1.5c-0.4,0-0.8-0.1-1.1-0.5
	c-0.2,0.1-0.3,0.4-0.5,0.6c-0.6-0.4-0.9-1-0.9-1.7c0.4-0.6,0.9-1,1.1-1.7c0.6-0.1,1.5-0.3,1.4-1.1c-0.1-0.1-0.2-0.2-0.3-0.2
	c0-0.2,0-0.3,0-0.5c0.6-0.3,1.2-0.8,1.5-1.4c0.2,0.1,0.4-0.2,0.6-0.2c0.5,0.2,0.7,0.6,0.6,1.1c0.2,0.3,0.5,0.4,0.8,0.3
	c0.2,0.2,0.5,0.2,0.6,0.5c0,0.1,0,0.2,0,0.3c-0.1,0.3,0.4,0,0.3,0.3c-0.6-0.2-1.4,0-1.8-0.6c-0.7,0.1-0.4,0.7-0.3,1.1
	c0.3,0.5,0.6,1,1.1,1.4c0,0.1,0,0.2,0,0.3c0.5,0.3,0.8,0.6,0.6,1.2c0.1,0.1,0.2,0.2,0.3,0.3c0.4-0.3,0.8-0.1,1.1,0.3
	c0.1,0.3,0.2,0.6,0.5,0.8c0,0.1,0,0.2,0,0.3c0.2,0.3,0.6,0.3,0.8,0.6c-0.1,0.2,0.2,0.3,0.2,0.5c0.6,0.4,0.6,1.1,1.1,1.5
	c0.1,0,0.2,0,0.3,0.2c0.1-0.1,0.2-0.2,0.3-0.3c-0.4-0.6,0.1-1.3-0.6-1.7c-0.1,0-0.2,0-0.3,0c-0.1-0.1-0.2-0.2-0.3-0.3
	c0.1-0.1,0.2-0.2,0.3-0.3c-0.2-0.2-0.2-0.5-0.5-0.6c-0.4-0.1-0.9-0.1-1.2-0.3c0.2-0.5-0.4-1.2,0.2-1.5c-0.4-0.4-1.1-0.3-1.1-0.9
	c-0.3-0.2-0.6-0.1-0.8-0.5c0-0.1,0-0.2,0-0.3c-0.1-0.2-0.4-0.2-0.5-0.5c0.4-0.3,0.8-0.1,1.2-0.2c0.1-0.1,0.2-0.2,0.2-0.3
	c0.2,0,0.3,0,0.5,0c0,0.1,0,0.2,0,0.3c-0.1,0-0.2,0-0.3,0.2c0.1,0.2-0.2,0.4-0.2,0.6c0.1,0.1,0.2,0.2,0.3,0.2
	c0.1-0.2,0.3-0.1,0.5-0.2c0.8,0.9,1.7,1.7,1.8,2.9c0.3,0.1,0.4,0.4,0.6,0.6c0,0.2,0,0.3,0,0.5c0.2,0.4,0.6,0.7,0.9,1.1
	c0.3,0.4,0,0.8,0,1.2c0.5,0.6,0.8,1.4,0.9,2.2c0.4,0.3,0.4,0.8,0.3,1.2c0.2,0.3,0.4,0.6,0.3,0.9c-0.4,0.6-0.9,1.3-1.5,0.6
	c-0.1,0.1-0.2,0.2-0.2,0.3c0.4,0.3-0.1,0.6,0,0.9c0.4,0.4,0.3,0.8,0.2,1.2c-0.1,0.1-0.2,0.2-0.3,0.2c-0.2-0.3-0.4-0.1-0.6-0.2
	c-0.3-0.1-0.1,0.6-0.5,0.3c0.3-0.4,0.1-0.7-0.3-0.9c-0.1,0.1-0.2,0.2-0.2,0.3c0.1,0.1,0.2,0.2,0.2,0.3
	C-289.2,717-289.8,717-289.7,716.5L-289.7,716.5z"/>
<path class="st1" d="M-300.1,704.7c-0.1-0.3,0.1-0.5,0.2-0.8c0.2,0,0.3,0,0.5,0c0.1,0.3-0.2,0.6-0.2,0.9
	C-299.8,704.9-299.9,704.8-300.1,704.7L-300.1,704.7z"/>
<path class="st0" d="M-283.1,716.7c-0.1-0.1-0.2-0.2-0.3-0.2c-0.4-0.5-0.7-1.2-0.6-1.8c-0.1-0.1-0.2-0.2-0.3-0.3c0-0.2,0-0.3,0-0.5
	c0.2-0.2,0.3-0.3,0.5-0.5c0.1-0.3,0.2-0.6,0.5-0.8c0-0.6-0.2-1.2,0.3-1.7c0-0.2,0.1-0.4-0.2-0.5c-0.1,0-0.2,0-0.3,0
	c0-0.1,0-0.2,0-0.3c0.1,0,0.2,0,0.3,0c0.3-0.2,0.4-0.6,0.8-0.8c0-0.1,0-0.2-0.2-0.3c0.3-0.3,0.6-0.6,0.8-0.9
	c-0.1-0.3-0.1-0.9-0.6-0.8c0-0.1,0-0.2,0-0.3c0.1,0,0.2,0,0.3-0.2c0.1,0,0.2,0,0.3,0.2c0.6-0.3,0.8-0.9,0.9-1.5c0.1,0,0.2,0,0.3-0.2
	c0.3-0.1,0.2,0.4,0.5,0.5c0.1-0.2,0.3-0.1,0.5-0.2c0.1-0.1,0.2-0.2,0.2-0.3c-0.1-0.1-0.1-0.1-0.2-0.2c-0.1,0.1-0.2,0.2-0.3,0.2
	c-0.3-0.3-0.1-0.6,0.2-0.8c0.3-0.1,0.6,0,0.9,0.2c0.1-0.1,0.1-0.1,0.2-0.2c-0.4-0.2-0.3-0.6,0-0.9c0.1,0,0.2,0,0.3,0
	c0,0.1,0,0.2,0.2,0.3c0.2-0.2,0.8-0.1,0.6-0.6c-0.1-0.1-0.2-0.2-0.3-0.2c0-0.1,0-0.2,0.2-0.3c0.1,0,0.2,0,0.3,0
	c0.5-0.5,0.9-1,1.2-1.5c0.5-0.1,0.4,0.1,0.6,0.5c0.2,0,0.3,0,0.5,0c0.2-0.1,0.1-0.4,0.3-0.5c0.4,0,0.7,0.1,1.1,0
	c0.2,0.6,0.6,0.4,1.1,0.3c0.2,0.5,0.7,0.1,1.1,0.5c0,0.1,0,0.2,0,0.3c0.2,0.2,0.3,0.3,0.5,0.5c0.1-0.4,0.5-0.4,0.8-0.6
	c0-0.2,0-0.3,0-0.5c0.1,0,0.2,0,0.3,0c0.6,0.3,1.1,0.8,0.9,1.5c-0.4,0-0.8-0.1-1.1-0.5c-0.2,0-0.4,0-0.6,0c-0.2,0.5-0.7,0.5-1.1,0.9
	c0.1,0.1,0.1,0.1,0.2,0.2c-0.4,0.5-0.4,1.2-0.9,1.5c0,0.1,0,0.2,0,0.3c0.1,0.1,0.2,0.2,0.3,0.3c-0.1,0.6-0.8,0.9-0.8,1.5
	c0.1,0.2,0.3,0.1,0.5,0.2c0.1,0.3-0.4,0.1-0.3,0.3c0.1,0.1,0.2,0.2,0.3,0.3c0.1,0,0.2,0,0.3,0c0.5-0.2,0.6-0.5,0.8-0.9
	c0.2,0,0.3,0,0.5,0c0,0.1,0,0.2,0,0.3c-0.1,0.2-0.4,0.3-0.6,0.5c0,0.1,0,0.2,0,0.3c0.2,0.2,0.5,0.2,0.6,0.5c0,0.1,0,0.2,0,0.3
	c-0.1,0-0.2,0-0.3-0.2c-0.2,0-0.4,0.3-0.6,0.2c-0.2,0.1-0.1,0.5-0.5,0.5c0-0.3,0.4-0.4,0.3-0.8c-0.1-0.1-0.2-0.2-0.3-0.2
	c-0.1,0.1-0.2,0.2-0.3,0.2c-0.2-0.1-0.1-0.4-0.3-0.5c-0.1,0-0.2,0-0.3,0c-0.1,0.1-0.2,0.2-0.2,0.3c0.3,0.2,0.1,0.5,0.2,0.8
	c-0.3-0.3-0.9-0.2-1.1,0.2c0,0.1,0,0.2,0.2,0.3c0.3,0.1,0.6,0.2,0.8,0.5c0.3,0.1,0.6,0,0.9-0.2c0.1-0.1,0.2-0.2,0.2-0.3
	c0.2,0.1,0.4-0.2,0.6-0.2c0,0.2,0,0.3,0,0.5c-0.4,0.3-0.7,0.6-0.9,1.1c-0.2-0.1-0.1-0.3-0.2-0.5c-0.1-0.1-0.2-0.2-0.3-0.2
	c-0.9,0.4-1.3,1.4-2.2,2c0.1,0.5-0.3,0.8-0.3,1.2c-0.8,0.5-1.7,0.7-2.2,1.4c-0.1-0.1-0.2-0.2-0.3-0.2c-0.4,0.5-0.9,1.2-1.7,1.1
	c-0.2,0.2-0.5,0.4-0.8,0.5c-0.2,0.3-0.6,0.3-0.8,0.6C-282.2,717.7-282.8,717.3-283.1,716.7L-283.1,716.7z"/>
<path class="st0" d="M-302.2,714.9c2.5,0.1,5.1,0.3,7.5,0.8c0.6,0.4,1.3,0.7,2,0.9c0.1,0.1,0.2,0.2,0.3,0.3c0.9,0,1.5,0.7,2.2,1.1
	c0.1,0.3-0.3,0.5-0.2,0.8c0.4,0.5,1,0.4,1.4,0.9c0,0.1,0,0.2-0.2,0.3c-0.4-0.1-1-0.5-1.2,0c0.4,0.6,1.1,0.2,1.7,0.3
	c0.1,0.1,0.1,0.1,0.2,0.2c-0.3,0.2-0.6,0.3-0.9,0.3c-0.6,0.7-1,1.4-1.7,2c-0.1,0-0.2,0-0.3,0c-0.1,0.2-0.4,0.3-0.6,0.5
	c-0.2,0-0.4,0-0.6,0c-0.5,0.5-1.2,0.4-1.8,0.6c-0.1-0.1-0.2-0.2-0.3-0.2c-0.2,0.4-0.6,0.2-0.9,0.5c-1.6-0.1-3.2,0.2-4.8-0.2
	c-0.2,0-0.5-0.1-0.6,0.2c-1.7-0.1-3.4,0.2-5.1-0.5c0.1-0.1,0.2-0.2,0.2-0.3c-0.2-0.3-0.6-0.3-0.9-0.3c-0.1-0.1-0.2-0.2-0.3-0.3
	c-0.1,0-0.2,0-0.3,0c-0.4-0.2-0.7-0.6-1.2-0.6c-0.5-0.3-0.5-0.7-0.5-1.2c0.1-0.2,0.4-0.3,0.6-0.5c0-0.1,0-0.2,0-0.3
	c-0.2-0.3-0.7-0.5-0.9-0.8c0-0.2,0-0.3,0-0.5c-0.7-0.3-0.9-1-0.8-1.7c0.7-0.4,1.4-1,2.3-0.9c0.5-0.5,1.3-0.6,2-0.8
	c0.2-0.2,0.4-0.4,0.6-0.6c0.9-0.2,1.7,0.1,2.6,0.3C-302.7,715-302.6,714.8-302.2,714.9L-302.2,714.9z"/>
<path class="st0" d="M-295.9,738c-0.4,0.3-0.8,0.6-1.2,0.9c-0.3,0.1-0.6-0.4-0.9,0c0,0.1,0,0.2,0,0.3c-0.2-0.1-0.1-0.3-0.2-0.5
	c-0.1-0.1-0.2-0.2-0.3-0.2c-0.3,0.3-0.6,0.5-0.9,0.8c-0.1,0-0.2,0-0.3,0c0.1-0.9-0.2-1.7-0.2-2.6c-0.5-0.7-1.3,0-1.7,0.5
	c-0.9,0.1-1.2-1-1.2-1.7c0.4-0.8,1.1-1.5,1.2-2.3c1.4-1.7,2.5-3.7,4-5.4c0.7-0.3,1-1.3,1.8-1.2c0.3-0.6,0.8-0.9,1.2-1.2
	c0.7-0.2,1.4-0.4,1.8-0.9c0.1,0,0.2,0,0.3,0c0.3-0.4,0.8-0.5,1.2-0.5c0.2-0.2,0.2-0.3,0.5-0.5c0.1,0.2,0.3,0.1,0.5,0.2
	c0.3-0.4,0.6-0.5,1.1-0.6c0.1-0.1,0.2-0.2,0.2-0.3c0.8-0.2,0.8,0.5,0.9,1.1c0.1,0.1,0.2,0.2,0.3,0.2c0.1-0.1,0.2-0.2,0.2-0.3
	c0.3-0.1,0.1,0.4,0.3,0.3c-0.1,0.1-0.1,0.1-0.2,0.2c0.2,0.4,0.5,0.6,0.8,0.9c0.1,0.7-0.2,1.4-0.6,2c0,0.2,0,0.3,0,0.5
	c-0.3,0.6-0.7,1.1-0.9,1.7c-0.2,0.2-0.4,0.5-0.6,0.6c0,0.2,0,0.3,0,0.5c-0.4,0.6-1.1,1.1-1.4,1.8c-0.5,0-0.4,0.6-0.8,0.8
	c0.1,0.1,0.2,0.2,0.3,0.2c0.1,0.2-0.2,0.3-0.2,0.5c-0.9,1.2-2.1,2.2-3.2,3.2c-0.1-0.1-0.2-0.2-0.3-0.3c-0.3,0.2-0.1,0.4-0.2,0.6
	c-0.2,0.2-0.5,0.2-0.8,0.3C-295.6,737.5-295.5,737.9-295.9,738L-295.9,738z"/>
<path class="st2" d="M-269.4,706.2c0-0.2,0.1-0.3,0.3-0.3c0,0.2,0,0.3,0,0.5C-269.2,706.3-269.3,706.3-269.4,706.2L-269.4,706.2z"/>
<path class="st2" d="M-269.4,705.6c0-0.1,0-0.2,0-0.3c0.1,0,0.2,0,0.3,0c0,0.1,0,0.2,0,0.3C-269.2,705.6-269.3,705.6-269.4,705.6
	L-269.4,705.6z"/>
<path class="st2" d="M-269.6,704.4c0-0.2,0.1-0.3,0.3-0.3c0,0.1,0,0.2,0,0.3C-269.4,704.4-269.5,704.4-269.6,704.4L-269.6,704.4z"/>
<path class="st2" d="M-270,707.3c0-0.3,0.2-0.1,0.3-0.2C-269.7,707.5-269.9,707.2-270,707.3L-270,707.3z"/>
<path class="st3" d="M-301.5,722.4c-0.2,0-0.4,0.1-0.5-0.2c-0.8,0.1-1.6-0.1-2.3,0.2c-0.3-0.3-0.6-0.1-0.9-0.2
	c-0.1,0.2-0.3,0.1-0.5,0.2c-0.1-0.2-0.3-0.1-0.5-0.2c-0.1,0.1-0.2,0.2-0.2,0.3c0.1,0.2,0.4,0.3,0.6,0.5c1.5,0,2.9,0.3,4.3,0.2
	c0.1,0.1,0.1,0.1,0.2,0.2c0.1-0.1,0.1-0.1,0.2-0.2c0.1,0.1,0.1,0.1,0.2,0.2c0.4-0.2,0.9-0.2,1.4-0.3c0.1,0.1,0.2,0.2,0.3,0.2
	c0.3-0.3,0.7-0.1,1.1-0.2c0.1,0.1,0.1,0.1,0.2,0.2c0.4-0.6,1.1-0.5,1.7-0.8C-297.9,721.9-299.7,722.6-301.5,722.4L-301.5,722.4z"/>
<path class="st3" d="M-304.8,719.9c-0.6,0.1-1.2-0.2-1.7,0.2c0.5,0.5,1.4,0.4,2.2,0.5c0.1-0.1,0.2-0.2,0.2-0.3
	C-304.4,720.1-304.4,719.9-304.8,719.9L-304.8,719.9z"/>
<path class="st3" d="M-307.2,722.4c0.2,0,0.4,0.1,0.5-0.2c-0.1-0.2-0.5-0.3-0.5-0.6c0.5-0.1,1.1,0.2,1.5-0.2
	c-0.4-0.6-1.2-0.5-1.8-0.9c-0.4,0.2-0.8,0.2-1.1,0.6C-308.1,721.6-307.8,722.3-307.2,722.4L-307.2,722.4z"/>
<path class="st3" d="M-293,721.8c0.3,0.1,0.3-0.2,0.5-0.3c0.1-0.3-0.2-0.3-0.3-0.5c-0.1,0-0.2,0-0.3,0c-0.1,0.3-0.4,0.4-0.6,0.6
	C-293.5,721.9-293.2,721.7-293,721.8L-293,721.8z"/>
<path class="st3" d="M-295.1,717.8c0.1,0,0.2,0,0.3-0.2c-0.1-0.1-0.2-0.2-0.3-0.3c-0.1,0-0.2,0-0.3,0.2S-295.3,717.7-295.1,717.8
	L-295.1,717.8z"/>
<path class="st3" d="M-295.6,718.6c0-0.1,0-0.2-0.2-0.3c-0.1,0-0.2,0-0.3,0.2c0,0.1,0,0.2,0.2,0.3
	C-295.8,718.7-295.7,718.6-295.6,718.6L-295.6,718.6z"/>
<path class="st3" d="M-291.1,721.2c0-0.1,0-0.2-0.2-0.3c-0.1,0-0.2,0-0.3,0.2C-291.5,721.2-291.3,721.2-291.1,721.2L-291.1,721.2z"
	/>
<path class="st3" d="M-301.9,720.7c-0.1-0.1-0.2-0.2-0.3-0.2c-0.1,0.1-0.1,0.1-0.2,0.2c0.1,0.1,0.1,0.1,0.2,0.2
	C-302.1,720.8-302,720.8-301.9,720.7L-301.9,720.7z"/>
<path class="st3" d="M-295.1,721.6c-0.1-0.1-0.2-0.2-0.3-0.2c-0.1,0.1-0.1,0.1-0.2,0.2c0.1,0.1,0.1,0.1,0.2,0.2
	C-295.3,721.7-295.2,721.7-295.1,721.6L-295.1,721.6z"/>
<path class="st3" d="M-295.1,721.6c-0.1-0.1-0.2-0.2-0.3-0.2c-0.1,0.1-0.1,0.1-0.2,0.2c0.1,0.1,0.1,0.1,0.2,0.2
	C-295.3,721.7-295.2,721.7-295.1,721.6L-295.1,721.6z"/>
<path class="st3" d="M-295.1,721.6c-0.1-0.1-0.2-0.2-0.3-0.2c-0.1,0.1-0.1,0.1-0.2,0.2c0.1,0.1,0.1,0.1,0.2,0.2
	C-295.3,721.7-295.2,721.7-295.1,721.6L-295.1,721.6z"/>
<path class="st3" d="M-293.9,723c-0.1-0.1-0.1-0.1-0.2-0.2c-0.1,0.1-0.1,0.1-0.2,0.2C-294.1,723-294,723-293.9,723L-293.9,723z"/>
<path class="st3" d="M-295.1,721.6c-0.1-0.1-0.2-0.2-0.3-0.2c-0.1,0.1-0.1,0.1-0.2,0.2c0.1,0.1,0.1,0.1,0.2,0.2
	C-295.3,721.7-295.2,721.7-295.1,721.6L-295.1,721.6z"/>
<path class="st3" d="M-287.1,714.2c0.2,0,0.4,0.1,0.5-0.2c-0.1-0.4,0.2-0.8-0.2-1.1c-0.3,0.3-0.7,0.6-0.6,1.1
	C-287.3,714.1-287.2,714.2-287.1,714.2L-287.1,714.2z"/>
<path class="st3" d="M-287.6,710.5c0-0.2,0.1-0.4-0.2-0.5c-0.1,0.1-0.2,0.2-0.3,0.3C-287.9,710.6-287.8,710.6-287.6,710.5
	L-287.6,710.5z"/>
<path class="st3" d="M-289.9,706.1c0.1-0.1,0.2-0.2,0.2-0.3c-0.3-0.3,0.1-1.1-0.6-0.9C-290.8,705.3-290.1,705.7-289.9,706.1
	L-289.9,706.1z"/>
<path class="st3" d="M-278.3,711.8c0.4,0,0.5-0.4,0.8-0.6c-0.1-0.6,0.4-1.1,0.5-1.7c-0.1-0.1-0.2-0.2-0.3-0.3
	c-0.3,0.2-0.3,0.6-0.6,0.8c0,0.1,0,0.2,0,0.3c-0.2,0.6-1.4,1.1-0.8,1.8C-278.6,712.1-278.5,711.9-278.3,711.8L-278.3,711.8z"/>
<path class="st3" d="M-276.8,709c0.2-0.2,0.5-0.5,0.2-0.8c-0.2,0.2-0.3,0.3-0.5,0.5C-277.2,709-276.9,708.9-276.8,709L-276.8,709z"
	/>
<path class="st3" d="M-274.8,707.8c0.1-0.1,0.2-0.2,0.2-0.3c-0.1-0.1-0.1-0.1-0.2-0.2c-0.1,0.2-0.3,0.1-0.5,0.2
	c-0.1,0.1-0.2,0.2-0.2,0.3c0.1,0.1,0.1,0.1,0.2,0.2C-275.1,708-274.9,707.9-274.8,707.8L-274.8,707.8z"/>
<path class="st3" d="M-274.5,711.2c0-0.1,0-0.2-0.2-0.3c-0.1,0.1-0.2,0.2-0.3,0.3c0,0.1,0,0.2,0.2,0.3
	C-274.5,711.5-274.6,711.3-274.5,711.2L-274.5,711.2z"/>
<path class="st3" d="M-270,717.8c0-0.2,0.1-0.4-0.2-0.5c-0.3,0-0.5,0-0.8,0c-0.1,0.1-0.2,0.2-0.2,0.3c0.1,0.1,0.2,0.2,0.3,0.3
	c0.1-0.1,0.1-0.1,0.2-0.2c0.1,0.1,0.1,0.1,0.2,0.2C-270.3,718-270.2,717.9-270,717.8L-270,717.8z"/>
<path class="st3" d="M-269.4,717.3c0-0.1,0-0.2-0.2-0.3c-0.1,0-0.2,0-0.3,0c-0.1,0.1-0.2,0.2-0.3,0.3
	C-270,717.6-269.7,717.5-269.4,717.3L-269.4,717.3z"/>
<path class="st3" d="M-270.9,717.8c0.1,0.1,0.1,0.1,0.2,0.2c0.1-0.1,0.1-0.1,0.2-0.2c0.1,0.2,0.3,0.1,0.5,0.2
	c0.2-0.1,0.1-0.3,0.2-0.5c-0.3-0.3-0.6-0.1-0.9-0.2c-0.1,0.1-0.1,0.1-0.2,0.2S-271,717.7-270.9,717.8L-270.9,717.8z"/>
<path class="st3" d="M-266.8,721.6c0.7,0.1,1.4,0.3,2-0.2c0-0.2,0.1-0.4-0.2-0.5c-1-0.2-2-0.2-3.1-0.2c-0.2,0.2-0.2,0.5-0.5,0.6
	C-268.1,722.1-267.3,721.7-266.8,721.6L-266.8,721.6z"/>
<path class="st3" d="M-268.3,724c0.1,0,0.2,0,0.3,0c0.1-0.1,0.2-0.2,0.2-0.3c-0.2-0.3-0.6-0.5-0.9-0.2
	C-268.5,723.6-268.8,723.9-268.3,724L-268.3,724z"/>
<path class="st3" d="M-271.7,717.3c-0.1-0.1-0.1-0.1-0.2-0.2c-0.1,0.1-0.1,0.1-0.2,0.2C-271.9,717.3-271.8,717.3-271.7,717.3
	L-271.7,717.3z"/>
<path class="st3" d="M-295.4,721.9c-0.1,0.1-0.1,0.1-0.2,0.2c0.1,0.1,0.1,0.1,0.2,0.2C-295.4,722.2-295.4,722.1-295.4,721.9
	L-295.4,721.9z"/>
<path class="st3" d="M-280.2,730.6c0,0.1,0,0.2,0.2,0.3c0.5-0.6-0.2-1.1-0.6-1.5c-0.1,0-0.2,0-0.3,0.2c0.2,0.2,0.3,0.3,0.5,0.5
	C-280.5,730.2-280.5,730.4-280.2,730.6L-280.2,730.6z"/>
<path class="st3" d="M-279,732.9c0.1,0.1,0.2,0.2,0.3,0.3c0.4-0.6,0.1-1.3-0.5-1.5c-0.1,0-0.2,0-0.3,0c-0.1,0.1-0.2,0.2-0.3,0.3
	C-279.4,732.2-279.3,732.7-279,732.9L-279,732.9z"/>
<path class="st3" d="M-277.7,733.8c-0.1-0.1-0.2-0.2-0.3-0.2c-0.1,0.1-0.1,0.1-0.2,0.2c0.1,0.1,0.1,0.1,0.2,0.2
	C-277.9,733.9-277.8,733.9-277.7,733.8L-277.7,733.8z"/>
<path class="st3" d="M-275.9,735.4c0.5,0.5,1.1,0.6,1.7,0.9c0.3-0.2,0.1-0.5,0.2-0.8c-0.8-0.4-1.3-1.2-2-1.7c-0.2,0-0.4-0.2-0.6-0.3
	c-0.1,0.1-0.2,0.2-0.2,0.3C-276.4,734.3-276.6,735.1-275.9,735.4L-275.9,735.4z"/>
<path class="st3" d="M-271.1,738.1c0.4,0,0.7,0,0.9-0.3c0-0.1,0-0.2-0.2-0.3c-0.4,0.1-0.7-0.2-0.9-0.5c-0.4,0-0.7,0.3-0.9,0.6
	C-271.9,738-271.6,738.2-271.1,738.1L-271.1,738.1z"/>
<path class="st0" d="M-295.9,728.7c0.3,0.1,0.3-0.2,0.5-0.3c0.2-1.1,1.5-1.4,2-2.3c0-0.1,0-0.2-0.2-0.3c-0.2,0.3-0.4,0.1-0.6,0.2
	c-0.1,0.1-0.2,0.2-0.2,0.3c-0.9,0.3-1.4,0.9-2,1.5c-0.2-0.1-0.3,0.2-0.5,0.2c-0.6,0.5-0.9,1.3-1.7,1.7c0,0.1,0,0.2,0,0.3
	c-0.3,0.4-0.5,0.8-0.6,1.2c-0.1,0-0.2,0-0.3,0.2c0,0.1,0,0.2,0,0.3c-0.2,0.1-0.3,0.4-0.5,0.6c0,0.1,0,0.2,0.2,0.3
	c0.7-0.5,1.2-1.2,1.8-1.7c0-0.1,0-0.2,0-0.3c0.6-0.1,0.9-0.7,1.4-1.1c0-0.1,0-0.2,0-0.3C-296.4,729-296,729.1-295.9,728.7
	L-295.9,728.7z"/>
<path class="st3" d="M-290.1,729c0-0.1,0-0.2,0-0.3c-0.1-0.1-0.2-0.2-0.3-0.2c-0.3,0.2-0.1,0.4-0.2,0.6c0.1,0.1,0.2,0.2,0.3,0.2
	C-290.2,729.2-290.1,729.1-290.1,729L-290.1,729z"/>
<path class="st3" d="M-293.4,732.7c-0.3,0.4-0.8,0.7-1.2,1.1c0,0.1,0,0.2,0,0.3c-0.4,0.4-0.7,0.7-1.1,1.1c-0.6,0-1.1,0.7-0.6,1.2
	c0.2,0,0.3,0,0.5,0c0.3-0.7,1-0.8,1.5-1.2c0-0.1,0-0.2,0-0.3c0.4-0.9,1.5-1.2,1.8-2.2c0-0.4,0.3,0,0.5-0.2c0.2-0.2,0.3-0.3,0.5-0.5
	c0-0.2,0-0.3,0-0.5c0.3,0.1,0.3-0.2,0.5-0.3c0-0.2,0-0.3,0-0.5c0.2-0.3,0.6-0.3,0.8-0.6c-0.2-0.3-0.5-0.4-0.8-0.3
	c-0.5,0.4-0.8,1.1-1.4,1.4c0,0.2,0.1,0.5-0.2,0.6c-0.1,0-0.2,0-0.3,0C-293.3,732.1-293.3,732.4-293.4,732.7L-293.4,732.7z"/>
<path class="st3" d="M-296.4,734.1c0.2-0.3,0.6-0.5,0.5-0.9c-0.1-0.1-0.2-0.2-0.3-0.2c-0.2,0.2-0.3,0.4-0.3,0.6
	c-0.3-0.1-0.2,0.4-0.5,0.5c0,0.1,0,0.2,0.2,0.3C-296.7,734.4-296.5,734.6-296.4,734.1L-296.4,734.1z"/>
<path class="st3" d="M-293.1,728.1c-0.1-0.1-0.1-0.1-0.2-0.2c-0.1,0.1-0.1,0.1-0.2,0.2C-293.3,728.1-293.2,728.1-293.1,728.1
	L-293.1,728.1z"/>
<path class="st3" d="M-296.4,736.4c-0.1-0.1-0.2-0.2-0.3-0.2c-0.1,0.1-0.1,0.1-0.2,0.2c0.1,0.1,0.1,0.1,0.2,0.2
	C-296.6,736.5-296.5,736.5-296.4,736.4L-296.4,736.4z"/>
<path class="st3" d="M-295.1,750.8c0.1-0.1,0.2-0.2,0.3-0.3c0-0.1,0-0.2-0.2-0.3c-0.2,0-0.4-0.2-0.6-0.3c-0.2,0-0.2,0-0.3,0.2
	c-0.4-0.4-1,0.1-1.2-0.5c-1.6-0.3-3.2-0.2-4.8-0.5c-0.5,0.3-1.2,0-1.5,0.6c0,0.1,0,0.2,0.2,0.3c0.5,0.2,1.2,0,1.4,0.6
	c0.2-0.2,0.2-0.5,0.5-0.6c1.4,0.2,2.8,0.2,4.2,0.5c0,0.2,0,0.2,0.2,0.3c0.3-0.2,0.4-0.3,0.8-0.5C-296,750.6-295.5,750.5-295.1,750.8
	L-295.1,750.8z"/>
<path class="st3" d="M-293.1,751.1c0.1-0.1,0.2-0.2,0.2-0.3c-0.3-0.4-0.5-0.4-0.9-0.3c-0.1-0.1-0.2-0.2-0.3-0.2
	c-0.1,0.1-0.2,0.2-0.3,0.3c0.1,0.1,0.2,0.2,0.3,0.3C-293.8,750.8-293.5,751.1-293.1,751.1L-293.1,751.1z"/>
<path class="st3" d="M-304.8,752.3c0.1-0.2,0.5-0.1,0.5-0.5c-0.4-0.4-0.7,0.1-0.9,0.3c0,0.1,0,0.2,0.2,0.3
	C-305,752.4-304.9,752.4-304.8,752.3L-304.8,752.3z"/>
</svg>
