<?xml version="1.0" encoding="utf-8"?>
<!-- Generator: Adobe Illustrator 19.0.0, SVG Export Plug-In . SVG Version: 6.00 Build 0)  -->
<svg version="1.1" id="Capa_1" xmlns="http://www.w3.org/2000/svg" xmlns:xlink="http://www.w3.org/1999/xlink" x="0px" y="0px"
	 viewBox="0 0 1178.7 457.7" style="enable-background:new 0 0 1178.7 457.7;" xml:space="preserve">
<style type="text/css">
	.st0{fill:#FFFFFF;}
	.st1{fill:#555555;}
</style>
<path class="st0" d="M1178.7,410c-57.3-39-101.4-87.1-135.9-142.1c18.6-12.3,37-22.2,52.7-35.3c64.7-54,60.9-178.6-40.9-213.1
	c-22.9-7.8-47.9-12.5-72-13.2c-66.1-1.9-132.2-0.9-198.3-1c-2.9,0-5.7,0.6-9.3,0.9c0,143.5,0,286.5,0,430c32.1,0,63.5,0,96.5,0
	c0-52.9,0-104.7,0-157.6c20.1,0,38.7,0.5,57.2-0.2c9.2-0.4,14.1,3.1,19.5,10.3c32.1,42.5,63.9,85.4,98.2,126.2
	c13.6,16.2,32.9,27.5,50.1,40.4c3,2.2,9.8,3.2,12.6,1.3C1132.2,441.9,1154.8,426.3,1178.7,410z"/>
<path class="st0" d="M636.4,275.4c-3.4-3.2-4.7-4.2-5.7-5.5c-35.4-43.3-70.8-86.6-105.9-130.1c-4.7-5.9-9-12.5-11.8-19.5
	c-9.1-23,2.1-42,26.8-42.7c13.9-0.3,28.9,2.5,41.8,7.8c18.2,7.5,34.8,18.8,53.1,29c12.8-21.8,26.1-44.7,40-68.4
	C637.9,18.8,598.5-0.3,552.8,0c-21.2,0.1-43.6,2.8-63.4,10c-63,23-84.2,95.6-47.1,156.3c6.3,10.3,13.7,20,20.6,30
	c-10.1,7.5-19.8,14.3-29,21.7c-27.3,22.5-43.9,50.6-48.1,86.4c-7.1,61,23.5,112.2,80.8,129.1c56.1,16.5,109.8,10.2,159.4-22.2
	c3.8-2.5,7.5-5,11.6-7.7c3.5,3.9,7,6.7,9,10.3c10.6,18.1,25.7,23.7,46.5,21.9c23.3-2,46.9-0.5,73-0.5c-26-32.2-50.1-62-74.4-92
	c19.7-33.4,35.2-67.8,43.1-106.1c-26.7-7.5-52.1-14.6-77.3-21.7C650.3,236.1,643.7,254.7,636.4,275.4z"/>
<path class="st0" d="M265.4,435.2c0-5.5,0-10.1,0-14.7c0-48.3-0.3-96.6,0.3-144.9c0.1-7.5,2.6-15.9,6.7-22.2
	c51.4-78.7,103.3-157.1,155-235.7c2.6-4,5.1-8.2,8.6-13.9c-37.9,0-73.5-0.3-109,0.4c-3.8,0.1-8.7,4.5-11,8.2
	c-29.8,47.3-59.3,94.8-88.9,142.2c-2.6,4.1-5.3,8.1-8.7,13.2c-3.2-5-5.6-8.5-7.8-12.1c-29.1-47.3-58-94.6-87.3-141.7
	c-2.5-3.9-6.7-9.6-10.2-9.7C76.2,3.7,39.1,4,0,4c3.4,5.7,5.6,9.6,8.1,13.3C59.4,96,110.9,174.7,162,253.6c3.8,5.9,6.2,14,6.3,21.1
	c0.5,48.7,0.3,97.5,0.3,146.2c0,4.5,0,9.1,0,14.3C201.2,435.2,232.3,435.2,265.4,435.2z"/>
<path class="st1" d="M1178.7,410c-24,16.2-46.5,31.9-69.6,46.7c-2.9,1.8-9.6,0.9-12.6-1.3c-17.2-12.9-36.5-24.3-50.1-40.4
	c-34.2-40.8-66-83.7-98.2-126.2c-5.4-7.2-10.3-10.7-19.5-10.3c-18.6,0.7-37.2,0.2-57.2,0.2c0,52.9,0,104.7,0,157.6
	c-33,0-64.4,0-96.5,0c0-143.5,0-286.5,0-430c3.6-0.4,6.4-0.9,9.3-0.9c66.1,0.1,132.2-0.9,198.3,1c24.2,0.7,49.1,5.4,72,13.2
	c101.8,34.5,105.6,159.1,40.9,213.1c-15.7,13.1-34.1,23-52.7,35.3C1077.3,323,1121.5,371.1,1178.7,410z M871.7,188.8
	c41.3,0,81.9,1.2,122.3-0.8c11-0.5,23.3-8.4,32-16.3c24.1-21.9,17.2-59.6-12.9-72c-11-4.5-23.7-6.5-35.7-7
	c-24.5-1-49.1-0.3-73.7-0.3c-10.5,0-20.9,0-32,0C871.7,125.6,871.7,157.1,871.7,188.8z"/>
<path class="st1" d="M636.4,275.4c7.3-20.7,14-39.3,21.2-59.7c25.2,7.1,50.6,14.2,77.3,21.7c-7.9,38.3-23.4,72.6-43.1,106.1
	c24.2,30,48.3,59.8,74.4,92c-26.2,0-49.7-1.5-73,0.5c-20.8,1.8-36-3.8-46.5-21.9c-2.1-3.6-5.5-6.3-9-10.3c-4,2.7-7.8,5.2-11.6,7.7
	c-49.7,32.4-103.4,38.7-159.4,22.2c-57.3-16.9-88-68.1-80.8-129.1c4.2-35.8,20.8-64,48.1-86.4c9.1-7.5,18.9-14.2,29-21.7
	c-6.9-10.1-14.3-19.7-20.6-30C405.2,105.7,426.4,33,489.4,10c19.8-7.2,42.2-9.9,63.4-10c45.7-0.3,85.1,18.8,121.9,46.2
	c-13.9,23.7-27.2,46.6-40,68.4c-18.3-10.2-35-21.5-53.1-29c-12.9-5.4-27.9-8.2-41.8-7.8c-24.7,0.6-35.9,19.6-26.8,42.7
	c2.8,7,7,13.6,11.8,19.5c35.1,43.5,70.6,86.7,105.9,130.1C631.7,271.2,633,272.2,636.4,275.4z M513.3,255.4
	c-11.5,10.7-23.5,19.5-32.5,30.8c-15.6,19.6-13.2,47.9,3.4,62.4c23.8,20.9,79.4,16.2,100.3-8.7C561.4,312.5,538.3,285,513.3,255.4z"
	/>
<path class="st1" d="M265.4,435.2c-33.1,0-64.3,0-96.9,0c0-5.2,0-9.8,0-14.3c0-48.7,0.3-97.5-0.3-146.2c-0.1-7.1-2.4-15.1-6.3-21.1
	C110.9,174.7,59.4,96,8.1,17.3C5.6,13.5,3.4,9.6,0,4c39.1,0,76.2-0.3,113.3,0.4c3.5,0.1,7.7,5.7,10.2,9.7
	c29.2,47.1,58.2,94.5,87.3,141.7c2.2,3.6,4.5,7.1,7.8,12.1c3.3-5.1,6.1-9.1,8.7-13.2c29.6-47.4,59.1-94.9,88.9-142.2
	c2.3-3.7,7.2-8.1,11-8.2c35.5-0.6,71-0.4,109-0.4c-3.5,5.7-5.9,9.8-8.6,13.9c-51.7,78.5-103.6,156.9-155,235.7
	c-4.1,6.2-6.6,14.7-6.7,22.2c-0.6,48.3-0.3,96.6-0.3,144.9C265.4,425.1,265.4,429.7,265.4,435.2z"/>
<path class="st0" d="M871.7,188.8c0-31.7,0-63.2,0-96.3c11.1,0,21.5,0,32,0c24.6,0,49.1-0.7,73.7,0.3c12,0.5,24.7,2.5,35.7,7
	c30.1,12.4,37,50.1,12.9,72c-8.7,7.9-21,15.8-32,16.3C953.6,190,913,188.8,871.7,188.8z"/>
<path class="st0" d="M513.3,255.4c24.9,29.6,48,57.1,71.1,84.5c-20.8,25-76.5,29.6-100.3,8.7c-16.6-14.6-19-42.8-3.4-62.4
	C489.8,275,501.9,266.1,513.3,255.4z"/>
</svg>
